<?xml version="1.0" encoding="UTF-8" standalone="no"?>
<!-- Created with Inkscape (http://www.inkscape.org/) -->

<svg
   xmlns:dc="http://purl.org/dc/elements/1.1/"
   xmlns:cc="http://creativecommons.org/ns#"
   xmlns:rdf="http://www.w3.org/1999/02/22-rdf-syntax-ns#"
   xmlns:svg="http://www.w3.org/2000/svg"
   xmlns="http://www.w3.org/2000/svg"
   xmlns:sodipodi="http://sodipodi.sourceforge.net/DTD/sodipodi-0.dtd"
   xmlns:inkscape="http://www.inkscape.org/namespaces/inkscape"
   width="200"
   height="200"
   id="svg3273"
   version="1.1"
   inkscape:version="0.48.3.1 r9886"
   sodipodi:docname="Nuevo documento 19">
  <defs
     id="defs3275" />
  <sodipodi:namedview
     id="base"
     pagecolor="#ffffff"
     bordercolor="#666666"
     borderopacity="1.0"
     inkscape:pageopacity="0.0"
     inkscape:pageshadow="2"
     inkscape:zoom="0.49497475"
     inkscape:cx="-63.310093"
     inkscape:cy="235.83387"
     inkscape:document-units="px"
     inkscape:current-layer="layer1"
     showgrid="false"
     inkscape:window-width="1366"
     inkscape:window-height="692"
     inkscape:window-x="0"
     inkscape:window-y="24"
     inkscape:window-maximized="1" />
  <metadata
     id="metadata3278">
    <rdf:RDF>
      <cc:Work
         rdf:about="">
        <dc:format>image/svg+xml</dc:format>
        <dc:type
           rdf:resource="http://purl.org/dc/dcmitype/StillImage" />
        <dc:title></dc:title>
      </cc:Work>
    </rdf:RDF>
  </metadata>
  <g
     inkscape:label="Capa 1"
     inkscape:groupmode="layer"
     id="layer1"
     transform="translate(0,-852.36218)">
    <path
       style="fill:#950003;fill-opacity:1;stroke:none"
       d="m 98.337117,852.48608 c -2.8693,0.0608 -5.77854,0.26868 -8.6875,0.59375 -70.24202,7.84936 -110.39153,82.50914 -78.125,145.24999 14.267,27.74158 43.30374,48.53818 73.90625,52.90628 55.950953,7.9862 107.437063,-32.132 113.750003,-88.62503 6.50138,-58.17933 -40.91348,-109.63408 -98,-110.12499 -0.95144,-0.008 -1.887323,-0.0203 -2.843753,0 z m -0.90625,14.09375 c 0.12035,-0.0176 0.24932,0 0.375,0 l 4.250003,0 c 0.81643,0 1.52284,0.39681 1.96875,1 0.5885,1.03157 0.56524,1.45138 0.59375,2.46875 0.0707,2.5958 0.10398,7.71476 0.125,8.96874 0.10766,6.14166 -0.18872,11.31666 -0.65625,11.5 -0.46754,0.18333 -1.10874,2.18801 -1.40625,4.46875 -0.50499,3.87115 -0.36522,4.18945 2.125,4.6875 12.2202,2.44404 15.02262,21.14211 4.21875,28.1875 -4.71593,3.07533 -9.683333,3.78729 -14.406253,2.0625 -4.73757,-1.73014 -7.10375,-3.80304 -9.125,-8.0625 -4.16639,-8.78001 0.87039,-20.44908 9.5625,-22.1875 2.49023,-0.49805 2.62999,-0.81635 2.125,-4.6875 -0.29751,-2.28074 -0.93871,-4.28542 -1.40625,-4.46875 -0.46753,-0.18334 -0.76497,-5.35834 -0.65625,-11.5 0.20431,-3.25572 -0.13973,-8.66717 0.4375,-10.99999 0.34136,-0.74916 1.03254,-1.31453 1.875,-1.4375 z m -1.65625,1.65625 0,21.12499 0.71875,0 0,-21.12499 z m 1.125,0 0,21.12499 0.6875,0 0,-21.12499 z m 1.09375,0 0,21.12499 0.71875,0 0,-21.12499 z m 1.09375,0 0,21.12499 0.71875,0 0,-21.12499 z m 1.093753,0 0,21.12499 0.71875,0 0,-21.12499 z m 1.125,0 0,21.12499 0.71875,0 0,-21.12499 z m 1.09375,0 0,21.12499 0.71875,0 0,-21.12499 z m 1.09375,0 0,21.12499 0.71875,0 0,-21.12499 z m -3.562503,34.09374 c -12.64342,0 -17.46114,14.9725 -7.375,22.90625 3.63502,2.85931 11.114983,2.85931 14.750003,0 10.08614,-7.93375 5.26842,-22.90625 -7.375003,-22.90625 z m 0,3 c 7.425293,0 11.711363,9.8308 6.750003,15.46875 -5.72008,6.50013 -15.750003,2.51809 -15.750003,-6.25 0,-4.50765 4.59062,-9.21875 9,-9.21875 z m 14.875003,19.53125 c 0.26362,0.0133 0.45299,0.20649 0.59375,0.59375 0.27533,0.75746 5.7096,17.35 12.0625,36.875 0.55826,1.71575 0.78003,2.42489 1.34375,4.15625 l -0.25,0 c 0.7577,2.32267 1.43443,4.42916 2.21875,6.84375 1.79412,5.9863 3.99749,12.41181 5.78125,16.875 2.12175,6.48869 5.46573,16.72448 6.34375,19.37498 2.14079,6.4625 3.72136,11.75 3.53125,11.75 -0.19012,0 -3.36747,-4.8013 -7.0625,-10.6875 -9.88361,-13.00422 -10.09934,-29.88542 -19.875,-42.28123 -0.51069,-0.75033 -1.15306,-1.42711 -1.6875,-1.875 -5.10079,-6.33549 -5.43825,-7.24158 -8.625,-20.5625 l -3.34375,-14.09375 2.28125,-1.5 c 1.26667,-0.825 3.33351,-2.56754 4.5625,-3.875 1.0472,-1.11406 1.68563,-1.61591 2.125,-1.59375 z m -29.906253,0.15625 c 0.47216,0.067 1.37308,0.70473 2.3125,1.625 1.22699,1.20198 3.26349,2.8625 4.53125,3.6875 l 2.3125,1.5 -3.375,14.09375 c -2.42568,11.33554 -5.00398,15.81343 -10.28125,22.4375 -4.3222,5.42772 -5.87934,8.5894 -9.34375,19.0625 -2.12337,7.97274 -6.79536,17.17883 -10.5625,23.21873 -6.74178,10.7396 -8.23014,12.6194 -6.65625,8.4375 0.33168,-0.8813 4.46253,-13.4897 9.46875,-28.87498 l 0.28125,0 c 7.88685,-21.289 11.90936,-42.66095 21,-65.0625 0.0267,-0.0471 0.0699,-0.0787 0.125,-0.0937 0.0482,-0.0134 0.12005,-0.0408 0.1875,-0.0312 z m -44.96875,43.34375 14.40625,0 7.65625,0 c 4.29018,0.0896 6.02842,0.33536 6.5,0.8125 l -1.75,5.9375 c -1.10717,3.7125 -2.41688,6.91042 -2.90625,7.09375 -0.48937,0.18334 -0.90625,1.19584 -0.90625,2.25 0,0.47365 -0.0622,0.83403 -0.15625,1.125 -0.31233,0.41369 -0.58998,0.71481 -0.8125,0.75 -0.22445,-0.045 -0.441,-0.25759 -0.65625,-0.5625 -0.0186,-0.0263 -0.0442,-0.0343 -0.0625,-0.0625 -0.0131,-0.0222 -0.0183,-0.0392 -0.0312,-0.0625 -0.22271,-0.40087 -0.44265,-0.92494 -0.5625,-1.53125 l -0.4375,-2.25 -0.125,2.21875 0,0.0312 c -0.0282,0.44126 -0.0872,0.7898 -0.15625,1.09375 -0.004,0.017 0.004,0.0459 0,0.0625 -0.0317,0.13072 -0.0556,0.27031 -0.0937,0.375 -0.006,0.0191 -0.0247,0.0442 -0.0312,0.0625 -0.0823,0.20584 -0.17823,0.37174 -0.28125,0.46875 -0.22893,0.21557 -0.51667,0.15628 -0.78125,-0.125 -0.0516,-0.0548 -0.10538,-0.11503 -0.15625,-0.1875 -0.0103,-0.016 -0.021,-0.0458 -0.0312,-0.0625 -0.11913,-0.18238 -0.23607,-0.44297 -0.34375,-0.71875 -0.007,-0.0192 -0.0242,-0.0429 -0.0312,-0.0625 -0.10839,-0.28943 -0.19496,-0.61958 -0.28125,-1 -0.0892,-0.41181 -0.16561,-0.89821 -0.21875,-1.40625 l -0.375,-3.375 -0.0312,-0.375 -0.15625,3.71875 0,0.0312 c -0.0235,0.49994 -0.0638,0.94028 -0.125,1.34375 -0.003,0.0184 0.003,0.0443 0,0.0625 -0.061,0.3847 -0.13074,0.74171 -0.21875,1.03125 -0.006,0.0189 -0.0256,0.044 -0.0312,0.0625 -0.0871,0.27151 -0.17649,0.50969 -0.28125,0.6875 -0.01,0.0175 -0.0214,0.0458 -0.0312,0.0625 -0.4528,0.7074 -1.04112,0.54141 -1.46875,-0.65625 -0.10993,-0.30788 -0.22637,-0.67781 -0.3125,-1.125 l -0.4379,-2.21865 -0.125,2.21875 c -0.0187,0.30937 -0.0589,0.5748 -0.125,0.84375 -0.0515,0.20953 -0.1145,0.3908 -0.1875,0.5625 -0.0209,0.0494 -0.0401,0.11029 -0.0625,0.15625 -0.007,0.0135 -0.0245,0.0181 -0.0312,0.0312 -0.004,0.008 0.004,0.0236 0,0.0312 -0.0403,0.0765 -0.0811,0.15526 -0.125,0.21875 -0.0126,0.0186 -0.0184,0.0449 -0.0312,0.0625 -0.0437,0.0579 -0.11011,0.11256 -0.15625,0.15625 -0.12068,0.11426 -0.24706,0.1875 -0.375,0.1875 -0.32772,0 -0.65743,-0.47012 -0.9375,-1.09375 -0.10315,-0.33625 -0.20024,-0.70711 -0.21875,-1.125 -0.0694,-1.56772 -0.0945,-1.96054 -0.40625,-1.15625 l -0.21875,-1.125 -0.125,2.0625 c -0.0562,0.17232 -0.0896,0.26059 -0.15625,0.46875 -0.19203,0.5996 -0.32693,1.0705 -0.4375,1.375 -0.006,0.0167 -0.0254,0.0154 -0.0312,0.0312 -0.092,0.0753 -0.19283,0.16217 -0.3125,0.21875 -0.0407,-0.23999 -0.0632,-0.68616 -0.0937,-1.375 -0.0548,-1.2375 -0.5195,-2.25 -1.03125,-2.25 -0.51175,0 -1.13664,1.0125 -1.375,2.25 l -0.34375,1.71875 -0.125,0 -0.0937,-1.71875 c -0.0749,-1.2375 -0.60625,-2.25 -1.15625,-2.25 -0.55,0 -1.06375,1.0125 -1.15625,2.25 -0.0925,1.2375 -0.47867,-0.45 -0.84375,-3.75 l -0.5625,-5.25 -0.0625,-0.53125 -0.0312,-0.21875 -0.15625,5.5625 0,0.15625 0,0.0312 c -0.0358,1.07341 -0.0811,1.95256 -0.15625,2.6875 -0.002,0.017 0.002,0.0456 0,0.0625 -0.0364,0.34422 -0.0773,0.66128 -0.125,0.9375 -0.003,0.0184 0.003,0.0444 0,0.0625 -0.0479,0.26689 -0.12701,0.51251 -0.1875,0.71875 -0.26177,0.89245 -0.65,1.25 -1.21875,1.25 -0.29792,0 -0.55466,-0.0878 -0.75,-0.34375 -0.005,-0.007 0.005,-0.0245 0,-0.0312 -0.099,-0.13542 -0.17405,-0.33594 -0.25,-0.5625 -0.14798,-0.4414 -0.26851,-1.0627 -0.34375,-1.9375 -0.001,-0.0178 10e-4,-0.0445 0,-0.0625 -0.037,-0.44665 -0.0714,-0.95218 -0.0937,-1.53125 -3.1e-4,-0.008 3.1e-4,-0.023 0,-0.0312 -0.0448,-1.17925 -0.0623,-2.65303 -0.0625,-4.46875 l 0,-0.0312 z m 105.406253,0 14.59375,0 0,8.96875 0,0.0312 c -2.4e-4,1.78155 -0.0186,3.23352 -0.0625,4.40625 -9.2e-4,0.025 9.4e-4,0.069 0,0.0937 -0.003,0.0697 0.003,0.11975 0,0.1875 -0.0214,0.50914 -0.0604,1.00395 -0.0937,1.40625 -0.0204,0.24613 -0.0371,0.41562 -0.0625,0.625 -0.0174,0.14023 -0.0427,0.31293 -0.0625,0.4375 -0.0418,0.26349 -0.10282,0.45791 -0.15625,0.65625 -0.015,0.0558 -0.0152,0.13651 -0.0312,0.1875 -0.008,0.0269 -0.0227,0.0681 -0.0312,0.0937 -0.064,0.18204 -0.1393,0.35045 -0.21875,0.46875 -0.0114,0.0173 -0.0195,0.0464 -0.0312,0.0625 -0.0353,0.0466 -0.0867,0.0888 -0.125,0.125 -0.0531,0.0502 -0.097,0.0933 -0.15625,0.125 -0.11856,0.0634 -0.26133,0.0937 -0.40625,0.0937 -0.79262,0 -1.26345,-0.88726 -1.5625,-3.09375 -0.007,-0.0523 -0.0244,-0.13373 -0.0312,-0.1875 -0.0592,-0.69209 -0.0967,-1.46951 -0.125,-2.4375 l -0.15625,-5.75 -0.1875,1.71875 -0.125,-1.75 -0.125,3.84375 -0.25,2.1875 c -0.36508,3.3 -0.72,4.9875 -0.8125,3.75 -0.0925,-1.2375 -0.582,-2.25 -1.09375,-2.25 -0.51175,0 -1.13664,1.0125 -1.375,2.25 l -0.344,1.71895 c -0.0443,-3.7e-4 -0.0818,6.3e-4 -0.125,0 l -0.0937,-1.71875 c -0.0749,-1.2375 -0.60625,-2.25 -1.15625,-2.25 -0.55,0 -1.03895,1.0125 -1.09375,2.25 -0.0264,0.59678 -0.0277,1.02065 -0.0625,1.28125 -0.15675,-0.0821 -0.28821,-0.16704 -0.40625,-0.28125 -0.1089,-0.30111 -0.26245,-0.70339 -0.4375,-1.25 -0.24529,-0.76593 -0.41293,-1.2453 -0.53125,-1.53125 l -0.1875,-1 -0.0312,0.78125 -0.0312,0.0937 c -0.0451,0.22682 -0.0616,0.67981 -0.0937,1.40625 -0.0137,0.30937 -0.0657,0.60605 -0.125,0.875 -0.0179,0.0814 -0.0411,0.1425 -0.0625,0.21875 -0.0494,0.1505 -0.0952,0.31302 -0.15625,0.4375 -0.20011,0.40781 -0.46288,0.6875 -0.71875,0.6875 -0.38381,0 -0.80224,-0.59941 -1.09375,-1.40625 -0.0939,-0.25979 -0.19099,-0.5146 -0.25,-0.8125 l -0.4375,-2.25 -0.125,2.21875 0,0.0312 c -0.0282,0.44126 -0.0872,0.7898 -0.15625,1.09375 -0.004,0.017 0.004,0.0459 0,0.0625 -0.0317,0.13072 -0.0556,0.27031 -0.0937,0.375 -0.006,0.0191 -0.0247,0.0442 -0.0312,0.0625 -0.0823,0.20584 -0.17823,0.37174 -0.28125,0.46875 -0.22893,0.21557 -0.51667,0.15628 -0.78125,-0.125 -0.0516,-0.0548 -0.10538,-0.11503 -0.15625,-0.1875 -0.0103,-0.016 -0.021,-0.0458 -0.0312,-0.0625 -0.11913,-0.18238 -0.23607,-0.44297 -0.34375,-0.71875 -0.007,-0.0192 -0.0242,-0.0429 -0.0312,-0.0625 -0.10839,-0.28943 -0.19496,-0.61958 -0.28125,-1 -0.0892,-0.41181 -0.16561,-0.89821 -0.21875,-1.40625 l -0.375,-3.375 -0.0312,-0.375 -0.15625,3.71875 0,0.0312 c -0.0235,0.49994 -0.0638,0.94028 -0.125,1.34375 -0.003,0.0184 0.003,0.0443 0,0.0625 -0.061,0.3847 -0.13074,0.74171 -0.21875,1.03125 -0.006,0.0189 -0.0256,0.044 -0.0312,0.0625 -0.0871,0.27151 -0.17649,0.50969 -0.28125,0.6875 -0.01,0.0175 -0.0214,0.0458 -0.0312,0.0625 -0.4528,0.7074 -1.04112,0.54141 -1.46875,-0.65625 -0.1071,-0.29994 -0.22788,-0.66166 -0.3125,-1.09375 l -0.4375,-2.25 -0.125,2.21875 0,0.0312 c -0.003,0.0481 -0.0277,0.0786 -0.0312,0.125 -0.0247,0.29134 -0.0328,0.58151 -0.0937,0.8125 -0.18146,0.68794 -0.51086,1.08569 -0.84375,1.21875 -0.3055,-0.0427 -0.65529,-0.3664 -1.0625,-0.90625 -0.0695,-0.27317 -0.125,-0.60689 -0.125,-1 0,-1.1 -0.36294,-2 -0.8125,-2 -0.44956,0 -1.6288,-2.5875 -2.625,-5.75 -0.99619,-3.1625 -2.01816,-6.3125 -2.28125,-7 -0.3692,-0.96478 2.85096,-1.25 14.125,-1.25 z m -63.281253,0.46875 17.84375,0 17.906253,0 2.40625,3 c 0.93605,1.17314 1.7006,2.30907 2.34375,3.40625 1.2117,2.50861 2.071,5.56665 2.34375,7.84375 0.005,0.0416 0.0267,0.0839 0.0312,0.125 0.001,0.0854 0,0.16421 0,0.25 0,1.72384 -0.41443,2.70312 -0.90625,2.84375 -0.54696,-0.12829 -1.14867,-1.05167 -1.375,-2.1875 -0.002,-0.0105 0.002,-0.0207 0,-0.0312 l -0.43745,-2.2188 -0.125,2.21875 c -0.002,0.0356 0.002,0.0593 0,0.0937 -0.0195,0.26432 -0.0684,0.51558 -0.125,0.75 -0.0298,0.11692 -0.049,0.24558 -0.0937,0.34375 -0.008,0.0223 -0.0233,0.0408 -0.0312,0.0625 -0.21801,0.42439 -0.61042,0.67216 -1.34375,0.8125 -0.34881,-0.36511 -0.61691,-1.14284 -0.65625,-2.03125 -0.0956,-2.15857 -0.13815,-2.14841 -0.90625,0.25 -0.7681,2.39841 -0.7794,2.40857 -0.875,0.25 -0.0548,-1.2375 -0.575,-2.25 -1.125,-2.25 -0.55,0 -1.047,1.0125 -1.125,2.25 -0.078,1.2375 -0.4811,0.45 -0.875,-1.75 l -0.6875,-4 -0.15625,3.75 c -0.0652,1.72433 -0.38245,2.92265 -0.78125,3.4375 -0.81872,-0.2116 -1.23771,-0.57584 -1.46875,-1.25 -0.0485,-0.14144 -0.0867,-0.30043 -0.125,-0.46875 -0.0174,-0.08 -0.0461,-0.13365 -0.0625,-0.21875 -0.002,-0.011 0.002,-0.0202 0,-0.0312 l -0.4376,-2.21875 -0.125,2.21875 c -6.8e-4,0.0112 7.5e-4,0.0201 0,0.0312 -0.0174,0.28772 -0.0688,0.559 -0.125,0.8125 -0.19821,0.80684 -0.58494,1.40625 -0.96875,1.40625 -0.38381,0 -0.80224,-0.59941 -1.09375,-1.40625 -0.0914,-0.25439 -0.19435,-0.52356 -0.25,-0.8125 -0.002,-0.0105 0.002,-0.0207 0,-0.0312 l -0.4375,-2.21875 -0.125,2.21875 c -6.8e-4,0.0112 7.5e-4,0.0201 0,0.0312 -0.0174,0.28772 -0.0688,0.559 -0.125,0.8125 -0.19821,0.80684 -0.58494,1.40625 -0.96875,1.40625 -0.38381,0 -0.80224,-0.59941 -1.09375,-1.40625 -0.0914,-0.25439 -0.19435,-0.52356 -0.25,-0.8125 -0.002,-0.0105 0.002,-0.0207 0,-0.0312 l -0.4375,-2.21875 -0.125,2.21875 c -0.002,0.0356 0.002,0.0593 0,0.0937 -0.0195,0.26432 -0.0684,0.51558 -0.125,0.75 -0.0298,0.11692 -0.049,0.24558 -0.0937,0.34375 -0.008,0.0223 -0.0233,0.0408 -0.0312,0.0625 -0.21801,0.42439 -0.61042,0.67216 -1.34375,0.8125 -0.34881,-0.36511 -0.61691,-1.14284 -0.65625,-2.03125 -0.0956,-2.15857 -0.13815,-2.14841 -0.90625,0.25 -0.61103,1.90795 -0.7989,1.13829 -0.875,-3.25 -0.0548,-3.1625 -0.575,-5.75 -1.125003,-5.75 -0.55,0 -1.03895,2.5875 -1.09375,5.75 -0.0761,4.38829 -0.29522,5.15795 -0.90625,3.25 -0.7681,-2.39841 -0.7794,-2.40857 -0.875,-0.25 -0.0382,0.86332 -0.27973,1.62307 -0.59375,2 -0.92367,-0.1977 -1.34498,-0.5876 -1.59375,-1.28125 -0.0613,-0.18082 -0.14338,-0.36455 -0.1875,-0.5625 -0.0118,-0.0531 -0.0208,-0.10226 -0.0312,-0.15625 -0.002,-0.011 0.002,-0.0202 0,-0.0312 l -0.43765,-2.21875 -0.125,2.21875 c -6.8e-4,0.0112 7.5e-4,0.0201 0,0.0312 -0.0174,0.28772 -0.0688,0.559 -0.125,0.8125 -0.19821,0.80684 -0.58494,1.40625 -0.96875,1.40625 -0.38381,0 -0.80224,-0.59941 -1.09375,-1.40625 -0.0914,-0.25439 -0.19435,-0.52356 -0.25,-0.8125 -0.002,-0.0105 0.002,-0.0207 0,-0.0312 l -0.4375,-2.21875 -0.125,2.21875 c -0.0187,0.30937 -0.0589,0.5748 -0.125,0.84375 -0.19821,0.80684 -0.58494,1.40625 -0.96875,1.40625 -0.38381,0 -0.80224,-0.59941 -1.09375,-1.40625 -0.0939,-0.25979 -0.19099,-0.5146 -0.25,-0.8125 l -0.4375,-2.25 -0.125,2.21875 0,0.0312 c -0.0151,0.23699 -0.0285,0.43542 -0.0625,0.625 -0.001,0.009 10e-4,0.022 0,0.0312 -0.13559,0.71517 -0.48636,1.1036 -1.3125,1.3125 -0.44334,-0.5198 -0.84061,-1.73417 -0.90625,-3.46875 l -0.15625,-3.75 -0.71875,4 c -0.3939,2.2 -0.76575,2.9875 -0.84375,1.75 -0.078,-1.2375 -0.60625,-2.25 -1.15625,-2.25 -0.55,0 -1.03895,1.0125 -1.09375,2.25 -0.0956,2.15857 -0.13815,2.14841 -0.90625,-0.25 -0.7681,-2.39841 -0.7794,-2.40857 -0.875,-0.25 -0.0382,0.86332 -0.27973,1.62307 -0.59375,2 -0.92367,-0.1977 -1.34498,-0.5876 -1.59375,-1.28125 -0.0613,-0.18082 -0.14338,-0.36455 -0.1875,-0.5625 -0.0118,-0.0531 -0.0208,-0.10226 -0.0312,-0.15625 l -0.4375,-2.25 -0.125,2.21875 0,0.0312 c -10e-4,0.0228 0.002,0.0401 0,0.0625 -0.0268,0.38831 -0.0875,0.75052 -0.15625,1.03125 -0.004,0.0191 0.004,0.0439 0,0.0625 -0.0703,0.26874 -0.15162,0.48807 -0.25,0.65625 -0.13228,0.22611 -0.31033,0.35447 -0.46875,0.40625 -0.565,0.002 -1.179,-1.32134 -1.25,-3.5 0.14933,-3.69774 1.58944,-7.07807 4.71875,-11 z"
       id="rect3356"
       inkscape:connector-curvature="0"
       sodipodi:nodetypes="ssssssssssccccssssssscccsccccccccccccccccccccccccccccccccccccccccssssssssccsccccssccccccsccsccccccsccccccsccccscccccccccccccscccccccccccccccccscccccccccccscscccccccssccccssccccccccccccsccccccccccsccccccscscccccccsccccccccssccccssccsccccsccsssccccccccscccccccccccccccccccccccsccssssscccccccsccccccccccsssssccccccccccccscccccccsccccccccccsscscsscccccccccscccccsssccccccccccsssssccccccccccccccccc" />
  </g>
</svg>
