<?xml version="1.0" encoding="UTF-8" standalone="no"?>
<!-- Created with Inkscape (http://www.inkscape.org/) -->

<svg
   xmlns:dc="http://purl.org/dc/elements/1.1/"
   xmlns:cc="http://creativecommons.org/ns#"
   xmlns:rdf="http://www.w3.org/1999/02/22-rdf-syntax-ns#"
   xmlns:svg="http://www.w3.org/2000/svg"
   xmlns="http://www.w3.org/2000/svg"
   xmlns:sodipodi="http://sodipodi.sourceforge.net/DTD/sodipodi-0.dtd"
   xmlns:inkscape="http://www.inkscape.org/namespaces/inkscape"
   width="200"
   height="200"
   id="svg6665"
   version="1.1"
   inkscape:version="0.48.3.1 r9886"
   sodipodi:docname="Nuevo documento 169">
  <defs
     id="defs6667" />
  <sodipodi:namedview
     id="base"
     pagecolor="#ffffff"
     bordercolor="#666666"
     borderopacity="1.0"
     inkscape:pageopacity="0.0"
     inkscape:pageshadow="2"
     inkscape:zoom="1.4"
     inkscape:cx="212.27684"
     inkscape:cy="74.452808"
     inkscape:document-units="px"
     inkscape:current-layer="layer1"
     showgrid="false"
     inkscape:window-width="1366"
     inkscape:window-height="692"
     inkscape:window-x="0"
     inkscape:window-y="24"
     inkscape:window-maximized="1" />
  <metadata
     id="metadata6670">
    <rdf:RDF>
      <cc:Work
         rdf:about="">
        <dc:format>image/svg+xml</dc:format>
        <dc:type
           rdf:resource="http://purl.org/dc/dcmitype/StillImage" />
        <dc:title></dc:title>
      </cc:Work>
    </rdf:RDF>
  </metadata>
  <g
     inkscape:label="Capa 1"
     inkscape:groupmode="layer"
     id="layer1"
     transform="translate(0,-852.36218)">
    <path
       inkscape:connector-curvature="0"
       id="path6704"
       d="m 80.052479,1050.5109 c -19.71257,-4.1902 -36.26046,-13.1867 -50.56313,-27.4894 -39.3673599,-39.36733 -39.3673599,-101.75887 0,-141.12623 39.36736,-39.36736 101.758901,-39.36736 141.126261,0 56.46279,56.46279 27.42314,152.38533 -51.06313,168.66953 -11.59847,2.4065 -28.030841,2.384 -39.500001,-0.054 z m 72.013651,-61.3025 c 0.008,-16.6375 0.285,-31.2625 0.61664,-32.5 l 0.60297,-2.25 -15.36663,-0.20805 -15.36663,-0.20805 14.5,-0.54195 c 7.975,-0.29807 13.9375,-0.90601 13.25,-1.35097 -0.88033,-0.56976 -1.25,-4.20133 -1.25,-12.27987 l 0,-11.47086 -12.75,0.27987 -12.75,0.27988 -0.28174,11.75 c -0.15495,6.4625 -0.60495,11.74189 -1,11.73197 -1.6679,-0.0419 -7.21826,-8.05007 -7.21826,-10.41471 0,-1.72208 -0.54479,-2.56726 -1.6548,-2.56726 -0.91014,0 -3.79951,-1.0125 -6.42082,-2.25 -4.19296,-1.97946 -4.8056,-2.67084 -5.0952,-5.75 -0.21614,-2.29814 -0.84426,-3.5 -1.82918,-3.5 -0.984921,0 -1.613041,1.20186 -1.829181,3.5 -0.2896,3.07916 -0.90224,3.77054 -5.0952,5.75 -2.62131,1.2375 -5.51068,2.25 -6.42082,2.25 -1.11001,0 -1.6548,0.84518 -1.6548,2.56726 0,2.36464 -5.55036,10.37286 -7.21827,10.41471 -0.39504,0.01 -0.84504,-5.26947 -1,-11.73197 l -0.28173,-11.75 -12.75,-0.27988 -12.75,-0.27987 0,11.47086 c 0,8.07854 -0.36967,11.71011 -1.25,12.27987 -0.6875,0.44496 5.275,1.0529 13.25,1.35097 l 14.5,0.54195 -15.36663,0.20805 -15.36663,0.20805 0.60297,2.25 c 0.33164,1.2375 0.60912,15.8625 0.61663,32.5 l 0.0137,30.25 52.000001,0 52,0 0.0137,-30.25 z m -82.381011,0.49961 c 0.13229,-28.67441 0.65913,-35.35784 2.6317,-33.38528 0.57823,0.57824 1.07398,7.50498 1.15849,16.187 0.11706,12.02536 -0.13652,15.28531 -1.22139,15.70161 -0.96497,0.3703 -1.03526,0.73173 -0.23812,1.22439 0.73714,0.45558 1.20897,5.63089 1.35486,14.86087 0.21525,13.6182 0.14626,14.1618 -1.79717,14.1614 -1.98422,-4e-4 -2.01859,-0.5238 -1.88837,-28.74999 z m 2.86736,-6.24961 c 0.33992,-0.55 0.14148,-1 -0.44098,-1 -0.58246,0 -1.05902,0.45 -1.05902,1 0,0.55 0.19844,1 0.44098,1 0.24254,0 0.7191,-0.45 1.05902,-1 z m 6.24084,29.5 c 0.13632,-3.025 -0.17244,-5.5 -0.68613,-5.5 -0.51369,0 -1.1105,-1.6875 -1.32624,-3.75 l -0.39226,-3.75 -0.16811,3.75 c -0.22053,4.9195 -2.1681,4.8746 -2.1681,-0.05 0,-4.11819 1.4509,-6.34794 3.59518,-5.5251 1.08899,0.41788 1.30809,-1.44233 1.12814,-9.57804 -0.12283,-5.55315 -0.53366,-10.09669 -0.91296,-10.09675 -0.37929,-6e-5 -0.86615,-1.68761 -1.08189,-3.75011 l -0.39226,-3.75 -0.16811,3.75 c -0.0925,2.0625 -0.64397,3.75 -1.2256,3.75 -0.62568,0 -0.93193,-1.73543 -0.75,-4.25 0.25091,-3.46784 0.70282,-4.30635 2.45556,-4.55619 1.96101,-0.27953 4.1893,-4.19381 2.38743,-4.19381 -0.77103,0 0.5342,-8.90302 1.43768,-9.8065 0.5657,-0.56571 2.52683,4.35507 2.52683,6.34021 0,0.88448 -0.64718,1.19533 -1.75,0.84057 -1.45149,-0.46692 -1.49769,-0.38469 -0.27082,0.48204 0.93677,0.6618 1.40532,2.43818 1.27777,4.84434 -0.11077,2.08964 0.0486,3.23684 0.35416,2.54934 0.30555,-0.6875 1.41806,-1.25 2.47222,-1.25 1.64348,0 1.89271,0.67704 1.74857,4.75 -0.15402,4.35182 -0.20099,4.43565 -0.56037,1 -0.49531,-4.73517 -2.27153,-4.93066 -2.27153,-0.25 0,1.925 -0.34939,3.5 -0.77643,3.5 -0.42703,0 -0.59728,1.8785 -0.37832,4.17445 0.30606,3.20942 -0.0346,4.51198 -1.47358,5.63453 -1.16432,0.90828 -1.30478,1.26869 -0.37167,0.95364 1.2888,-0.43514 1.5,1.58757 1.5,14.36558 0,14.2141 -0.0886,14.8721 -2.00351,14.8719 -1.79185,-10e-5 -1.97732,-0.5811 -1.75565,-5.5001 z m 2.75916,-29.5 c 0.33992,-0.55 0.14148,-1 -0.44098,-1 -0.58246,0 -1.05902,0.45 -1.05902,1 0,0.55 0.19844,1 0.44098,1 0.24254,0 0.7191,-0.45 1.05902,-1 z m 6.16773,9.93578 c 0.0923,-13.78553 0.41562,-25.71061 0.71861,-26.50019 0.30299,-0.78957 0.22751,-1.43519 -0.16773,-1.4347 -0.39523,4.9e-4 -0.56922,-4.55262 -0.38663,-10.11802 0.20873,-6.3622 -0.0697,-10.5206 -0.75,-11.20089 -1.68858,-1.68858 -1.27638,-3.23489 0.91802,-3.44389 4.44982,-0.42379 5,-0.62055 5,-1.78812 0,-0.66919 0.9,-1.45206 2,-1.73972 1.36315,-0.35647 2,-0.0307 2,1.02313 0,2.28292 -3.02612,4.17842 -7,4.38465 -2.66368,0.13823 -2.90172,0.2755 -0.99619,0.57447 2.32461,0.36472 2.47719,0.72764 2.13177,5.07074 -0.31902,4.01107 -0.1639,4.50515 1.08819,3.46601 2.00268,-1.66208 2.80026,-0.55 2.64459,3.68742 l -0.13164,3.58333 -0.73672,-3.5 -0.73672,-3.5 -0.13164,3.25 c -0.0724,1.7875 -0.53113,3.25 -1.01938,3.25 -0.48826,0 -0.78098,6.54053 -0.65047,14.53452 0.20233,12.3941 0.002,14.68781 -1.36226,15.5755 -1.25889,0.8193 -1.28009,0.94571 -0.0995,0.59357 1.28615,-0.38364 1.5,1.67284 1.5,14.42461 0,14.2054 -0.0897,14.8721 -2,14.8721 -1.95127,10e-5 -1.99591,-0.6107 -1.83227,-25.06452 z m 3.33227,-9.93578 c 0,-0.55 -0.45,-1 -1,-1 -0.55,0 -1,0.45 -1,1 0,0.55 0.45,1 1,1 0.55,0 1,-0.45 1,-1 z m 2,25.5 c 0,-11.00689 1.37459,-13.5 7.443301,-13.5 5.3081,0 6.5567,2.61319 6.5567,13.7225 l 0,9.2775 -7,0 -7.000001,0 0,-9.5 z m 15.609901,-19.77463 c 0.0604,-16.10094 -0.10313,-30.7259 -0.3635,-32.4999 -0.53824,-3.66729 -2.2464,-4.3975 -2.2464,-0.96032 0,2.02121 -0.53846,2.28963 -5,2.49243 l -5.000001,0.22727 0,-3.27999 c 0,-3.18061 0.12876,-3.28221 4.250001,-3.35347 9.43333,-0.16312 8.99882,0.0549 8.58285,-4.30695 -0.34165,-3.58252 -0.13936,-3.99278 2.14496,-4.35017 1.94218,-0.30386 1.71733,-0.43637 -0.97781,-0.57624 -3.97388,-0.20623 -7,-2.10173 -7,-4.38465 0,-1.05381 0.63685,-1.3796 2,-1.02313 1.1,0.28766 2,1.07053 2,1.73972 0,1.16757 0.55018,1.36433 5,1.78812 2.0635,0.19653 2.72093,2.19832 1.05925,3.22529 -0.56586,0.34972 -0.86473,15.31724 -0.75,37.55926 0.18764,36.37486 0.15814,36.97786 -1.80925,36.97756 -1.95695,-4e-4 -1.99763,-0.6305 -1.8901,-29.27483 z m 9.06733,23.77463 c 0.13732,-3.0321 -0.18309,-5.5 -0.71408,-5.5 -0.52973,0 -0.96315,-1.575 -0.96315,-3.5 0,-4.68066 -1.77622,-4.48517 -2.27153,0.25 -0.3641,3.4807 -0.40434,3.4131 -0.56037,-0.941 -0.17861,-4.98436 1.02265,-6.72551 3.32298,-4.8164 1.1915,0.98885 1.37368,-0.43296 1.2062,-9.4138 -0.10851,-5.81823 -0.50762,-10.57864 -0.88691,-10.57869 -0.3793,-6e-5 -0.86616,-1.68761 -1.0819,-3.75011 l -0.39226,-3.75 -0.16811,3.75 c -0.24213,5.40138 -2.1681,4.63158 -2.1681,-0.86658 0,-4.41154 0.11347,-4.59488 2.55482,-4.12819 2.48404,0.47485 2.54343,0.36097 2.14359,-4.1101 -0.22618,-2.52916 0.10664,-5.83017 0.73962,-7.33557 l 1.15085,-2.73708 1.05645,2.79886 c 0.58105,1.53937 0.87537,4.82378 0.65404,7.29869 -0.37246,4.1648 -0.23106,4.49352 1.8991,4.41491 2.00893,-0.0741 2.34062,0.45537 2.60903,4.16506 0.37967,5.24749 -1.53428,5.70779 -2.07903,0.5 l -0.39226,-3.75 -0.16811,3.75 c -0.0924,2.0625 -0.5056,3.75005 -0.9181,3.75011 -0.4125,5e-5 -0.83938,4.79193 -0.94862,10.64861 -0.14113,7.56637 0.11123,10.33867 0.87186,9.57804 2.10275,-2.10275 3.82676,-0.1294 3.82676,4.38024 0,5.3581 -1.72718,5.847 -2.27153,0.643 l -0.39226,-3.75 -0.16811,3.75 c -0.0924,2.0625 -0.60152,3.75 -1.13125,3.75 -0.53099,0 -0.8514,2.4679 -0.71408,5.5 0.22539,4.9771 0.0521,5.5 -1.82277,5.5 -1.87485,0 -2.04816,-0.5229 -1.82277,-5.5 z m 8.94074,-22.76085 c 0.11952,-28.6331 0.67699,-35.84419 2.62074,-33.90044 0.61013,0.61013 1.09715,7.27828 1.18412,16.21262 0.11706,12.02536 -0.13652,15.28531 -1.22139,15.70161 -0.96497,0.3703 -1.03526,0.73173 -0.23812,1.22439 0.73714,0.45558 1.20897,5.63089 1.35486,14.86087 0.21525,13.6181 0.14626,14.1618 -1.79717,14.1616 -1.98312,-2e-4 -2.0188,-0.5301 -1.90304,-28.26065 z m 2.88203,-6.73915 c 0.33992,-0.55 0.14148,-1 -0.44098,-1 -0.58246,0 -1.05902,0.45 -1.05902,1 0,0.55 0.19844,1 0.44098,1 0.24254,0 0.7191,-0.45 1.05902,-1 z m -69.833331,28.3333 c -0.36667,-0.3666 -0.66667,-2.6166 -0.66667,-5 l 0,-4.3333 4,0 4,0 0,5 c 0,5 0,5 -3.33333,5 -1.83334,0 -3.63334,-0.3 -4,-0.6667 z m 6.33333,-4.3333 c 0,-3.7778 -0.16667,-4 -3,-4 -2.83333,0 -3,0.2222 -3,4 0,3.7778 0.16667,4 3,4 2.83333,0 3,-0.2222 3,-4 z m -5,-0.5 c 0,-1.8333 0.53333,-2.5 2,-2.5 1.46667,0 2,0.6667 2,2.5 0,1.8333 -0.53333,2.5 -2,2.5 -1.46667,0 -2,-0.6667 -2,-2.5 z m 71.000001,0.5 0,-5 4,0 4,0 0,5 0,5 -4,0 -4,0 0,-5 z m 7,0 c 0,-3.7778 -0.16667,-4 -3,-4 -2.83333,0 -3,0.2222 -3,4 0,3.7778 0.16667,4 3,4 2.83333,0 3,-0.2222 3,-4 z m -5,-0.5 c 0,-1.8333 0.53333,-2.5 2,-2.5 1.46667,0 2,0.6667 2,2.5 0,1.8333 -0.53333,2.5 -2,2.5 -1.46667,0 -2,-0.6667 -2,-2.5 z m -50.614291,-4 c 0.0852,-3.72698 0.4962,-5 1.61429,-5 1.11809,0 1.5291,1.27302 1.61429,5 0.0822,3.5975 -0.005,3.9482 -0.31037,1.25 -0.23356,-2.0625 -0.82032,-3.75 -1.30392,-3.75 -0.4836,0 -1.07036,1.6875 -1.30392,3.75 -0.30554,2.6982 -0.3926,2.3475 -0.31037,-1.25 z m -23.98373,-16.89484 c -0.29439,-0.76716 -0.39276,-3.12966 -0.21862,-5.25 0.30116,-3.6667 0.49996,-3.87033 4.06664,-4.16553 l 3.75,-0.31036 0,5.56036 0,5.56037 -3.53139,0 c -2.09818,0 -3.74861,-0.56609 -4.06663,-1.39484 z m 6.59802,-4.17158 c 0,-4.3916 -0.10529,-4.55431 -2.75,-4.25 -2.46072,0.28313 -2.78235,0.76349 -3.0575,4.56642 -0.29956,4.14036 -0.22862,4.25 2.75,4.25 2.96362,0 3.0575,-0.1402 3.0575,-4.56642 z m -5,0.0664 c 0,-1.83333 0.53333,-2.5 2,-2.5 1.46667,0 2,0.66667 2,2.5 0,1.83333 -0.53333,2.5 -2,2.5 -1.46667,0 -2,-0.66667 -2,-2.5 z m 71.197741,0.25 0.30226,-5.25 3.75,-0.31037 3.75,-0.31036 0,5.56036 0,5.56037 -4.05226,0 -4.05226,0 0.30226,-5.25 z m 6.80226,-0.25 c 0,-4.33333 -0.11111,-4.5 -3,-4.5 -2.88889,0 -3,0.16667 -3,4.5 0,4.33333 0.11111,4.5 3,4.5 2.88889,0 3,-0.16667 3,-4.5 z m -5,0 c 0,-1.83333 0.53333,-2.5 2,-2.5 1.46667,0 2,0.66667 2,2.5 0,1.83333 -0.53333,2.5 -2,2.5 -1.46667,0 -2,-0.66667 -2,-2.5 z m -38.825691,-3.81445 c -2.8208,-3.00261 -2.76512,-6.78189 0.14014,-9.51124 3.00261,-2.8208 6.781891,-2.76512 9.511241,0.14014 2.8208,3.00261 2.76512,6.78189 -0.14014,9.51124 -3.00261,2.8208 -6.781891,2.76512 -9.511241,-0.14014 z m 7.785821,-2.13751 c 2.65646,-3.20083 -1.24523,-8.11777 -4.710131,-5.93574 -3.46233,2.18041 -2.22883,7.3877 1.750001,7.3877 0.96531,0 2.29737,-0.65338 2.96013,-1.45196 z M 83.052479,955.12441 c 0,-2.03901 0.57398,-3.67229 1.40223,-3.99012 2.03892,-0.7824 2.61432,0.20706 2.46613,4.24078 l -0.13164,3.58333 -0.73672,-3.5 c -0.6451,-3.06475 -0.75309,-3.16535 -0.86836,-0.80902 -0.19984,4.08519 -2.13164,4.51568 -2.13164,0.47503 z m 30.000001,0 c 0,-2.03901 0.57398,-3.67229 1.40223,-3.99012 2.03892,-0.7824 2.61432,0.20706 2.46613,4.24078 l -0.13164,3.58333 -0.73672,-3.5 c -0.6451,-3.06475 -0.75309,-3.16535 -0.86836,-0.80902 -0.19984,4.08519 -2.13164,4.51568 -2.13164,0.47503 z m -15.041651,-7.2162 c -1.06278,-1.28057 -0.99712,-1.83962 0.37755,-3.21428 1.55213,-1.55213 1.776071,-1.55213 3.328201,0 1.37467,1.37466 1.44033,1.93371 0.37755,3.21428 -0.7076,0.8526 -1.62634,1.55019 -2.04165,1.55019 -0.415311,0 -1.334061,-0.69759 -2.041651,-1.55019 z m -40.75216,-8.69981 c 0.26961,-6.65277 0.47916,-7.27632 2.54381,-7.56955 2.16331,-0.30724 2.25,-0.0279 2.25,7.25 0,7.44228 -0.0428,7.56955 -2.54381,7.56955 -2.51818,0 -2.54085,-0.073 -2.25,-7.25 z m 3.79381,-2.75 c 0,-1.11111 -0.66667,-2 -1.5,-2 -0.83333,0 -1.5,0.88889 -1.5,2 0,1.11111 0.66667,2 1.5,2 0.83333,0 1.5,-0.88889 1.5,-2 z m 4.20476,2.82079 c 0.26885,-6.66654 0.49123,-7.34868 2.48828,-7.63288 1.78898,-0.25458 2.30904,0.30626 2.82265,3.04401 0.34628,1.84585 0.48441,5.13629 0.30696,7.31208 -0.285,3.49437 -0.64883,3.99343 -3.11789,4.27679 l -2.79524,0.32078 0.29524,-7.32078 z m 3.79524,-2.82079 c 0,-1.11111 -0.66667,-2 -1.5,-2 -0.83333,0 -1.5,0.88889 -1.5,2 0,1.11111 0.66667,2 1.5,2 0.83333,0 1.5,-0.88889 1.5,-2 z m 60.666671,9.33333 c -0.83382,-0.83381 -0.84916,-9.05003 -0.0227,-12.1358 0.43795,-1.63513 1.23104,-2.2148 2.73634,-2 1.90446,0.27176 2.14948,1.03849 2.41346,7.55247 0.28567,7.04915 0.22795,7.25 -2.08333,7.25 -1.30743,0 -2.67715,-0.3 -3.04381,-0.66667 z m 4.33333,-9.33333 c 0,-1.11111 -0.66667,-2 -1.5,-2 -0.83333,0 -1.5,0.88889 -1.5,2 0,1.11111 0.66667,2 1.5,2 0.83333,0 1.5,-0.88889 1.5,-2 z m 4,2.43045 c 0,-7.27792 0.0867,-7.55724 2.25,-7.25 2.06465,0.29323 2.2742,0.91678 2.54381,7.56955 0.29085,7.17696 0.26818,7.25 -2.25,7.25 -2.50104,0 -2.54381,-0.12727 -2.54381,-7.56955 z m 4,-2.43045 c 0,-1.11111 -0.66667,-2 -1.5,-2 -0.83333,0 -1.5,0.88889 -1.5,2 0,1.11111 0.66667,2 1.5,2 0.83333,0 1.5,-0.88889 1.5,-2 z m -44.000001,1.5 c 0,-0.83333 0.88889,-1.5 2.000001,-1.5 1.11111,0 2,0.66667 2,1.5 0,0.83333 -0.88889,1.5 -2,1.5 -1.111111,0 -2.000001,-0.66667 -2.000001,-1.5 z m -26.75,-11.24251 c -3.9875,-0.18981 -10.5125,-0.18981 -14.5,0 -3.9875,0.18982 -0.725,0.34512 7.25,0.34512 7.975,0 11.2375,-0.1553 7.25,-0.34512 z m 72.000001,0 c -3.9875,-0.18981 -10.5125,-0.18981 -14.5,0 -3.9875,0.18982 -0.725,0.34512 7.25,0.34512 7.975,0 11.2375,-0.1553 7.25,-0.34512 z M 75.052479,923.9584 c 0,-1.24638 -1.94444,-1.5 -11.5,-1.5 -9.55556,0 -11.5,0.25362 -11.5,1.5 0,1.24638 1.94444,1.5 11.5,1.5 9.55556,0 11.5,-0.25362 11.5,-1.5 z m 73.000001,0 c 0,-1.24638 -1.94444,-1.5 -11.5,-1.5 -9.55556,0 -11.5,0.25362 -11.5,1.5 0,1.24638 1.94444,1.5 11.5,1.5 9.55556,0 11.5,-0.25362 11.5,-1.5 z m -74.000001,-9.5 0,-7 -10.5,0 -10.5,0 0,7 0,7 10.5,0 10.5,0 0,-7 z m -15,1 c 0,-3.77778 0.36667,-5 1.5,-5 1.13333,0 1.5,1.22222 1.5,5 0,3.77778 -0.36667,5 -1.5,5 -1.13333,0 -1.5,-1.22222 -1.5,-5 z m 6,0.0733 c 0,-3.81394 0.36762,-5.07332 1.48095,-5.07332 3.09792,0 3.35086,9.22573 0.26905,9.81311 -1.48054,0.28218 -1.75,-0.44765 -1.75,-4.73979 z m 82.000001,-1.07332 0,-7 -10.5,0 -10.5,0 0,7 0,7 10.5,0 10.5,0 0,-7 z m -15.33333,5.33333 c -0.83301,-0.83301 -0.87002,-5.63983 -0.0597,-7.75154 0.33386,-0.86999 1.23386,-1.58179 2.00002,-1.58179 1.00495,0 1.39301,1.3929 1.39301,5 0,3.5 -0.4,5 -1.33333,5 -0.73334,0 -1.63334,-0.3 -2,-0.66667 z m 6.33333,-4.33331 c 0,-3.77778 0.36667,-5 1.5,-5 1.13333,0 1.5,1.22222 1.5,5 0,3.77778 -0.36667,5 -1.5,5 -1.13333,0 -1.5,-1.22222 -1.5,-5 z m -68.713491,-9.73598 c -2.86742,-0.2013 -7.81742,-0.20315 -11,-0.004 -3.18258,0.19905 -0.83651,0.36376 5.21349,0.36602 6.05,0.002 8.65393,-0.16061 5.78651,-0.36191 z m 73.000001,0 c -2.86742,-0.2013 -7.81742,-0.20315 -11,-0.004 -3.18258,0.19905 -0.83651,0.36376 5.21349,0.36602 6.05,0.002 8.65393,-0.16061 5.78651,-0.36191 z M 72.552479,903.4584 c -0.33992,-0.55 -4.38992,-1 -9,-1 -4.61008,0 -8.66008,0.45 -9,1 -0.39566,0.64019 2.84262,1 9,1 6.15738,0 9.39566,-0.35981 9,-1 z m 73.000001,0 c -0.33992,-0.55 -4.38992,-1 -9,-1 -4.61008,0 -8.66008,0.45 -9,1 -0.39566,0.64019 2.84262,1 9,1 6.15738,0 9.39566,-0.35981 9,-1 z m -85.500001,-5.5 c 0,-1.925 0.45,-3.5 1,-3.5 0.55,0 1,1.575 1,3.5 0,2.44444 0.45238,3.5 1.5,3.5 1.04762,0 1.5,-1.05556 1.5,-3.5 0,-1.925 0.45,-3.5 1,-3.5 0.55,0 1,1.575 1,3.5 0,2.83333 0.38095,3.5 2,3.5 1.79406,0 2,-0.66667 2,-6.47432 0,-6.12171 -0.15679,-6.5554 -2.87882,-7.96302 -1.58335,-0.81878 -3.18627,-2.2899 -3.56204,-3.26915 -0.63336,-1.65051 -0.80643,-1.62526 -2.37118,0.34597 -0.92838,1.16954 -2.70046,2.64494 -3.93796,3.27866 -1.98249,1.01524 -2.25,1.92086 -2.25,7.61704 0,5.79815 0.20624,6.46482 2,6.46482 1.61905,0 2,-0.66667 2,-3.5 z m 73.000001,0 c 0,-1.925 0.45,-3.5 1,-3.5 0.55,0 1,1.575 1,3.5 0,2.44444 0.45238,3.5 1.5,3.5 1.04762,0 1.5,-1.05556 1.5,-3.5 0,-1.925 0.45,-3.5 1,-3.5 0.55,0 1,1.575 1,3.5 0,2.83333 0.38095,3.5 2,3.5 1.79406,0 2,-0.66667 2,-6.47432 0,-6.12171 -0.15679,-6.5554 -2.87882,-7.96302 -1.58335,-0.81878 -3.18627,-2.2899 -3.56204,-3.26915 -0.6375,-1.66128 -0.79622,-1.6427 -2.37119,0.27743 -0.92837,1.13185 -2.92545,2.82678 -4.43795,3.76653 -2.50269,1.55497 -2.75,2.24616 -2.75,7.68558 0,5.70875 0.11218,5.97695 2.5,5.97695 2.19048,0 2.5,-0.43333 2.5,-3.5 z"
       style="fill:#950003;fill-opacity:1" />
  </g>
</svg>
