<?xml version="1.0" encoding="UTF-8" standalone="no"?>
<!-- Created with Inkscape (http://www.inkscape.org/) -->

<svg
   xmlns:dc="http://purl.org/dc/elements/1.1/"
   xmlns:cc="http://creativecommons.org/ns#"
   xmlns:rdf="http://www.w3.org/1999/02/22-rdf-syntax-ns#"
   xmlns:svg="http://www.w3.org/2000/svg"
   xmlns="http://www.w3.org/2000/svg"
   xmlns:sodipodi="http://sodipodi.sourceforge.net/DTD/sodipodi-0.dtd"
   xmlns:inkscape="http://www.inkscape.org/namespaces/inkscape"
   width="200"
   height="200"
   id="svg4762"
   version="1.1"
   inkscape:version="0.48.3.1 r9886"
   sodipodi:docname="Nuevo documento 76">
  <defs
     id="defs4764" />
  <sodipodi:namedview
     id="base"
     pagecolor="#ffffff"
     bordercolor="#666666"
     borderopacity="1.0"
     inkscape:pageopacity="0.0"
     inkscape:pageshadow="2"
     inkscape:zoom="0.98994949"
     inkscape:cx="124.86647"
     inkscape:cy="160.64653"
     inkscape:document-units="px"
     inkscape:current-layer="layer1"
     showgrid="false"
     inkscape:window-width="1366"
     inkscape:window-height="692"
     inkscape:window-x="0"
     inkscape:window-y="24"
     inkscape:window-maximized="1" />
  <metadata
     id="metadata4767">
    <rdf:RDF>
      <cc:Work
         rdf:about="">
        <dc:format>image/svg+xml</dc:format>
        <dc:type
           rdf:resource="http://purl.org/dc/dcmitype/StillImage" />
        <dc:title></dc:title>
      </cc:Work>
    </rdf:RDF>
  </metadata>
  <g
     inkscape:label="Capa 1"
     inkscape:groupmode="layer"
     id="layer1"
     transform="translate(0,-852.36218)">
    <path
       inkscape:connector-curvature="0"
       id="path4783"
       d="m 85.433747,1051.2326 c -30.6025,-4.3681 -59.65421,-25.1581 -73.92121,-52.8997 -32.26653,-62.74085 7.90179,-137.40714 78.1438,-145.25649 62.057953,-6.9348 116.468703,47.47595 109.533903,109.5339 -6.31294,56.49309 -57.80554,96.60849 -113.756493,88.62229 z m 27.500003,-23.4349 c 0,-0.2943 -0.73539,-1.7568 -1.63419,-3.25 -1.31908,-2.1913 -1.11228,-2.0881 1.07248,0.5352 2.44433,2.935 3.23271,3.25 8.13419,3.25 3.55474,0 5.42752,-0.4141 5.42752,-1.2 0,-0.9333 0.26667,-0.9333 1.2,0 0.66,0.66 3.18314,1.2 5.60699,1.2 3.80508,0 4.30853,-0.239 3.68611,-1.75 -0.39648,-0.9625 -1.06409,-5.0558 -1.48358,-9.0962 -0.97039,-9.3467 -3.10986,-12.5336 -8.69596,-12.9533 -5.54585,-0.4167 -7.024,1.4849 -5.39101,6.9353 0.67106,2.2398 1.4401,4.813 1.70898,5.7183 0.26888,0.9052 -0.55072,-0.3791 -1.82133,-2.8541 -2.54592,-4.9592 -7.0859,-7.8249 -13.82924,-8.7294 -5.1258,-0.6875 -5.94392,1.2251 -2.73185,6.3863 3.80165,6.1087 4.16186,7.1076 1.20547,3.3431 -5.403213,-6.8802 -42.804893,-42.8028 -44.062673,-42.32015 -2.17369,0.83412 -7.64284,15.38568 -7.77255,20.68012 -0.13425,5.47938 0.16672,5.76878 7.88064,7.57763 6.84061,1.6041 16.42161,6.5408 34.06811,17.5538 13.645293,8.5159 17.431893,10.4651 17.431893,8.9734 z m 26.511,-19.1187 c 1.70879,-1.7088 1.59032,-4.1526 -0.6106,-12.5961 -1.18982,-4.56457 -2.45282,-4.7368 -4.69691,-0.64049 -0.93692,1.71024 -2.43685,4.05498 -3.33319,5.21059 -1.54332,1.9896 -1.46381,2.3009 1.5,5.8724 3.4857,4.2004 4.72126,4.5731 7.1407,2.1536 z m -11.72776,-13.74711 c 6.29901,-3.20645 9.18839,-6.50522 9.81495,-11.20559 0.28544,-2.14137 0.98716,-5.75611 1.55937,-8.03275 1.02692,-4.08569 1.07476,-4.12141 3.69142,-2.75616 5.16383,2.69426 10.49795,1.24341 12.23605,-3.32813 1.2406,-3.26302 -0.0948,-4.87669 -2.82605,-3.41496 -1.61916,0.86655 -2.48724,0.49527 -5.0441,-2.15736 -2.92383,-3.03334 -3.05953,-3.52369 -2.54725,-9.20404 0.41264,-4.57547 0.067,-7.23932 -1.45576,-11.21993 -1.76818,-4.62211 -1.84628,-5.65284 -0.68193,-9 1.61137,-4.63224 0.87706,-5.54398 -3.46264,-4.29937 -3.3038,0.94752 -5.0673,0.64368 -5.0673,-0.87305 0,-0.86115 1.3355,-1.15379 6.5,-1.42432 4.02602,-0.21088 3.97847,-0.0758 2,-5.68333 -0.825,-2.3383 -1.5,-5.5345 -1.5,-7.10267 0,-8.01348 -17.86336,-9.13269 -34.34174,-2.15165 -12.966313,5.49317 -17.595783,10.14757 -19.773893,19.88042 -0.99663,4.45337 -1.78768,5.78966 -4.15076,7.01165 -1.60571,0.83035 -3.01385,1.36404 -3.1292,1.18599 -0.11535,-0.17806 -0.9496,-1.50887 -1.85388,-2.95737 -0.90428,-1.4485 -3.0831,-3.13526 -4.84184,-3.74836 -3.06285,-1.06771 -3.40245,-0.90996 -8.05319,3.74078 -5.32316,5.32316 -5.99558,8.03587 -3.28918,13.26945 1.54535,2.98839 8.05405,6.80425 11.68368,6.8498 0.9625,0.0121 1.75,0.45044 1.75,0.97413 0,1.14179 -8.45661,-1.25631 -10.54646,-2.99073 -2.00357,-1.66281 -1.87134,-0.15313 0.55446,6.33039 3.46812,9.2694 11.81267,16.99376 22.992,21.28317 2.475,0.94964 5.85,2.71882 7.5,3.93152 7.022763,5.16152 17.500933,9.21935 24.283243,9.40406 1.80579,0.0492 5.40579,-0.99104 8,-2.31159 z m -13.28324,-21.74506 c -2.52647,-1.49441 -3.4653,-2.87897 -3.48469,-5.13911 -0.0125,-1.45612 0.34124,-1.59437 1.91895,-0.75 3.44953,1.84613 5.56968,1.11633 10.06574,-3.46482 4.49729,-4.5824 7.30833,-5.47572 11.00505,-3.4973 1.25242,0.67028 2.07903,0.67028 2.49328,0 1.28384,-2.07729 4.22877,-0.8564 8.54346,3.54191 3.45025,3.51711 4.96692,4.41716 6.70821,3.98094 2.52225,-0.63186 2.70638,-0.24683 1.21482,2.54019 -1.72291,3.21929 -8.4112,2.62753 -12.68172,-1.12204 -3.28054,-2.88035 -3.60476,-2.96479 -5.63201,-1.46689 -6.50943,4.8097 -16.57126,7.49461 -20.15109,5.37712 z m -10.5,-41.40394 c 0,-0.64768 6.1373,-3.62898 9.39246,-4.56255 3.31457,-0.9506 15.60754,0.87418 15.60754,2.3168 0,1.82872 -3.30834,1.97256 -8.41626,0.36592 -5.10464,-1.60561 -5.56914,-1.59285 -10.95718,0.30089 -3.09461,1.08767 -5.62656,1.79819 -5.62656,1.57894 z m -49.564753,50.65479 c 0.62248,-1.00718 -1.67528,-2.10478 -4.40624,-2.10478 -0.99409,0 -2.81792,-0.81824 -4.05296,-1.81832 -6.03768,-4.88901 0.75509,-23.97726 13.47027,-37.85261 21.76335,-23.74907 53.646573,-38.36073 81.053683,-37.14584 10.32457,0.45766 16.79596,2.88404 17.30949,6.49 0.40175,2.82104 -2.64099,8.59298 -7.7417,14.68565 -2.23728,2.67239 -4.06779,5.28645 -4.06779,5.80902 0,1.5928 1.49535,0.17157 7.35403,-6.98947 9.04855,-11.06003 10.58563,-16.71982 6.01571,-22.15087 -10.53994,-12.526 -41.19354,-14.7568 -65.369743,-4.75724 -32.52301,13.4519 -56.90686,41.8737 -56.9789,66.41458 -0.0233,7.94038 1.01815,11.62386 4.29552,15.1926 3.68402,4.01154 11.66294,6.58263 13.11863,4.22728 z m 17.61941,-76.0692 c 15.88959,-10.28839 33.227533,-16.35381 50.554273,-17.68565 7.8126,-0.60052 8.24547,-0.75347 7.27334,-2.56992 -1.94085,-3.62651 -8.80678,-9.70807 -13.83919,-12.25818 -10.84242,-5.49427 -27.661463,-7.28187 -38.511253,-4.09314 -11.79167,3.46554 -23.25061,13.53462 -28.84684,25.34798 -2.97164,6.27298 -3.18063,7.42665 -3.12005,17.22333 0.0363,5.86975 0.60465,11.78645 1.28885,13.41729 l 1.22392,2.91728 8.76581,-9.06284 c 4.82118,-4.98456 11.6662,-10.94083 15.21114,-13.23615 z"
       style="fill:#950003;fill-opacity:1" />
  </g>
</svg>
