<?xml version="1.0" encoding="utf-8"?>
<!-- Generator: Adobe Illustrator 15.0.0, SVG Export Plug-In  -->
<!DOCTYPE svg PUBLIC "-//W3C//DTD SVG 1.1//EN" "http://www.w3.org/Graphics/SVG/1.1/DTD/svg11.dtd" [
	<!ENTITY ns_flows "http://ns.adobe.com/Flows/1.0/">
]>
<svg version="1.1"
	 xmlns="http://www.w3.org/2000/svg" xmlns:xlink="http://www.w3.org/1999/xlink" xmlns:a="http://ns.adobe.com/AdobeSVGViewerExtensions/3.0/"
	 x="0px" y="0px" width="80px" height="80px" viewBox="-0.913 -0.913 80 80"
	 overflow="visible" enable-background="new -0.913 -0.913 80 80" xml:space="preserve">
<defs>
</defs>
<circle id="circle_2_" fill="#EE4456" cx="39.088" cy="39.087" r="39.088"/>
<path id="shape_4_" fill="#EFEEEE" stroke="#010101" stroke-width="0.05" stroke-miterlimit="10" d="M8.82,32.243
	c-0.583,0.25,20.167-12.167,20.167-12.167s5-4.667,15.333-2c10.334,2.667,12,9.917,12,9.917s0.813,2.189-0.666,3.083
	c-1.48,0.894-9.732,6.473-10.584,5.667s-2.5-3.833-2.5-3.833s-3.583-2.333-7-0.667S8.403,48.91,7.07,48.993
	S9.403,31.993,8.82,32.243z"/>
<path id="shape_3_" fill="#EFEEEE" stroke="#010101" stroke-width="0.05" stroke-miterlimit="10" d="M68.672,42.29
	c0.581-0.255-20.053,12.354-20.053,12.354s-4.956,4.714-15.313,2.144c-10.358-2.571-12.092-9.805-12.092-9.805
	s-0.834-2.182,0.637-3.09c1.472-0.907,9.672-6.563,10.53-5.765c0.859,0.798,2.536,3.81,2.536,3.81s3.605,2.3,7.006,0.602
	c3.4-1.698,27.011-16.919,28.343-17.015S68.091,42.545,68.672,42.29z"/>
<rect x="47.487" y="47.326" fill="#676767" width="13.667" height="3.584"/>
<rect x="47.487" y="57.076" fill="#676767" width="13.667" height="3.584"/>
<rect x="50.07" y="50.91" fill="#676767" width="2.084" height="6.166"/>
<rect x="56.236" y="50.91" fill="#676767" width="2.084" height="6.166"/>
</svg>
