<?xml version="1.0" encoding="UTF-8" standalone="no"?>
<!-- Created with Inkscape (http://www.inkscape.org/) -->

<svg
   xmlns:dc="http://purl.org/dc/elements/1.1/"
   xmlns:cc="http://creativecommons.org/ns#"
   xmlns:rdf="http://www.w3.org/1999/02/22-rdf-syntax-ns#"
   xmlns:svg="http://www.w3.org/2000/svg"
   xmlns="http://www.w3.org/2000/svg"
   xmlns:sodipodi="http://sodipodi.sourceforge.net/DTD/sodipodi-0.dtd"
   xmlns:inkscape="http://www.inkscape.org/namespaces/inkscape"
   width="200"
   height="200"
   id="svg3061"
   version="1.1"
   inkscape:version="0.48.3.1 r9886"
   sodipodi:docname="Nuevo documento 6">
  <defs
     id="defs3063" />
  <sodipodi:namedview
     id="base"
     pagecolor="#ffffff"
     bordercolor="#666666"
     borderopacity="1.0"
     inkscape:pageopacity="0.0"
     inkscape:pageshadow="2"
     inkscape:zoom="0.7"
     inkscape:cx="401.48681"
     inkscape:cy="197.03288"
     inkscape:document-units="px"
     inkscape:current-layer="layer1"
     showgrid="false"
     inkscape:window-width="1366"
     inkscape:window-height="692"
     inkscape:window-x="0"
     inkscape:window-y="24"
     inkscape:window-maximized="1" />
  <metadata
     id="metadata3066">
    <rdf:RDF>
      <cc:Work
         rdf:about="">
        <dc:format>image/svg+xml</dc:format>
        <dc:type
           rdf:resource="http://purl.org/dc/dcmitype/StillImage" />
        <dc:title></dc:title>
      </cc:Work>
    </rdf:RDF>
  </metadata>
  <g
     inkscape:label="Capa 1"
     inkscape:groupmode="layer"
     id="layer1"
     transform="translate(0,-852.36218)">
    <path
       inkscape:connector-curvature="0"
       id="path3100"
       d="m 79.918209,1050.6393 c -40.2207,-8.9575 -70.05018,-39.2636 -78.19106,-79.44056 -2.50904001,-12.38262 -1.59958001,-34.43413 1.90201,-46.11773 3.57536,-11.92971 6.76334,-18.78748 13.30219,-28.61476 7.12818,-10.713 16.89382,-20.47864 27.60682,-27.60682 9.72256,-6.46917 16.51271,-9.64411 28.61476,-13.37968 8.0385,-2.48127 9.92365,-2.6665 27.138571,-2.6665 17.21491,0 19.10007,0.18523 27.13857,2.6665 17.64259,5.44579 31.85898,13.80635 43.82695,25.77431 11.96796,11.96797 20.32852,26.18436 25.77431,43.82695 2.48127,8.0385 2.6665,9.92366 2.6665,27.13857 0,17.21491 -0.18523,19.10007 -2.6665,27.13857 -3.73557,12.10205 -6.91051,18.8922 -13.37968,28.61475 -9.89269,14.8678 -26.30772,28.9111 -41.80495,35.7647 -13.5473,5.9913 -21.94232,7.731 -39.0552,8.0935 -11.762891,0.2492 -17.820181,-0.066 -22.873291,-1.1918 z m 74.189711,-49.1697 c -0.22656,-1.96903 -0.95541,-2.84077 -2.56642,-3.06957 -2.12845,-0.30229 -2.25,-0.77124 -2.25,-8.68045 0,-7.90921 0.12155,-8.37816 2.25,-8.68045 1.61101,-0.2288 2.33986,-1.10054 2.56642,-3.06955 l 0.31642,-2.75 -16.06642,0 -16.06642,0 0,3 c 0,2.53333 0.38889,3 2.5,3 2.47059,0 2.5,0.1 2.5,8.5 0,8.4 -0.0294,8.5 -2.5,8.5 -2.11111,0 -2.5,0.46667 -2.5,3.00002 l 0,3 16.06642,0 16.06642,0 -0.31642,-2.75 z m -19.81642,-11.75002 0,-8.5 3.5,0 3.5,0 0,8.5 0,8.5 -3.5,0 -3.5,0 0,-8.5 z m -21.9315,3.88969 c 8.85761,-2.62607 12.9315,-5.08386 12.9315,-7.80161 0,-1.70918 -0.71363,-2.55037 -2.55588,-3.01275 -2.30415,-0.5783 -2.52576,-1.05682 -2.25,-4.85841 l 0.30588,-4.21692 16,-0.5 16,-0.5 9,-5.10853 9,-5.10852 3.7107,-18.39148 c 2.04088,-10.11531 3.61588,-19.18808 3.5,-20.16172 -0.16708,-1.4038 -7.76631,2.58075 -36.7107,19.24878 -35.13082,20.23056 -36.70189,21.01907 -41.881971,21.02025 -6.51074,0.001 -11.0444,-2.48136 -14.24128,-7.79919 -1.22323,-2.03477 -2.30804,-3.82421 -2.41067,-3.97652 -0.23529,-0.34918 -24.65067,13.61844 -25.85775,14.79279 -2.23704,2.17636 10.10964,16.61481 18.72804,21.90096 9.53071,5.84572 25.530201,7.79397 36.732131,4.47287 z M 96.041499,932.62519 c 7.274831,-1.40615 14.450501,2.22616 18.038211,9.13092 l 1.71179,3.29444 12.5,-7.37186 c 6.875,-4.05452 12.93992,-7.53813 13.4776,-7.74135 1.69204,-0.63952 -5.75718,-11.75505 -10.9776,-16.38046 -8.39172,-7.43525 -21.10083,-12.36016 -31.799221,-12.32252 -10.09217,0.0355 -16.49023,2.6537 -44.27947,18.11983 l -27.0787,15.07067 -3.67304,19.14736 c -2.02018,10.53105 -3.67227,19.66382 -3.67131,20.29504 9.6e-4,0.63122 16.31424,-8.24867 36.25174,-19.7331 19.9375,-11.48443 37.7125,-21.16346 39.5,-21.50897 z"
       style="fill:#950003;fill-opacity:1" />
  </g>
</svg>
