<?xml version="1.0" encoding="UTF-8" standalone="no"?>
<!-- Created with Inkscape (http://www.inkscape.org/) -->

<svg
   xmlns:dc="http://purl.org/dc/elements/1.1/"
   xmlns:cc="http://creativecommons.org/ns#"
   xmlns:rdf="http://www.w3.org/1999/02/22-rdf-syntax-ns#"
   xmlns:svg="http://www.w3.org/2000/svg"
   xmlns="http://www.w3.org/2000/svg"
   xmlns:sodipodi="http://sodipodi.sourceforge.net/DTD/sodipodi-0.dtd"
   xmlns:inkscape="http://www.inkscape.org/namespaces/inkscape"
   width="201"
   height="200"
   id="svg6015"
   version="1.1"
   inkscape:version="0.48.3.1 r9886"
   sodipodi:docname="Nuevo documento 136">
  <defs
     id="defs6017" />
  <sodipodi:namedview
     id="base"
     pagecolor="#ffffff"
     bordercolor="#666666"
     borderopacity="1.0"
     inkscape:pageopacity="0.0"
     inkscape:pageshadow="2"
     inkscape:zoom="0.70710678"
     inkscape:cx="262.86258"
     inkscape:cy="114.69658"
     inkscape:document-units="px"
     inkscape:current-layer="layer1"
     showgrid="false"
     inkscape:window-width="1366"
     inkscape:window-height="692"
     inkscape:window-x="0"
     inkscape:window-y="24"
     inkscape:window-maximized="1" />
  <metadata
     id="metadata6020">
    <rdf:RDF>
      <cc:Work
         rdf:about="">
        <dc:format>image/svg+xml</dc:format>
        <dc:type
           rdf:resource="http://purl.org/dc/dcmitype/StillImage" />
        <dc:title></dc:title>
      </cc:Work>
    </rdf:RDF>
  </metadata>
  <g
     inkscape:label="Capa 1"
     inkscape:groupmode="layer"
     id="layer1"
     transform="translate(0,-852.36218)">
    <path
       style="fill:#950003;fill-opacity:1"
       d="m 73.349539,855.79935 c -12.10205,3.73557 -18.90244,6.90583 -28.625,13.375 -10.713,7.12818 -20.46557,16.912 -27.59375,27.625 -6.53884,9.82728 -9.7371498,16.66404 -13.3124998,28.59375 -3.5016,11.6836 -4.41529,33.74238 -1.90625,46.125 8.1408898,40.1769 37.9667998,70.48 78.1874998,79.4375 20.799361,3.0715 44.797081,0.572 61.937501,-6.9063 15.49723,-6.8536 31.91981,-20.8822 41.8125,-35.75 6.46917,-9.72251 9.63943,-16.5229 13.375,-28.62495 3.41079,-18.44667 5.25825,-37.09373 0,-54.28125 -5.44579,-17.64259 -13.81329,-31.84453 -25.78125,-43.8125 -11.96797,-11.96796 -26.16991,-20.33546 -43.8125,-25.78125 -18.26311,-2.5588 -34.832141,-5.96045 -54.281251,0 z m 24.25,26.75 c 6.957991,0 10.313321,3.12245 5.375001,5 -3.898951,1.48238 -3.035601,7 1.09375,7 2.99094,0 3.12788,0.54894 4.40625,19.8125 1.47858,22.28029 2.13924,19.86947 -5.75,20.40625 -3.712501,0.25259 -7.425001,0.76504 -8.250001,1.125 -1.2872,0.56161 -1.51705,-1.29364 -1.6875,-13.09375 -0.12065,-8.35166 -0.96847,-18.0691 -2.15625,-24.75 l -1.96875,-11 2.46875,-2.25 c 1.69501,-1.55028 3.70583,-2.25 6.46875,-2.25 z m 18.125001,0.0625 c 1.99351,-0.0668 4.01441,0.43757 5.53125,1.5 2.82088,1.97582 2.95072,6.00432 0.21875,6.71875 -2.91828,0.76315 -2.60206,5.09254 0.53125,7.375 l 2.5,1.84375 -0.25,20.78125 -0.28125,20.78125 -3.375,-2.46875 c -1.8553,-1.36934 -4.69314,-2.80058 -6.3125,-3.15625 -1.61935,-0.35567 -3.11211,-1.14561 -3.3125,-1.78125 -0.20038,-0.63563 -0.53531,-9.79483 -0.75,-20.34375 -0.36429,-17.89893 -0.26307,-19.21154 1.4375,-19.65625 3.02504,-0.79106 2.36962,-5.51501 -0.9375,-6.78125 l -2.75,-1.03125 2.375,-1.9375 c 1.4258,-1.16099 3.38148,-1.77698 5.375,-1.84375 z m -28.718751,0.125 c 0.17143,-0.0128 0.31434,-0.0102 0.4375,0 0.82105,0.0677 0.61183,0.61983 -0.0312,2.03125 -0.83381,1.83001 -2.36153,2.5888 -7.15625,3.5 -13.13468,2.49615 -26.10658,12.02039 -28.84375,21.15625 -0.67993,2.26939 -1.80704,4.125 -2.5,4.125 -0.69296,0 -1.97377,0.25991 -2.84375,0.59375 -2.28909,0.8784 -2.05593,-3.00142 0.5,-8.28125 4.99175,-10.31158 21.23533,-20.00141 38.15625,-22.78125 1.02283,-0.16804 1.76696,-0.30529 2.28125,-0.34375 z m 20.000001,6.1875 c 2.32328,0.0366 4.46875,0.91453 4.46875,2.09375 0,0.82832 -1.3953,1.22615 -4.0625,1.15625 -2.2375,-0.0587 -4.2625,-0.29376 -4.5,-0.53125 -0.97729,-0.97729 -0.31042,-1.89052 1.78125,-2.4375 0.7402,-0.19357 1.53807,-0.29345 2.3125,-0.28125 z m -22.062501,0.75 c 0.69329,0.0303 1.20656,0.15925 1.46875,0.4375 0.47503,0.50413 1.16583,2.77978 1.53125,5.03125 l 0.65625,4.09375 -6.03125,2.1875 c -3.31548,1.20889 -6.20281,2.51661 -6.40625,2.90625 -0.20343,0.38963 0.26589,2.83107 1.03125,5.4375 l 1.40625,4.75 5.0625,-2.5625 c 2.7866,-1.41208 5.39714,-2.20565 5.8125,-1.75 0.41536,0.45564 0.99447,4.48953 1.28125,8.96875 l 0.53125,8.15625 -3.90625,1.75 c -4.08326,1.84129 -4.23253,2.5645 -1.84375,9.0625 0.6252,1.7007 -0.0201,2.89637 -3.375,6.0625 -7.34532,6.93194 -7.04855,6.89615 -9.5,1.09375 l -2.1875,-5.15625 -3.875,3.78125 c -2.55172,2.49169 -4.12882,3.40852 -4.59375,2.65625 -0.38934,-0.62997 -1.324,-4.61137 -2.0625,-8.84375 l -1.34375,-7.6875 2.5625,-2.6875 c 2.33447,-2.44814 2.42643,-2.93818 1.34375,-6.21875 -1.29138,-3.91291 -2.54833,-5.18416 -3.53125,-3.59375 -0.37207,0.60201 -1.81482,-0.18982 -3.5,-1.875 -2.13498,-2.13498 -2.74263,-3.47929 -2.3125,-5.25 0.64573,-2.65828 4.67791,-8.43556 7.78125,-11.15625 5.03634,-4.41535 19.14694,-9.80614 24,-9.59375 z m 44.312501,1.21875 c 4.28702,-0.35768 10.98777,5.77291 13.34375,12.53125 1.33712,3.83567 0.52629,5.01507 -2.25,3.28125 -4.15582,-2.59535 -6.54952,2.99015 -3.28125,7.65625 1.42242,2.0308 1.47836,4.52597 0.4375,23.8125 -1.10288,20.43574 -0.98369,27.14879 0.375,18.6875 1.20645,-7.51321 2.57675,-22.95209 2.59375,-29.46875 0.0155,-5.93529 0.23621,-6.6854 2.15625,-7.1875 1.94135,-0.50768 2.09877,-1.03456 1.5625,-5.5625 -0.51764,-4.37071 -0.35644,-5.08539 1.34375,-5.625 4.36424,-1.38516 5.7196,0.21539 7.84375,9.3125 1.11802,4.78817 2.52597,12.99375 3.15625,18.21875 3.23148,26.78922 -5.58018,54.38803 -24.03125,75.24995 -2.31059,2.6125 -4.50924,4.7152 -4.875,4.6875 -0.36575,-0.028 -2.90625,-1.4057 -5.65625,-3.0625 -4.76088,-2.8682 -5.41276,-2.979 -13.75,-2.5625 -5.25598,0.2627 -11.251881,-0.102 -15.000001,-0.9062 -9.26785,-1.9884 -12.15899,-1.7865 -15.65625,1.1562 l -3.0625,2.5938 -2.65625,-2.0938 c -6.42466,-5.0536 -9.42925,-11.8005 -11.375,-25.56245 -0.6221,-4.4 -3.16885,-15.875 -5.65625,-25.5 -3.95184,-15.29163 -4.58816,-19.23515 -5.0625,-31.25 -0.33108,-8.38616 -0.17239,-13.75 0.40625,-13.75 3.33115,0 4.57355,2.9381 6.375,15.0625 2.64847,17.82519 4.2864,22.62532 9.4375,27.4375 4.70862,4.39881 7.32669,9.02009 10.0625,17.75 2.18551,6.97392 3.43152,7.49665 2.375,1 -0.87779,-5.39759 -3.29373,-11.50865 -6.0625,-15.40625 -1.03708,-1.4599 -1.875,-3.04605 -1.875,-3.53125 0,-0.48519 2.17541,-2.53915 4.84375,-4.53125 l 4.875,-3.59375 -1.46875,4.15625 c -2.88533,8.26826 0.97526,22.51721 7.46875,27.625 3.00934,2.36714 2.89878,5.56184 -0.25,7.625 -3.74504,2.45385 -2.47128,2.65018 3.6875,0.53125 4.12571,-1.41945 7.17884,-1.78474 12.468751,-1.40625 10.27115,0.7349 17.28173,-1.53173 23.34375,-7.59375 6.02994,-6.02994 8.39015,-12.63191 8.46875,-23.625 0.0634,-8.86562 -0.99919,-15.5 -2.5,-15.5 -0.53883,0 -1.25484,1.36794 -1.59375,3.0625 -0.59133,2.95661 -0.68427,3.00708 -2.3125,1.25 -1.51624,-1.63623 -1.65328,-4.07312 -1.25,-23.0625 0.35467,-16.70035 0.74444,-21.25 1.78125,-21.25 2.45784,0 2.77666,-4.06768 0.5625,-7.0625 -2.04211,-2.76209 -2.04809,-2.83705 -0.15625,-3.4375 0.26255,-0.0833 0.5267,-0.1324 0.8125,-0.15625 z m -7.21875,1.65625 c 1.43882,0 4.47987,2.2378 5.40625,3.96875 1.51469,2.83023 -0.0818,3.12629 -3.21875,0.625 -2.44521,-1.94974 -3.71056,-4.59375 -2.1875,-4.59375 z m 15.9375,15.96875 c 0.69123,-0.14952 1.96797,1.0376 3.03125,3.09375 0.8725,1.68723 1.45213,3.94181 1.28125,5 -0.24354,1.5082 -0.79873,1.05714 -2.5625,-2.03125 -1.2375,-2.16687 -2.25,-4.42146 -2.25,-5 0,-0.65902 0.1858,-0.99454 0.5,-1.0625 z m 17.90625,7.96875 c 0.0919,-0.14044 0.6524,0.63017 1.46875,2.09375 1.08847,1.95145 2.72659,6.45145 3.65625,10 2.52604,9.64212 1.57161,31.96505 -1.9375,45.4375 -4.55551,17.48993 -17.62537,40.2999 -26.5,46.25 -2.55959,1.7161 -4.65664,2.2204 -8.5,2.0937 -2.55967,0.1221 -5.29744,-0.6097 -7.40625,-1.0625 -1.09902,-0.1962 -3.07072,-0.7844 -5.6875,-1.75 -7.67239,-2.2557 -8.03113,-1.5901 -12.562501,-1.6562 -0.98806,0.2039 -2.03874,0.429 -3.4375,0.6875 -12.14564,2.2442 -16.23227,2.3367 -19.5,0.4687 -2.94813,-1.6853 -2.22922,-1.9297 1.53125,-0.5 1.91984,0.73 5.17402,0.442 11.38839,-0.645 9.03019,-2.0015 18.116391,-1.7795 26.125001,1.5 0.8067,0.3385 1.4179,0.5998 1.90625,0.8437 2.41064,0.9649 4.59897,1.45 6.59375,1.4063 4.76566,-0.4733 8.10141,-3.2669 16.29911,-14.105 7.43871,-9.83457 13.43197,-21.49205 16.71875,-32.56245 4.4684,-15.05016 4.417,-43.3768 -0.0937,-58.03125 -0.0804,-0.26111 -0.0931,-0.42194 -0.0625,-0.46875 z m -110.968751,0.875 c 0.92744,-0.12505 1.21605,2.04351 1.6875,10.46875 0.70997,12.68794 1.62917,17.78745 6.4375,36.21875 1.86528,7.15 4.08731,17.5 4.9375,23 2.03163,13.14295 3.91581,17.94925 9.3125,23.71875 3.78361,4.045 4.15025,4.7812 2.40625,4.7812 -4.92283,0 -11.02993,-8.1028 -13.28125,-17.62495 -0.63515,-2.68641 -2.86517,-10.275 -4.96875,-16.875 -6.36828,-19.98046 -8.2829,-30.92816 -8.375,-47.78125 -0.0663,-12.12296 0.17635,-14.954 1.40625,-15.71875 0.16089,-0.10004 0.30501,-0.16964 0.4375,-0.1875 z m 60.062501,19.65625 c 6.49952,0.006 13.02054,2.11618 16.84375,6.34375 1.78398,1.97265 1.76918,2.05669 -0.34375,3.1875 -12.21248,4.06157 -21.29647,0.64744 -31.312501,-0.71875 -3.7313,-0.49947 -3.77012,-0.54264 -2,-2.5 3.81685,-4.2206 10.31298,-6.31843 16.812501,-6.3125 z m 21.40625,12.53125 c 1.58771,0 3.09375,6.11043 3.09375,12.53125 0,5.97881 -0.12071,6.27611 -3,7.46875 -6.28719,4.59744 -27.104411,10.95468 -28.437501,15.0625 0.74444,1.20454 0.61482,1.18736 -4.0625,-0.9375 -4.54588,-2.06515 -10.08571,-7.90055 -12.125,-12.78125 -0.7562,-1.80984 -1.375,-6.19662 -1.375,-9.75 0,-8.67396 1.32992,-10.03761 8.90625,-9.09375 8.27279,2.05577 34.789161,3.10661 36.227681,-1.89286 0,-0.49118 0.27613,-0.60714 0.77232,-0.60714 z m -1.34375,26 c 1.61627,0 -5.1518,6.21093 -8.8125,8.09375 -3.35927,1.72779 -13.98481,3.94249 -12.75,2.65625 0.81584,-0.84982 20.67573,-10.75 21.5625,-10.75 z"
       id="path6043"
       inkscape:connector-curvature="0"
       sodipodi:nodetypes="cssssccsccsccssssssscccsssscccccsssscccsscssssssssssccsssccccscccscccsscccscccsssssscsssssssssssscssscccsssssssssscccssssssssssssscscssccsssccssssccccsssccccsssccssssssssscssscssssscsssccsssssss" />
  </g>
</svg>
