<?xml version="1.0" encoding="UTF-8" standalone="no"?>
<!-- Created with Inkscape (http://www.inkscape.org/) -->

<svg
   xmlns:dc="http://purl.org/dc/elements/1.1/"
   xmlns:cc="http://creativecommons.org/ns#"
   xmlns:rdf="http://www.w3.org/1999/02/22-rdf-syntax-ns#"
   xmlns:svg="http://www.w3.org/2000/svg"
   xmlns="http://www.w3.org/2000/svg"
   xmlns:sodipodi="http://sodipodi.sourceforge.net/DTD/sodipodi-0.dtd"
   xmlns:inkscape="http://www.inkscape.org/namespaces/inkscape"
   width="200"
   height="200"
   id="svg6185"
   version="1.1"
   inkscape:version="0.48.3.1 r9886"
   sodipodi:docname="Nuevo documento 146">
  <defs
     id="defs6187" />
  <sodipodi:namedview
     id="base"
     pagecolor="#ffffff"
     bordercolor="#666666"
     borderopacity="1.0"
     inkscape:pageopacity="0.0"
     inkscape:pageshadow="2"
     inkscape:zoom="1.4"
     inkscape:cx="266.33122"
     inkscape:cy="39.81313"
     inkscape:document-units="px"
     inkscape:current-layer="layer1"
     showgrid="false"
     inkscape:window-width="1366"
     inkscape:window-height="692"
     inkscape:window-x="0"
     inkscape:window-y="24"
     inkscape:window-maximized="1" />
  <metadata
     id="metadata6190">
    <rdf:RDF>
      <cc:Work
         rdf:about="">
        <dc:format>image/svg+xml</dc:format>
        <dc:type
           rdf:resource="http://purl.org/dc/dcmitype/StillImage" />
        <dc:title></dc:title>
      </cc:Work>
    </rdf:RDF>
  </metadata>
  <g
     inkscape:label="Capa 1"
     inkscape:groupmode="layer"
     id="layer1"
     transform="translate(0,-852.36218)">
    <path
       inkscape:connector-curvature="0"
       id="path6213"
       d="m 87.547214,1051.1188 c -21.85968,-2.7767 -41.58839,-12.5145 -57.69008,-28.4751 -39.20846,-38.86498 -39.29378,-101.12606 -0.19263,-140.57282 33.88092,-34.18039 87.188876,-39.1852 126.669396,-11.89234 51.49905,35.60127 58.15588,108.60034 13.90338,152.46516 -16.56897,16.4238 -35.82981,25.7284 -59.16384,28.5813 -9.60786,1.1746 -13.584166,1.1567 -23.526226,-0.1062 z m 73.098906,-39.255 c 0.29487,-0.7684 0.0376,-4.9309 -0.57169,-9.25 -0.6093,-4.31907 -1.50582,-13.25285 -1.99227,-19.85285 -0.53057,-7.19861 -1.56573,-13.60046 -2.58717,-16 -1.03825,-2.43905 -1.94565,-8.15428 -2.32525,-14.64554 -0.73658,-12.5958 -1.20877,-13.3478 -10.90377,-17.36485 -8.51182,-3.52681 -19.7548,-9.55991 -28.62737,-15.36174 -3.79973,-2.48468 -8.97473,-5.10869 -11.5,-5.83114 -3.520866,-1.00728 -3.833616,-1.23538 -1.34139,-0.97833 1.7875,0.18437 3.25,-0.0368 3.25,-0.49159 0,-0.45475 -0.45,-0.82681 -1,-0.82681 -0.55,0 -1,-0.7359 -1,-1.63533 0,-2.36268 -4.752936,-6.56758 -5.707656,-5.04953 -0.9252,1.47109 -1.0328,7.68437 -0.13309,7.68465 0.36259,1.2e-4 -0.19991,1.77847 -1.25,3.9519 -1.05009,2.17344 -1.90925,4.55844 -1.90925,5.3 0,0.74157 -0.53621,1.88452 -1.19157,2.53988 -0.65537,0.65537 -1.22905,3.18548 -1.27486,5.62248 -0.0492,2.6172 -0.7605,5.17922 -1.73773,6.25905 -1.25636,1.38826 -1.40298,2.27752 -0.60933,3.69569 0.57482,1.02715 0.79983,3.69635 0.50003,5.93155 -0.41395,3.08624 -0.0809,4.65412 1.38418,6.5167 1.0611,1.34897 1.92928,3.30335 1.92928,4.34307 0,2.43273 13.306306,8.71251 20.663886,9.75212 4.12792,0.58326 5.71576,1.38551 7.91478,3.99889 1.51299,1.79809 5.21512,5.14117 8.22696,7.42907 3.01184,2.28789 6.49379,4.95286 7.73766,5.92215 1.84071,1.43437 2.78774,1.5623 5.0888,0.68744 1.55496,-0.5912 3.1002,-1.51662 3.43387,-2.0565 0.33366,-0.53988 0.66821,0.6557 0.74344,2.65684 0.40229,10.70086 4.29787,24.71123 7.49329,26.94933 2.69297,1.8862 6.59088,1.9415 7.29622,0.1034 z m -18.01539,-37.82785 c -1.60407,-2.23177 -5.48901,-6.8078 -8.6332,-10.16896 -3.14419,-3.36115 -6.42131,-7.79752 -7.28249,-9.85861 -0.86118,-2.06109 -1.42562,-3.74743 -1.25431,-3.74743 0.17131,0 2.0446,1.37731 4.16286,3.0607 2.11826,1.68338 4.55207,2.87747 5.40846,2.65351 1.18731,-0.31048 1.57973,0.45668 1.65246,3.2305 0.10866,4.14405 2.31608,8.86816 6.6842,14.3049 1.65693,2.06229 2.82493,3.93716 2.59555,4.16639 -0.22938,0.22922 -1.72947,-1.40923 -3.33353,-3.641 z m -6.72872,12.3359 c 1.00347,-0.63585 -0.42281,-2.28842 -5.5,-6.37262 -3.77014,-3.03278 -8.40558,-7.13958 -10.30097,-9.12621 -2.6,-2.72517 -4.25738,-3.61207 -6.75,-3.61207 -3.86812,0 -4.3148,1.73455 -1.17817,4.57503 1.16912,1.05874 4.65662,4.49675 7.75,7.64004 6.9742,7.08671 12.15173,9.32108 15.97914,6.89583 z m -14.81766,-4.06401 c -1.72201,-2.17421 -4.93217,-5.37973 -7.13371,-7.12337 -2.41121,-1.90971 -4.23154,-4.31406 -4.5781,-6.04689 -0.3883,-1.94148 -1.18487,-2.87663 -2.45033,-2.87663 -3.03023,0 -2.26729,3.92945 1.9416,10 4.25599,6.13848 9.24326,10 12.91531,10 l 2.43615,0 -3.13092,-3.95311 z M 78.919334,970.62702 c 1.85467,-0.75134 4.89217,-1.36607 6.75,-1.36607 4.42432,0 7.86892,-3.21397 6.39542,-5.96722 -0.56556,-1.05677 -1.47709,-2.19876 -2.02562,-2.53777 -0.65722,-0.40619 -0.6365,-1.29061 0.0608,-2.59347 1.43465,-2.68068 0.33179,-5.63621 -2.69494,-7.22208 -2.22907,-1.16792 -2.33163,-1.45626 -0.93133,-2.6184 1.79993,-1.49381 2.07237,-6.26054 0.52325,-9.15509 -0.82371,-1.53912 -0.60795,-2.52494 1,-4.56912 2.21404,-2.8147 2.70849,-6.81205 0.97512,-7.88333 -0.70197,-0.43384 -0.40656,-1.40895 0.85098,-2.80902 2.52926,-2.81591 3.11138,-4.70472 2.20192,-7.1445 -0.5144,-1.37998 -0.12144,-2.68263 1.26758,-4.20197 1.29684,-1.4185 1.81071,-2.97595 1.44425,-4.37727 -0.31287,-1.19642 0.0892,-3.17962 0.8935,-4.40712 1.80694,-2.75775 1.07559,-4.89252 -2.18509,-6.37819 -3.33575,-1.51987 -5.9217,-1.43192 -12.43001,0.42273 -3.00736,0.85699 -7.63569,1.71463 -10.28518,1.90587 -2.75884,0.19912 -5.64311,1.09509 -6.75,2.09681 -2.05905,1.86342 -2.56179,4.93234 -0.96922,5.9166 0.53788,0.33243 0.0961,1.46289 -1,2.55901 -2.19756,2.19756 -2.54036,4.98669 -0.82386,6.70319 0.85288,0.85289 0.47543,1.92906 -1.5,4.27673 -2.82213,3.3539 -3.13928,4.64562 -1.69937,6.92125 0.61779,0.97635 0.29202,2.22285 -1.01531,3.88486 -2.37069,3.01384 -2.47413,6.91323 -0.24862,9.37239 1.28514,1.42006 1.40183,2.12691 0.5,3.02874 -1.83696,1.83696 -1.38339,6.27904 0.84726,8.29775 1.38023,1.24909 1.69817,2.15682 1,2.85499 -1.45821,1.45821 -1.26588,5.17769 0.33649,6.50754 0.77512,0.64329 1.15461,2.20378 0.88232,3.62819 -1.22394,6.40266 8.53205,8.94458 18.62969,4.85397 z m -15.12212,-1.44617 c -2.52579,-1.47114 -2.15022,-3.78135 0.73234,-4.50482 2.53845,-0.63711 10.87206,0.94985 13.49248,2.56936 3.64343,2.25176 -10.40093,4.16267 -14.22482,1.93546 z m 13.75,-3.62816 -5,-1.56896 3.36567,-1.41146 c 4.51916,-1.89519 12.09315,-1.35386 13.5319,0.96715 2.31815,3.73969 -3.34295,4.69764 -11.89757,2.01327 z m -15.25,-3.78024 c -2.80365,-2.02475 -2.87551,-4.10637 -0.19135,-5.54289 2.32589,-1.24478 6.35582,-0.58049 12.37885,2.04052 l 4.0625,1.76785 -2.93048,1.15538 c -5.32684,2.10017 -10.87907,2.34159 -13.31952,0.57914 z m 15.14402,-3.93037 c -6.33568,-1.98293 -7.06137,-2.67867 -4.28679,-4.10995 6.8375,-3.52716 14.89277,-2.42205 14.89277,2.04315 0,3.64245 -3.43367,4.31157 -10.60598,2.0668 z m -16.67089,-5.58428 c -4.36072,-3.43014 -3.08453,-8.00743 2.22687,-7.98708 2.49649,0.01 13.05,4.39153 13.05,5.41854 0,0.93057 -5.48153,3.3838 -9.06143,4.05539 -2.72084,0.51043 -4.09388,0.18198 -6.21544,-1.48685 z m 12.37864,-6.11112 -5.39823,-3.0955 3.19557,-2.02329 c 4.45133,-2.81838 11.24579,-3.47918 13.41982,-1.30515 2.20621,2.20621 2.13863,5.81415 -0.14767,7.88322 -2.61148,2.36336 -4.93808,2.05665 -11.06949,-1.45928 z m -14.44678,-5.71447 c -0.91025,-1.00581 -1.65499,-2.78029 -1.65499,-3.9433 0,-2.26072 3.42028,-5.22796 6.02616,-5.22796 2.52701,0 12.03688,5.08898 11.40885,6.10516 -1.06675,1.72603 -8.34339,4.89484 -11.24018,4.89484 -1.58667,0 -3.6296,-0.82293 -4.53984,-1.82874 z m 15.03585,-6.71562 c -4.68894,-3.21053 -3.97234,-4.46424 3.98171,-6.9661 5.85602,-1.84194 7.64918,-1.51192 9.73277,1.79126 0.78503,1.24452 0.53265,2.32813 -1.03251,4.43317 -2.89206,3.88964 -7.67581,4.16941 -12.68197,0.74167 z m -13.02417,-5.12231 c -1.29557,-1.29557 -0.64322,-5.04457 1.16207,-6.67834 1.00581,-0.91025 3.04526,-1.65499 4.53212,-1.65499 3.15998,0 9.08957,2.30175 10.08696,3.91557 1.55602,2.5177 -13.47378,6.72513 -15.78115,4.41776 z m 16.37102,-6.17345 c -1.88711,-1.01207 -3.58985,-2.31635 -3.78386,-2.8984 -0.5443,-1.63289 7.93443,-4.441 12.32519,-4.08204 3.23145,0.26419 3.97908,0.73074 4.25134,2.65302 0.78789,5.56285 -6.12733,7.90208 -12.79267,4.32742 z m -13.78769,-6.27452 c -1.63185,-1.67801 -1.57689,-2.41561 0.32143,-4.31393 2.0455,-2.0455 8.15358,-2.00996 13.05645,0.076 l 3.87212,1.6474 -3.5,1.49282 c -4.93282,2.10396 -12.20672,2.68467 -13.75,1.09773 z m 15.25,-5.08629 -4,-2.11254 3.5,-1.26719 c 5.1464,-1.86327 12.4709,-1.7618 14.09512,0.19528 1.1488,1.38421 1.00777,1.88364 -0.98834,3.5 -3.01701,2.44302 -7.60078,2.32829 -12.60678,-0.31555 z m -12.96225,-4.12097 c -5.07967,-3.78383 5.15047,-6.263 13.46225,-3.26244 l 3.5,1.2635 -3.5,1.13113 c -6.54014,2.11364 -11.37166,2.42509 -13.46225,0.86781 z m 15.21225,-3.8175 c -4.0945,-1.52951 -3.36493,-2.59115 2.63694,-3.83713 6.92557,-1.43774 10.83113,-0.55725 10.41664,2.34839 -0.25893,1.81511 -1.03903,2.15667 -5.30358,2.32207 -2.75,0.10666 -6.2375,-0.26834 -7.75,-0.83333 z m 14.6824,59.24878 c 0.30273,-0.48983 -0.57071,-1.62521 -1.94099,-2.52305 -2.78471,-1.82461 -3.0749,-1.4935 -1.25086,1.42724 1.34521,2.15403 2.32908,2.49181 3.19185,1.09581 z m -50.99802,-4.62096 c 7.10716,-0.83137 13.10286,-1.69233 13.32377,-1.91324 0.22091,-0.22091 -0.3183,-1.50045 -1.19825,-2.84342 -0.90286,-1.37793 -1.56274,-4.35659 -1.51461,-6.83676 0.0469,-2.41725 -0.21904,-6.0887 -0.59101,-8.15877 -0.45241,-2.51777 -0.24286,-4.28605 0.633,-5.34139 0.72011,-0.86769 1.37633,-3.5626 1.45825,-5.98869 0.0851,-2.52179 0.86007,-5.19686 1.80928,-6.24572 1.17879,-1.30254 1.4753,-2.75987 1.02234,-5.02468 -0.46657,-2.33284 -0.1525,-3.7265 1.16879,-5.18652 3.10869,-3.43506 0.67472,-4.15352 -15.9659,-4.71277 l -15.58004,-0.52361 0,27.14357 c 0,21.11882 0.27881,27.14358 1.25613,27.14358 0.69087,0 7.07108,-0.68021 14.17825,-1.51158 z"
       style="fill:#950003;fill-opacity:1" />
  </g>
</svg>
