<?xml version="1.0" encoding="UTF-8" standalone="no"?>
<!-- Created with Inkscape (http://www.inkscape.org/) -->

<svg
   xmlns:dc="http://purl.org/dc/elements/1.1/"
   xmlns:cc="http://creativecommons.org/ns#"
   xmlns:rdf="http://www.w3.org/1999/02/22-rdf-syntax-ns#"
   xmlns:svg="http://www.w3.org/2000/svg"
   xmlns="http://www.w3.org/2000/svg"
   xmlns:sodipodi="http://sodipodi.sourceforge.net/DTD/sodipodi-0.dtd"
   xmlns:inkscape="http://www.inkscape.org/namespaces/inkscape"
   width="200"
   height="200"
   id="svg4393"
   version="1.1"
   inkscape:version="0.48.3.1 r9886"
   sodipodi:docname="Diamante.svg">
  <defs
     id="defs4395" />
  <sodipodi:namedview
     id="base"
     pagecolor="#ffffff"
     bordercolor="#666666"
     borderopacity="1.0"
     inkscape:pageopacity="0.0"
     inkscape:pageshadow="2"
     inkscape:zoom="0.35"
     inkscape:cx="259.13285"
     inkscape:cy="267.96257"
     inkscape:document-units="px"
     inkscape:current-layer="layer1"
     showgrid="false"
     inkscape:window-width="1366"
     inkscape:window-height="692"
     inkscape:window-x="0"
     inkscape:window-y="24"
     inkscape:window-maximized="1" />
  <metadata
     id="metadata4398">
    <rdf:RDF>
      <cc:Work
         rdf:about="">
        <dc:format>image/svg+xml</dc:format>
        <dc:type
           rdf:resource="http://purl.org/dc/dcmitype/StillImage" />
        <dc:title></dc:title>
      </cc:Work>
    </rdf:RDF>
  </metadata>
  <g
     inkscape:label="Capa 1"
     inkscape:groupmode="layer"
     id="layer1"
     transform="translate(0,-852.36218)">
    <path
       inkscape:connector-curvature="0"
       id="path4440"
       d="m 80.052479,1050.5109 c -19.71257,-4.1902 -36.26046,-13.1867 -50.56313,-27.4894 -39.3673599,-39.36733 -39.3673599,-101.75887 0,-141.12623 39.36736,-39.36736 101.758901,-39.36736 141.126261,0 56.46279,56.46279 27.42314,152.38533 -51.06313,168.66953 -11.59847,2.4065 -28.030841,2.384 -39.500001,-0.054 z M 141.9762,979.42743 c 22.23304,-18.69072 40.64554,-34.20496 40.91666,-34.47608 0.27113,-0.27112 -4.01735,-0.49295 -9.52993,-0.49295 l -10.02289,0 -28.24015,31.5 c -15.53208,17.325 -28.43142,31.5 -28.6652,31.5 -0.23378,0 10.72209,-13.39213 24.34637,-29.76028 13.62428,-16.36816 25.38902,-30.54316 26.14386,-31.50001 1.28809,-1.63277 0.64266,-1.7371 -10.5,-1.69727 l -11.87244,0.0424 -15.5,31.85136 c -8.525,17.51825 -15.62694,31.7347 -15.78209,31.5921 -0.15515,-0.1425 5.80735,-14.29702 13.25,-31.45437 7.44265,-17.15735 13.53209,-31.39291 13.53209,-31.63458 0,-0.24166 -6.04468,-0.43939 -13.43261,-0.43939 -11.93458,0 -13.48874,0.19516 -13.93589,1.75 -0.2768,0.9625 -0.81584,15.1375 -1.19788,31.5 -0.38204,16.3625 -1.02717,29.75004 -1.43362,29.75004 -0.406451,0 -1.051581,-13.38754 -1.433621,-29.75004 -0.38204,-16.3625 -0.92108,-30.5375 -1.19788,-31.5 -0.44715,-1.55484 -2.00131,-1.75 -13.93589,-1.75 -7.38793,0 -13.43261,0.19773 -13.43261,0.43939 0,0.24167 6.08944,14.47723 13.53209,31.63458 7.44265,17.15735 13.40515,31.31187 13.25,31.45437 -0.15515,0.1426 -7.25709,-14.07385 -15.78209,-31.5921 l -15.5,-31.85136 -11.87245,-0.0424 c -11.14265,-0.0398 -11.78808,0.0645 -10.5,1.69727 0.75485,0.95685 12.51959,15.13185 26.14387,31.50001 13.62428,16.36815 24.58015,29.76028 24.34637,29.76028 -0.23378,0 -13.13312,-14.175 -28.6652,-31.5 l -28.24015,-31.5 -10.02289,0 c -5.51258,0 -9.80106,0.22183 -9.52993,0.49295 5.06028,5.06028 81.77737,68.45925 82.840381,68.45925 0.825,0 19.69067,-15.29245 41.92372,-33.98317 z M 36.794289,931.58712 c 0.74193,-4.05421 1.13716,-7.58308 0.8783,-7.84194 -0.46536,-0.46537 -19.62011,14.5316 -19.62011,15.36131 0,0.23638 3.91339,0.29976 8.69642,0.14084 l 8.69643,-0.28893 1.34896,-7.37128 z m 56.20076,4.12128 c -1.79554,-2.0625 -6.47086,-7.17248 -10.3896,-11.3555 l -7.12498,-7.6055 -14.83361,10.80844 c -8.15848,5.94465 -15.07978,11.05462 -15.38066,11.3555 -0.30088,0.30089 11.04956,0.54706 25.22321,0.54706 l 25.77025,0 -3.26461,-3.75 z m 61.843711,3.20294 c -0.30088,-0.30088 -7.22218,-5.41085 -15.38066,-11.3555 l -14.83361,-10.80844 -7.12498,7.6055 c -3.91874,4.18303 -8.59406,9.293 -10.3896,11.3555 l -3.26461,3.75 25.77025,0 c 14.17365,0 25.52409,-0.24617 25.22321,-0.54706 z m 27.21372,0.15622 c 0,-0.83121 -19.17688,-15.76561 -19.64418,-15.29832 -0.4362,0.4362 1.19244,11.11744 2.20164,14.43916 0.26512,0.87265 2.95526,1.25 8.91116,1.25 4.69226,0 8.53138,-0.17588 8.53138,-0.39084 z m -121.531841,-16.17765 13.96816,-9.93151 -11.73711,-0.2819 -11.7371,-0.2819 -3.89525,3.13031 c -3.63311,2.91965 -4.00211,3.71254 -5.48309,11.7819 -2.04463,11.14048 -2.11814,10.78969 1.66623,7.95179 1.7875,-1.34045 9.53567,-6.90636 17.21816,-12.36869 z m 98.014221,4.76538 c -1.55289,-8.44995 -1.89208,-9.19141 -5.54924,-12.13038 l -3.89525,-3.13031 -11.73228,0.2819 -11.73227,0.2819 16.96333,12.13761 c 9.32983,6.67569 17.10651,12.00751 17.28151,11.84849 0.175,-0.15902 -0.42611,-4.33916 -1.3358,-9.28921 z m -46.4963,-2.94689 11.15998,-11.75 -11.57303,-0.28174 c -6.36517,-0.15495 -16.780891,-0.15495 -23.146061,0 l -11.57303,0.28174 11.15998,11.75 c 6.13798,6.4625 11.53172,11.75 11.986081,11.75 0.45436,0 5.8481,-5.2875 11.98608,-11.75 z"
       style="fill:#950003;fill-opacity:1" />
  </g>
</svg>
