<?xml version="1.0" encoding="UTF-8" standalone="no"?>
<!-- Created with Inkscape (http://www.inkscape.org/) -->

<svg
   xmlns:dc="http://purl.org/dc/elements/1.1/"
   xmlns:cc="http://creativecommons.org/ns#"
   xmlns:rdf="http://www.w3.org/1999/02/22-rdf-syntax-ns#"
   xmlns:svg="http://www.w3.org/2000/svg"
   xmlns="http://www.w3.org/2000/svg"
   xmlns:sodipodi="http://sodipodi.sourceforge.net/DTD/sodipodi-0.dtd"
   xmlns:inkscape="http://www.inkscape.org/namespaces/inkscape"
   width="200"
   height="200"
   id="svg4982"
   version="1.1"
   inkscape:version="0.48.3.1 r9886"
   sodipodi:docname="Nuevo documento 89">
  <defs
     id="defs4984" />
  <sodipodi:namedview
     id="base"
     pagecolor="#ffffff"
     bordercolor="#666666"
     borderopacity="1.0"
     inkscape:pageopacity="0.0"
     inkscape:pageshadow="2"
     inkscape:zoom="1.4"
     inkscape:cx="290.53064"
     inkscape:cy="116.3284"
     inkscape:document-units="px"
     inkscape:current-layer="layer1"
     showgrid="false"
     inkscape:window-width="1366"
     inkscape:window-height="692"
     inkscape:window-x="0"
     inkscape:window-y="24"
     inkscape:window-maximized="1" />
  <metadata
     id="metadata4987">
    <rdf:RDF>
      <cc:Work
         rdf:about="">
        <dc:format>image/svg+xml</dc:format>
        <dc:type
           rdf:resource="http://purl.org/dc/dcmitype/StillImage" />
        <dc:title></dc:title>
      </cc:Work>
    </rdf:RDF>
  </metadata>
  <g
     inkscape:label="Capa 1"
     inkscape:groupmode="layer"
     id="layer1"
     transform="translate(0,-852.36218)">
    <path
       inkscape:connector-curvature="0"
       id="path5047"
       d="m 83.23485,1050.9167 c -21.93171,-4.1795 -38.54236,-12.8442 -53.76947,-28.0478 -12.92381,-12.904 -21.2378698,-27.27776 -26.2146498,-45.32135 -3.63536003,-17.8236 -4.3911,-34.32695 0,-50.4019 4.97432,-18.03468 13.2815298,-32.40054 26.2146498,-45.33366 12.96619,-12.96619 27.72049,-21.47905 45.48428,-26.24328 17.68126,-3.42131 34.0134,-4.26732 50.10068,0 17.76379,4.76423 32.51809,13.27709 45.48427,26.24327 12.93313,12.93313 21.24034,27.29899 26.21466,45.33367 3.63537,17.8236 4.39109,34.32695 0,50.4019 -4.97432,18.03468 -13.28153,32.40055 -26.21466,45.33365 -13.04507,13.0451 -27.94953,21.6153 -45.48427,26.1538 -11.96396,3.0967 -30.9556,3.9513 -41.81549,1.8817 z m 60.939,-46.3201 c 0.17938,-4.2625 0.18376,-8.9875 0.01,-10.5 l -0.31642,-2.75 -18.27528,0 -18.27527,0 -2.93511,-5.75 c -2.2911,-4.48836 -3.94085,-6.29854 -7.51884,-8.25 -2.52105,-1.375 -5.33648,-3.13004 -6.2565,-3.90009 -1.54878,-1.29631 -1.50496,-1.57874 0.59124,-3.81004 1.24522,-1.32547 2.96906,-4.29542 3.83077,-6.59991 1.31923,-3.52804 1.95419,-4.14332 4.01928,-3.89472 1.3489,0.16238 7.17755,0.29154 12.95255,0.28702 5.775,-0.005 12.075,0.47912 14,1.07474 6.43303,1.99045 10.05631,3.82618 10.66071,5.40121 0.66754,1.73957 -3.87994,7.05921 -6.83678,7.99767 -1.00316,0.31839 -1.82393,1.19368 -1.82393,1.94509 0,0.7514 -1.2375,1.50858 -2.75,1.68261 -2.46816,0.28399 -2.78183,0.75852 -3.06061,4.63011 l -0.31061,4.3137 2.69679,-1.41299 c 1.48324,-0.77715 6.48982,-4.74331 11.12573,-8.8137 7.50861,-6.59263 8.36997,-7.70097 7.88882,-10.1507 -0.29706,-1.5125 -0.15477,-2.75 0.31622,-2.75 1.71383,0 7.24693,6.57176 7.78804,9.25 0.30559,1.5125 0.96885,2.75 1.4739,2.75 0.50506,0 0.78631,1.58195 0.625,3.51544 -0.25452,3.0508 0.15721,3.80398 3.11515,5.69852 l 3.40844,2.18307 -0.70276,-6.85935 c -0.58641,-5.72363 -1.3991,-7.92498 -4.90844,-13.29544 -3.43672,-5.25935 -5.27252,-6.97737 -10.04067,-9.39647 -4.39287,-2.22872 -5.68204,-3.35897 -5.21612,-4.57315 1.384,-3.60665 2.39405,-10.10443 2.43535,-15.66692 0.0348,-4.68889 0.58078,-6.6692 2.6697,-9.68352 2.49932,-3.60691 6.62212,-5.92218 10.54533,-5.92218 0.9906,0 2.16095,-0.5625 2.60078,-1.25 0.43983,-0.6875 1.69969,-1.74596 2.79969,-2.35213 4.02988,-2.22072 3.01629,-4.96598 -4.54255,-12.30326 -3.94571,-3.83006 -7.80028,-7.20406 -8.56573,-7.49779 C 146.55103,897.62082 146,895.94981 146,893.723 c 0,-3.42455 -0.1243,-3.57817 -1.75,-2.16288 -0.9625,0.83792 -3.7262,1.77339 -6.14156,2.07882 -5.7899,0.73214 -11.84633,5.20887 -15.60844,11.53727 -1.65,2.77554 -3.32625,5.36307 -3.725,5.75007 -0.98204,0.95312 -4.47152,-3.19213 -6.8015,-8.07968 -3.04518,-6.38782 -8.34519,-11.5 -11.92252,-11.5 -3.79668,0 -3.95366,-1.67078 -0.30098,-3.20327 l 2.75,-1.15378 -2.5,-0.40814 c -1.375,-0.22449 -3.4,-1.49524 -4.5,-2.8239 -1.67656,-2.02507 -2.48517,-2.28339 -5,-1.59727 -2.22634,0.60741 -3.08007,1.49474 -3.31048,3.4408 -0.21471,1.81353 -0.98577,2.71842 -2.5,2.93393 -2.69214,0.38316 -2.32794,2.40561 0.37338,2.07342 2.79412,-0.3436 2.47773,2.88169 -0.5629,5.73821 -2.14009,2.01051 -2.5,3.23236 -2.5,8.48722 0,5.51529 0.30462,6.43044 3,9.01278 3.21555,3.08069 4.07128,7.5 1.45225,7.5 -2.28757,0 -6.45225,4.93522 -6.45225,7.64602 0,1.52782 -0.58335,2.35398 -1.66214,2.35398 -0.91418,0 -3.72432,1.2375 -6.24475,2.75 -2.52043,1.5125 -6.38497,3.65 -8.58786,4.75 -6.31649,3.15411 -9.07864,9.63142 -8.74189,20.5 0.14485,4.675 0.81985,10.08827 1.5,12.02949 1.58158,4.51397 8.15471,12.8776 12.98664,16.52413 2.3365,1.7633 3.75,3.65809 3.75,5.02685 0,1.89901 -2.23683,3.11837 -16.5,8.99463 -12.76894,5.2607 -16.5,7.2079 -16.5,8.6114 0,1.7281 2.44619,1.8135 51.92385,1.8135 l 51.92386,0 z M 76.08898,987.24924 c -0.67518,-2.25354 -0.97331,-4.35164 -0.66252,-4.66244 1.32775,-1.32774 13.95587,6.33216 12.99699,7.88365 -0.29781,0.48188 -2.9187,0.87615 -5.82418,0.87615 l -5.2827,0 z m 17.39333,-0.15264 c -1.9195,-3.01993 -4.18914,-4.93314 -7.84183,-6.61032 -2.82726,-1.29818 -4.57999,-2.57251 -3.89494,-2.83185 2.29701,-0.86958 11.28639,2.81126 12.90731,5.28511 0.86744,1.32388 2.12248,2.40706 2.78897,2.40706 0.77762,0 1.05404,1.07487 0.77149,3 -0.24217,1.65 -0.79791,3 -1.23499,3 -0.43707,0 -2.01028,-1.9125 -3.49601,-4.25 z M 68.54858,972.09028 c -1.60741,-2.67185 -5.47173,-15.24087 -5.53213,-17.99368 -0.0411,-1.87363 1.67796,-0.39414 3.742,3.2205 1.31232,2.2982 4.14008,5.0578 6.75,6.58732 2.47035,1.44772 4.49155,3.17619 4.49155,3.84104 0,1.11702 -6.02434,7.60912 -7.04761,7.59482 -0.24881,-0.003 -1.33053,-1.46598 -2.40381,-3.25 z M 143,925.90562 c 0,-0.85746 0.45,-1.55902 1,-1.55902 0.55,0 1,0.42344 1,0.94098 0,0.51754 -0.45,1.2191 -1,1.55902 -0.55,0.33992 -1,-0.0835 -1,-0.94098 z m 0,-3.55902 c 0,-0.55 0.45,-1 1,-1 0.55,0 1,0.45 1,1 0,0.55 -0.45,1 -1,1 -0.55,0 -1,-0.45 -1,-1 z m -29.61405,-2.43662 c -0.32996,-0.85986 -0.35353,-2.20548 -0.0524,-2.99027 0.56289,-1.46686 -1.45388,-3.79908 -2.97831,-3.44416 -0.47039,0.10952 -2.09276,-0.14847 -3.60526,-0.57332 -2.06945,-0.58129 -2.75,-1.39696 -2.75,-3.296 0,-1.38796 -0.95133,-4.06285 -2.11407,-5.9442 -2.76764,-4.47814 -1.78414,-5.23791 2.52537,-1.95088 2.08115,1.58737 3.71765,2.23582 4.09631,1.62313 1.02645,-1.66082 2.36046,-0.19201 5.53227,6.09133 2.07182,4.10425 2.80145,6.705 2.36685,8.4366 -0.78468,3.12641 -2.23071,4.10667 -3.02078,2.04777 z m 30.36405,0.68736 c -1.88725,-0.42855 -2.46012,-4.69383 -0.77067,-5.73797 1.8314,-1.13187 4.87406,1.33185 4.30977,3.48973 -0.62989,2.40869 -1.20991,2.77715 -3.5391,2.24824 z m 5.25,-0.83407 c 0,-1.76593 2.15276,-1.45839 2.77083,0.39583 0.21771,0.65312 -0.31666,1.1875 -1.1875,1.1875 -0.87083,0 -1.58333,-0.7125 -1.58333,-1.58333 z"
       style="fill:#950003;fill-opacity:1"
       sodipodi:nodetypes="ssccsccsccssssccccsssssscsssssscsssssssscssssscssssssssssssscssssssssssssssssssssscssccscsssssssssssssscsssssssssssccssssssssccssssssss" />
  </g>
</svg>
