<?xml version="1.0" encoding="UTF-8" standalone="no"?>
<!-- Created with Inkscape (http://www.inkscape.org/) -->

<svg
   xmlns:dc="http://purl.org/dc/elements/1.1/"
   xmlns:cc="http://creativecommons.org/ns#"
   xmlns:rdf="http://www.w3.org/1999/02/22-rdf-syntax-ns#"
   xmlns:svg="http://www.w3.org/2000/svg"
   xmlns="http://www.w3.org/2000/svg"
   xmlns:sodipodi="http://sodipodi.sourceforge.net/DTD/sodipodi-0.dtd"
   xmlns:inkscape="http://www.inkscape.org/namespaces/inkscape"
   width="210mm"
   height="297mm"
   id="svg2"
   version="1.1"
   inkscape:version="0.48.2 r9819"
   sodipodi:docname="fresno.svg">
  <defs
     id="defs4" />
  <sodipodi:namedview
     id="base"
     pagecolor="#ffffff"
     bordercolor="#666666"
     borderopacity="1.0"
     inkscape:pageopacity="0.0"
     inkscape:pageshadow="2"
     inkscape:zoom="1.979899"
     inkscape:cx="485.93938"
     inkscape:cy="305.61699"
     inkscape:document-units="px"
     inkscape:current-layer="layer1"
     showgrid="false"
     inkscape:window-width="1920"
     inkscape:window-height="1018"
     inkscape:window-x="-8"
     inkscape:window-y="-8"
     inkscape:window-maximized="1" />
  <metadata
     id="metadata7">
    <rdf:RDF>
      <cc:Work
         rdf:about="">
        <dc:format>image/svg+xml</dc:format>
        <dc:type
           rdf:resource="http://purl.org/dc/dcmitype/StillImage" />
      </cc:Work>
    </rdf:RDF>
  </metadata>
  <g
     inkscape:label="Capa 1"
     inkscape:groupmode="layer"
     id="layer1">
    <path
       inkscape:connector-curvature="0"
       id="path3019"
       d="m 150.2107,822.62754 c -30.58282,-6.40035 -56.30152,-26.25341 -69.9821,-54.02135 -7.87178,-15.97761 -9.5179,-23.68143 -9.5179,-44.54356 0,-20.86213 1.64612,-28.56595 9.5179,-44.54356 9.68177,-19.65141 25.78713,-35.75677 45.43854,-45.43854 15.97761,-7.87178 23.68143,-9.5179 44.54356,-9.5179 20.86213,0 28.56595,1.64612 44.54356,9.5179 19.65141,9.68177 35.75677,25.78713 45.43854,45.43854 7.87178,15.97761 9.5179,23.68143 9.5179,44.54356 0,20.86213 -1.64612,28.56595 -9.5179,44.54356 -12.44106,25.25204 -36.64671,45.2861 -63.4821,52.54162 -10.20788,2.75992 -36.40016,3.59341 -46.5,1.47973 z"
       style="fill:#fefefe" />
    <path
       inkscape:connector-curvature="0"
       id="path3017"
       d="m 155.89833,903.29456 c -40.2207,-8.95748 -70.050185,-39.26364 -78.191065,-79.44057 -2.50904,-12.38262 -1.59958,-34.43413 1.90201,-46.11773 3.57536,-11.92971 6.76334,-18.78748 13.30219,-28.61476 7.128185,-10.713 16.893825,-20.47864 27.606825,-27.60682 9.72256,-6.46917 16.51271,-9.64411 28.61476,-13.37968 8.0385,-2.48127 9.92365,-2.6665 27.13857,-2.6665 17.21491,0 19.10007,0.18523 27.13857,2.6665 17.64259,5.44579 31.85898,13.80635 43.82695,25.77431 11.96796,11.96797 20.32852,26.18436 25.77431,43.82695 2.48127,8.0385 2.6665,9.92365 2.6665,27.13857 0,17.21491 -0.18523,19.10007 -2.6665,27.13857 -3.73557,12.10205 -6.91051,18.8922 -13.37968,28.61476 -9.89269,14.8678 -26.30772,28.91106 -41.80495,35.76468 -13.5473,5.99126 -21.94232,7.73098 -39.0552,8.09351 -11.76289,0.24919 -17.82018,-0.0664 -22.87329,-1.19179 z m 21.58942,-28.9692 c 0.30221,-0.30221 -1.07433,-3.71437 -3.05898,-7.58258 -3.52996,-6.88012 -3.60899,-7.28694 -3.63281,-18.70053 l -0.0243,-11.66742 3,-0.27849 c 2.6538,-0.24635 3.19169,0.18243 4.66105,3.71562 2.20006,5.29017 8.88726,9.49224 18.51461,11.63412 6.29716,1.40099 8.60842,1.47108 15.46232,0.4689 11.67601,-1.70726 11.38915,-1.37366 6.88479,-8.00662 -8.38036,-12.34063 -17.63939,-17.60931 -29.60693,-16.84727 -5.48441,0.34922 -6.86829,0.8489 -9.65873,3.48749 -1.79141,1.69393 -4.55147,3.30877 -6.13347,3.58854 l -2.87637,0.50868 0.64691,-6.13549 c 0.3558,-3.37451 1.22688,-8.38548 1.93575,-11.13548 1.1599,-4.49974 1.59315,-5.03024 4.33023,-5.30223 2.34399,-0.23293 3.4229,0.28005 4.70523,2.23714 2.29131,3.49697 8.0728,6.23457 16.12984,7.63764 11.94215,2.07964 22.58868,-0.30084 33.00663,-7.38002 l 3.67572,-2.49772 -7.0566,-4.19225 c -12.81204,-7.61149 -23.09343,-9.50665 -35.60687,-6.56339 -4.62444,1.08771 -6.74381,2.23498 -9.31829,5.04421 -2.31707,2.52837 -4.02908,3.54188 -5.61898,3.32645 l -2.28657,-0.30983 2.83365,-9.08536 c 2.79231,-8.95278 2.89166,-9.10273 6.80818,-10.27615 3.02263,-0.9056 5.06454,-0.91633 8.52577,-0.0448 6.91923,1.74228 15.33558,0.7552 21.9061,-2.56918 6.40267,-3.23945 14.36412,-11.11105 17.54592,-17.3479 l 2.13076,-4.17663 -11.77033,3e-5 -11.77032,3e-5 -2.70229,3.38675 c -3.36412,4.21621 -11.98486,8.61319 -16.88707,8.61319 -4.09867,0 -4.91064,1.08829 -4.91064,6.58179 0,2.75154 -0.39007,3.41821 -2,3.41821 -2.5047,0 -2.49413,-0.54429 0.13333,-6.86665 2.07039,-4.98192 2.25282,-5.13335 6.18427,-5.13335 8.28393,0 18.03428,-7.49758 20.4725,-15.74242 1.13134,-3.82561 3.54747,-28.25335 2.86229,-28.93852 -0.656,-0.65601 -14.94336,4.83953 -18.62633,7.16449 -10.49825,6.62726 -13.99554,15.17111 -11.64994,28.46074 l 1.31391,7.44428 -3.63328,7.86842 -3.63329,7.86841 -1.93057,-2.13326 c -1.27609,-1.41006 -1.83317,-3.26388 -1.64325,-5.4683 0.61359,-7.12195 -9.7654,-20.45411 -19.84964,-25.49753 -5.25731,-2.62933 -15.66866,-5.69099 -16.50579,-4.85385 -0.79382,0.79382 2.72186,15.33075 4.5962,19.00475 4.52411,8.868 15.19281,15.79492 24.35487,15.81302 3.94257,0.008 5.49012,0.53176 7.63239,2.58419 l 2.68711,2.57441 -3.04415,9.17559 c -1.67428,5.04657 -3.15093,9.31766 -3.28145,9.4913 -0.13051,0.17365 -2.03507,-0.16836 -4.23235,-0.76003 -2.96499,-0.79839 -4.15495,-1.71283 -4.61521,-3.54665 -0.97955,-3.90287 -6.96483,-9.13083 -13.06759,-11.41417 -7.37112,-2.75788 -17.15346,-2.762 -26.06031,-0.0109 l -6.74695,2.08392 7.26582,7.31464 c 13.43461,13.52487 27.60928,17.20482 36.43209,9.45829 2.9811,-2.61745 3.58968,-2.77835 6.97396,-1.84391 2.9137,0.80452 3.58552,1.40921 3.1367,2.82331 -1.10582,3.48411 -3.49082,15.60625 -3.50798,17.82983 -0.026,3.37015 -6.15413,3.21641 -8.39968,-0.21074 -2.39519,-3.65552 -8.12304,-4.85358 -17.18126,-3.5937 -4.12045,0.5731 -9.38063,2.00565 -11.68929,3.18344 -4.07834,2.08062 -14.59023,9.86488 -14.68023,10.871 -0.0246,0.275 2.98779,1.8235 6.69419,3.4411 7.97504,3.4806 18.75557,4.51411 25.98193,2.49086 4.83698,-1.35427 12.25698,-7.66946 12.25698,-10.43196 0,-0.98541 0.98602,-1.5 2.87416,-1.5 l 2.87417,0 0.47929,11.25 c 0.48009,11.26853 2.27901,18.29569 6.2255,24.31879 1.50538,2.29751 3.54245,3.1023 4.76301,1.88174 z"
       style="fill:#950003;fill-opacity:1" />
  </g>
</svg>
