<?xml version="1.0" encoding="UTF-8" standalone="no"?>
<!-- Created with Inkscape (http://www.inkscape.org/) -->

<svg
   xmlns:dc="http://purl.org/dc/elements/1.1/"
   xmlns:cc="http://creativecommons.org/ns#"
   xmlns:rdf="http://www.w3.org/1999/02/22-rdf-syntax-ns#"
   xmlns:svg="http://www.w3.org/2000/svg"
   xmlns="http://www.w3.org/2000/svg"
   xmlns:sodipodi="http://sodipodi.sourceforge.net/DTD/sodipodi-0.dtd"
   xmlns:inkscape="http://www.inkscape.org/namespaces/inkscape"
   width="200"
   height="200"
   id="svg2"
   version="1.1"
   inkscape:version="0.48.3.1 r9886"
   sodipodi:docname="Fresno.svg">
  <defs
     id="defs4" />
  <sodipodi:namedview
     id="base"
     pagecolor="#ffffff"
     bordercolor="#666666"
     borderopacity="1.0"
     inkscape:pageopacity="0.0"
     inkscape:pageshadow="2"
     inkscape:zoom="1.979899"
     inkscape:cx="116.38095"
     inkscape:cy="46.378599"
     inkscape:document-units="px"
     inkscape:current-layer="layer1"
     showgrid="false"
     inkscape:window-width="1366"
     inkscape:window-height="692"
     inkscape:window-x="0"
     inkscape:window-y="24"
     inkscape:window-maximized="1" />
  <metadata
     id="metadata7">
    <rdf:RDF>
      <cc:Work
         rdf:about="">
        <dc:format>image/svg+xml</dc:format>
        <dc:type
           rdf:resource="http://purl.org/dc/dcmitype/StillImage" />
      </cc:Work>
    </rdf:RDF>
  </metadata>
  <g
     inkscape:label="Capa 1"
     inkscape:groupmode="layer"
     id="layer1"
     transform="translate(0,-852.36218)">
    <g
       id="g2993"
       transform="translate(-130,569.2857)">
      <path
         style="fill:#ffffff"
         d="m 209.47413,481.70365 c -30.58282,-6.40035 -56.30154,-26.25341 -69.98211,-54.02135 -7.87178,-15.97761 -9.5179,-23.68143 -9.5179,-44.54356 0,-20.86213 1.64612,-28.56595 9.5179,-44.54356 9.68176,-19.65141 25.78714,-35.75677 45.43854,-45.43854 15.97762,-7.87178 23.68144,-9.5179 44.54357,-9.5179 20.86213,0 28.56595,1.64612 44.54355,9.5179 19.65141,9.68177 35.75675,25.78713 45.43855,45.43854 7.8718,15.97761 9.5179,23.68143 9.5179,44.54356 0,20.86213 -1.6461,28.56595 -9.5179,44.54356 -12.4411,25.25204 -36.64672,45.2861 -63.48211,52.54162 -10.20788,2.75992 -36.40016,3.59341 -46.5,1.47973 z"
         id="path3019"
         inkscape:connector-curvature="0" />
      <path
         inkscape:connector-curvature="0"
         id="path2984"
         d="m 202.63037,286.39071 c -12.10205,3.73558 -18.87119,6.90582 -28.59375,13.375 -10.713,7.12817 -20.49682,16.91201 -27.625,27.625 -6.53885,9.82729 -9.73714,16.66404 -13.3125,28.59375 -0.6232,2.07941 -1.13942,4.50172 -1.59375,7.125 -0.0486,0.28035 -0.10968,0.55859 -0.15625,0.84375 -2.32437,12.86719 -2.41829,24.86715 -0.3125,37.03125 0.0666,0.37194 0.11529,0.7686 0.1875,1.125 0.0805,0.39707 0.16532,0.79236 0.25,1.1875 0.17406,0.85628 0.3667,1.71432 0.5625,2.5625 0.27663,1.19835 0.58697,2.38104 0.90625,3.5625 0.0149,0.0539 0.0475,0.1024 0.0625,0.15625 2.62405,9.64531 6.63906,18.71748 11.84375,26.96875 0.64335,1.01993 1.32124,2.03664 2,3.03125 0.46564,0.68232 0.9243,1.3612 1.40625,2.03125 0.36083,0.50481 0.72391,1.00248 1.09375,1.5 0.9401,1.26463 1.909,2.50235 2.90625,3.71875 0.0607,0.0737 0.12655,0.14518 0.1875,0.21875 0.31952,0.38743 0.64352,0.77383 0.96875,1.15625 0.15232,0.17835 0.3152,0.35398 0.46875,0.53125 5.73626,6.64795 12.35154,12.5122 19.6875,17.46875 10.5667,7.13939 22.63588,12.40224 35.84375,15.34375 11.63697,2.00718 24.76515,2.2667 36.25,0.4375 9.20704,-1.01193 16.16225,-3.14505 25.65625,-7.34375 15.49723,-6.85362 31.91981,-20.88221 41.8125,-35.75 6.46917,-9.72258 9.63943,-16.52296 13.375,-28.625 3.48543,-16.30838 5.09838,-37.63986 0,-54.28125 -5.44579,-17.64259 -13.78204,-31.84452 -25.75,-43.8125 -11.96797,-11.96797 -26.20117,-20.33546 -43.84375,-25.78125 -15.87787,-3.57225 -37.81006,-5.0529 -54.28125,0 z m 65.53125,23 c 0.14158,-0.005 0.24025,0.0215 0.28125,0.0625 0.68518,0.68517 -1.74366,25.11189 -2.875,28.9375 -2.43822,8.24484 -12.18482,15.75 -20.46875,15.75 -3.93145,0 -4.11711,0.14308 -6.1875,5.125 -2.62746,6.32236 -2.6297,6.875 -0.125,6.875 1.60993,0 2,-0.68597 2,-3.4375 0,-5.49351 0.80758,-6.5625 4.90625,-6.5625 4.90221,0 13.51089,-4.40879 16.875,-8.625 l 2.71875,-3.375 11.75,0 11.78125,0 -2.125,4.15625 c -3.18181,6.23685 -11.15983,14.13554 -17.5625,17.375 -6.57052,3.32435 -14.98702,4.30479 -21.90625,2.5625 -3.46123,-0.87153 -5.50862,-0.87436 -8.53125,0.0312 -3.91652,1.17343 -3.98894,1.32847 -6.78125,10.28125 l -2.84375,9.09375 2.28125,0.3125 c 1.58989,0.21542 3.30793,-0.81538 5.625,-3.34375 2.57448,-2.80925 4.68806,-3.94354 9.3125,-5.03125 12.51344,-2.94326 22.81296,-1.04899 35.625,6.5625 l 7.03125,4.1875 -3.65625,2.5 c -10.41795,7.07917 -21.08911,9.45465 -33.03125,7.375 -8.05704,-1.40307 -13.83369,-4.12803 -16.125,-7.625 -1.28233,-1.95709 -2.34351,-2.48293 -4.6875,-2.25 -2.73708,0.27198 -3.18385,0.81276 -4.34375,5.3125 -0.70887,2.75 -1.5817,7.75049 -1.9375,11.125 l -0.625,6.15625 2.875,-0.53125 c 1.582,-0.27977 4.33359,-1.89981 6.125,-3.59375 2.79044,-2.63859 4.17184,-3.11954 9.65625,-3.46875 11.96754,-0.76206 21.21339,4.50311 29.59375,16.84375 4.50436,6.63297 4.80101,6.29274 -6.875,8 -6.85389,1.00219 -9.17159,0.93223 -15.46875,-0.46875 -9.62735,-2.14189 -16.29994,-6.33483 -18.5,-11.625 -1.46936,-3.53319 -2.00245,-3.9651 -4.65625,-3.71875 l -3,0.28125 0,11.65625 c 0.0238,11.41359 0.12629,11.83862 3.65625,18.71875 1.98465,3.8682 3.36471,7.26029 3.0625,7.5625 -1.22055,1.22056 -3.27587,0.42251 -4.78125,-1.875 -3.94649,-6.0231 -5.73866,-13.04397 -6.21875,-24.3125 l -0.46875,-11.25 -2.875,0 c -1.88813,0 -2.875,0.51459 -2.875,1.5 0,2.7625 -7.44427,9.08322 -12.28125,10.4375 -7.22636,2.02324 -17.99371,0.9806 -25.96875,-2.5 -3.70639,-1.61761 -6.7121,-3.1625 -6.6875,-3.4375 0.09,-1.00612 10.60917,-8.79439 14.6875,-10.875 2.30866,-1.17779 7.56705,-2.61441 11.6875,-3.1875 9.05822,-1.25988 14.76105,-0.0618 17.15625,3.59375 2.24555,3.42715 8.38025,3.58889 8.40625,0.21875 0.0171,-2.22358 2.39418,-14.35964 3.5,-17.84375 0.44882,-1.4141 -0.21129,-2.00798 -3.125,-2.8125 -3.38428,-0.93444 -3.98764,-0.7737 -6.96875,1.84375 -8.82281,7.74653 -23.00289,4.05611 -36.4375,-9.46875 l -7.25,-7.3125 6.71875,-2.0625 c 8.90686,-2.7511 18.69138,-2.75788 26.0625,0 6.10276,2.28333 12.1142,7.50338 13.09375,11.40625 0.46026,1.83381 1.62876,2.7641 4.59375,3.5625 2.19729,0.59167 4.11949,0.92364 4.25,0.75 0.13052,-0.17364 1.60697,-4.45344 3.28125,-9.5 l 3.03125,-9.15625 -2.6875,-2.59375 c -2.14226,-2.05243 -3.68242,-2.5545 -7.625,-2.5625 -9.16206,-0.0181 -19.81963,-6.9445 -24.34375,-15.8125 -1.87433,-3.674 -5.41883,-18.23743 -4.625,-19.03125 0.83713,-0.83714 11.27394,2.24567 16.53125,4.875 10.08424,5.04342 20.45734,18.37805 19.84375,25.5 -0.18992,2.20442 0.34891,4.05868 1.625,5.46875 l 1.9375,2.125 3.625,-7.875 3.65625,-7.875 -1.3125,-7.4375 c -2.3456,-13.28963 1.12675,-21.84149 11.625,-28.46875 3.45278,-2.17966 16.25133,-7.14702 18.375,-7.21875 z"
         style="fill:#950003;fill-opacity:1"
         sodipodi:nodetypes="cssscccccsccsscsccccsccssccscccssssssscccccssccccsscccsssscccsssssscccsssccsssssssscssscccssscccccsssscccccscc" />
    </g>
  </g>
</svg>
