<?xml version="1.0" encoding="UTF-8" standalone="no"?>
<!-- Created with Inkscape (http://www.inkscape.org/) -->

<svg
   xmlns:dc="http://purl.org/dc/elements/1.1/"
   xmlns:cc="http://creativecommons.org/ns#"
   xmlns:rdf="http://www.w3.org/1999/02/22-rdf-syntax-ns#"
   xmlns:svg="http://www.w3.org/2000/svg"
   xmlns="http://www.w3.org/2000/svg"
   xmlns:sodipodi="http://sodipodi.sourceforge.net/DTD/sodipodi-0.dtd"
   xmlns:inkscape="http://www.inkscape.org/namespaces/inkscape"
   width="200"
   height="200"
   id="svg6252"
   version="1.1"
   inkscape:version="0.48.3.1 r9886"
   sodipodi:docname="Nuevo documento 150">
  <defs
     id="defs6254" />
  <sodipodi:namedview
     id="base"
     pagecolor="#ffffff"
     bordercolor="#666666"
     borderopacity="1.0"
     inkscape:pageopacity="0.0"
     inkscape:pageshadow="2"
     inkscape:zoom="1.4"
     inkscape:cx="178.55661"
     inkscape:cy="83.837524"
     inkscape:document-units="px"
     inkscape:current-layer="layer1"
     showgrid="false"
     inkscape:window-width="1366"
     inkscape:window-height="692"
     inkscape:window-x="0"
     inkscape:window-y="24"
     inkscape:window-maximized="1" />
  <metadata
     id="metadata6257">
    <rdf:RDF>
      <cc:Work
         rdf:about="">
        <dc:format>image/svg+xml</dc:format>
        <dc:type
           rdf:resource="http://purl.org/dc/dcmitype/StillImage" />
        <dc:title></dc:title>
      </cc:Work>
    </rdf:RDF>
  </metadata>
  <g
     inkscape:label="Capa 1"
     inkscape:groupmode="layer"
     id="layer1"
     transform="translate(0,-852.36218)">
    <path
       style="fill:#950003;fill-opacity:1"
       d="m 100.05239,852.37566 c -25.439733,0 -50.878823,9.84757 -70.562503,29.53125 -39.3673597,39.36736 -39.3673597,101.75764 0,141.12499 14.30267,14.3027 30.84993,23.2786 50.5625,27.4688 11.46916,2.4379 27.901533,2.4689 39.500003,0.062 78.48627,-16.2843 107.52529,-112.1935 51.0625,-168.65629 -19.68368,-19.68368 -45.12277,-29.53125 -70.5625,-29.53125 z m 6.84375,29.5 c 7.08205,0.25646 20.28592,5.1471 27.28125,10.6875 7.63667,6.04836 9.12705,12.41156 6.84375,29.5625 -1.41301,10.61374 -1.5746,10.99402 -3.8125,8.96875 -2.24389,-2.03069 -3.55526,-2.05407 -5.15625,-0.125 -0.68469,0.825 -2.11311,1.5 -3.15625,1.5 -1.58065,0 -1.76918,-0.45813 -1.15625,-2.75 0.4045,-1.5125 0.76275,-6.81441 0.78125,-11.78125 0.0332,-8.91944 -0.0215,-9.15335 -5.0625,-19 -4.78841,-9.35326 -5.44114,-10.1387 -10.4375,-12.71875 -2.92902,-1.5125 -6.71738,-2.76455 -8.40625,-2.78125 -2.34699,-0.0232 -2.70056,-0.26636 -1.5,-0.96875 0.82921,-0.48513 2.14693,-0.65293 3.78125,-0.59375 z m -6.1875,2.65625 c 4.5549,0.0782 8.84256,1.05131 12.34375,3.03125 3.53854,2.00106 5.03086,3.95974 9.1875,11.90625 l 4.96875,9.5 -0.40625,11.21875 c -0.21509,6.17664 -0.63665,11.51165 -0.96875,11.84375 -1.56593,1.56591 -9.84572,1.52837 -21.6875,-0.0937 -12.144623,-1.66365 -13.297553,-1.67031 -17.343753,-0.12505 -5.24752,2.00405 -8.43921,2.04887 -11.75,0.15625 -1.4249,-0.81455 -5.23368,-1.44855 -8.875,-1.46875 l -6.40625,-0.0312 0.5,-8.9375 c 0.55728,-9.77387 2.36395,-14.62535 8.28125,-22.375 7.04666,-9.22873 20.51596,-14.82495 32.156253,-14.625 z m -17.156253,1.0625 c 0.66257,-0.0418 -0.328,0.63429 -3,2.03125 -2.2,1.1502 -5.65167,3.43066 -7.6875,5.03125 -2.03583,1.60059 -5.57321,5.68134 -7.84375,9.09375 -3.83295,5.76055 -4.08899,5.96838 -3.4375,2.71875 2.02505,-10.10101 4.19291,-12.50245 15.0625,-16.59375 3.92086,-1.4758 6.24368,-2.23942 6.90625,-2.28125 z m -20.21875,46.03125 c 4.42955,-0.0511 8.26203,0.6833 13.875,2.5 4.17427,1.351 4.94042,1.32682 7.6875,-0.0937 1.76681,-0.91365 5.54641,-1.5625 8.9375,-1.5625 6.548003,0 17.254393,1.70815 18.562503,2.96875 0.46814,0.4511 2.12296,0.47099 3.65625,0.0312 4.65567,-1.33521 22.36748,-2.38148 21.6875,-1.28125 -0.62145,1.00552 -20.14732,3.67419 -22.625,3.09375 -0.9034,-0.21163 -2.15984,1.8636 -3.625,6.03125 -1.22971,3.49792 -2.93692,7.09317 -3.8125,7.96875 -1.89395,1.89395 -12.512273,2.60753 -17.250003,1.15625 -2.54087,-0.77832 -3.56416,-2.00712 -5.375,-6.46875 -1.77573,-4.37512 -2.68106,-5.5 -4.46875,-5.5 -1.74386,0 -2.6322,1.00031 -3.96875,4.5 -1.30992,3.42999 -2.95572,5.42896 -5.02434,6.07897 -2.55802,0.21412 -5.39357,0.30288 -7.74092,0.28002 -1.20295,0.0507 -2.3299,-0.31321 -3.4155,-0.59673 -1.60398,-0.3746 -3.45502,-0.94006 -4.63169,-2.07471 -2.0188,-2.0188 -4.98516,-12.43364 -4.15625,-14.59375 0.36653,-0.95516 2.7741,-1.70704 6.96875,-2.15625 1.70207,-0.18228 3.24223,-0.26421 4.71875,-0.28125 z m -2.375,2.9375 c -6.15656,0.19046 -7.28156,1.5981 -7.09375,6.59375 0.1623,4.31702 1.86602,7.09772 5.28132,8.59527 3.14316,1.06096 6.89253,0.56485 10.28118,0.62348 1.1962,-0.45143 2.84353,-1.57006 4.09375,-2.875 2.16091,-2.25551 2.8706,-3.99102 2.9375,-7.1875 0.10632,-5.07655 -1.00424,-5.59936 -12.53125,-5.75 -1.09538,-0.0143 -2.08924,-0.0272 -2.96875,0 z m 80.625003,0.0625 c 2.07038,-0.0986 4.68176,1.29351 5.4375,3.28125 1.77718,4.67435 -0.64769,9.55207 -8.96875,17.90625 -6.42205,6.44761 -8.15412,7.68066 -9.59375,6.875 -1.51877,-0.84994 -2.43911,0.44686 -7.03125,9.78125 -6.51128,13.23537 -13.77576,21.05674 -24.531253,26.4375 -7.26466,3.63439 -10.30166,4.05529 -17.1875,2.43749 -6.47372,-1.52092 -9.61513,-3.93923 -10.8125,-8.37499 -0.59636,-2.20926 -1.95717,-6.18128 -3.03125,-8.84375 -1.87765,-4.65438 -1.89099,-4.88777 -0.15625,-6.15625 0.99233,-0.72561 3.5345,-1.60322 5.625,-1.9375 2.0905,-0.33429 4.05269,-1.28508 4.375,-2.125 0.4968,-1.29464 0.80743,-1.23841 1.9375,0.375 0.73317,1.04673 3.35572,2.45964 5.84375,3.15625 2.48803,0.6966 5.02846,1.8998 5.65625,2.65625 0.6278,0.75645 2.00484,1.375 3.0625,1.375 2.15741,0 6.84375,-4.23694 6.84375,-6.1875 0,-0.69738 -0.70632,-0.25362 -1.5625,0.96875 -1.61295,2.30281 -4.85614,2.96843 -5.9375,1.21875 -1.28372,-2.07711 -12.16547,-6.70744 -15.0625,-6.40625 -5.23761,0.54454 -8.89938,1.62401 -10.625,3.125 -0.92784,0.80707 -2.11603,1.22081 -2.625,0.90625 -0.50896,-0.31456 -1.1481,-4.74193 -1.4375,-9.84375 -0.2894,-5.10182 -0.81387,-9.95625 -1.15625,-10.78125 -0.51514,-1.24131 0.48902,-1.5 5.75,-1.5 7.41356,0 8.90443,-0.95197 11.25,-7.09375 0.92867,-2.43168 2.19468,-4.40625 2.84375,-4.40625 0.64907,0 2.18532,2.39805 3.40625,5.34375 2.71803,6.55775 4.81546,7.65625 14.65625,7.65625 8.940933,0 11.434423,-1.75825 13.968753,-9.71875 1.61617,-5.07651 1.75359,-5.20541 6.21875,-5.875 3.67393,-0.55094 4.76529,-0.37535 5.5,0.9375 1.23411,2.20523 3.54368,2.07386 4.28125,-0.25 0.42795,-1.34835 1.94974,-2.09316 5.3125,-2.59375 2.59439,-0.3862 5.2884,-1.15881 5.96875,-1.71875 0.4799,-0.39496 1.09112,-0.59214 1.78125,-0.625 z m -45.906253,0.84375 c -4.43948,0.0106 -8.65849,0.40849 -9.4375,1.1875 -3.19339,3.19339 -0.0354,12.06278 5.125,14.40625 4.06718,1.84702 13.193193,1.15466 15.781253,-1.1875 2.11188,-1.91122 3.39724,-7.26209 2.46875,-10.1875 -0.33781,-1.06435 -1.7347,-2.42903 -3.125,-3.0625 -1.6968,-0.77313 -6.37302,-1.16683 -10.812503,-1.15625 z m 31.437503,2 c 0.58246,0 0.77742,0.45 0.4375,1 -0.33992,0.55 -0.81996,1 -1.0625,1 -0.24254,0 -0.4375,-0.45 -0.4375,-1 0,-0.55 0.48004,-1 1.0625,-1 z m 0.84375,26.5625 c 0.32126,-0.0206 0.68103,0.0401 1.125,0.15625 1.93675,0.50647 2.11869,1.01239 1.5625,4.65625 -1.80289,11.81154 -11.7302,23.76231 -24.9375,30.03125 -3.94167,1.87094 -8.731253,3.67564 -10.656253,4.03124 -3.09798,0.5722 -2.79827,0.2821 2.53125,-2.6562 7.984073,-4.40192 13.270303,-8.77032 17.687503,-14.56254 3.91485,-5.13349 8.74611,-13.78529 10.53125,-18.90625 0.67583,-1.93873 1.19248,-2.68823 2.15625,-2.75 z m 5.03125,3.15625 c 0.5247,-0.0446 1.67852,1.42599 3.21875,4.09375 l 3.0625,5.28125 -3.0625,6.1875 c -4.07466,8.24188 -14.23456,20.75914 -24,29.56254 -4.3637,3.9338 -8.14726,7.1562 -8.4375,7.1562 -1.07529,0 -7.424863,-12.5539 -6.968753,-13.7812 0.26025,-0.7003 3.897863,-2.8571 8.062503,-4.7813 14.56184,-6.72797 22.43431,-14.77743 25.8125,-26.37499 0.89236,-3.06355 1.82532,-6.24498 2.0625,-7.0625 0.0502,-0.17306 0.12892,-0.27095 0.25,-0.28125 z m 8.40625,11.09375 5.71875,6 c 3.43473,3.59826 6.88509,6.23599 8.65625,6.625 1.65734,0.36402 5.20999,2.95418 8.15625,5.9375 l 5.25,5.31249 -5.03125,6 c -2.75932,3.3023 -7.44463,7.8714 -10.40625,10.1563 l -5.375,4.1562 -22.40625,-0.031 -22.40625,-0.031 3,-2.1875 c 9.92924,-7.2207 23.30019,-22.56197 31.15625,-35.74999 z m -79.843753,3.96875 c 1.93618,-0.33523 2.59186,2.02199 4.53125,8.4375 1.56509,5.17731 2.84075,7.37818 5.5,9.50004 l 3.46875,2.7812 0,10.25 0,10.25 -10.90625,0 -10.90625,0 -6.0625,-4.5937 c -6.29547,-4.7324 -14.30703,-13.2954 -13.5625,-14.5 0.23344,-0.3778 2.45105,-1.6438 4.9375,-2.8125 2.91344,-1.3695 5.76299,-3.82378 8,-6.93754 1.90915,-2.6574 6.22421,-6.79265 9.59375,-9.15625 2.64351,-1.85432 4.24454,-3.01761 5.40625,-3.21875 z m 17.46875,20.21874 c 0.44537,0 1.72419,0.7875 2.84375,1.75 l 2.03125,1.75 -2.1875,4.8438 -2.1875,4.875 -1.3125,-3.625 c -1.29837,-3.5906 -0.78569,-9.5938 0.8125,-9.5938 z m 9.3125,3.0313 c 0.44501,-0.01 0.95755,-0 1.53125,0 4.41406,0.023 4.80208,0.2499 6.53125,3.7187 l 1.84375,3.6875 -2.84375,2.2813 c -3.27869,2.6237 -4.61506,2.7278 -9.09375,0.7812 -3.64215,-1.583 -3.62832,-1.5618 -2.1875,-6.75 0.88927,-3.2021 1.10368,-3.6676 4.21875,-3.7187 z m -4.375,11.0625 c 0.94428,0.025 2.18172,0.3879 3.9375,1 3.81177,1.3288 4.47163,4.8888 0.90625,4.9062 -1.2375,0.01 -3.9375,0.2841 -6,0.625 -4.2179,0.6972 -4.3608,0.4548 -2.21875,-3.6875 1.04717,-2.025 1.80119,-2.8858 3.375,-2.8437 z"
       id="path6291"
       inkscape:connector-curvature="0"
       sodipodi:nodetypes="ssssssssssssssssscsssscccsssscccssssssssssssscssssssssscccccssssscscsssssssssssssssssssssssssssssssssssssssssssssssssssscssssssccccsssssscccsccccccccccsscccccccsssssscscccssssccssssscssssc" />
  </g>
</svg>
