<?xml version="1.0" encoding="UTF-8" standalone="no"?>
<!-- Created with Inkscape (http://www.inkscape.org/) -->

<svg
   xmlns:dc="http://purl.org/dc/elements/1.1/"
   xmlns:cc="http://creativecommons.org/ns#"
   xmlns:rdf="http://www.w3.org/1999/02/22-rdf-syntax-ns#"
   xmlns:svg="http://www.w3.org/2000/svg"
   xmlns="http://www.w3.org/2000/svg"
   xmlns:sodipodi="http://sodipodi.sourceforge.net/DTD/sodipodi-0.dtd"
   xmlns:inkscape="http://www.inkscape.org/namespaces/inkscape"
   width="200"
   height="200"
   id="svg6475"
   version="1.1"
   inkscape:version="0.48.3.1 r9886"
   sodipodi:docname="Nuevo documento 159">
  <defs
     id="defs6477" />
  <sodipodi:namedview
     id="base"
     pagecolor="#ffffff"
     bordercolor="#666666"
     borderopacity="1.0"
     inkscape:pageopacity="0.0"
     inkscape:pageshadow="2"
     inkscape:zoom="1.4"
     inkscape:cx="221.6025"
     inkscape:cy="143.83564"
     inkscape:document-units="px"
     inkscape:current-layer="layer1"
     showgrid="false"
     inkscape:window-width="1366"
     inkscape:window-height="692"
     inkscape:window-x="0"
     inkscape:window-y="24"
     inkscape:window-maximized="1" />
  <metadata
     id="metadata6480">
    <rdf:RDF>
      <cc:Work
         rdf:about="">
        <dc:format>image/svg+xml</dc:format>
        <dc:type
           rdf:resource="http://purl.org/dc/dcmitype/StillImage" />
        <dc:title></dc:title>
      </cc:Work>
    </rdf:RDF>
  </metadata>
  <g
     inkscape:label="Capa 1"
     inkscape:groupmode="layer"
     id="layer1"
     transform="translate(0,-852.36218)">
    <path
       inkscape:connector-curvature="0"
       id="path6514"
       d="m 82.039268,1051.2967 c -40.91557,-7.7639 -72.6745897,-39.8075 -80.4625697,-81.18348 -2.18075995,-11.5859 -1.52249995,-31.51635 1.40374,-42.50183 4.86799,-18.27515 13.4191997,-33.17206 26.6180997,-46.37096 13.14357,-13.14357 27.79449,-21.57473 46.37095,-26.68507 11.12222,-3.0597 37.228642,-3.0597 48.350862,0 18.57647,5.11034 33.22739,13.5415 46.37096,26.68507 13.13034,13.13035 21.53099,27.71942 26.70121,46.37096 3.09535,11.16646 3.09535,38.1844 0,49.35086 -5.17022,18.65154 -13.57087,33.24065 -26.70121,46.37095 -13.21423,13.2142 -28.17589,21.7967 -46.37096,26.5997 -10.19137,2.6903 -31.643892,3.3822 -42.281082,1.3638 z m 88.605652,-52.00988 c 0,-1.02474 -137.681092,-2.02159 -140.313382,-1.01591 -0.72236,0.27598 -1.03143,0.95799 -0.68682,1.51558 0.86021,1.39181 141.000202,0.89521 141.000202,-0.49967 z m -8,-6 c 0,-0.55 -2.08496,-1.13501 -4.63325,-1.30002 -4.51959,-0.29267 -4.67668,-0.41532 -6.40413,-5 -3.41895,-9.07399 -21.11723,-23.65989 -29.83649,-24.58951 -1.44613,-0.15419 -2.92861,-0.57962 -3.2944,-0.9454 -0.36578,-0.36579 -1.82756,-0.64518 -3.2484,-0.62087 -2.39983,0.041 -2.31571,0.18545 1.18423,2.03289 6.75874,3.5676 11.44816,12.1759 13.27719,24.37276 0.66186,4.41359 0.6039,4.55015 -1.93121,4.55015 -2.30723,0 -2.61354,-0.39976 -2.61354,-3.41091 0,-8.60833 -6.38705,-21.93251 -12.14356,-25.33296 -1.97183,-1.16479 -2.44717,-1.89738 -1.58607,-2.44439 0.68104,-0.43262 -1.11263,-0.78795 -4.02037,-0.79643 l -5.24999,-0.0153 0,-5.67126 c 0,-3.87384 0.52451,-6.25085 1.65498,-7.5 1.53998,-1.70166 1.53998,-1.82874 0,-1.82874 -1.39414,0 -1.65498,-1.19241 -1.65498,-7.56574 0,-7.78802 0.76137,-10.29997 4.29927,-14.18426 2.01738,-2.2149 2.01855,-2.25 0.075,-2.25 -1.08587,0 -2.51431,0.54 -3.17431,1.2 -1.95198,1.952 -1.45376,-4.04436 0.73695,-8.86932 2.2233,-4.89669 4.47046,-6.33068 9.92061,-6.33068 7.91776,0 12.14247,6.74418 12.14247,19.3838 0,5.79943 1.13186,7.58158 3.5438,5.57984 1.8764,-1.55727 1.85244,-7.02219 -0.063,-14.37619 -2.79023,-10.71246 -7.97623,-15.17865 -16.65648,-14.34459 -2.77026,0.26619 -5.76283,1.27724 -6.98921,2.36132 l -2.14471,1.89582 1.6717,-2.60027 c 2.5512,-3.96828 10.84924,-8.01787 17.70295,-8.63935 10.46802,-0.9492 17.72376,3.46032 20.79685,12.63884 1.41628,4.23009 1.46434,9.62268 0.10833,12.1564 -0.85446,1.59657 -1.35136,1.72331 -2.9188,0.74443 -2.11211,-1.31904 -5.05143,0.30278 -5.05143,2.78721 0,2.72851 7.10648,4.46032 11.4552,2.79156 4.32116,-1.65819 5.99906,-12.95636 2.99412,-20.16094 -6.67618,-16.00667 -30.66485,-20.49424 -43.62904,-8.1617 -3.88971,3.7002 -3.98454,3.73206 -3.35077,1.12589 1.09613,-4.50749 5.41365,-10.15871 9.10669,-11.9198 3.03833,-1.44888 3.92964,-1.4923 6.71363,-0.32707 1.76559,0.73899 4.56017,1.39338 6.21017,1.45421 4.12346,0.152 3.8968,-2.20019 -0.5,-5.18869 -2.78105,-1.89028 -4.44448,-2.2911 -8.09791,-1.95124 -5.38766,0.50117 -8.75597,2.74299 -12.32146,8.20069 -2.62205,4.01358 -3.4418,2.9451 -1.55265,-2.02376 1.14187,-3.00334 0.38773,-4.69777 -1.06704,-2.39745 -0.65948,1.04279 -0.93477,0.23377 -0.94562,-2.77896 -0.008,-2.3375 -0.46531,-4.25 -1.01531,-4.25 -0.550002,0 -1.006902,1.9125 -1.015322,4.25 -0.0109,3.01273 -0.28615,3.82175 -0.94563,2.77896 -1.45476,-2.30032 -2.2089,-0.60589 -1.06703,2.39745 1.88915,4.96886 1.0694,6.03734 -1.55265,2.02376 -3.56549,-5.4577 -6.93381,-7.69952 -12.32146,-8.20069 -3.65344,-0.33986 -5.31687,0.061 -8.09791,1.95124 -4.3968,2.9885 -4.62347,5.34069 -0.5,5.18869 1.65,-0.0608 4.44457,-0.71522 6.21017,-1.45421 2.78398,-1.16523 3.6753,-1.12181 6.71362,0.32707 3.69305,1.76109 8.01056,7.41231 9.1067,11.9198 0.63377,2.60617 0.53894,2.57431 -3.35078,-1.12589 -12.96419,-12.33254 -36.95285,-7.84497 -43.62903,8.1617 -3.00494,7.20458 -1.32704,18.50275 2.99412,20.16094 4.34871,1.66876 11.45519,-0.063 11.45519,-2.79156 0,-2.48443 -2.93931,-4.10625 -5.05143,-2.78721 -1.56743,0.97888 -2.06434,0.85214 -2.9188,-0.74443 -1.356,-2.53372 -1.30795,-7.92631 0.10834,-12.1564 3.07309,-9.17852 10.32882,-13.58804 20.79684,-12.63884 6.85371,0.62148 15.15176,4.67107 17.70295,8.63935 l 1.67171,2.60027 -2.14467,-1.89582 c -1.22639,-1.08408 -4.21896,-2.09513 -6.9892,-2.36132 -8.68026,-0.83406 -13.86626,3.63213 -16.6565,14.34459 -1.91547,7.354 -1.93944,12.81892 -0.063,14.37619 2.41194,2.00174 3.54381,0.21959 3.54381,-5.57984 0,-12.63962 4.22471,-19.3838 12.14246,-19.3838 5.45015,0 7.69731,1.43399 9.92059,6.33068 2.19071,4.82496 2.68894,10.82132 0.73695,8.86932 -0.66,-0.66 -2.08845,-1.2 -3.17432,-1.2 -1.94352,0 -1.94235,0.0351 0.075,2.25 3.5379,3.88429 4.29928,6.39624 4.29928,14.18426 0,6.37333 -0.26084,7.56574 -1.65499,7.56574 -1.53999,0 -1.53999,0.12708 0,1.82874 1.13046,1.24915 1.65499,3.62616 1.65499,7.5 l 0,5.67126 -5.25,0.0153 c -2.90774,0.008 -4.70141,0.36381 -4.02038,0.79643 0.85947,0.54597 0.3656,1.29151 -1.64054,2.47656 -5.61072,3.31435 -12.08908,16.92219 -12.08908,25.39321 0,2.91151 -0.32054,3.3185 -2.61355,3.3185 -2.5351,0 -2.59306,-0.13656 -1.9312,-4.55015 1.82903,-12.19686 6.51845,-20.80516 13.27719,-24.37276 3.49994,-1.84744 3.58406,-1.99184 1.18422,-2.03289 -1.42083,-0.0243 -2.88261,0.25508 -3.2484,0.62087 -0.36579,0.36578 -1.84826,0.79121 -3.2944,0.9454 -8.74757,0.93264 -26.41718,15.51519 -29.85559,24.63953 -1.75378,4.65392 -1.87707,4.75 -6.09511,4.75 -4.1229,0 -6.09886,0.99097 -4.7218,2.36803 1.10802,1.10802 124.798632,0.2477 124.798632,-0.86803 z M 56.604808,987.90051 c 3.29241,-9.33167 8.42563,-16.57008 14.89115,-20.99817 7.52904,-5.15646 9.1236,-4.67764 3.17091,0.95217 -5.95302,5.63011 -10.07167,12.92064 -11.11916,19.68231 -0.64216,4.14514 -0.75285,4.25 -4.48623,4.25 l -3.82784,0 1.37117,-3.88631 z m 25.05628,-3.36369 c 0.96292,-9.7075 3.77592,-16.92125 8.06791,-20.68967 3.81036,-3.34554 6.76421,-4.20765 4.01748,-1.17254 -3.00712,3.32282 -5.70583,12.21021 -6.3108,20.78271 l -0.58782,8.3295 -2.95296,0 -2.95296,0 0.71915,-7.25 z m 9.26726,-0.5 c 0.46983,-11.29779 1.99349,-17.90457 4.85114,-21.03514 l 2.47817,-2.71486 -0.57362,9 c -1.42454,22.35084 -1.45377,22.5 -4.41004,22.5 l -2.66794,0 0.32229,-7.75 z m 12.849592,1 c -0.31348,-3.7125 -0.82639,-10.8 -1.13981,-15.75 l -0.56983,-9 2.46011,2.71486 c 2.79028,3.0792 4.28047,9.47581 4.90046,21.03514 l 0.41568,7.75 -2.74833,0 c -2.67003,0 -2.76455,-0.19229 -3.31828,-6.75 z m 9.07622,-1.5795 c -0.60497,-8.5725 -3.30368,-17.45989 -6.31079,-20.78271 -2.74674,-3.03511 0.20712,-2.173 4.01748,1.17254 4.29199,3.76842 7.10498,10.98217 8.0679,20.68967 l 0.71915,7.25 -2.95296,0 -2.95296,0 -0.58782,-8.3295 z m 24.29076,5.84023 c 0,-6.66115 -6.71686,-18.19827 -13.91514,-23.90116 -3.0579,-2.42264 -3.21737,-2.72955 -1.08486,-2.08785 8.56418,2.57706 17.28604,12.53466 21.54011,24.59197 l 1.37117,3.88631 -3.95564,0 c -3.54814,0 -3.95564,-0.25644 -3.95564,-2.48927 z M 102.57468,874.10928 c 0.36417,-0.94904 -0.0236,-2.3449 -0.89301,-3.21429 -1.38233,-1.38232 -1.691162,-1.38232 -3.073492,0 -1.87732,1.87732 -0.93032,4.89183 1.536752,4.89183 0.98231,0 2.0757,-0.75489 2.42975,-1.67754 z"
       style="fill:#950003;fill-opacity:1" />
  </g>
</svg>
