<?xml version="1.0" encoding="UTF-8" standalone="no"?>
<!-- Created with Inkscape (http://www.inkscape.org/) -->

<svg
   xmlns:dc="http://purl.org/dc/elements/1.1/"
   xmlns:cc="http://creativecommons.org/ns#"
   xmlns:rdf="http://www.w3.org/1999/02/22-rdf-syntax-ns#"
   xmlns:svg="http://www.w3.org/2000/svg"
   xmlns="http://www.w3.org/2000/svg"
   xmlns:sodipodi="http://sodipodi.sourceforge.net/DTD/sodipodi-0.dtd"
   xmlns:inkscape="http://www.inkscape.org/namespaces/inkscape"
   width="200"
   height="200"
   id="svg6107"
   version="1.1"
   inkscape:version="0.48.3.1 r9886"
   sodipodi:docname="Nuevo documento 141">
  <defs
     id="defs6109" />
  <sodipodi:namedview
     id="base"
     pagecolor="#ffffff"
     bordercolor="#666666"
     borderopacity="1.0"
     inkscape:pageopacity="0.0"
     inkscape:pageshadow="2"
     inkscape:zoom="0.7"
     inkscape:cx="401.576"
     inkscape:cy="181.03191"
     inkscape:document-units="px"
     inkscape:current-layer="layer1"
     showgrid="false"
     inkscape:window-width="1366"
     inkscape:window-height="692"
     inkscape:window-x="0"
     inkscape:window-y="24"
     inkscape:window-maximized="1" />
  <metadata
     id="metadata6112">
    <rdf:RDF>
      <cc:Work
         rdf:about="">
        <dc:format>image/svg+xml</dc:format>
        <dc:type
           rdf:resource="http://purl.org/dc/dcmitype/StillImage" />
        <dc:title></dc:title>
      </cc:Work>
    </rdf:RDF>
  </metadata>
  <g
     inkscape:label="Capa 1"
     inkscape:groupmode="layer"
     id="layer1"
     transform="translate(0,-852.36218)">
    <path
       inkscape:connector-curvature="0"
       id="path6146"
       d="m 79.604925,1050.6485 c -40.2207,-8.9575 -70.0501805,-39.2637 -78.1910705,-79.4406 -2.50904,-12.38262 -1.59956999,-34.43413 1.90202,-46.11773 3.57536,-11.92971 6.7633405,-18.78748 13.3021905,-28.61476 7.12818,-10.713 16.89382,-20.47864 27.60681,-27.60682 9.72257,-6.46917 16.51271,-9.64411 28.61477,-13.37968 18.4558,-3.42661 37.087195,-5.26022 54.277135,0 17.64259,5.44579 31.85898,13.80635 43.82695,25.77431 11.96796,11.96797 20.32852,26.18436 25.77431,43.82695 3.42661,18.4558 5.26022,37.0872 0,54.27714 -3.73557,12.10205 -6.91051,18.8922 -13.37968,28.61479 -9.89269,14.8678 -26.30772,28.911 -41.80495,35.7646 -20.86521,7.3883 -41.10711,11.3737 -61.928485,6.9018 z m 50.146305,-35.4002 c 26.9182,-1.0174 29.3559,-1.615 33.95137,-8.3229 4.24317,-6.1935 4.71769,-11.71075 4.74725,-55.19666 0.0248,-36.50717 -0.16679,-41.6296 -1.74852,-46.74555 -2.0511,-6.63404 -6.69902,-12.42861 -11.61765,-14.48374 -5.05384,-2.11163 -50.74984,-3.36033 -81.576955,-2.22919 -23.19218,0.85099 -25.2935,1.08199 -29.49085,3.24202 -2.48565,1.27916 -5.76808,4.10245 -7.29428,6.27397 -4.62818,6.5851 -5.22119,12.9722 -5.19404,55.94249 0.0264,41.82957 0.49946,46.92716 4.98503,53.72206 4.26486,6.4606 6.46545,7.0418 29.46563,7.7817 31.24362,1.0051 37.556635,1.0066 63.773015,0.016 z m -51.773015,-4.6326 c -15.44293,-5.5841 -23.3555,-19.22566 -29.51618,-50.88696 -0.85616,-4.4 -1.78708,-9.06526 -2.06872,-10.36725 l -0.51206,-2.36724 13.29848,0.40066 c 16.23849,0.48924 21.09435,2.20732 21.61664,7.64831 0.30645,3.19233 0.43544,3.28447 3.5,2.5 9.24054,-2.36538 19.038505,0.95164 26.139075,8.84918 6.25545,6.95757 8.80941,14.27672 8.37652,24.00553 -0.29386,6.6042 -0.7586,8.26299 -3.34665,11.94537 -4.77491,6.7938 -10.72121,9.2902 -22.924825,9.6242 -7.3551,0.2013 -11.27298,-0.1624 -14.56228,-1.3518 z m 24.102115,-6.645 c 9.77755,-6.49773 10.69918,-25.24829 1.77325,-36.07699 -6.986045,-8.47529 -19.279915,-10.38313 -22.932205,-3.55876 -0.80968,1.51289 -0.78976,3.36477 0.075,6.96933 1.10499,4.60612 0.99537,5.29846 -1.77681,11.22247 l -2.95444,6.3135 2.9407,-0.4316 c 1.9794,-0.29052 3.91568,0.28922 5.92321,1.77345 l 2.98249,2.20505 -1.52675,-2.95242 c -0.83972,-1.62383 -1.24471,-3.23447 -0.89998,-3.57921 0.34474,-0.34473 -0.79821,-0.62678 -2.53988,-0.62678 -1.74166,0 -3.16666,-0.38429 -3.16666,-0.85398 0,-2.2751 5.08768,-5.96757 9.77021,-7.09089 2.8219,-0.67697 5.65321,-1.8604 6.2918,-2.62985 0.98411,-1.18578 0.66456,-1.22592 -2.09653,-0.2634 -2.69457,0.93933 -3.81698,0.83437 -6.49392,-0.60726 -4.52232,-2.43543 -6.03744,-6.04204 -3.90527,-9.29614 1.43912,-2.19638 2.1654,-2.43611 6.05283,-1.99794 6.1258,0.69046 11.665885,4.63103 14.373045,10.2233 1.81447,3.74818 2.1557,5.85301 1.81536,11.19786 -0.3787,5.94746 -0.73932,6.86816 -3.7403,9.54954 -3.080245,2.7522 -3.706425,2.91934 -8.631525,2.30399 -4.11541,-0.51418 -5.88656,-0.28592 -7.87114,1.01442 -1.53139,1.00341 -3.76752,1.50079 -5.56268,1.23732 -2.01384,-0.29557 -3.00188,-0.0155 -3.00188,0.85104 0,2.01655 3.52545,3.40685 6.91813,2.72835 2.07784,-0.4156 3.08187,-0.224 3.08187,0.5881 0,0.818 0.96246,0.9931 3,0.5455 3.32769,-0.7308 4.09829,0.761 1.25,2.4199 -1.3738,0.8002 -0.76067,1.0259 2.85211,1.0497 3.1463,0.021 5.677,-0.6839 8.000005,-2.2276 z m 16.99334,0.8677 c 7.81802,-16.70668 4.57799,-32.98599 -9.17623,-46.10529 -10.953955,-10.44831 -25.696955,-15.31525 -49.142855,-16.22298 -11.11044,-0.43016 -15.09821,-0.25918 -16.25,0.69673 -1.23294,1.02324 -1.82445,1.01939 -3.07693,-0.0201 -2.46312,-2.04421 -1.395,-6.23064 2.00347,-7.85248 2.55678,-1.22016 3.29654,-1.21198 5.51446,0.0609 2.30193,1.32113 2.86415,1.28637 5.54709,-0.34291 l 2.98554,-1.81304 -4.25,-0.005 c -4.90821,-0.006 -5.4662,-1.32498 -1.44117,-3.40641 2.01019,-1.03951 7.27071,-1.54439 18.50138,-1.77568 8.6309,-0.17775 15.69192,-0.0184 15.69116,0.35402 -7.5e-4,0.37246 -1.6789,2.05996 -3.72922,3.75 -5.10965,4.21181 -3.17846,3.85478 6.86239,-1.26869 11.596415,-5.9172 18.842405,-10.98999 29.159165,-20.41379 10.59016,-9.67355 19.00227,-14.45601 25.56617,-14.53491 17.47794,-0.21009 20.10917,19.55873 9.1524,68.76339 -4.5247,20.31952 -8.35146,29.67416 -15.18249,37.11414 -4.94523,5.386 -12.61899,9.3886 -18.02725,9.4029 l -3.69746,0.01 2.99038,-6.3903 z m 8.50932,-41.50712 c -0.82558,-3.22257 -3.59439,-10.51691 -6.15291,-16.20964 -6.893,-15.33699 -6.89242,-15.44209 0.14546,-26.47924 1.80991,-2.83838 1.75515,-2.82279 -2.11971,0.60356 -2.18769,1.93447 -5.64189,4.54431 -7.67599,5.79965 -6.44432,3.97708 -6.22757,6.66009 1.45925,18.06255 7.03168,10.43066 12.49363,21.61893 13.97213,28.62058 l 1.26699,6 0.30292,-5.26912 c 0.16661,-2.89801 -0.37255,-7.90576 -1.19814,-11.12834 z M 43.417805,926.75842 c -1.23396,-6.57755 -0.0373,-21.73069 1.98571,-25.14414 3.79793,-6.40839 10.47913,-7.97281 18.5032,-4.33255 4.51927,2.05024 9.48153,5.93905 23.46091,18.3858 l 7.88941,7.02446 -3.2122,0.65696 c -1.76671,0.36133 -10.94194,0.97585 -20.38941,1.36561 -16.94493,0.69907 -18.92569,1.0881 -26.86985,5.27735 -0.38096,0.20089 -0.99645,-1.25418 -1.36777,-3.23349 z"
       style="fill:#950003;fill-opacity:1"
       sodipodi:nodetypes="cssssccsccscccssssssssssccssscsssssssscsscscsscscsssssssssssssssssssscccssssscsccsscssssssccccssssssscsssssscssss" />
  </g>
</svg>
