<?xml version="1.0" encoding="UTF-8" standalone="no"?>
<!-- Created with Inkscape (http://www.inkscape.org/) -->

<svg
   xmlns:dc="http://purl.org/dc/elements/1.1/"
   xmlns:cc="http://creativecommons.org/ns#"
   xmlns:rdf="http://www.w3.org/1999/02/22-rdf-syntax-ns#"
   xmlns:svg="http://www.w3.org/2000/svg"
   xmlns="http://www.w3.org/2000/svg"
   xmlns:sodipodi="http://sodipodi.sourceforge.net/DTD/sodipodi-0.dtd"
   xmlns:inkscape="http://www.inkscape.org/namespaces/inkscape"
   width="200"
   height="200"
   id="svg4848"
   version="1.1"
   inkscape:version="0.48.3.1 r9886"
   sodipodi:docname="Nuevo documento 81">
  <defs
     id="defs4850" />
  <sodipodi:namedview
     id="base"
     pagecolor="#ffffff"
     bordercolor="#666666"
     borderopacity="1.0"
     inkscape:pageopacity="0.0"
     inkscape:pageshadow="2"
     inkscape:zoom="0.98994949"
     inkscape:cx="337.77446"
     inkscape:cy="179.10653"
     inkscape:document-units="px"
     inkscape:current-layer="layer1"
     showgrid="false"
     inkscape:window-width="1366"
     inkscape:window-height="692"
     inkscape:window-x="0"
     inkscape:window-y="24"
     inkscape:window-maximized="1" />
  <metadata
     id="metadata4853">
    <rdf:RDF>
      <cc:Work
         rdf:about="">
        <dc:format>image/svg+xml</dc:format>
        <dc:type
           rdf:resource="http://purl.org/dc/dcmitype/StillImage" />
        <dc:title></dc:title>
      </cc:Work>
    </rdf:RDF>
  </metadata>
  <g
     inkscape:label="Capa 1"
     inkscape:groupmode="layer"
     id="layer1"
     transform="translate(0,-852.36218)">
    <path
       inkscape:connector-curvature="0"
       id="path4887"
       d="m 85.507345,1051.2358 c -12.83198,-1.8316 -30.30164,-8.6493 -41.5,-16.1959 C 14.051575,1014.8529 -3.2320848,977.70109 0.75085518,942.05867 6.0384952,894.74082 42.412085,858.36723 89.729935,853.07959 c 33.820045,-3.77929 68.845925,11.30235 89.304845,38.45339 27.70813,36.77145 27.70813,84.83475 0,121.60622 -21.30453,28.2732 -57.90399,43.1813 -93.527435,38.0966 z m 27.177645,-28.9839 c 14.28204,-1.9795 22.32236,-7.2437 22.32236,-14.6151 0,-2.951 -0.99776,-4.6125 -5.94764,-9.90391 -6.51165,-6.96096 -8.03793,-10.64732 -8.04678,-19.43492 -0.007,-7.11192 -3.1074,-13.37885 -8.70741,-17.60148 -13.839555,-10.43556 -33.285865,-0.15793 -33.303755,17.60148 -0.009,8.7876 -1.53514,12.47396 -8.04678,19.43492 -4.94988,5.29141 -5.94764,6.95291 -5.94764,9.90391 0,11.5325 21.77004,18.2059 47.677645,14.6151 z m -26.177645,-1.9204 c -10.81227,-1.9621 -18.5,-6.1158 -18.5,-9.9954 0,-4.6162 8.47092,-8.4329 22.70666,-10.2309 19.053455,-2.4065 41.293345,3.1037 41.293345,10.2309 0,2.7783 -4.45741,6.0394 -11.13944,8.1496 -7.28756,2.3015 -26.239515,3.3196 -34.360565,1.8458 z m 18.427425,-8.6303 c 1.13992,-1.4492 2.07258,-3.4946 2.07258,-4.5454 0,-2.5486 -4.38405,-6.8197 -7,-6.8197 -2.615955,0 -7.000005,4.2711 -7.000005,6.8197 0,3.2458 3.83566,7.1803 7.000005,7.1803 1.89306,0 3.55308,-0.8877 4.92742,-2.6349 z M 80.507345,963.31152 c 8.38701,-12.65938 29.880465,-13.14536 38.363435,-0.86742 l 2.63657,3.81608 11.75,0.038 11.75,0.0379 0,-8.38646 0,-8.38645 -4.28257,-0.64221 c -6.6513,-0.99743 -10.41417,-3.84213 -13.09218,-9.89759 -1.29692,-2.93257 -3.60385,-6.3119 -5.1265,-7.50962 -2.12248,-1.66954 -2.36366,-2.17767 -1.03361,-2.17767 2.77295,0 8.53486,-6.41058 8.53486,-9.49571 0,-5.17485 -4.84377,-10.50429 -9.54705,-10.50429 -0.79912,0 -1.45295,-0.65917 -1.45295,-1.46482 0,-0.80565 -0.9,-1.94648 -2,-2.53518 -1.16668,-0.62439 -2,-2.09382 -2,-3.52671 0,-1.37333 0.8818,-3.00704 2,-3.70536 1.99435,-1.2455 2.90549,-6.76793 1.11663,-6.76793 -0.48585,0 -1.11872,-0.9 -1.40638,-2 -0.38927,-1.48858 -1.36401,-2 -3.81191,-2 -2.21873,0 -4.21517,-0.88742 -6.13556,-2.72727 -3.94175,-3.77643 -9.583815,-3.77643 -13.525565,0 -1.92039,1.83985 -3.91683,2.72727 -6.13556,2.72727 -2.4479,0 -3.42264,0.51142 -3.81191,2 -0.28766,1.1 -0.92053,2 -1.40638,2 -1.78886,0 -0.87772,5.52243 1.11663,6.76793 1.11819,0.69832 2,2.33203 2,3.70536 0,1.43289 -0.83332,2.90232 -2,3.52671 -1.1,0.5887 -2,1.72953 -2,2.53518 0,0.80565 -0.65383,1.46482 -1.45295,1.46482 -4.70328,0 -9.54705,5.32944 -9.54705,10.50429 0,3.08513 5.76191,9.49571 8.53486,9.49571 1.33005,0 1.08887,0.50813 -1.03361,2.17767 -1.52265,1.19772 -3.82958,4.57705 -5.1265,7.50962 -2.67801,6.05546 -6.44088,8.90016 -13.09218,9.89759 l -4.28257,0.64221 0,8.38645 0,8.38646 11.75,-0.003 11.75,-0.003 2,-3.01881 z m -23.5,0.52456 c 0,-1.22356 1.67887,-1.5 9.10979,-1.5 l 9.10979,0 5.4468,-4.97806 c 11.71896,-10.71048 27.464475,-10.68596 38.827225,0.0605 l 5.19965,4.91761 9.15337,0 c 7.46967,0 9.15338,0.27592 9.15338,1.5 0,1.23163 -1.75918,1.5 -9.83264,1.5 l -9.83263,0 -3.12607,-3.88997 c -4.63361,-5.76591 -12.06146,-9.11519 -20.155,-9.08807 -8.230725,0.0276 -13.495945,2.31719 -19.329675,8.40561 l -4.38116,4.57243 -9.67141,0 c -7.93015,0 -9.67142,-0.27006 -9.67142,-1.5 z m 19.65949,-36.75972 c -1.45994,-1.06753 -1.0314,-1.20474 2.80887,-0.89931 2.4924,0.19823 4.53164,0.76511 4.53164,1.25972 0,1.34683 -5.36603,1.08336 -7.34051,-0.36041 z m 39.340515,0.36041 c 0,-0.49461 2.03924,-1.06149 4.53164,-1.25972 3.84026,-0.30543 4.26881,-0.16822 2.80887,0.89931 -1.97448,1.44377 -7.34051,1.70724 -7.34051,0.36041 z"
       style="fill:#950003;fill-opacity:1" />
  </g>
</svg>
