<?xml version="1.0" encoding="UTF-8" standalone="no"?>
<!-- Created with Inkscape (http://www.inkscape.org/) -->

<svg
   xmlns:dc="http://purl.org/dc/elements/1.1/"
   xmlns:cc="http://creativecommons.org/ns#"
   xmlns:rdf="http://www.w3.org/1999/02/22-rdf-syntax-ns#"
   xmlns:svg="http://www.w3.org/2000/svg"
   xmlns="http://www.w3.org/2000/svg"
   xmlns:sodipodi="http://sodipodi.sourceforge.net/DTD/sodipodi-0.dtd"
   xmlns:inkscape="http://www.inkscape.org/namespaces/inkscape"
   width="200"
   height="200"
   id="svg4554"
   version="1.1"
   inkscape:version="0.48.3.1 r9886"
   sodipodi:docname="Nuevo documento 64">
  <defs
     id="defs4556" />
  <sodipodi:namedview
     id="base"
     pagecolor="#ffffff"
     bordercolor="#666666"
     borderopacity="1.0"
     inkscape:pageopacity="0.0"
     inkscape:pageshadow="2"
     inkscape:zoom="1.979899"
     inkscape:cx="124.637"
     inkscape:cy="45.581101"
     inkscape:document-units="px"
     inkscape:current-layer="layer1"
     showgrid="false"
     inkscape:window-width="1366"
     inkscape:window-height="692"
     inkscape:window-x="0"
     inkscape:window-y="24"
     inkscape:window-maximized="1" />
  <metadata
     id="metadata4559">
    <rdf:RDF>
      <cc:Work
         rdf:about="">
        <dc:format>image/svg+xml</dc:format>
        <dc:type
           rdf:resource="http://purl.org/dc/dcmitype/StillImage" />
        <dc:title></dc:title>
      </cc:Work>
    </rdf:RDF>
  </metadata>
  <g
     inkscape:label="Capa 1"
     inkscape:groupmode="layer"
     id="layer1"
     transform="translate(0,-852.36218)">
    <path
       inkscape:connector-curvature="0"
       id="path4586"
       d="m 81,1050.8521 c -21.09745,-4.421 -39.31235,-14.6061 -54.00925,-30.1999 -11.41897,-12.1159 -19.69048,-26.95678 -24.1703,-43.36676 -2.8775021,-17.56417 -4.4644413,-33.411 0,-50 7.88223,-28.87327 27.0424,-52.09135 53.67955,-65.04828 29.806101,-13.17642 61.63807,-12.19265 87,0 26.63715,12.95693 45.79732,36.17501 53.67955,65.04828 4.97,22.94521 2.00026,49.5055 -7.13127,68.5 -10.43034,21.44296 -26.60896,37.34086 -48.35677,47.51776 -21.00254,7.6922 -39.19945,11.8416 -60.69151,7.5489 z m 79,-98.56666 0,-60 -60,0 -60,0 0,60 0,59.99996 60,0 60,0 z m -115,0 0,-55 55,0 55,0 0,55 0,54.99996 -55,0 -55,0 z m 59.91245,43.06189 c 2.52315,-1.61596 10.72951,-5.9177 18.23634,-9.55942 7.50684,-3.64173 14.30826,-7.38208 15.11428,-8.31189 0.80601,-0.92982 3.32656,-6.27456 5.6012,-11.87721 L 148,955.41219 l 0,-13.94093 c 0,-9.93735 -0.35898,-14.2364 -1.25,-14.96979 -0.6875,-0.56587 -3.42902,-1.35329 -6.09228,-1.74983 l -4.84228,-0.72096 -5.90772,5.84607 -5.90772,5.84608 0,-3.57081 c 0,-2.17523 -0.94609,-4.89881 -2.42072,-6.9687 -1.33139,-1.86883 -3.40783,-5.33371 -4.6143,-7.69972 -3.86263,-7.575 -9.37581,-9.23721 -13.27046,-4.00099 -1.85538,2.49448 -1.89754,2.98247 -0.5611,6.49386 0.81834,2.1501 2.24115,3.95001 3.28072,4.15021 1.72438,0.33208 1.73716,0.21286 0.21077,-1.96637 -1.79434,-2.56177 -2.12122,-5.4501 -0.71515,-6.3191 1.79163,-1.10729 4.20971,0.75938 6.24064,4.81756 1.13586,2.26967 3.47919,5.6147 5.2074,7.43341 3.13355,3.29764 3.14139,3.33342 2.84698,13 -0.33625,11.0402 0.0613,10.4427 -10.53101,15.82595 -6.70736,3.40882 -6.82055,3.42916 -6.5,1.16827 0.21218,-1.49653 1.11284,-2.41268 2.57623,-2.62051 1.93239,-0.27444 2.24363,-0.90967 2.2049,-4.5 -0.0248,-2.29925 -0.61837,-5.52498 -1.31902,-7.16829 -1.19995,-2.81435 -1.08121,-3.16959 2.0451,-6.11807 1.82546,-1.72164 3.31902,-4.09132 3.31902,-5.26597 0,-1.78083 -0.52102,-2.09356 -3.13537,-1.88193 -2.77577,0.2247 -3.27271,-0.14761 -4.33285,-3.24619 -0.98704,-2.88493 -1.75405,-3.55507 -4.36463,-3.81336 -3.47511,-0.34383 -3.96477,-1.27978 -1.66715,-3.18664 1.83787,-1.52529 2.06085,-11.03915 0.3,-12.8 -0.66,-0.66 -3.06526,-1.2 -5.34501,-1.2 -5.92785,0 -8.02609,2.59789 -7.71935,9.55752 0.21817,4.95003 0.0206,5.47339 -2.66479,7.0597 -3.58046,2.11503 -5.06051,5.21125 -5.10517,10.67983 l -0.0343,4.20295 -6.77216,-7.39353 -6.77216,-7.39354 -4.87222,0.89354 c -5.97077,1.095 -6.10527,1.46659 -6.92207,19.12393 l -0.59071,12.7696 4.74898,11 4.74898,11 16.5222,8.5 c 9.0872,4.675 17.62483,9.2875 18.9725,10.25 1.34767,0.9625 2.64829,1.75 2.89026,1.75 0.24197,0 2.50434,-1.32215 5.02749,-2.93811 z m -8.02759,-5.93339 C 95.57319,988.38461 88.2,984.38576 80.5,980.52761 c -7.7,-3.85816 -14.79832,-7.90087 -15.77405,-8.98381 -0.97573,-1.08295 -3.30744,-5.715 -5.18159,-10.29345 -3.56928,-8.71958 -3.51242,-8.02081 -1.92985,-23.71491 0.34358,-3.40724 0.99158,-5.25 1.84615,-5.25 1.38246,0 1.73102,1.42124 3.59314,14.65074 0.63099,4.4829 1.99056,9.53745 3.02128,11.23232 1.84694,3.03706 10.23916,9.06092 12.67492,9.09794 2.725,0.0414 0.9154,-2.65821 -4.01535,-5.99024 -4.90171,-3.31241 -8.02287,-8.03588 -6.38932,-9.66942 0.39473,-0.39473 5.69854,1.73399 11.78624,4.73049 11.81021,5.81323 17.46792,10.6956 18.52628,15.98741 0.76516,3.82584 2.00404,3.77664 2.85846,-0.11352 1.17736,-5.36046 6.17796,-9.75568 17.63903,-15.50362 5.94624,-2.98216 11.26884,-5.4221 11.828,-5.4221 0.55916,0 1.01666,1.085 1.01666,2.41111 0,2.46215 -3.37565,5.92558 -9.032,9.26687 -3.00915,1.77755 -4.01385,4.32202 -1.70656,4.32202 2.40589,0 11.15546,-6.51602 12.99,-9.67397 1.01412,-1.74568 2.65919,-7.95996 3.65572,-13.80951 1.65605,-9.7209 3.17042,-13.77227 4.60991,-12.33278 0.30272,0.30272 0.82615,5.07656 1.16317,10.60853 0.54928,9.016 0.37319,10.66163 -1.69951,15.88293 -5.83982,14.71096 -5.54564,14.39321 -19.67407,21.25002 -7.04366,3.41843 -14.87106,7.53371 -17.39421,9.14505 -2.52315,1.61135 -4.82496,2.92973 -5.11514,2.92973 -0.29018,0 -1.60078,-0.84218 -2.91245,-1.8715 z m 0.68835,-28.04761 c -0.95522,-1.0555 -4.87555,-3.56848 -8.71183,-5.58439 -8.31848,-4.37124 -9.26493,-6.1606 -8.54504,-16.15526 0.5998,-8.32732 1.63504,-10.74114 6.36514,-14.84124 3.0429,-2.63761 3.34292,-3.31022 2.48366,-5.5681 -0.79901,-2.09955 -0.62955,-2.78529 0.92877,-3.75847 C 91.14226,914.80416 92,913.62386 92,912.83598 c 0,-2.12218 1.69154,-2.78599 3.97933,-1.5616 2.37497,1.27104 2.62281,4.70637 0.55276,7.66178 -1.96107,2.79982 -2.99232,9.70447 -1.77446,11.88068 0.67792,1.21137 0.56014,2.55036 -0.38339,4.35857 -1.49852,2.87182 -1.79904,8.8926 -0.54265,10.87178 0.52423,0.8258 1.90094,1.04174 3.98469,0.625 3.76103,-0.75221 4.25336,-2.38675 0.7189,-2.38675 -3.84156,0 -4.83012,-2.99861 -2.49714,-7.57462 C 97.11712,934.59428 98,932.16595 98,931.31455 c 0,-0.85141 0.95305,-2.14321 2.1179,-2.87067 2.75505,-1.72056 4.5012,-0.18375 2.99305,2.63424 -1.28571,2.40239 0.37033,3.41238 4.0426,2.46551 2.14859,-0.554 2.22343,-0.45512 0.88755,1.17257 -0.8024,0.97767 -2.4899,2.16957 -3.75,2.64867 -2.93506,1.1159 -3.11564,5.40892 -0.2911,6.92057 1.48373,0.79407 2,2.09382 2,5.03518 0,3.56247 -0.2537,3.96482 -2.5,3.96482 -1.808,0 -2.5,0.53727 -2.5,1.94098 0,2.79145 -1.73634,3.46509 -2.52518,0.97969 -0.48524,-1.52885 0.0961,-2.90718 2.1151,-5.01452 3.12354,-3.26028 2.69436,-3.62164 -1.63958,-1.38047 C 96.69979,950.97492 96,952.03304 96,954.27216 c 0,2.71732 3.17824,7.01328 5.18856,7.01328 0.44629,0 0.81144,0.45 0.81144,1 0,1.66025 -2.57665,1.12528 -4.42679,-0.91911 z M 74.61806,946.12572 c -1.09054,-5.45267 1.47969,-5.07275 2.77188,0.40972 0.47018,1.99485 0.26536,2.75 -0.74589,2.75 -0.76673,0 -1.67842,-1.42188 -2.02599,-3.15972 z M 123,946.34446 c 0,-2.68052 1.49434,-4.89802 2.57348,-3.81888 0.74406,0.74407 -0.76746,6.75986 -1.69848,6.75986 -0.48125,0 -0.875,-1.32344 -0.875,-2.94098 z m -52.36052,0.24713 C 70.28777,946.23987 70,943.91211 70,941.41877 c 0,-5.22079 1.45295,-4.52812 2.30392,1.09835 0.53421,3.5321 -0.26076,5.47815 -1.66444,4.07447 z m 57.02725,-0.0562 c -0.77644,-1.29031 0.78168,-8.33891 1.83327,-8.29334 0.55,0.0238 0.9625,0.71834 0.91667,1.54334 -0.0458,0.825 -0.15834,2.85 -0.25,4.5 -0.15528,2.79503 -1.46348,3.97243 -2.49994,2.25 z m -62.17529,-1.5 c -1.04631,-2.93384 -2.13617,-12.85154 -1.4583,-13.27048 1.50085,-0.92758 2.83173,2.20386 3.51921,8.28038 0.50622,4.47445 0.3776,6.2401 -0.45457,6.2401 -0.6383,0 -1.36116,-0.5625 -1.60634,-1.25 z m 66.90184,-3.65703 c 0.87536,-6.59878 2.41194,-10.69677 3.5643,-9.50581 1.30079,1.34436 -1.17087,13.65353 -2.85394,14.21295 -1.13118,0.37599 -1.26608,-0.51792 -0.71036,-4.70714 z"
       style="fill:#950003;fill-opacity:1"
       sodipodi:nodetypes="cscccccccccccccccccccccccccccssscssscccssssssssssssssssssssssssssscccsscccsssccsssssssssssssssssssssssssssssssssssssssssssssssssssssssssssssssssssscsscsccsssssssssss" />
  </g>
</svg>
