<?xml version="1.0" encoding="UTF-8" standalone="no"?>
<!-- Created with Inkscape (http://www.inkscape.org/) -->

<svg
   xmlns:dc="http://purl.org/dc/elements/1.1/"
   xmlns:cc="http://creativecommons.org/ns#"
   xmlns:rdf="http://www.w3.org/1999/02/22-rdf-syntax-ns#"
   xmlns:svg="http://www.w3.org/2000/svg"
   xmlns="http://www.w3.org/2000/svg"
   xmlns:sodipodi="http://sodipodi.sourceforge.net/DTD/sodipodi-0.dtd"
   xmlns:inkscape="http://www.inkscape.org/namespaces/inkscape"
   width="200"
   height="200"
   id="svg5161"
   version="1.1"
   inkscape:version="0.48.3.1 r9886"
   sodipodi:docname="Nuevo documento 98">
  <defs
     id="defs5163" />
  <sodipodi:namedview
     id="base"
     pagecolor="#ffffff"
     bordercolor="#666666"
     borderopacity="1.0"
     inkscape:pageopacity="0.0"
     inkscape:pageshadow="2"
     inkscape:zoom="0.98994949"
     inkscape:cx="255.31109"
     inkscape:cy="133.31152"
     inkscape:document-units="px"
     inkscape:current-layer="layer1"
     showgrid="false"
     inkscape:window-width="1366"
     inkscape:window-height="692"
     inkscape:window-x="0"
     inkscape:window-y="24"
     inkscape:window-maximized="1" />
  <metadata
     id="metadata5166">
    <rdf:RDF>
      <cc:Work
         rdf:about="">
        <dc:format>image/svg+xml</dc:format>
        <dc:type
           rdf:resource="http://purl.org/dc/dcmitype/StillImage" />
        <dc:title></dc:title>
      </cc:Work>
    </rdf:RDF>
  </metadata>
  <g
     inkscape:label="Capa 1"
     inkscape:groupmode="layer"
     id="layer1"
     transform="translate(0,-852.36218)">
    <path
       inkscape:connector-curvature="0"
       id="path5217"
       d="m 81.196896,1050.564 c -21.09745,-4.421 -39.31235,-14.6061 -54.00925,-30.1999 -11.41897,-12.1159 -19.6904804,-26.95678 -24.1703004,-43.36676 -2.87750002,-17.56417 -4.46444,-33.411 0,-50 7.8822304,-28.87327 27.0424004,-52.09135 53.6795504,-65.04828 29.8061,-13.17642 61.638074,-12.19265 87.000004,0 26.63715,12.95693 45.79732,36.17501 53.67955,65.04828 4.97,22.94521 2.00026,49.5055 -7.13127,68.5 -10.43034,21.44296 -26.60896,37.34086 -48.35677,47.51776 -21.00215,7.6919 -39.2,11.8421 -60.691514,7.5489 z m -15.32306,-30.5241 c 2.10268,-2.7265 4.38556,-4.9765 5.07306,-5 2.10176,-0.072 1.39381,-1.656 -1.28541,-2.8767 -2.17543,-0.9912 -3.8082,-0.6347 -11.5,2.5112 -4.93052,2.0165 -8.96459,3.9783 -8.96459,4.3594 0,1.4331 7.60688,5.8457 10.17694,5.9034 2.06265,0.046 3.55424,-1.0775 6.5,-4.8973 z m 3.89086,1.4574 c 1.46827,-1.925 3.26902,-3.5 4.00167,-3.5 0.73265,0 3.57724,-0.4815 6.32131,-1.07 4.93206,-1.0577 5.01073,-1.135 6.86715,-6.75 2.24096,-6.778 4.44792,-8.4442 25.458334,-19.22051 12.37182,-6.34556 16.05497,-8.95945 12.62448,-8.95945 -1.38061,0 -20.99417,10.21957 -30.842664,16.07045 -6.52485,3.87631 -7.10345,4.51321 -9.11654,10.03431 -1.18224,3.2424 -2.2528,5.8952 -2.37904,5.8952 -0.12624,0 -2.62216,0.4538 -5.54649,1.0084 -5.49203,1.0415 -7.76799,2.5221 -11.13203,7.2416 -3.06117,4.2947 0.42945,3.5954 3.74382,-0.75 z m 27.4322,-6 c 10.175004,-5.1665 18.275004,-9.4121 18.000004,-9.4347 -0.275,-0.022 -5.87437,1.9667 -12.44303,4.4205 -6.568674,2.4538 -12.091824,4.3127 -12.273664,4.1309 -0.18184,-0.1819 7.89253,-3.6911 17.943044,-7.7983 l 18.27365,-7.46758 0.30425,-5.82114 c 0.16734,-3.20162 -0.11325,-6.23864 -0.62354,-6.74893 -1.03121,-1.03121 -13.83274,5.09673 -27.451354,13.14063 -8.18127,4.83232 -8.5259,5.18662 -10.70119,11.00332 -2.26619,6.0597 -2.66574,6.395 -9.02817,7.5753 -5.94054,1.1021 -6.76932,1.499 -8.43359,4.039 l -1.61252,2.461 4.77306,-0.053 c 3.98991,-0.044 7.80846,-1.5944 23.27305,-9.4469 z m 27.213354,0.031 14.18227,-9.4687 -4.90299,-2.1688 -4.90299,-2.1688 -23.04482,11.5807 -23.044824,11.5808 13.76554,0.057 13.765544,0.057 z m 26.06555,4.4897 c 3.61744,-2.7384 6.84983,-5.4202 7.1831,-5.9594 0.34091,-0.5516 -3.45351,-2.2424 -8.67527,-3.8657 l -9.28121,-2.8852 -12.50276,8.5212 c -6.87652,4.6867 -12.69026,8.6668 -12.91943,8.8447 -0.22916,0.1779 6.34123,0.3234 14.60087,0.3234 l 15.01754,0 6.57716,-4.979 z m -73.039624,-10.51 c 0.67276,-3.238 0.45346,-4.2091 -1.39482,-6.1765 -3.11073,-3.3112 -4.35197,-2.9216 -5.76995,1.8112 -1.2001,4.0055 -1.14632,4.2239 1.59171,6.4616 3.63857,2.9738 4.59434,2.6143 5.57306,-2.0963 z m 4.17224,-0.683 c 0.62881,-3.9324 0.42309,-4.4208 -3.5804,-8.5 -2.33614,-2.38039 -4.60384,-4.32796 -5.03933,-4.32796 -1.92805,0 -0.49171,2.73939 2.82315,5.38436 3.36655,2.6861 3.58108,3.1842 3.12281,7.25 -0.65513,5.8122 1.74749,5.9862 2.67377,0.1936 z m 18.763524,-19.70892 c 5.32126,-2.34907 12.52126,-6.16915 16,-8.48906 5.45766,-3.63963 6.55329,-4.8976 7.99013,-9.174 1.29215,-3.84576 2.08925,-4.89317 3.55823,-4.67561 1.208,0.17891 3.04978,-1.15901 5.08949,-3.69716 4.09994,-5.10183 5.18711,-8.05981 5.18711,-14.11313 0,-3.87626 -0.41776,-5.12329 -2,-5.97008 -2.52064,-1.34901 -4.9693,-0.13177 -8.3024,4.12714 -3.0829,3.93922 -4.6976,3.04653 -4.6976,-2.59706 0,-5.57728 -2.89484,-14.84404 -6.33528,-20.28008 -2.38625,-3.77037 -3.11443,-4.25 -6.45235,-4.25 -2.0694,0 -9.15126,1.30087 -15.737464,2.89083 -14.17864,3.42282 -25.35688,4.59596 -31.22491,3.27702 l -4.25,-0.95526 0,3.22704 c 0,3.14605 0.11019,3.22704 4.39052,3.22704 5.11357,0 10.21528,1.86367 11.04897,4.03623 0.39877,1.03919 0.12505,1.34398 -0.8656,0.96383 -7.55372,-2.89864 -14.01666,-2.98414 -12.93721,-0.17115 0.29404,0.76625 0.0547,4.486 -0.53176,8.26611 -0.89335,5.75781 -0.73624,8.87221 0.96835,19.19541 2.67639,16.20856 6.79869,23.94125 15.42673,28.93774 3.94115,2.28231 13.35152,0.7815 23.675044,-3.7758 z M 66.547086,945.46754 c -0.38453,-1.00208 -1.32234,-1.32881 -2.71862,-0.94715 -2.03719,0.55686 -2.02704,0.49177 0.22921,-1.47019 2.77778,-2.41546 5.99192,-2.63151 8.69809,-0.58466 1.64762,1.24619 1.6927,1.473 0.29812,1.5 -0.90366,0.0175 -1.90203,0.7068 -2.21862,1.5318 -0.74922,1.95244 -3.53495,1.93308 -4.28818,-0.0298 z m 28.68617,0.0736 c -0.6647,-0.80091 -0.96857,-1.84449 -0.67526,-2.31906 0.2933,-0.47457 -0.90546,-0.72039 -2.66391,-0.54625 l -3.19719,0.31662 3.46963,-1.59005 c 2.81953,-1.29212 4.17008,-1.38018 7.20802,-0.46999 3.911464,1.1719 6.817344,3.81988 3.135244,2.85699 -1.2818,-0.33519 -2.41815,0.14683 -3.164854,1.34248 -1.40153,2.24422 -2.49821,2.35337 -4.11168,0.40926 z m -8.80664,-10.73296 c 0.84626,-2.53878 5.53413,-4.75156 11.40424,-5.38305 5.417674,-0.58282 6.381074,-0.41277 8.250004,1.45616 2.60505,2.60505 2.81735,4.65135 0.36604,3.52818 -3.62406,-1.66051 -14.222634,-1.66009 -16.757254,6.5e-4 -2.8904,1.89386 -3.79856,2.00465 -3.26303,0.39806 z m 44.767644,6.69052 c 1.58177,-0.81797 3.57945,-1.21726 4.43929,-0.8873 1.28637,0.49362 1.5614,-0.2606 1.55234,-4.25708 -0.006,-2.67135 -0.28265,-6.49967 -0.61468,-8.50739 -0.57115,-3.45377 -0.90722,-3.7325 -6.23899,-5.1744 -3.09943,-0.8382 -7.57034,-1.82638 -9.93536,-2.19595 l -4.30005,-0.67195 3.00912,4.89043 c 3.15993,5.13554 6.09097,14.63218 6.09097,19.73487 l 0,3.01241 1.5607,-2.22822 c 0.85839,-1.22552 2.85489,-2.89746 4.43666,-3.71542 z M 95.196896,921.01945 c 16.184504,-3.88196 21.365414,-3.81518 38.250004,0.49302 2.62091,0.66874 2.75,0.53258 2.75,-2.90046 0,-3.08732 -0.60741,-4.04295 -4.25,-6.68649 -12.05705,-8.75018 -27.27314,-13.15306 -38.880834,-11.25045 -14.67766,2.4058 -24.86261,4.87442 -24.86582,6.02695 -0.004,1.52208 -6.10207,2.71614 -9.06628,1.77534 -2.20971,-0.70134 -2.22834,-0.62727 -1.53793,6.11161 0.75727,7.39139 1.57981,9.02519 4.92348,9.77948 4.94677,1.11591 20.86334,-0.51532 32.67738,-3.349 z m -31.91563,-14.02212 c 0.0633,0.825 0.47528,0.375 0.91563,-1 0.53376,-1.66667 0.83387,-1.91667 0.90032,-0.75 0.0548,0.9625 0.58,1.75 1.16707,1.75 0.58706,0 0.83343,-0.7875 0.54748,-1.75 -0.28594,-0.9625 -0.81505,-2.9875 -1.17579,-4.5 -0.89433,-3.74968 -5.06317,-3.86893 -6.46383,-0.1849 -1.41742,3.72808 -1.23863,4.89838 0.52475,3.4349 1.27378,-1.05715 1.50231,-0.81169 1.51531,1.62755 0.0118,2.22213 0.23478,2.53285 0.98469,1.37245 0.86167,-1.33333 0.98215,-1.33333 1.08437,0 z m 67.479224,-9.19852 c -1.40998,-4.62258 -2.56359,-9.16897 -2.56359,-10.10308 0,-0.93412 -0.88885,-2.58725 -1.97522,-3.67362 -1.96696,-1.96696 -1.98592,-1.9653 -4.53351,0.39573 -2.67936,2.48314 -16.83656,8.96211 -21.991274,10.06419 -1.65,0.35277 0.600004,-1.11035 5.000004,-3.25137 7.96009,-3.87336 12.28234,-7.21618 9.37244,-7.24864 -1.07798,-0.012 -1.05062,-0.2233 0.12756,-0.98469 1.03411,-0.6683 -1.14002,-0.97683 -7,-0.99338 -4.675,-0.0132 -10.975004,-0.28198 -14.000004,-0.59729 -4.06704,-0.42393 -5.10919,-0.29316 -4,0.50192 1.11351,0.79818 0.29042,0.91507 -3.19444,0.45368 -2.58194,-0.34185 -5.4557,-0.32943 -6.38612,0.0276 -1.57898,0.60591 -1.57478,0.77833 0.0631,2.58815 0.96512,1.06644 4.59444,3.78911 8.06515,6.05037 5.68705,3.70526 7.18173,4.19413 15.131364,4.94908 9.41107,0.89373 16.75016,3.23352 24.82096,7.91322 2.75,1.59453 5.14111,2.76722 5.31359,2.60597 0.17247,-0.16124 -0.84003,-4.07528 -2.25,-8.69786 z m -49.563594,0.48948 c 4.125,-0.90311 7.85111,-1.93663 8.28023,-2.29672 0.69591,-0.58395 -23.03682,-15.99424 -24.63204,-15.99424 -1.07929,0 -0.72515,7.8344 0.38516,8.52061 0.56834,0.35125 1.02251,4.07672 0.50463,4.94544 -1.94417,3.26126 0.18349,3.32153 0.28227,4.89524 0.20352,3.24064 0.0535,3.24133 15.1797,-0.0703 z m -20.61349,-2.47458 c 0.88891,1.43827 2.71316,1.24671 3.61349,0.18362 0.94702,-1.11821 -0.87764,-1 -1.95031,-1 -1.07267,0 -2.40899,-0.7875 -2.96959,-1.75 -0.82878,-1.42293 -1.01183,-1.09587 -0.97941,1.75 0.0301,2.64465 0.22493,3.02745 0.79709,1.56638 0.52054,-1.32926 0.98586,-1.56368 1.48873,-0.75 z m 0.58169,-12.50736 c 0.0175,-2.30504 0.4256,-4.43437 0.90691,-4.73184 0.48132,-0.29747 0.75975,1.36348 0.61874,3.69099 -0.2276,3.75685 -0.18553,3.84969 0.37489,0.82717 0.38815,-2.09346 1.4015,-3.70315 2.63126,-4.17971 1.30474,-0.50563 1.47855,-0.80424 0.5,-0.859 -0.825,-0.0462 -2.46912,-0.34393 -3.6536,-0.66171 -2.4669,-0.66182 -2.84793,0.18577 -3.8683,8.60508 -0.6197,5.11327 -0.55671,5.35937 0.89586,3.5 0.85934,-1.1 1.57675,-3.88594 1.59424,-6.19098 z m 5.79427,-4.94936 c -0.79773,0.31923 12.48925,2.51336 13.6542,2.56134 0.67777,0.0279 1.06575,0.17482 1.29691,0.18813 1.97241,0.11357 6.18529,0.74882 6.65101,0.451 0.18548,-0.11861 0.0261,-0.23338 -0.34655,-0.34171 -5.98037,-0.36235 -4.42004,-0.9218 -21.25557,-2.85876 z"
       style="fill:#950003;fill-opacity:1"
       sodipodi:nodetypes="csccccccccsssssssssssssssssssscscscsssssscssccccccccccsscscscccsssssssssssssssssssssssscssssscssssssssssscscssssssssssssccssscsscssssssscsssscscssssscsccssssscssssssssssscccssssccccssscscssssscssssccsscc" />
  </g>
</svg>
