<?xml version="1.0" encoding="UTF-8" standalone="no"?>
<!-- Created with Inkscape (http://www.inkscape.org/) -->

<svg
   xmlns:dc="http://purl.org/dc/elements/1.1/"
   xmlns:cc="http://creativecommons.org/ns#"
   xmlns:rdf="http://www.w3.org/1999/02/22-rdf-syntax-ns#"
   xmlns:svg="http://www.w3.org/2000/svg"
   xmlns="http://www.w3.org/2000/svg"
   xmlns:sodipodi="http://sodipodi.sourceforge.net/DTD/sodipodi-0.dtd"
   xmlns:inkscape="http://www.inkscape.org/namespaces/inkscape"
   width="200"
   height="200"
   id="svg5094"
   version="1.1"
   inkscape:version="0.48.3.1 r9886"
   sodipodi:docname="Nuevo documento 94">
  <defs
     id="defs5096" />
  <sodipodi:namedview
     id="base"
     pagecolor="#ffffff"
     bordercolor="#666666"
     borderopacity="1.0"
     inkscape:pageopacity="0.0"
     inkscape:pageshadow="2"
     inkscape:zoom="1.979899"
     inkscape:cx="145.09522"
     inkscape:cy="78.441617"
     inkscape:document-units="px"
     inkscape:current-layer="layer1"
     showgrid="false"
     inkscape:window-width="1366"
     inkscape:window-height="692"
     inkscape:window-x="0"
     inkscape:window-y="24"
     inkscape:window-maximized="1" />
  <metadata
     id="metadata5099">
    <rdf:RDF>
      <cc:Work
         rdf:about="">
        <dc:format>image/svg+xml</dc:format>
        <dc:type
           rdf:resource="http://purl.org/dc/dcmitype/StillImage" />
        <dc:title></dc:title>
      </cc:Work>
    </rdf:RDF>
  </metadata>
  <g
     inkscape:label="Capa 1"
     inkscape:groupmode="layer"
     id="layer1"
     transform="translate(0,-852.36218)">
    <path
       inkscape:connector-curvature="0"
       id="path5115"
       d="m 81.702332,1050.7621 c -19.64681,-3.5509 -37.18915,-12.9411 -52.1784,-27.9303 -11.34581,-11.3458 -17.84504,-21.2807 -23.1354204,-35.36525 -10.73875,-28.58978 -7.7381,-60.4582 8.2234404,-87.33701 6.61895,-11.14615 22.02389,-26.55108 33.17004,-33.17004 32.68621,-19.41017 71.757948,-19.41017 104.444158,0 11.14615,6.61896 26.55109,22.02389 33.17004,33.17004 19.41017,32.68621 19.41017,71.75795 0,104.44416 -6.61895,11.1461 -22.02389,26.5511 -33.17004,33.17 -21.27125,12.6316 -46.69615,17.3249 -70.523818,13.0184 z m -21.57789,-47.3535 c 3.86303,-9.48542 6.78047,-17.48948 6.48319,-17.78676 -0.63382,-0.63382 -27.60356,24.58166 -27.60356,25.80816 0,1.4996 12.41131,10.9103 13.26423,10.0574 0.45785,-0.4579 3.99312,-8.5933 7.85614,-18.0788 z m 68.149138,17.193 c 0.27652,-0.9625 1.69313,-5.7866 3.14802,-10.7202 1.45488,-4.9336 3.29101,-12.96282 4.08029,-17.84277 l 1.43504,-8.87263 -2.99321,-2.51862 c -2.08127,-1.75127 -3.50271,-4.35118 -4.6655,-8.53349 l -1.67228,-6.01487 -2.15634,6.3763 c -3.27537,9.68529 -8.74631,19.92289 -19.03856,35.62628 l -9.339668,14.25 15.349718,0 c 13.76058,0 15.40177,-0.1812 15.85249,-1.75 z m 26.78592,-3.5726 c 3.54451,-2.9275 8.42308,-7.8921 10.84125,-11.0325 4.21189,-5.4699 4.31697,-5.7701 2.5,-7.14137 -2.99479,-2.26025 -27.49238,-14.50351 -29.02016,-14.50351 -0.92264,0 -1.37901,1.2365 -1.38407,3.75 -0.0125,6.21386 -1.91484,16.00858 -4.93043,25.38588 l -2.85053,8.8641 9.19968,0 9.19969,0 6.44457,-5.3226 z M 46.410092,1001.6185 c 4.65361,-4.25318 8.37851,-7.79617 8.27755,-7.8733 -0.10096,-0.0771 -3.22056,0.23529 -6.93244,0.69425 -8.37482,1.03552 -13.73299,2.4472 -16.23635,4.2777 -1.8593,1.35955 -1.80827,1.55925 1.5309,5.98955 1.89988,2.5207 3.77942,4.597 4.17677,4.614 0.39734,0.017 4.52995,-3.449 9.18357,-7.7022 z m 58.799878,-0.3073 c 2.20304,-0.6118 4.88477,-2.4594 6.61283,-4.55584 3.54362,-4.29902 12.43748,-22.18017 11.65881,-23.44009 -0.30837,-0.49894 0.17183,-2.02508 1.0671,-3.39143 0.89526,-1.36635 1.36799,-2.90458 1.0505,-3.41829 -0.82483,-1.3346 4.31153,-10.15393 5.91363,-10.15393 2.51282,0 7.34514,-5.05059 9.01445,-9.42164 2.11457,-5.5369 2.42536,-13.72542 0.60434,-15.9225 -2.34372,-2.82771 -5.50098,-1.98421 -8.68573,2.3205 -1.61801,2.187 -3.1768,3.987 -3.46399,4 -1.95749,0.0886 -8.3491,-7.03169 -10.90699,-12.15048 -3.63083,-7.26595 -3.76814,-8.88486 -0.96847,-11.41853 1.85899,-1.68236 4.89762,-6.5061 4.89762,-7.77483 0,-0.25673 -2.32075,-0.96451 -5.15723,-1.57282 -6.26157,-1.34286 -14.33195,-5.59484 -16.959598,-8.93536 -1.69141,-2.15027 -2.92279,-2.51527 -9.83584,-2.91546 -6.68878,-0.3872 -8.59785,-0.12079 -12.43091,1.73476 -7.67057,3.71326 -14.36415,13.41612 -16.18931,23.46767 -0.64864,3.57218 -0.54621,3.84364 1.18134,3.13086 5.54927,-2.28961 9.10864,-2.66334 12.43571,-1.30576 l 3.40305,1.38859 -6.4736,0.008 c -7.64803,0.01 -11.02905,1.4389 -10.26996,4.34164 0.28778,1.10051 -0.2028,3.8155 -1.0902,6.03333 -1.83035,4.57449 -2.08122,11.76777 -0.59679,17.11184 0.55303,1.99096 1.41084,6.84799 1.90625,10.79341 0.70143,5.58621 1.78382,8.65995 4.89172,13.89132 4.8649,8.18884 9.44947,11.19536 17.07152,11.19536 4.46526,0 5.11385,-0.25638 5.11385,-2.02144 0,-2.40206 0.56949,-2.65748 17.700098,-7.93864 7.26006,-2.23819 13.47262,-4.51037 13.8057,-5.0493 0.33307,-0.53893 1.59302,-1.50596 2.79989,-2.14896 2.01746,-1.07488 2.07848,-1.02872 0.75712,0.57263 -1.96197,2.37772 -9.37256,5.99276 -16.31281,7.95773 -18.560838,5.25507 -16.749998,4.31257 -16.749998,8.71799 0,3.78734 0.11197,3.92341 2.75,3.34176 13.002448,-2.86686 19.973418,-5.93976 25.499998,-11.24074 2.0625,-1.97831 3.75,-3.10222 3.75,-2.49757 0,1.70465 -6.53788,7.03867 -12.05226,9.83302 -11.241908,5.69671 -27.830468,7.06529 -37.165618,3.06622 -2.04484,-0.87599 -4.1117,-1.5927 -4.59304,-1.5927 -0.48133,0 -1.7622,3.0375 -2.84637,6.75 l -1.97122,6.75 5.06425,-0.31296 c 2.78534,-0.17213 8.88926,0.57472 13.56426,1.65964 9.67812,2.2461 16.83455,2.6047 22.205898,1.1129 z m -6.005898,-70.15958 c -0.66,-0.66 -1.2,-1.84125 -1.2,-2.625 0,-1.05516 -0.79151,-1.2667 -3.04971,-0.81506 -1.67734,0.33547 -2.80785,0.2186 -2.51224,-0.2597 0.96088,-1.55473 6.98366,-1.90164 10.189868,-0.58692 3.02601,1.24082 5.96958,4.03693 3.08423,2.92972 -0.76545,-0.29373 -1.96892,0.16142 -2.67438,1.01145 -1.54343,1.85972 -2.25913,1.92415 -3.837768,0.34551 z m -29.86929,-2.38057 c -0.36413,-0.94891 -1.35124,-1.38582 -2.47,-1.09326 -1.02491,0.26802 -1.62206,0.0967 -1.32701,-0.3807 0.90225,-1.45987 6.81846,-2.12939 9.4663,-1.07128 1.74914,0.69898 1.9744,1.01808 0.75,1.06242 -0.9625,0.0349 -1.75,0.73839 -1.75,1.56339 0,2.003 -3.89555,1.93578 -4.66929,-0.0806 z m 37.669288,-6.15037 c -1.9277,-0.86349 -6.31329,-1.58492 -9.762498,-1.60592 -7.66736,-0.0467 -6.8393,-1.78283 1.167,-2.44678 4.419748,-0.36652 6.161048,-0.0299 9.035198,1.74637 1.95816,1.21021 3.5603,2.61369 3.5603,3.11883 0,0.50514 -0.1125,0.88173 -0.25,0.83687 -0.1375,-0.0449 -1.825,-0.78708 -3.75,-1.64937 z m -29.999998,62.95834 c 0,-0.42492 -1.59968,-1.63407 -3.55483,-2.687 -1.95516,-1.05292 -4.56137,-3.60228 -5.79157,-5.66524 -1.45603,-2.44167 -2.66567,-3.48573 -3.46567,-2.99131 -1.98343,1.22583 2.67006,7.12858 7.71935,9.79167 4.90877,2.58897 5.09272,2.64503 5.09272,1.55188 z M 132.4459,931.32798 c 1.618,-2.187 3.47238,-3.97636 4.12083,-3.97636 2.84935,0 2.47511,-18.32387 -0.48728,-23.85916 -2.04982,-3.83012 -3.60502,-4.267 -5.87914,-1.65152 -1.17532,1.35173 -3.27528,2.7434 -4.66659,3.09259 -1.39131,0.3492 -2.52965,1.22665 -2.52965,1.9499 0,0.72325 -1.51214,3.29601 -3.36032,5.71725 l -3.36031,4.40225 1.86517,5.00002 c 1.95114,5.23048 8.1683,13.36567 10.18338,13.32503 0.64465,-0.013 2.4959,-1.813 4.11391,-4 z M 74.222882,894.54393 c 8.92595,-5.46612 20.09365,-5.27959 26.951718,0.45017 5.834,4.87416 10.66787,7.14698 17.48269,8.22013 6.63668,1.04508 10.72097,-0.31551 11.87655,-3.95641 0.99502,-3.13501 -5.25258,-9.00969 -13.88595,-13.0571 -6.80555,-3.19051 -7.68837,-3.3491 -18.643818,-3.3491 -10.5097,0 -12.01668,0.24168 -17.5,2.80654 -8.8131,4.12238 -14.24519,9.97683 -15.95306,17.19346 -0.65752,2.7784 -0.44771,2.65657 2.84036,-1.64917 1.95268,-2.55704 5.02686,-5.55337 6.83151,-6.65852 z"
       style="fill:#950003;fill-opacity:1" />
  </g>
</svg>
