<?xml version="1.0" encoding="UTF-8" standalone="no"?>
<!-- Created with Inkscape (http://www.inkscape.org/) -->

<svg
   xmlns:dc="http://purl.org/dc/elements/1.1/"
   xmlns:cc="http://creativecommons.org/ns#"
   xmlns:rdf="http://www.w3.org/1999/02/22-rdf-syntax-ns#"
   xmlns:svg="http://www.w3.org/2000/svg"
   xmlns="http://www.w3.org/2000/svg"
   xmlns:sodipodi="http://sodipodi.sourceforge.net/DTD/sodipodi-0.dtd"
   xmlns:inkscape="http://www.inkscape.org/namespaces/inkscape"
   width="200"
   height="200"
   id="svg3246"
   version="1.1"
   inkscape:version="0.48.3.1 r9886"
   sodipodi:docname="Nuevo documento 17">
  <defs
     id="defs3248" />
  <sodipodi:namedview
     id="base"
     pagecolor="#ffffff"
     bordercolor="#666666"
     borderopacity="1.0"
     inkscape:pageopacity="0.0"
     inkscape:pageshadow="2"
     inkscape:zoom="0.49497475"
     inkscape:cx="373.78217"
     inkscape:cy="308.03603"
     inkscape:document-units="px"
     inkscape:current-layer="layer1"
     showgrid="false"
     inkscape:window-width="1366"
     inkscape:window-height="692"
     inkscape:window-x="0"
     inkscape:window-y="24"
     inkscape:window-maximized="1" />
  <metadata
     id="metadata3251">
    <rdf:RDF>
      <cc:Work
         rdf:about="">
        <dc:format>image/svg+xml</dc:format>
        <dc:type
           rdf:resource="http://purl.org/dc/dcmitype/StillImage" />
        <dc:title></dc:title>
      </cc:Work>
    </rdf:RDF>
  </metadata>
  <g
     inkscape:label="Capa 1"
     inkscape:groupmode="layer"
     id="layer1"
     transform="translate(0,-852.36218)">
    <path
       style="fill:#950003;fill-opacity:1"
       d="m 72.850133,855.7878 c -12.10205,3.73557 -18.90244,6.90583 -28.625,13.375 -10.713,7.12818 -20.46557,16.912 -27.59375,27.625 -6.53885,9.82728 -9.7371395,16.69529 -13.3124995,28.625 -3.50159003,11.6836 -4.41529,33.71113 -1.90625,46.09375 8.14088,40.17695 37.9667995,70.48005 78.1874995,79.43745 20.804697,3.1091 44.786907,0.6078 61.937497,-6.875 15.49723,-6.8536 31.91981,-20.9134 41.8125,-35.7812 6.46917,-9.72256 9.63943,-16.52295 13.375,-28.625 3.41283,-18.44263 5.25368,-37.07988 0,-54.25 -5.44579,-17.64259 -13.81329,-31.87578 -25.78125,-43.84375 -11.96797,-11.96796 -26.16991,-20.33546 -43.8125,-25.78125 -18.26311,-2.5588 -34.832137,-5.96045 -54.281247,0 z m 23.75,26.75 c 0.75083,0 1.375,0.45 1.375,1 0,0.55 -0.65242,1 -1.4375,1 -0.78508,0 -2.29343,1.125 -3.375,2.5 -2.22656,2.83061 -3.1875,3.1418 -3.1875,1.0625 0,-1.6686 4.63832,-5.5625 6.625,-5.5625 z m 6.749997,0 c 1.98668,0 6.625,3.8939 6.625,5.5625 0,2.10984 -1.25076,1.69607 -3.28125,-1.09375 -0.98818,-1.35771 -2.45068,-2.46875 -3.25,-2.46875 -0.79933,0 -1.46875,-0.45 -1.46875,-1 0,-0.55 0.62417,-1 1.375,-1 z m -3.374997,1 c 0.549997,0 0.999997,0.62417 0.999997,1.375 0,0.75083 0.9,2.50783 2,3.90625 2.61387,3.323 2.53821,6.2252 -0.21875,8.15625 -2.32004,1.9307 -3.515207,1.42327 -5.562497,0 -2.75696,-1.93105 -2.83262,-4.83325 -0.21875,-8.15625 1.1,-1.39842 2,-3.15542 2,-3.90625 0,-0.75083 0.45,-1.375 1,-1.375 z m -11.15625,8 1.15625,0 0.96875,0 0,4.78125 c 0.006,0.24675 0.0312,0.46297 0.0312,0.71875 0,0.25578 -0.025,0.472 -0.0312,0.71875 l 0,4.9375 -2.125,0 z m 19.999997,0 1.15625,0 0.96875,0 0,4.78125 c 0.006,0.24675 0.0312,0.46297 0.0312,0.71875 0,0.25578 -0.025,0.472 -0.0312,0.71875 l 0,4.9375 -2.125,0 z m -22.906247,3.15625 c 0.91248,-0.0338 1.0625,0.66533 1.0625,2.71875 l 0,3.09375 -4.75,-0.75 c -6.23605,-0.95949 -29.96264,-0.89018 -33.59375,0.0937 -2.16795,0.58744 -2.66251,1.16527 -2.125,2.46875 0.38741,0.93947 0.90283,2.61875 1.15625,3.71875 0.43374,1.88269 0.39035,1.90936 -0.96875,0.25 -1.36446,-1.6659 -1.54271,-1.63843 -3,0.5 l -1.53125,2.25 0.28125,-2.875 c 0.15759,-1.57504 0.90634,-3.22403 1.65625,-3.6875 1.0588,-0.65438 0.58393,-1.66277 -2.125,-4.53125 -2.0619,-2.18334 -2.7873,-3.46068 -1.75,-3.09375 0.96523,0.34144 6.66405,1.16258 12.65625,1.8125 10.41037,1.1291 24.66163,0.35327 31.84375,-1.71875 0.4972,-0.14344 0.88334,-0.23874 1.1875,-0.25 z m 28.124997,0 c 0.30484,0.01 0.68669,0.10551 1.1875,0.25 7.18212,2.07202 21.43338,2.84786 31.84375,1.71875 5.9922,-0.64991 11.69102,-1.47106 12.65625,-1.8125 1.0373,-0.36693 0.3119,0.91041 -1.75,3.09375 -2.16445,2.29192 -3.0648,3.93671 -2.40625,4.375 1.52071,1.01209 2.47306,4.0668 1.46875,4.6875 -0.46835,0.28946 -1.12099,-0.21874 -1.46875,-1.125 -0.56868,-1.48194 -0.79805,-1.46195 -2.09375,0.25 -1.40499,1.85633 -1.43775,1.84295 -1.46875,-0.15625 -0.0175,-1.1275 0.53585,-2.59835 1.21875,-3.28125 1.91798,-1.91798 -0.54614,-2.91191 -9.15625,-3.71875 -7.53831,-0.7064 -24.63024,-0.028 -28.84375,1.15625 -1.99979,0.56205 -2.25,0.27997 -2.25,-2.59375 0,-2.15901 0.14798,-2.87292 1.0625,-2.84375 z m -21.062497,0.40625 1.5625,2.21875 c 2.18884,3.125 8.686157,3.125 10.874997,0 l 1.5625,-2.21875 0,2.71875 c 0,2.70401 -0.0474,2.71875 -6.999997,2.71875 -6.9526,0 -7,-0.0147 -7,-2.71875 z m 3,7.375 7.999997,0 0,1.03125 -7.999997,0 z m -1.09375,2.90625 10.187497,0 0,1.28125 -10.187497,0 z m 5.09375,2.15625 c 2.833327,0 2.999997,0.22222 2.999997,4 0,3.77778 -0.16667,4 -2.999997,4 -2.83333,0 -3,-0.22222 -3,-4 0,-3.77778 0.16667,-4 3,-4 z m -51.75,2.03125 c 0.19078,-0.0181 0.56001,0.45268 1.28125,1.40625 0.80751,1.06762 1.46875,2.30512 1.46875,2.75 0,0.97839 -1.42156,1.07844 -2.34375,0.15625 -0.36667,-0.36666 -0.6425,-1.60416 -0.625,-2.75 0.0156,-1.02342 0.028,-1.54441 0.21875,-1.5625 z m 103.312497,0.40625 c 0.56703,-0.12481 0.59535,1.01013 -0.15625,2.96875 -0.62698,1.63389 -2.40625,2.21263 -2.40625,0.78125 0,-0.44488 0.66124,-1.68238 1.46875,-2.75 0.4684,-0.61928 0.83601,-0.94327 1.09375,-1 z m -110.562497,0.5625 c 0.55,0 1,0.9 1,2 0,1.1 -0.45,2 -1,2 -0.55,0 -1,-0.9 -1,-2 0,-1.1 0.45,-2 1,-2 z m 117.062497,0.21875 c 0.0769,0.005 0.18811,0.0315 0.28125,0.0625 0.64422,0.21448 1.29093,1.14558 1.46875,2.0625 0.46795,2.41282 -1.48583,2.03795 -2.125,-0.40625 -0.29943,-1.14501 -0.1636,-1.75094 0.375,-1.71875 z m -118.312497,5.8125 c 0.19055,0.015 0.2031,0.5186 0.21875,1.53125 0.0175,1.13238 -0.62999,2.93238 -1.4375,4 -1.4442,1.90947 -1.4687,1.90029 -1.5,-0.125 -0.0175,-1.13238 0.62999,-2.93238 1.4375,-4 0.72215,-0.95473 1.0907,-1.42121 1.28125,-1.40625 z m 60.281247,0.90625 c 2.7231,0.0704 3.3575,1.40288 3.375,5.4375 0.007,0.35295 -0.14205,3.02833 -0.0937,7.21875 0.19164,16.61944 1.52438,56.71827 2.34375,65.65625 l 0.625,6.75 -6.281247,0 -6.28125,0 0.65625,-8.25 c 0.798,-10.33326 2.73538,-64.82849 2.5,-70.34375 -0.20626,-4.83311 0.56374,-6.46875 3.156247,-6.46875 z m 60.84375,0.0625 c 0.48585,0 1.11874,0.90055 1.40625,2 0.63163,2.41535 -0.83254,3.63423 -1.6875,1.40625 -0.85009,-2.2153 -0.74969,-3.40625 0.28125,-3.40625 z m -109.437497,0.375 c 0.45156,0.009 0.91401,0.39996 1.15625,1.03125 1.03541,2.69822 -0.16305,4.28758 -1.4375,1.90625 -0.77144,-1.44145 -0.8219,-2.40111 -0.15625,-2.8125 0.13884,-0.0858 0.28698,-0.12812 0.4375,-0.125 z m 96.781247,0.0312 c 0.45459,-0.0937 0.78125,0.50625 0.78125,1.46875 0,1.1 -0.45,2.28508 -1,2.625 -0.55,0.33992 -1,-0.275 -1,-1.375 0,-1.1 0.45,-2.28508 1,-2.625 0.0688,-0.0425 0.15381,-0.0804 0.21875,-0.0937 z m -94.968747,6.625 c 0.19078,-0.0181 0.56001,0.45268 1.28125,1.40625 0.80751,1.06762 1.46875,2.30512 1.46875,2.75 0,0.97839 -1.42156,1.07844 -2.34375,0.15625 -0.36667,-0.36666 -0.6425,-1.60416 -0.625,-2.75 0.0156,-1.02342 0.028,-1.54441 0.21875,-1.5625 z m 93.406247,0.15625 c 0.2251,-0.0574 0.2998,0.25187 0.3125,0.875 0.0175,0.85738 -0.62999,2.43238 -1.4375,3.5 -1.17377,1.55186 -1.4746,1.62126 -1.5,0.375 -0.0175,-0.85738 0.62999,-2.43238 1.4375,-3.5 0.58688,-0.77593 0.9624,-1.19263 1.1875,-1.25 z m -110.656247,0.8125 c 0.55,0 1,0.64496 1,1.4375 0,0.79254 -0.45,1.72258 -1,2.0625 -0.55,0.33992 -1,-0.30504 -1,-1.4375 0,-1.13246 0.45,-2.0625 1,-2.0625 z m 127.062497,0.21875 c 0.0769,0.005 0.18811,0.0315 0.28125,0.0625 0.64422,0.21449 1.29093,1.14557 1.46875,2.0625 0.46795,2.41282 -1.48583,2.03794 -2.125,-0.40625 -0.29942,-1.14501 -0.1636,-1.75093 0.375,-1.71875 z m -128.312497,5.96875 c 0.21262,-0.007 0.0917,0.70814 -0.25,2.3125 -0.79419,3.72918 -2.5,5.71603 -2.5,2.90625 0,-1.10488 0.70003,-2.90113 1.5625,-3.96875 0.65226,-0.80741 1.02213,-1.24461 1.1875,-1.25 z m 130.937497,0.25 c 0.26976,-0.0312 0.62984,0.60931 1.1875,1.96875 0.65463,1.59581 1.0134,3.39727 0.8125,4 -0.56466,1.69395 -2.86541,-3.29815 -2.40625,-5.21875 0.11409,-0.47723 0.24439,-0.73126 0.40625,-0.75 z m -109.249997,0.9375 c 0.45156,0.009 0.91401,0.39996 1.15625,1.03125 1.03541,2.69822 -0.16305,4.28757 -1.4375,1.90625 -0.77144,-1.44146 -0.8219,-2.40111 -0.15625,-2.8125 0.13884,-0.0858 0.28698,-0.12812 0.4375,-0.125 z m 86.781247,0.0312 c 0.45459,-0.0937 0.78125,0.50625 0.78125,1.46875 0,1.1 -0.45,2.28508 -1,2.625 -0.55,0.33992 -1,-0.275 -1,-1.375 0,-1.1 0.45,-2.28508 1,-2.625 0.0688,-0.0425 0.15381,-0.0804 0.21875,-0.0937 z m -1.5,5.8125 c 0.19878,-0.0599 0.2338,0.40267 0.25,1.34375 0.0195,1.13238 -0.62999,2.93238 -1.4375,4 -1.97972,2.61743 -2.00353,-0.11235 -0.0312,-3.5625 0.65323,-1.14272 1.01997,-1.72138 1.21875,-1.78125 z m -83.187497,1.0626 c 0.29571,-0.032 0.81613,0.46807 1.46875,1.6875 0.62934,1.17593 0.96401,2.91007 0.78125,3.84375 -0.22975,1.1737 -0.74337,0.67545 -1.6875,-1.59375 -0.97002,-2.33144 -1.05535,-3.8842 -0.5625,-3.9375 z m -27.34375,0.75 c 0.5106,-0.0936 0.85897,0.41859 0.625,1.625 -0.17782,0.91693 -0.82453,1.84801 -1.46875,2.0625 -0.74511,0.24807 -0.99845,-0.34768 -0.65625,-1.65625 0.31959,-1.2221 0.9894,-1.93768 1.5,-2.03125 z m 137.468747,0.375 c 0.0533,-0.0107 0.0994,-0.011 0.15625,0 0.0649,0.0126 0.11875,0.0513 0.1875,0.0937 0.55,0.33992 1,1.26996 1,2.0625 0,0.79254 -0.45,1.4375 -1,1.4375 -0.55,0 -1,-0.93004 -1,-2.0625 0,-0.86704 0.2832,-1.45644 0.65625,-1.53125 z m 2.03125,5.8125 c 0.24488,0.0154 0.60873,0.54407 1.1875,1.59375 0.69821,1.26632 1.10258,3.06632 0.90625,4 -0.2976,1.41521 -0.56668,1.29443 -1.625,-0.625 -0.69821,-1.26632 -1.13383,-3.06632 -0.9375,-4 0.1116,-0.5307 0.22804,-0.8491 0.375,-0.9375 0.0306,-0.0184 0.0588,-0.0334 0.0937,-0.0312 z M 61.381383,947.7878 c 0.16907,-0.007 0.39061,0.14061 0.6875,0.4375 0.60158,0.60158 0.93908,1.84849 0.75,2.78125 -0.44533,2.19688 -1.84375,0.8 -1.84375,-1.84375 0,-0.91986 0.12446,-1.36291 0.40625,-1.375 z m -32.71875,0.15625 c 0.58135,0.0276 0.98852,1.08416 0.59375,2.59375 -0.28752,1.09945 -0.9204,2 -1.40625,2 -1.03094,0 -1.13134,-1.19095 -0.28125,-3.40625 0.32061,-0.83549 0.74494,-1.20403 1.09375,-1.1875 z m 109.531247,0 c 0.45459,-0.0937 0.78125,0.50625 0.78125,1.46875 0,1.1 -0.45,2.28508 -1,2.625 -0.55,0.33992 -1,-0.275 -1,-1.375 0,-1.1 0.45,-2.28508 1,-2.625 0.0688,-0.0425 0.15381,-0.0804 0.21875,-0.0937 z M 26.350133,954.9128 c 0.38988,-0.038 0.6459,0.47713 0.46875,1.6875 -0.18376,1.25547 -0.85578,2.44426 -1.5,2.65625 -0.7465,0.24564 -1.00168,-0.36655 -0.65625,-1.6875 0.43142,-1.64976 1.18622,-2.60737 1.6875,-2.65625 z m 37.15625,0.0312 c 0.32629,-0.0885 0.85103,0.42719 1.375,1.40625 0.67782,1.26653 1.06226,2.84445 0.84375,3.5 -0.22523,0.67566 -0.95762,0.18041 -1.65625,-1.125 -0.67782,-1.26653 -1.03101,-2.84445 -0.8125,-3.5 0.0563,-0.16891 0.14124,-0.25174 0.25,-0.28125 z m 72.656247,0.59375 c 0.0779,-0.015 0.14719,-0.005 0.21875,0 0.3435,0.0233 0.59375,0.27573 0.59375,0.8125 0,0.44488 -0.66124,1.68238 -1.46875,2.75 -1.49888,1.9817 -1.99948,0.88015 -0.90625,-1.96875 0.34288,-0.89353 1.01725,-1.48873 1.5625,-1.59375 z m 37.6875,0 c 0.48585,0 1.11859,0.9 1.40625,2 0.51404,1.9657 -0.314,2.65476 -1.625,1.34375 -0.97014,-0.97013 -0.81445,-3.34375 0.21875,-3.34375 z m 1.625,6.25 c 0.14893,-0.0738 0.47766,0.3647 1.125,1.25 0.7548,1.03226 1.375,2.46762 1.375,3.1875 0,0.71988 -0.45,1.3125 -1,1.3125 -1.06297,0 -1.11941,-0.14986 -1.5,-3.9375 -0.11545,-1.14891 -0.14893,-1.73869 0,-1.8125 z m -41.6875,0.84375 c 0.16119,0.062 0.10404,0.63993 -0.0312,1.8125 -0.15367,1.33192 -0.84375,2.61733 -1.53125,2.84375 -1.701,0.56018 -1.5707,-0.96199 0.28125,-3.3125 0.74053,-0.93989 1.12006,-1.40571 1.28125,-1.34375 z m -67.406247,0.15625 c 0.16907,-0.007 0.39061,0.14061 0.6875,0.4375 0.60158,0.60158 0.93908,1.84849 0.75,2.78125 -0.44533,2.19688 -1.84375,0.8 -1.84375,-1.84375 0,-0.91986 0.12446,-1.36291 0.40625,-1.375 z m -42.71875,0.1563 c 0.58135,0.0276 0.98852,1.08416 0.59375,2.59375 -0.28752,1.09945 -0.9204,2 -1.40625,2 -1.03094,0 -1.13134,-1.19095 -0.28125,-3.40625 0.32061,-0.83549 0.74494,-1.20403 1.09375,-1.1875 z m 130.374997,7.71875 c 3.14565,-1.2e-4 6.18679,0.0253 9.03125,0.0625 l 16.125,0 0,0.875 -51.03125,0 0,-0.875 16.96875,0 c 2.77028,-0.0371 5.76047,-0.0624 8.90625,-0.0625 z m -134.437497,0.0625 51,0 0,0.875 -51,0 z m 9.53125,1.90625 c 14.68702,-0.11332 41.84132,0.61089 41.875,1.40625 0.0233,0.55 -1.66366,1.27369 -3.75,1.625 -16.52462,2.7825 -55.61219,0.60785 -47.1875,-2.625 0.65721,-0.25219 4.16683,-0.36848 9.0625,-0.40625 z m 108.999997,0 c 14.68702,-0.11332 41.84132,0.61089 41.875,1.40625 0.0233,0.55 -1.66366,1.30205 -3.75,1.65625 -16.42082,2.78773 -55.61299,0.57691 -47.1875,-2.65625 0.65721,-0.2522 4.16683,-0.36847 9.0625,-0.40625 z m -38.156247,33.03125 c 1.223437,0 2.444137,0.01 3.593747,0.031 l 9.15625,0 0,1.1562 -26.249997,0 0,-1.1562 9.90625,0 c 1.14961,-0.024 2.37031,-0.031 3.59375,-0.031 z m -21.34375,2 21.34375,0 20.624997,0 0,1.1562 -41.968747,0 z m 4.9375,1.9062 6,0 0,1.1563 -6,0 z m 27.062497,0 6,0 0,1.1563 -6,0 z m -35.656247,1.8125 5.75,0.7813 c 7.28787,0.9746 30.943457,0.9515 38.499997,-0.031 l 5.75,-0.75 0,4.9375 c 0,4.9329 -0.006,4.9437 -3.75,5.5625 -4.05073,0.6695 -38.983457,0.6217 -43.499997,-0.062 -2.57826,-0.3906 -2.75,-0.7133 -2.75,-5.4063 z"
       id="path3267"
       inkscape:connector-curvature="0"
       sodipodi:nodetypes="cssssccsccsccsssssssssssssssccsssccccsccccccccscccccsccsssscccssssscccsssssssssssscccccssscccccccscccssssssssscssssssscssscscscsccscscsscccccscsscsscscscsssscsssscsscssssssscscscscssscssscssscssscsssscsssssssssssscssscssscccscsccscsssccsssccsssscscssscsccccccssscssssssssssssssscsssccssscsccccccscscccscsssscsscsccccccscccccccccccccccccccccssscccccscssc" />
    <g
       id="g3302"
       transform="translate(-153.02737,53.727489)"
       style="fill:#fefefe;fill-opacity:1" />
  </g>
</svg>
