<?xml version="1.0" encoding="UTF-8" standalone="no"?>
<!-- Created with Inkscape (http://www.inkscape.org/) -->

<svg
   xmlns:dc="http://purl.org/dc/elements/1.1/"
   xmlns:cc="http://creativecommons.org/ns#"
   xmlns:rdf="http://www.w3.org/1999/02/22-rdf-syntax-ns#"
   xmlns:svg="http://www.w3.org/2000/svg"
   xmlns="http://www.w3.org/2000/svg"
   xmlns:sodipodi="http://sodipodi.sourceforge.net/DTD/sodipodi-0.dtd"
   xmlns:inkscape="http://www.inkscape.org/namespaces/inkscape"
   width="200"
   height="200"
   id="svg3206"
   version="1.1"
   inkscape:version="0.48.3.1 r9886"
   sodipodi:docname="Nuevo documento 15">
  <defs
     id="defs3208" />
  <sodipodi:namedview
     id="base"
     pagecolor="#ffffff"
     bordercolor="#666666"
     borderopacity="1.0"
     inkscape:pageopacity="0.0"
     inkscape:pageshadow="2"
     inkscape:zoom="0.7"
     inkscape:cx="493.09256"
     inkscape:cy="136.81766"
     inkscape:document-units="px"
     inkscape:current-layer="layer1"
     showgrid="false"
     inkscape:window-width="1366"
     inkscape:window-height="692"
     inkscape:window-x="0"
     inkscape:window-y="24"
     inkscape:window-maximized="1" />
  <metadata
     id="metadata3211">
    <rdf:RDF>
      <cc:Work
         rdf:about="">
        <dc:format>image/svg+xml</dc:format>
        <dc:type
           rdf:resource="http://purl.org/dc/dcmitype/StillImage" />
        <dc:title></dc:title>
      </cc:Work>
    </rdf:RDF>
  </metadata>
  <g
     inkscape:label="Capa 1"
     inkscape:groupmode="layer"
     id="layer1"
     transform="translate(0,-852.36218)">
    <path
       inkscape:connector-curvature="0"
       id="path3234"
       d="M 87.98382,1051.0746 C 48.88278,1046.5442 14.51423,1017.1639 4.0210997,979.29816 -2.2200603,956.7762 -0.23305026,931.39502 9.4042297,910.5364 18.88439,890.01782 37.84458,871.0732 58.30378,861.67701 c 31.05497,-14.26246 68.72548,-11.31492 96.74378,7.56976 8.83388,5.95414 20.87047,17.85332 26.93837,26.63085 27.60941,39.93843 22.21246,93.58383 -12.82559,127.48558 -17.04766,16.4948 -35.36028,25.1627 -58.73467,27.8009 -10.09148,1.139 -11.90121,1.1318 -22.44185,-0.09 z m 71.94185,-40.3114 c 0,-1.5591 -19.74178,-101.90603 -20.636,-104.8922 -0.30064,-1.00395 -0.73613,-1.63584 -0.96776,-1.40421 -0.23164,0.23163 -3.82139,17.69638 -7.97722,38.81056 -4.15584,21.11417 -7.66509,38.49841 -7.79833,38.63165 -0.13324,0.13324 -5.14738,-25.39759 -11.14252,-56.73519 -5.99515,-31.3376 -11.16033,-56.97745 -11.47817,-56.97745 -0.31784,0 -5.48301,25.63985 -11.47816,56.97745 -5.99515,31.3376 -11.00853,56.8692 -11.14083,56.73689 -0.13231,-0.13231 -3.64958,-17.52458 -7.81617,-38.6495 -4.16658,-21.12491 -7.75709,-38.59043 -7.97892,-38.81225 -0.22182,-0.22182 -0.64928,0.4181 -0.94992,1.42205 -0.89422,2.98617 -20.636,103.3331 -20.636,104.8922 0,1.2283 8.57685,1.4332 60,1.4332 51.42315,0 60,-0.2049 60,-1.4332 z m -108,-4.229 c 0,-0.3642 1.14046,-2.6082 2.53435,-4.9867 l 2.53434,-4.3245 3.3828,2.21748 3.3828,2.21752 -4.16715,2.7649 c -3.89499,2.5843 -7.66714,3.6231 -7.66714,2.1113 z m 9.75864,-1.4584 c 1.79225,-1.1477 3.98043,-1.8098 4.86263,-1.4713 2.76742,1.062 -0.41523,3.5939 -4.49372,3.575 l -3.62755,-0.017 3.25864,-2.0868 z m 7.74136,0.1206 c 0.99549,-1.1 1.96523,-2 2.15499,-2 0.18975,0 0.34501,0.9 0.34501,2 0,1.3812 -0.66667,2 -2.15499,2 -2.09164,0 -2.10178,-0.059 -0.34501,-2 z m 62.01043,-3.0206 c 2.68234,-5.29336 2.9967,-5.3635 7.83327,-1.7476 1.72628,1.2906 1.58433,1.55 -2.22855,4.0733 -2.23975,1.4822 -4.9895,2.6949 -6.11056,2.6949 -1.98388,0 -1.97037,-0.1341 0.50584,-5.0206 z m 7.48957,3.0206 c 2.61504,-2.0456 4.21732,-2.4494 5.32466,-1.3421 1.28734,1.2874 -1.61929,3.3417 -4.6971,3.3198 l -3.12756,-0.022 2.5,-1.9555 z m 7,1.1224 c 0,-0.4827 0.62004,-1.3921 1.37786,-2.0211 1.0826,-0.8985 1.49111,-0.7104 1.90638,0.8776 0.39386,1.5061 0.0428,2.0211 -1.37786,2.0211 -1.04851,0 -1.90638,-0.3949 -1.90638,-0.8776 z m -59,-1.6932 c 0,-1.2981 6.56646,-12.40645 7.34023,-12.41737 1.11439,-0.0157 8.61109,5.30745 8.63842,6.13388 0.0508,1.53653 -9.89237,6.85429 -12.81619,6.85429 -1.73935,0 -3.16246,-0.2569 -3.16246,-0.5708 z m 13.95,-2.39 c 3.57806,-2.3737 4.75371,-2.72222 6,-1.7787 0.8525,0.6454 1.72663,1.29 1.9425,1.4323 0.21588,0.1424 -0.17672,0.9447 -0.87244,1.783 -0.83341,1.0042 -3.01423,1.5227 -6.3925,1.5199 l -5.12756,-0 4.45,-2.9522 z m 10.05,-0.039 c 1.1749,-1.65 2.50447,-2.99998 2.95459,-2.99998 0.45013,0 1.01655,1.34998 1.25872,2.99998 0.41545,2.8307 0.24869,3 -2.9546,3 l -3.3949,0 2.13619,-3 z m -59.98469,0.3608 c -0.008,-0.6266 0.9101,-2.2016 2.04115,-3.5 1.61614,-1.8553 1.83743,-1.93255 1.03349,-0.36078 -1.73511,3.39228 -3.0586,5.05418 -3.07464,3.86078 z m 15.23469,-1.091 c -2.51307,-1.69071 -2.87658,-3.51998 -1,-5.03217 1.81528,-1.4628 5.75,0.32166 5.75,2.60772 0,3.06585 -2.15879,4.16775 -4.75,2.42445 z m 19.18883,-1.2698 c 0.34828,-2.00743 1.91749,-4.77931 3.67976,-6.49998 l 3.07254,-3 -2.55541,5 c -3.87061,7.57338 -4.92651,8.70548 -4.19689,4.49998 z m 43.57648,0.809 c -0.008,-0.93 0.43469,-1.96906 0.98469,-2.30898 1.2656,-0.78218 1.2656,0.54163 0,2.49998 -0.8354,1.2927 -0.97149,1.2663 -0.98469,-0.191 z m 13.66895,-0.2348 c -2.59356,-1.98661 -0.42306,-5.43807 3.00744,-4.78229 1.92787,0.36854 2.35513,0.99078 2.11247,3.07649 -0.3497,3.0059 -2.49121,3.7194 -5.11991,1.7058 z m -36.89736,-3.2451 c -3.64778,-2.50582 -3.68296,-2.59218 -2,-4.90847 2.48711,-3.42304 7.90952,-3.34929 9.23065,0.12556 0.72812,1.91508 0.56955,3.15437 -0.63976,5 -1.94566,2.96941 -1.95251,2.96921 -6.59089,-0.21709 z m -46.21673,-0.90143 c -2.51021,-1.83551 -1.68842,-2.55375 1.8417,-1.60965 2.26526,0.60582 2.5463,0.97182 1.4469,1.88425 -1.02846,0.85354 -1.83825,0.78592 -3.2886,-0.2746 z m 77.11999,0.13655 c -2.12439,-1.61069 -0.94464,-2.70501 2.0671,-1.91743 1.28479,0.33598 1.8949,1.09612 1.56655,1.95177 -0.66275,1.7271 -1.3186,1.7209 -3.63365,-0.0343 z m -83.98285,-1.55295 c 0.28604,-1.09382 0.94076,-1.72875 1.45494,-1.41097 0.55165,0.34094 0.45486,1.15615 -0.23614,1.98875 -1.57743,1.90069 -1.835,1.77858 -1.2188,-0.57778 z m 77.29269,-0.57027 c 0,-0.85746 0.45734,-1.27636 1.01631,-0.9309 0.55897,0.34546 0.75742,1.04702 0.44098,1.55902 -0.85723,1.38704 -1.45729,1.12841 -1.45729,-0.62812 z m -64.56234,-1.54185 c -0.3742,-0.60547 0.27424,-2.05547 1.44098,-3.22222 1.77092,-1.77092 2.12136,-1.85036 2.12136,-0.48092 0,0.90224 0.27314,2.35224 0.60699,3.22222 0.43172,1.12506 0.0157,1.58179 -1.44098,1.58179 -1.12639,0 -2.35414,-0.49539 -2.72835,-1.10087 z m 32.06234,-1.29764 c -3.75457,-3.03147 -2.77461,-4.16135 2.60008,-2.99785 l 4.14068,0.89636 -1.87038,2.26186 -1.87038,2.26186 -3,-2.42223 z m 44.96106,1.3355 c -0.36134,-0.58466 0.14147,-1.9453 1.11735,-3.02364 1.91685,-2.11809 3.37606,-1.11709 3.40628,2.33665 0.0169,1.93276 -3.43016,2.45626 -4.52363,0.68699 z m -82.82269,-1.43699 c 0.31659,-0.825 0.69736,-1.5 0.84617,-1.5 0.14882,0 0.83077,0.675 1.51546,1.5 1.03907,1.252 0.89917,1.5 -0.84617,1.5 -1.44788,0 -1.91401,-0.46138 -1.51546,-1.5 z m 77.36163,0.55902 c 0,-1.67643 1.77354,-2.09154 2.36383,-0.55328 0.3483,0.90766 -0.003,1.49426 -0.89521,1.49426 -0.80774,0 -1.46862,-0.42344 -1.46862,-0.94098 z m -84,-1.11804 c 0,-0.58246 0.45,-0.7809 1,-0.44098 0.55,0.33992 1,0.81648 1,1.05902 0,0.24254 -0.45,0.44098 -1,0.44098 -0.55,0 -1,-0.47656 -1,-1.05902 z m 34,0.14081 c 0,-2.50213 1.46338,-4.08179 3.78131,-4.08179 l 2.56732,0 -2.34863,2.5 c -2.41543,2.57112 -4,3.19773 -4,1.58179 z m 44,-0.14081 c 0,-0.58246 0.45,-0.7809 1,-0.44098 0.55,0.33992 1,0.81648 1,1.05902 0,0.24254 -0.45,0.44098 -1,0.44098 -0.55,0 -1,-0.47656 -1,-1.05902 z m -75.44209,-1.87699 c -0.96973,-1.07154 -1.58399,-2.48575 -1.36501,-3.14268 0.22449,-0.67348 1.17637,-0.007 2.18252,1.5289 2.15553,3.28976 1.6329,4.32145 -0.81751,1.61378 z m 77.03193,0.0353 c -0.97547,-1.07789 -1.30637,-2.15644 -0.76437,-2.49142 0.52567,-0.32488 1.69036,0.53045 2.5882,1.90073 1.91846,2.92794 0.66017,3.33547 -1.82383,0.59069 z m -70.2331,-0.61201 c -0.81795,-2.13154 1.34954,-4.37684 3.64554,-3.77642 1.84117,0.48147 1.85085,0.61158 0.21323,2.86534 -2.00526,2.75973 -3.05433,3.00742 -3.85877,0.91108 z m 77.18866,0.58618 c -1.1658,-1.88629 1.26887,-4.93478 3.47946,-4.3567 1.83335,0.47943 1.90525,0.75591 0.6775,2.605 -1.643,2.4745 -3.28311,3.16562 -4.15696,1.7517 z m -30.72222,-0.86085 c -4.38399,-0.54263 -5.04651,-2.35321 -2.19452,-5.99737 1.38396,-1.76838 2.88259,-3.21523 3.33027,-3.21523 0.76868,0 2.55824,8.97962 1.86609,9.36362 -0.17876,0.0992 -1.52959,0.0312 -3.00184,-0.15102 z m -51.77308,-2.65927 c -2.46871,-2.62782 -1.85669,-3.00779 2.74414,-1.70365 2.00943,0.56959 2.1304,0.8742 0.97442,2.45365 -1.24885,1.70637 -1.44881,1.66604 -3.71856,-0.75 z m 77.63074,0.40139 c -1.99864,-2.85346 -1.82021,-3.08647 1.65232,-2.15777 2.46662,0.65968 2.59878,0.91387 1.35757,2.61132 -1.32815,1.81635 -1.43083,1.80088 -3.00989,-0.45355 z m -37.08979,0.1926 c -0.28984,-0.46897 0.0503,-1.64214 0.75584,-2.60704 1.19204,-1.63021 1.40371,-1.56987 2.99102,0.85268 1.68143,2.5662 1.66959,2.60704 -0.75584,2.60704 -1.35522,0 -2.70118,-0.38371 -2.99102,-0.85268 z m -7.31106,-0.997 c -1.47704,-0.43268 -1.95441,-1.07657 -1.42638,-1.92395 0.6048,-0.97058 1.22941,-0.79212 2.625,0.75 1.00725,1.11299 1.64912,1.97877 1.42638,1.92395 -0.22274,-0.0548 -1.40399,-0.39232 -2.625,-0.75 z m 1.71878,-3.15205 c -1.17558,-1.65095 -1.99372,-3.98107 -1.81809,-5.17805 0.28275,-1.92707 0.63428,-1.72029 3.06932,1.80548 1.5125,2.18999 2.75,4.52011 2.75,5.17805 0,2.10027 -1.7977,1.28908 -4.00123,-1.80548 z m -29.26521,0.40196 c -0.32987,-0.32987 -0.10764,-1.67987 0.49385,-3 1.18698,-2.60514 3.77259,-3.27818 3.77259,-0.98203 0,0.78002 0.27314,2.13002 0.60699,3 0.4513,1.17608 -0.0189,1.58179 -1.83334,1.58179 -1.34217,0 -2.71021,-0.2699 -3.04009,-0.59977 z m 38.35933,-0.78831 c -0.87062,-1.04903 -0.86132,-2.02605 0.0381,-4 0.93718,-2.0569 1.8997,-2.61192 4.52956,-2.61192 4.01769,0 4.152,0.88093 0.75059,4.92327 -2.89988,3.44632 -3.65936,3.68747 -5.31822,1.68865 z m 38.64067,0.78831 c -0.91438,-0.91439 1.42009,-5.40024 2.81032,-5.40024 1.05433,0 2.39953,2.89145 2.44247,5.25 0.0162,0.88965 -4.38742,1.01559 -5.25279,0.15023 z m -83.89454,-0.89454 c -0.27187,-0.27187 -0.29026,-1.88455 -0.0409,-3.58374 0.3787,-2.5802 0.80356,-2.99546 2.57765,-2.51934 1.16831,0.31354 2.69826,0.57623 3.39989,0.58374 0.97396,0.0104 0.90876,0.72318 -0.27568,3.01365 -1.36991,2.6491 -4.24499,3.92168 -5.66098,2.50569 z m 77.82765,-0.17236 c -1.00448,-1.00448 -0.80013,-5.13281 0.28734,-5.80491 0.52471,-0.32428 2.04718,-0.31524 3.38328,0.0201 2.22631,0.55877 2.33715,0.85373 1.32675,3.53059 -1.02498,2.71547 -3.44466,3.80694 -4.99737,2.25422 z m -39.58179,-4.22617 c -3.18056,-4.01578 -3.20101,-4.10453 -0.9189,-3.98885 1.28371,0.0651 3.53338,0.40258 4.99925,0.75 l 2.66522,0.63169 -1.74632,3.35716 -1.74632,3.35717 -3.25293,-4.10717 z m -30.9082,-3.7743 c 0.48655,-2.50877 2.82332,-2.85325 2.82332,-0.4162 0,1.22833 -0.64569,2.08333 -1.57332,2.08333 -0.93124,0 -1.44138,-0.68037 -1.25,-1.66713 z m 77.41437,0.81445 c -0.28984,-0.46897 0.0675,-1.66561 0.79397,-2.65919 1.22825,-1.67973 1.35664,-1.61989 1.8293,0.85267 0.49153,2.57127 -1.36182,3.84758 -2.62327,1.80652 z M 57.2873,972.69632 c -0.8471,-2.20749 0.0683,-3.85692 3.01576,-5.43438 3.5941,-1.92351 4.39118,-0.64825 2.17128,3.47386 -1.95829,3.63632 -4.21646,4.48983 -5.18704,1.96052 z m 47.63837,0.81478 c -5.09035,-0.84062 -5.19164,-1.01881 -3.01006,-5.29506 1.9211,-3.76568 4.21711,-5.11175 5.4145,-3.17434 1.02604,1.66017 1.83465,9.15206 0.97337,9.01844 -0.4828,-0.0749 -2.00281,-0.32197 -3.37781,-0.54904 z m 29.60725,-0.14124 c -1.02937,-1.66556 0.62891,-4.96011 3.05244,-6.06435 3.71008,-1.69042 4.4889,-0.47535 2.1913,3.41878 -1.95631,3.31571 -4.14661,4.42076 -5.24374,2.64557 z m -41.85787,-1.86298 c -1.3239,-0.34594 -1.60593,-1.10986 -1.15705,-3.134 1.44877,-6.53293 1.28459,-6.37199 5.74811,-5.63494 2.28776,0.37777 4.30345,0.81685 4.47932,0.97572 0.17587,0.15886 -0.62078,2.13246 -1.77032,4.38575 -2.04148,4.00165 -3.11266,4.50164 -7.30006,3.40747 z M 58.6864,962.66767 c 0.39066,-2.04364 0.89153,-2.40342 2.61132,-1.87577 3.14632,0.96532 3.32686,1.42019 1.18525,2.98618 -2.96074,2.16495 -4.34529,1.76 -3.79657,-1.11041 z m 77.23927,-0.0387 c 0,-2.20073 0.32133,-2.46861 2.25,-1.87577 3.27622,1.00706 3.46608,1.44638 1.3073,3.02492 -2.76977,2.02531 -3.5573,1.7709 -3.5573,-1.14915 z m -32.25,-0.24903 c -1.5125,-0.17403 -2.75,-0.48581 -2.75,-0.69284 0,-0.20703 0.99717,-2.06649 2.21593,-4.13214 l 2.21592,-3.75571 0.80645,3.88144 c 1.00773,4.85025 0.88232,5.08708 -2.4883,4.69925 z m -9.32322,-1.76844 c -1.98869,-0.85972 -0.29201,-6.37491 2.59318,-8.42935 2.69929,-1.92206 8.06125,-2.76068 7.90144,-1.23579 -0.0432,0.4125 -1.30786,2.775 -2.81027,5.25 -2.54624,4.19453 -4.97142,5.58795 -7.68435,4.41514 z m -33.94946,-2.45184 c -0.58978,-0.95429 0.37729,-9.49855 0.99383,-8.78068 0.14992,0.17456 0.58282,2.45488 0.96199,5.06738 0.64953,4.47524 -0.33255,6.3398 -1.95582,3.7133 z m 77.10978,0.17764 c -0.29201,-0.47249 -0.18457,-2.83499 0.23876,-5.25 l 0.76968,-4.39094 1.05834,5.25 c 0.84243,4.17895 0.79373,5.25 -0.23875,5.25 -0.7134,0 -1.53601,-0.38658 -1.82803,-0.85906 z M 95.99596,946.94636 c 0.14773,-4.72929 1.10272,-5.56316 4.67971,-4.0862 3.99937,1.65136 4.05748,2.42799 0.34571,4.62059 -3.88099,2.29256 -5.10965,2.16191 -5.02542,-0.53439 z m 3.8716,-6.05018 c -2.50736,-0.93207 -2.53934,-1.06746 -1.61205,-6.82538 0.52033,-3.23094 1.26745,-5.87444 1.66028,-5.87444 0.62292,0 3.28156,13.20981 2.72289,13.52904 -0.11716,0.0669 -1.36416,-0.30621 -2.77112,-0.82922 z"
       style="fill:#950003;fill-opacity:1" />
  </g>
</svg>
