<?xml version="1.0" encoding="UTF-8" standalone="no"?>
<!-- Created with Inkscape (http://www.inkscape.org/) -->

<svg
   xmlns:dc="http://purl.org/dc/elements/1.1/"
   xmlns:cc="http://creativecommons.org/ns#"
   xmlns:rdf="http://www.w3.org/1999/02/22-rdf-syntax-ns#"
   xmlns:svg="http://www.w3.org/2000/svg"
   xmlns="http://www.w3.org/2000/svg"
   xmlns:sodipodi="http://sodipodi.sourceforge.net/DTD/sodipodi-0.dtd"
   xmlns:inkscape="http://www.inkscape.org/namespaces/inkscape"
   width="200"
   height="200"
   id="svg5875"
   version="1.1"
   inkscape:version="0.48.3.1 r9886"
   sodipodi:docname="Nuevo documento 130">
  <defs
     id="defs5877" />
  <sodipodi:namedview
     id="base"
     pagecolor="#ffffff"
     bordercolor="#666666"
     borderopacity="1.0"
     inkscape:pageopacity="0.0"
     inkscape:pageshadow="2"
     inkscape:zoom="0.49497475"
     inkscape:cx="-98.16883"
     inkscape:cy="93.277844"
     inkscape:document-units="px"
     inkscape:current-layer="layer1"
     showgrid="false"
     inkscape:window-width="1366"
     inkscape:window-height="692"
     inkscape:window-x="0"
     inkscape:window-y="24"
     inkscape:window-maximized="1" />
  <metadata
     id="metadata5880">
    <rdf:RDF>
      <cc:Work
         rdf:about="">
        <dc:format>image/svg+xml</dc:format>
        <dc:type
           rdf:resource="http://purl.org/dc/dcmitype/StillImage" />
        <dc:title></dc:title>
      </cc:Work>
    </rdf:RDF>
  </metadata>
  <g
     inkscape:label="Capa 1"
     inkscape:groupmode="layer"
     id="layer1"
     transform="translate(0,-852.36218)">
    <path
       style="fill:#950003;fill-opacity:1"
       d="m 94.513846,852.82415 c -12.00338,0.0694 -14.34132,0.48514 -21.375,2.65625 -12.10206,3.73557 -18.87119,6.90583 -28.59375,13.375 -10.71299,7.12818 -20.49681,16.88075 -27.625,27.59375 -6.53884,9.82728 -9.7371404,16.69529 -13.3125004,28.625 -3.50159003,11.6836 -4.38404003,33.74238 -1.875,46.125 8.14089,40.17695 37.9668004,70.48005 78.1875004,79.43755 5.05311,1.1253 11.1121,1.4366 22.875004,1.1875 17.11288,-0.3626 25.48395,-2.1025 39.03125,-8.0938 15.49723,-6.8536 31.91981,-20.8822 41.8125,-35.75 6.46917,-9.72256 9.63943,-16.52295 13.375,-28.625 2.48127,-8.0385 2.6875,-9.91009 2.6875,-27.125 0,-17.21491 -0.20623,-19.11775 -2.6875,-27.15625 -5.44579,-17.64259 -13.78204,-31.84453 -25.75,-43.8125 -11.96797,-11.96796 -26.20116,-20.33546 -43.84375,-25.78125 -8.0385,-2.48127 -9.91009,-2.65625 -27.125,-2.65625 -2.151864,0 -4.066484,-0.01 -5.781254,0 z m 46.218754,31.5625 c 3.59986,0.0613 6.5625,0.46976 6.5625,0.90625 0,0.43648 1.8856,1.19485 4.21875,1.65625 2.88485,0.57051 4.3566,1.3936 4.59375,2.625 0.19179,0.99592 1.31876,2.78751 2.5,3.96875 1.89086,1.89086 1.95323,2.18287 0.46875,2.46875 -0.92736,0.1786 -2.5103,-0.10985 -3.53125,-0.65625 -1.14044,-0.6103 -2.42406,-0.65584 -3.3125,-0.0937 -0.79537,0.5032 -2.67621,0.9295 -4.15625,0.9375 -1.48004,0.008 -2.99879,0.51628 -3.375,1.125 -0.48679,0.78765 -0.89436,0.75382 -1.4375,-0.125 -1.02334,-1.65581 -3.27636,-0.17278 -2.5625,1.6875 0.40814,1.06355 -0.0278,1.38734 -1.625,1.15625 -1.36558,-0.19758 -2.4702,-1.26356 -2.875,-2.8125 -0.55978,-2.14197 -0.737,-2.24938 -1.375,-0.75 -0.40955,0.9625 -1.39009,1.75 -2.15625,1.75 -0.76615,0 -1.375,0.45 -1.375,1 0,0.55 -1.575,1 -3.5,1 -2.80334,0 -3.5,-0.40699 -3.5,-1.96875 0,-2.53652 5.72419,-11.03125 7.4375,-11.03125 0.72719,0 1.59727,-0.66355 1.90625,-1.46875 0.42056,-1.09595 2.194,-1.4585 7.09375,-1.375 z m 13.5,12.46875 c 2.65704,-0.0842 5.6829,0.78411 8.75,2.59375 3.41996,2.01783 3.75591,3.1115 3.34375,10.28125 -0.29568,5.14346 -1.21717,6.02905 -3.5625,3.4375 -1.61298,-1.78233 -1.68595,-2.21032 -0.4375,-3 1.14582,-0.72475 0.98427,-0.9255 -0.78125,-0.9375 -1.32653,-0.009 -2.25,-0.61565 -2.25,-1.5 0,-0.825 -0.45,-1.5 -1,-1.5 -0.55,0 -1,0.42367 -1,0.96875 0,1.25863 -10.08042,-5.14201 -10.1875,-6.46875 -0.0437,-0.54175 1.19711,-1.75823 2.78125,-2.6875 1.27911,-0.75034 2.74953,-1.13696 4.34375,-1.1875 z m -41.90625,2.8125 -0.68788,0.10861 -0.49962,0.0789 c -1.68628,-2.15481 -4.07703,-2.20626 -5.28125,0.25 l -1.34375,-0.5 c 0.59804,-1.07575 1.11849,-1.57377 1.77771,-1.84946 2.41358,-0.7837 5.33678,-0.2322 6.03479,1.91195 z m -1.40625,0.90625 c 0.14811,0.005 0.25369,0.37204 0.28125,1.03125 0.0434,1.03936 -0.69375,2.48811 -1.65625,3.21875 -2.66944,2.0264 -3.2735,1.69631 -3.1875,-1.84375 0.0434,-1.7875 0.31634,-2.6875 0.59375,-2 0.27741,0.6875 1.11042,1.25 1.84375,1.25 0.73333,0 1.53509,-0.5625 1.8125,-1.25 0.10557,-0.26163 0.22364,-0.40936 0.3125,-0.40625 z m 6.15625,1.65625 13.78125,0 13.75,0 5.09375,3.1875 c 5.74444,3.62129 19.59375,15.59801 19.59375,16.9375 0,0.48259 -6.24234,0.875 -13.875,0.875 -11.75375,0 -14.08759,-0.27195 -15.25,-1.6875 -2.5695,-3.12907 -15.62302,-13.8118 -19.53125,-16 l -3.875,-2.1875 -5.46875,3.4375 c -3.00557,1.89508 -7.28756,5.15187 -9.5,7.21875 -2.212434,2.06689 -5.182474,4.63136 -6.593754,5.71875 -1.41128,1.08738 0.38872,-0.82667 4,-4.25 3.611294,-3.42333 9.110854,-7.81083 12.218754,-9.75 z m -0.0937,3.15625 5.90625,3.78125 c 3.24669,2.08127 7.33695,5.29627 9.09375,7.15625 l 3.1875,3.40625 0.3125,12.75 0.3125,12.75 -11.75,0 -11.75,0 0,-7.5 0,-7.5 -4.5,0 -4.5,0 0,7.5 c 0,7.33333 -0.0556,7.5 -2.5,7.5 l -2.500004,0 0,-12.9375 0,-12.90625 5.250004,-4.46875 c 2.8875,-2.44307 7.09044,-5.56554 9.34375,-6.96875 z m -0.0312,5.03125 c -0.86891,-0.0281 -1.72933,0.26058 -2.46875,1 -1.78971,1.78971 -1.45693,6.54361 0.53125,7.65625 1.99362,1.11568 5.07754,-0.17757 5.96875,-2.5 1.17139,-3.0526 -1.42453,-6.07182 -4.03125,-6.15625 z m -68.250004,1 c 4.9341,-0.23126 11.43867,3.5562 18.59375,10.84375 6.16093,6.27498 18.68357,22.65017 17.875,23.375 -0.20763,0.18612 -3.075,1.09564 -6.375,2.03125 -3.3,0.9356 -8.025,2.84537 -10.5,4.25 -2.475,1.40463 -5.65074,3.59646 -7.03125,4.875 l -2.5,2.34375 -2.5,-3.65625 c -4.23138,-6.22969 -14.1035,-16.23817 -18.65625,-18.90625 -3.42165,-2.00522 -5.38365,-2.46084 -9.28125,-2.1875 l -4.9375,0.34375 1.90625,-3 c 7.12258,-11.24506 15.87274,-19.12218 22.4375,-20.1875 0.31493,-0.0511 0.63981,-0.10958 0.96875,-0.125 z m 68.968654,0.625 c 0.98366,0.25702 1.77284,1.08428 2.09375,2.15625 l -2.09375,0 z m -1.75,0.15625 0,2 -1.6875,0 c 0.16553,-0.53006 0.45442,-1.00267 0.8125,-1.375 0.0963,-0.11953 0.21653,-0.22188 0.3125,-0.3125 0.17927,-0.16928 0.31721,-0.26755 0.4375,-0.28125 0.008,-0.004 0.0234,0.004 0.0312,0 0.0294,-0.0147 0.0637,-0.0176 0.0937,-0.0312 z m -1.78125,3.625 1.78125,0 0,2.53125 c -0.91632,-0.43182 -1.6046,-1.39491 -1.78125,-2.53125 z m 3.53125,0 2.1875,0 c -0.20019,1.31675 -1.05551,2.38604 -2.1875,2.6875 z m 20.96875,6.34375 c 0.31859,-0.0315 0.70712,0.33579 1.15625,1.0625 0.35375,0.57238 5.48261,1 12.03125,1 l 11.46875,0 0,10.5 0,10.5 -13,0 -13,0 0,-11.5 c 0,-7.83915 0.38799,-11.46788 1.34375,-11.5625 z m 2.65625,9.9375 0,3.5625 0,3.5625 5.5625,0 5.5625,0 0,-0.0625 0.1875,0 0,-7.03125 -10.78125,0 z m 12.125,0.0312 0,1.3125 c -0.12148,0.51549 -0.125,1.23409 -0.125,2.28125 0,1.00849 0.0134,1.70769 0.125,2.21875 l 0,1.21875 1.78125,0 c 0.6317,0.0561 1.47471,0.0625 2.59375,0.0625 1.11905,0 1.96206,-0.006 2.59375,-0.0625 l 2.03125,0 0,-7.03125 z m -37.125,0.0937 0,3.5 0,3.5 6.5,0 6.5,0 0,-3.5 0,-3.5 -6.5,0 z m -86.125004,4.03125 c 0.8503,0.014 1.67663,0.1371 2.5,0.34375 3.81542,0.9576 11.97268,7.93893 18.03125,15.4375 3.06201,3.78979 5.59375,7.31324 5.59375,7.8125 0,0.49926 -1.84196,3.11877 -4.09375,5.84375 -2.2518,2.72498 -7.69614,10.21934 -12.09375,16.65625 -4.39762,6.43691 -8.82447,12.44959 -9.8125,13.34375 -1.68141,1.52165 -1.92958,1.40969 -3.84375,-1.6875 -5.79225,-9.37205 -9.79909,-23.89636 -10.8125,-39.0625 l -0.65625,-9.75 4.15625,-3.9375 c 3.48515,-3.31534 7.34663,-5.06061 11.03125,-5 z m 61.875,10.9375 c 1.84856,0.0567 0.41021,1.30209 -4.25,3.78125 -10.81399,5.75287 -14.65723,9.0558 -34,29.21875 -12.87166,13.41745 -18.67882,18.81985 -20.375,18.90625 -2.156,0.10983 -2.24705,-0.0573 -1,-1.8125 0.75459,-1.06206 5.20001,-7.45601 9.875,-14.21875 15.25962,-22.0742 24.48561,-30.0277 39.40625,-33.84375 5.4606,-1.39659 8.90598,-2.07536 10.34375,-2.03125 z m 54.468754,0.0312 38.0625,0 -0.53125,11.25 c -0.57988,12.72311 -3.28467,22.41397 -9.53125,34 l -3.65625,6.75 -48.125,0 -48.093754,0 3.21875,-12.84375 c 1.77501,-7.06299 4.11524,-14.61821 5.21875,-16.78125 2.58909,-5.07504 10.0087,-11.93803 18.218754,-16.875 3.575,-2.14977 6.62917,-4.27724 6.8125,-4.71875 0.18334,-0.4415 17.47536,-0.78125 38.40625,-0.78125 z"
       id="path5911"
       inkscape:connector-curvature="0"
       sodipodi:nodetypes="ssssssssssssssssssssssscscsscssssssssssscssssssscsscccccccccssssscccccssscccssscccsccccccccccssccccccssssssccsscccsccccsccccccccscccccccccscssccccccssccccccccccccccccsccccccsccccccsssssssscccssscsssssscscccccsscscs" />
  </g>
</svg>
