<?xml version="1.0" encoding="UTF-8" standalone="no"?>
<!-- Created with Inkscape (http://www.inkscape.org/) -->

<svg
   xmlns:dc="http://purl.org/dc/elements/1.1/"
   xmlns:cc="http://creativecommons.org/ns#"
   xmlns:rdf="http://www.w3.org/1999/02/22-rdf-syntax-ns#"
   xmlns:svg="http://www.w3.org/2000/svg"
   xmlns="http://www.w3.org/2000/svg"
   xmlns:sodipodi="http://sodipodi.sourceforge.net/DTD/sodipodi-0.dtd"
   xmlns:inkscape="http://www.inkscape.org/namespaces/inkscape"
   width="200"
   height="200"
   id="svg5770"
   version="1.1"
   inkscape:version="0.48.3.1 r9886"
   sodipodi:docname="Nuevo documento 124">
  <defs
     id="defs5772" />
  <sodipodi:namedview
     id="base"
     pagecolor="#ffffff"
     bordercolor="#666666"
     borderopacity="1.0"
     inkscape:pageopacity="0.0"
     inkscape:pageshadow="2"
     inkscape:zoom="1.4"
     inkscape:cx="97.869088"
     inkscape:cy="114.75645"
     inkscape:document-units="px"
     inkscape:current-layer="layer1"
     showgrid="false"
     inkscape:window-width="1366"
     inkscape:window-height="692"
     inkscape:window-x="0"
     inkscape:window-y="24"
     inkscape:window-maximized="1" />
  <metadata
     id="metadata5775">
    <rdf:RDF>
      <cc:Work
         rdf:about="">
        <dc:format>image/svg+xml</dc:format>
        <dc:type
           rdf:resource="http://purl.org/dc/dcmitype/StillImage" />
        <dc:title></dc:title>
      </cc:Work>
    </rdf:RDF>
  </metadata>
  <g
     inkscape:label="Capa 1"
     inkscape:groupmode="layer"
     id="layer1"
     transform="translate(0,-852.36218)">
    <path
       style="fill:#950003;fill-opacity:1"
       d="m 74.946664,855.5618 c -17.76379,4.76423 -32.53381,13.25256 -45.5,26.21875 -12.933116,12.93312 -21.2131758,27.30907 -26.1874958,45.34375 -3.65379003,17.82863 -4.391593,34.33332 0,50.40625 4.97678,18.04359 13.2636898,32.40855 26.1874958,45.31255 15.22711,15.2036 31.84954,23.8829 53.78125,28.0625 10.85989,2.0696 29.848536,1.2216 41.812496,-1.875 17.53474,-4.5386 32.45493,-13.1112 45.5,-26.1563 12.93313,-12.9331 21.24443,-27.30907 26.21875,-45.34375 3.60445,-17.81954 4.3897,-34.33035 0,-50.40625 -4.97432,-18.03468 -13.28562,-32.41062 -26.21875,-45.34375 -12.96618,-12.96618 -27.73621,-21.45452 -45.5,-26.21875 -17.16568,-2.98913 -32.799376,-4.59658 -50.093746,0 z m 29.812496,26.96875 c 1.86346,-0.0344 3.74965,0.0241 5.65625,0.15625 21.28684,1.47527 32.19222,7.89164 38.1875,22.46875 3.12613,7.59988 3.15157,14.12885 0.0312,17.84375 -1.51257,1.80078 -2.6515,4.83993 -3.125,8.34375 -0.4088,3.025 -1.5329,7.03828 -2.5,8.9375 l -1.75,3.46875 -0.71875,-3.21875 c -0.78641,-3.5805 -3.01083,-5.20125 -7.21875,-5.21875 -2.17009,-0.009 -4.7806,-1.92179 -11.375,-8.34375 -10.2576,-9.98937 -14.59787,-12.65731 -26.437496,-16.25 -7.97201,-2.41908 -10.68586,-2.7419 -23.75,-2.8125 -8.1118,-0.0438 -14.751,-0.2875 -14.75,-0.5625 0.0105,-2.11804 4.89765,-7.57795 10.21875,-11.375 12.41629,-8.86008 24.48708,-13.19655 37.531246,-13.4375 z m 1.34375,1.03125 c -11.928096,-0.0432 -22.893936,3.22163 -33.281246,9.875 l -5.3125,3.40625 12,0.5625 c 8.99231,0.43386 13.12718,1.08085 16.59375,2.625 7.092076,3.15909 6.529306,4.10851 -1.28125,2.125 -7.29911,-1.85363 -20.92583,-3.8125 -26.4375,-3.8125 -2.23172,0 -4.07704,0.93298 -6.28125,3.1875 -1.71526,1.75441 -3.09375,3.49868 -3.09375,3.875 0,0.37631 6.4125,0.90093 14.25,1.1875 23.3868,0.85513 33.491186,4.73878 48.312496,18.5 7.241,6.72309 9.88849,8.57335 12.53125,8.78125 2.17252,0.1709 4.06194,1.13575 5.375,2.78125 1.11304,1.39484 2.33117,2.5907 2.71875,2.625 1.00767,0.0892 2.2447,-6.65419 2.1875,-11.9375 -0.0621,-5.73466 -2.01162,-9.38922 -9,-16.9375 -6.11446,-6.60436 -5.99304,-7.7466 0.34375,-3.15625 4.61939,3.34627 8.55186,8.18684 10.5625,12.96875 l 1.40625,3.28125 1.28125,-3.125 c 2.85004,-6.88062 -1.91751,-20.15684 -9.65625,-26.96875 -5.76936,-5.07839 -12.98484,-7.78738 -24.8125,-9.28125 -2.85921,-0.36112 -5.65361,-0.55252 -8.40625,-0.5625 z m -36.624996,25.15625 c 3.08676,-0.0236 6.39482,0.13303 9.5625,0.53125 16.32974,2.05287 29.340306,6.70811 34.687496,12.40625 2.62484,2.79711 3.12415,4.34739 4.21875,13.1875 0.68102,5.5 1.09575,12.475 0.90625,15.5 l -0.34375,5.5 -4.5,0.5 c -4.90749,0.57357 -7,1.52509 -7,3.15625 0,0.57899 -1.86949,5.68099 -4.125,11.34375 -4.539966,11.39815 -3.263046,10.42346 -15.374996,12.0625 -2.75,0.37214 -5.48522,1.04351 -6.0625,1.5 -0.86004,0.68009 -2.64086,1.09337 -4.78125,1.28125 l -4.46875,0.0937 c -4.55764,-0.1827 -9.28236,-1.12612 -10.75,-2.59375 -0.84289,-0.8429 -1.69013,-3.50638 -1.875,-5.9375 -0.18488,-2.43111 -0.82785,-5.75625 -1.4375,-7.40625 -0.60966,-1.65 -1.57537,-5.925 -2.125,-9.5 -0.54962,-3.575 -1.59444,-8.74105 -2.34375,-11.46875 -1.16318,-4.23444 -1.1707,-5.77757 0.0625,-10.5 1.08913,-4.17074 1.19878,-6.35519 0.40625,-8.9375 -0.57851,-1.88349 -0.85143,-3.77057 -0.59375,-4.1875 1.01756,-1.64645 6.37892,-1.93925 10.375,-0.5625 3.8192,1.31581 4.15959,1.29027 3.875,-0.1875 -0.47703,-2.47701 -4.7952,-4.2575 -9.53125,-3.9375 -2.3375,0.15796 -4.25,0.14166 -4.25,-0.0312 0,-2.5521 2.64784,-9.47017 3.875,-10.125 1.97295,-1.05278 6.44917,-1.64824 11.59375,-1.6875 z m 21.5625,12.625 c -8.75026,0 -13.03125,1.12433 -13.03125,3.46875 0,1.20392 0.60544,1.38099 2.75,0.78125 4.12621,-1.15391 14.81688,-0.57132 17.96875,0.96875 3.341456,1.6327 4.036576,0.59667 1.843746,-2.75 -1.493736,-2.27973 -2.222826,-2.46875 -9.531246,-2.46875 z m -29.4375,9.03125 c -1.47874,0.0168 -2.75861,0.36856 -3.1875,1.0625 -0.46613,0.75422 0.0607,0.89283 1.59375,0.40625 1.57684,-0.50048 2.02966,-0.36895 1.53125,0.4375 -0.39123,0.63302 -0.16469,1.79284 0.5,2.59375 1.58963,1.91539 2.19452,1.83288 4.21875,-0.53125 1.60047,-1.86921 1.58193,-2.0363 -0.21875,-3 -1.2607,-0.67471 -2.95875,-0.98559 -4.4375,-0.96875 z m 24.9375,1 c -2.99225,0.0668 -5.53125,0.38922 -5.53125,0.90625 0,0.52068 1.61846,0.64319 3.65625,0.3125 3.11119,-0.50488 3.56156,-0.31947 3.03125,1.0625 -0.34383,0.896 0.0575,2.2762 0.875,3.09375 1.69197,1.69197 4.4375,1.05637 4.4375,-1.03125 0,-0.76616 0.9,-1.375 2,-1.375 2.70947,0 2.5383,-1.62777 -0.25,-2.375 -1.78098,-0.47729 -5.22649,-0.66052 -8.21875,-0.59375 z m 47.406246,5.09375 c 1.1945,-0.006 1.99415,0.40517 3.03125,1.34375 3.52118,3.18663 2.17741,13.19134 -2.03125,15.15625 -1.35174,0.63109 -3.7875,1.43513 -5.4375,1.78125 l -3,0.625 0.5,-8.78125 0.5,-8.75 3.71875,-0.9375 c 1.15026,-0.28417 2.00206,-0.434 2.71875,-0.4375 z m 7.15625,8.9375 c 0.48709,-0.004 1.0968,0.86274 1.53125,2.59375 1.29191,5.14737 -7.26459,9.32592 -23.59375,11.5 l -8.75,1.15625 -4.34375,11.09375 c -4.73705,12.04304 -18.025336,39.2154 -22.906246,46.8438 -1.67157,2.6125 -3.544,4.75 -4.15625,4.75 -0.66392,0 -0.43041,-1.062 0.59375,-2.625 7.43567,-11.3483 22.570726,-41.88989 27.031246,-54.56255 l 2.6875,-7.6875 7.65625,-0.625 c 16.89653,-1.40963 23.40625,-4.13102 23.40625,-9.8125 0,-1.73488 0.35667,-2.62069 0.84375,-2.625 z m 2.78125,7.0625 0.53125,4.1875 c 0.28099,2.3017 0.7646,8.6875 1.09375,14.1875 0.53185,8.88711 0.94433,10.58045 3.78125,15.34375 3.24977,5.45652 11.39656,13.57642 15.46875,15.4375 1.2375,0.5656 2.25,1.512 2.25,2.125 0,1.1998 -12.6612,13.8554 -17.40625,17.4063 -2.7536,2.0606 -3.89432,2.1875 -25.125,2.1875 -17.24966,0 -22.49065,-0.3159 -23.34375,-1.3438 -0.85565,-1.031 -0.30405,-1.6763 2.40625,-2.9687 3.95574,-1.8864 7.7461,-7.298 7.0625,-10.0625 -0.26055,-1.0537 0.82963,-3.6198 2.53125,-5.9688 2.03165,-2.8046 2.89099,-5.10312 2.71875,-7.15625 -0.13941,-1.66176 0.48478,-4.125 1.375,-5.5 0.89021,-1.375 2.37787,-4.3 3.3125,-6.5 0.93462,-2.2 2.03508,-4.675 2.4375,-5.5 0.50928,-1.04406 2.97642,-1.69321 8.125,-2.09375 4.06835,-0.31651 8.61679,-1.21651 10.125,-2 2.54776,-1.32354 2.743,-1.85706 2.75,-7.71875 0.004,-3.46996 -0.38597,-6.08349 -0.875,-5.78125 -0.48903,0.30224 -2.87415,0.17428 -5.3125,-0.28125 -5.205,-0.9724 -8.38157,-0.0487 -9.25,2.6875 -0.54735,1.72454 -0.98192,1.84906 -3.5625,0.875 -3.12926,-1.18117 -7.99965,-0.0524 -12.84375,3 -1.94836,1.22771 -2.25901,2.09223 -1.8125,4.84375 0.38056,2.34506 0.0537,3.73506 -1.0625,4.65625 -2.06805,1.70681 -5.44275,9.30849 -5.6875,12.84375 -0.10538,1.52216 -1.43931,4.57427 -2.96875,6.78125 -1.621396,2.33969 -2.650736,5.01755 -2.468746,6.40625 0.18407,1.4046 -1.00119,4.4375 -2.90625,7.4063 -1.77666,2.7686 -3.21875,5.5448 -3.21875,6.1562 0,0.6114 -1.4625,2.1783 -3.25,3.5 -6.3652,4.7064 -6.76389,3.8766 -2,-4.125 5.61072,-9.424 15.687586,-30.3785 20.749996,-43.15625 2.07009,-5.225 4.19452,-9.78686 4.71875,-10.125 0.52422,-0.33813 3.95111,-0.90854 7.625,-1.25 8.51653,-0.79152 15.86917,-2.96235 20.4375,-6.0625 z m -92.749996,1.875 c 0.42218,0 1.00598,1.6875 1.3125,3.75 0.30652,2.0625 1.22836,6.9 2.03125,10.75 0.80288,3.85 1.70264,8.59636 2,10.5625 0.29736,1.96613 1.4276,4.50517 2.5,5.65625 2.18116,2.3412 6.03125,22.2012 6.03125,31.125 0,3.8077 -0.40105,5.1563 -1.46875,5.1563 -0.79254,0 -1.63296,-0.3375 -1.875,-0.75 -0.7927,-1.351 -16.65625,-57.75534 -16.65625,-59.2188 0,-1.50341 4.81265,-7.03125 6.125,-7.03125 z m 87.218746,7.875 c 2.75369,-0.24628 4.6125,1.54801 3.78125,4.65625 -0.88388,3.30506 -2.1309,3.72973 -6.875,2.34375 -3.78385,-1.10544 -4.17781,-3.13981 -1.03125,-5.34375 1.44405,-1.01145 2.87333,-1.5443 4.125,-1.65625 z m -17.15625,3.15625 c 1.88902,-0.0723 4.02592,0.40298 5.3125,1.34375 1.63235,1.19361 1.73941,1.7599 0.71875,4 -0.69744,1.53071 -1.92966,2.5361 -2.96875,2.4375 -9.65578,-0.9163 -9.25108,-0.74538 -8.15625,-3.625 0.55875,-1.46964 1.56566,-2.99097 2.21875,-3.40625 0.71535,-0.45486 1.7416,-0.70663 2.875,-0.75 z m 13.71875,5.46875 c 0.43465,0.004 0.93041,0.0677 1.5625,0.1875 3.72883,0.70692 4.16344,1.05531 2.875,2.34375 -0.56081,0.56081 -2.66048,1.30113 -4.65625,1.625 -3.59711,0.58373 -3.6315,0.56131 -2.4375,-1.96875 0.75869,-1.60763 1.35233,-2.19999 2.65625,-2.1875 z m -15.15625,3.53125 c 1.7875,-0.0195 3.25,0.38871 3.25,0.90625 0,1.71318 -1.5111,1.89496 -4.03125,0.5 l -2.46875,-1.375 3.25,-0.0312 z m -7.4375,1.96875 c 1.11042,0 4.22171,3.91677 3.5,4.40625 -0.17561,0.1191 -1.63208,1.2039 -3.21875,2.40625 -3.65752,2.7716 -4.59375,2.75028 -4.59375,-0.0937 0,-2.68008 2.59177,-6.71875 4.3125,-6.71875 z m 4.34375,6.78125 c 1.41601,-0.0231 1.50935,1.58789 0.0312,4.6875 -1.87088,3.92327 -4.99019,4.71093 -6.625,1.65625 -0.82852,-1.5481 -0.36475,-2.32829 2.6875,-4.5 1.74621,-1.24244 3.05665,-1.82986 3.90625,-1.84375 z m -52.281246,5.03125 c 0.17242,-0.003 0.36545,0.028 0.59375,0.0625 0.22831,0.0345 0.49258,0.0853 0.78125,0.15625 0.0237,0.006 0.0385,0.0249 0.0625,0.0312 0.56698,0.14186 1.24302,0.32057 2.0625,0.59375 0.0905,0.0267 0.15651,0.0351 0.25,0.0625 4.80823,1.46931 17.23925,1.54236 22.3125,0.0937 0.0685,-0.0195 0.11993,-0.0436 0.1875,-0.0625 0.5448,-0.10331 1.07419,-0.19315 1.5625,-0.3125 0.66581,-0.16273 1.17256,-0.30329 1.53125,-0.34375 0.17935,-0.0202 0.32635,0.007 0.4375,0.0312 0.003,0.005 0.0312,-0.006 0.0312,0 0,1.51 -2.55994,5.4817 -3.875,6 -3.00952,1.18612 -15.59136,1.35298 -20.4375,0.28125 -3.72114,-0.82293 -5.04241,-1.65046 -5.78125,-3.59375 -0.79771,-2.09815 -0.8682,-2.98014 0.28125,-3 z m 41.562496,4.1875 c 1.9092,0 4.03755,1.25491 3.96875,2.34375 -0.0397,0.62865 -1.54935,2.39168 -3.375,3.90625 -2.77776,2.30445 -3.43426,2.49895 -3.9375,1.1875 -0.65958,-1.71884 1.91527,-7.4375 3.34375,-7.4375 z m -40.374996,2.9375 c 0.099,0.009 0.22192,0.0471 0.34375,0.0937 0.74464,0.28574 1.69537,0.54441 2.71875,0.78125 0.0381,0.0106 0.0469,0.0221 0.0937,0.0312 0.0295,0.007 0.0641,-0.007 0.0937,0 4.95459,1.11669 12.37245,1.62803 16.5625,0.96875 l 5,-0.78125 c 0.2315,0.0656 0.37915,0.16288 0.4375,0.34375 l -1.65625,3.25 c -1.61443,3.16455 -2.47677,3.78975 -5.6875,4.09375 -4.09912,0.3881 -15.70666,-0.6666 -17.15625,-1.5625 -0.49095,-0.3034 -1.08516,-2.1464 -1.3125,-4.09375 -0.26848,-2.29977 -0.13061,-3.18985 0.5625,-3.125 z m 44.812496,2.78125 c 0.37303,0.0376 0.6439,0.35035 0.9375,0.875 0.57566,1.02864 0.44367,2.4703 -0.375,4 -1.35666,2.5349 -3.46939,3.0118 -5.9375,1.3438 -1.25352,-0.8472 -0.95468,-1.487 1.9375,-3.9688 1.88219,-1.6151 2.81579,-2.31263 3.4375,-2.25 z m -59.093746,2.4688 c 0.14981,-0.01 0.2439,-0.01 0.28125,0.031 0.24244,0.2424 -1.02217,3.8794 -2.78125,8.0937 -1.75909,4.2144 -3.45484,7.6875 -3.78125,7.6875 -0.79302,0 -10,-9.4112 -10,-10.2187 0,-0.7486 14.03424,-5.4942 16.28125,-5.5938 z m 2.75,2.7812 c 0.75216,-0.07 1.42753,1.9855 3.25,8.4375 1.48738,5.2656 2.71875,10.0087 2.71875,10.5625 0,0.5538 -1.52417,1.0313 -3.375,1.0313 -2.87227,0 -5.77064,-1.4798 -9.96875,-5.0625 -0.79609,-0.6795 3.69848,-10.5137 6.53125,-14.2813 0.30923,-0.4113 0.59304,-0.6642 0.84375,-0.6875 z m 12.96875,1.9063 c 0.83366,-0.012 2.50494,0.2395 4.3125,0.6562 2.41009,0.5556 6.5244,1.0179 9.15625,1.0313 4.64425,0.024 4.77499,0.097 3.625,2.2812 -0.65169,1.2375 -1.70734,2.5647 -2.3125,2.9688 -1.1653,0.778 -9.9396,0.844 -12.78125,0.094 -1.56656,-0.4137 -3.56617,-5.9026 -2.53125,-6.9375 0.0637,-0.064 0.25336,-0.09 0.53125,-0.094 z m 34.218746,1.5312 c 0.49536,0 1.03774,0.1835 1.6875,0.5313 1.15189,0.6164 2.09375,1.3266 2.09375,1.5625 0,0.2358 -1.69733,1.5426 -3.75,2.9375 -2.052676,1.3948 -4.077666,2.5625 -4.499996,2.5625 -1.67748,0 -0.61149,-3.8071 1.65625,-5.9375 1.24392,-1.1686 1.986906,-1.6607 2.812496,-1.6563 z m 4,4.5938 c 1.45724,0 0.77645,3.6862 -0.96875,5.2187 -2.77237,2.4345 -5.922926,3.0606 -6.593746,1.3125 -0.38459,-1.0022 0.65358,-2.3731 3.093746,-4.0312 2.03295,-1.3815 4.04643,-2.5 4.46875,-2.5 z m -10.343746,10.6562 c 0.90332,0.013 1.67226,0.128 2.09375,0.375 1.02336,0.5996 -0.10174,0.861 -3.46875,0.8125 -4.81672,-0.069 -4.88399,-0.087 -1.53125,-0.875 0.96527,-0.227 2.00294,-0.3255 2.90625,-0.3125 z"
       id="path5809"
       inkscape:connector-curvature="0"
       sodipodi:nodetypes="csccssssccscccscssccccssscsccscccssssssssscssscccssscssscccssssccsssssscsssssscssssssccsssssccssscsssccsscccccccscccssscccscccsssssssssssssssscsssssscssssssssssccssssssssssssssssssssssccsssccscccccsssccccsscccsccccccsccssssccscssscccccccccsssccccssscccssscccsssssccscsccscccsssscsssssccccc" />
  </g>
</svg>
