<?xml version="1.0" encoding="UTF-8" standalone="no"?>
<!-- Created with Inkscape (http://www.inkscape.org/) -->

<svg
   xmlns:dc="http://purl.org/dc/elements/1.1/"
   xmlns:cc="http://creativecommons.org/ns#"
   xmlns:rdf="http://www.w3.org/1999/02/22-rdf-syntax-ns#"
   xmlns:svg="http://www.w3.org/2000/svg"
   xmlns="http://www.w3.org/2000/svg"
   xmlns:sodipodi="http://sodipodi.sourceforge.net/DTD/sodipodi-0.dtd"
   xmlns:inkscape="http://www.inkscape.org/namespaces/inkscape"
   width="200"
   height="200"
   id="svg6323"
   version="1.1"
   inkscape:version="0.48.3.1 r9886"
   sodipodi:docname="Nuevo documento 154">
  <defs
     id="defs6325" />
  <sodipodi:namedview
     id="base"
     pagecolor="#ffffff"
     bordercolor="#666666"
     borderopacity="1.0"
     inkscape:pageopacity="0.0"
     inkscape:pageshadow="2"
     inkscape:zoom="1.4"
     inkscape:cx="314.23074"
     inkscape:cy="48.341148"
     inkscape:document-units="px"
     inkscape:current-layer="layer1"
     showgrid="false"
     inkscape:window-width="1366"
     inkscape:window-height="692"
     inkscape:window-x="0"
     inkscape:window-y="24"
     inkscape:window-maximized="1" />
  <metadata
     id="metadata6328">
    <rdf:RDF>
      <cc:Work
         rdf:about="">
        <dc:format>image/svg+xml</dc:format>
        <dc:type
           rdf:resource="http://purl.org/dc/dcmitype/StillImage" />
        <dc:title></dc:title>
      </cc:Work>
    </rdf:RDF>
  </metadata>
  <g
     inkscape:label="Capa 1"
     inkscape:groupmode="layer"
     id="layer1"
     transform="translate(0,-852.36218)">
    <path
       style="fill:#950003;fill-opacity:1"
       d="m 94.508664,852.82415 c -12.00338,0.0694 -14.31006,0.48514 -21.34375,2.65625 -12.10205,3.73557 -18.90244,6.90583 -28.625,13.375 -10.713,7.12818 -20.49682,16.912 -27.625,27.625 -6.53885,9.82728 -9.7058899,16.66404 -13.2812499,28.59375 -3.50159002,11.6836 -4.41529002,33.74238 -1.90625,46.125 8.14088,40.17695 37.9667999,70.48005 78.1874999,79.43755 5.05311,1.1253 11.11211,1.4366 22.874996,1.1875 17.11288,-0.3626 25.5152,-2.1025 39.0625,-8.0938 15.49723,-6.8536 31.91981,-20.8822 41.8125,-35.75 6.46917,-9.72256 9.63943,-16.52295 13.375,-28.625 2.48127,-8.0385 2.65625,-9.91009 2.65625,-27.125 0,-17.21491 -0.17498,-19.11775 -2.65625,-27.15625 -5.44579,-17.64259 -13.81329,-31.84453 -25.78125,-43.8125 -11.96797,-11.96796 -26.20116,-20.33546 -43.84375,-25.78125 -8.0385,-2.48127 -9.91009,-2.65625 -27.125,-2.65625 -2.151866,0 -4.066476,-0.01 -5.781246,0 z m -17.78125,31.5625 c 0.0434,0.005 0.0713,0.0401 0.0937,0.0625 0.21496,0.21496 0.70461,2.86122 1.0625,5.90625 0.51403,4.37366 0.2312,6.50206 -1.34375,10.0625 -1.50332,3.39851 -3.15878,5.12152 -6.6875,7.09375 -4.64293,2.59499 -4.67326,2.59909 -4.0625,0.40625 0.33858,-1.21562 1.94106,-4.84449 3.5625,-8.09375 1.62144,-3.24927 2.77075,-6.10425 2.53125,-6.34375 -0.61924,-0.61923 -6.5771,9.94353 -6.625,11.75 -0.0354,1.33333 -0.12712,1.33333 -0.875,0 -1.57059,-2.80008 -2.20497,-8.95079 -1.125,-10.96875 1.04802,-1.95824 12.125,-10.02608 13.46875,-9.875 z m 47.124996,0 c 1.34375,-0.15108 12.42073,7.91676 13.46875,9.875 1.07997,2.01796 0.44559,8.16867 -1.125,10.96875 -0.74788,1.33333 -0.8396,1.33333 -0.875,0 -0.0527,-1.98814 -6.02555,-12.34945 -6.71875,-11.65625 -0.29733,0.29734 0.40259,2.09197 1.5625,3.96875 1.15992,1.87679 2.7913,5.32456 3.625,7.6875 0.83369,2.36294 1.39337,4.37435 1.25,4.46875 -0.14338,0.0944 -2.22248,-0.924 -4.625,-2.28125 -5.96187,-3.36804 -8.63324,-9.28161 -7.71875,-17.0625 0.35789,-3.04503 0.84754,-5.69129 1.0625,-5.90625 0.0224,-0.0224 0.0504,-0.0576 0.0937,-0.0625 z m -69.531246,8.84375 c 0.29629,-0.005 2.06411,2.53392 3.9375,5.625 2.5326,4.17877 3.52503,7.06402 3.8125,11.25 0.34334,4.99949 0.0389,6.15684 -2.78125,10.375 -1.74667,2.6125 -3.59558,4.75 -4.09375,4.75 -0.49817,0 -0.90625,-4.59583 -0.90625,-10.1875 0,-5.59166 -0.22039,-9.93585 -0.5,-9.65625 -0.27961,0.27961 -0.84211,4.46978 -1.25,9.28125 l -0.75,8.71875 -3.34375,-4.75 c -2.73085,-3.88102 -3.28049,-5.44112 -2.875,-8.34375 0.45881,-3.28435 7.51236,-17.0412 8.75,-17.0625 z m 91.937496,0 c 1.23764,0.0213 8.29119,13.77815 8.75,17.0625 0.40549,2.90263 -0.14414,4.46273 -2.875,8.34375 l -3.34375,4.75 -0.75,-8.71875 c -0.40789,-4.81147 -0.97039,-9.00164 -1.25,-9.28125 -0.27961,-0.2796 -0.5,4.06459 -0.5,9.65625 0,5.59167 -0.40808,10.1875 -0.90625,10.1875 -0.49817,0 -2.34709,-2.1375 -4.09375,-4.75 -2.82022,-4.21816 -3.12459,-5.37551 -2.78125,-10.375 0.28747,-4.18598 1.27989,-7.07123 3.8125,-11.25 1.87339,-3.09108 3.64121,-5.63 3.9375,-5.625 z M 38.696164,917.5429 c 1.26564,-0.2802 10.03709,6.78934 12.34375,10.03125 3.10579,4.36508 4.02319,11.81675 2.15625,17.28125 -0.72656,2.12662 -1.23774,4.2125 -1.125,4.625 0.11275,0.4125 0.0157,0.75 -0.25,0.75 -0.94544,0 -5.3775,-9.6863 -7.03125,-15.375 -0.92439,-3.1798 -1.8606,-5.60816 -2.0625,-5.40625 -0.63107,0.63106 2.48721,12.73497 4.0625,15.78125 0.82502,1.59542 1.5,3.14594 1.5,3.46875 0,0.32281 -2.65232,-1.19654 -5.90625,-3.40625 -4.25216,-2.88759 -6.10412,-4.8505 -6.5625,-6.9375 -0.5473,-2.49185 1.7655,-19.76551 2.78125,-20.78125 0.0248,-0.0248 0.0529,-0.0222 0.0937,-0.0312 z m 123.031246,0 c 0.11191,-0.0119 0.20048,-0.0183 0.25,0.0312 1.01575,1.01574 3.32855,18.2894 2.78125,20.78125 -0.45838,2.087 -2.31033,4.04991 -6.5625,6.9375 -3.25392,2.20971 -5.90625,3.72906 -5.90625,3.40625 0,-0.32281 0.67498,-1.87333 1.5,-3.46875 1.57529,-3.04628 4.69357,-15.15019 4.0625,-15.78125 -0.20191,-0.20191 -1.13811,2.22645 -2.0625,5.40625 -0.92439,3.17979 -2.75799,7.92651 -4.09375,10.5625 -2.11146,4.16677 -3.81092,6.34344 -3.1875,4.0625 0.11274,-0.4125 -0.39844,-2.49838 -1.125,-4.625 -1.86694,-5.4645 -0.94954,-12.91617 2.15625,-17.28125 2.23225,-3.13733 10.50881,-9.85332 12.1875,-10.03125 z m -16.78125,9.0625 c 0.15324,-0.0838 0.2319,0.13047 0.25,0.625 0.0302,0.825 -0.37309,2.175 -0.90625,3 -1.18132,1.82797 -1.18132,0.24908 0,-2.5 0.28334,-0.65937 0.50301,-1.04121 0.65625,-1.125 z m -89.499996,0.0312 c 0.16869,-0.054 0.54229,0.48074 0.9375,1.46875 0.52695,1.31735 0.78137,2.59363 0.5625,2.8125 -0.5014,0.50141 -1.67845,-2.47063 -1.59375,-4.03125 0.009,-0.16063 0.0375,-0.23199 0.0937,-0.25 z m 22.875,3.625 c 0.98071,0.0288 1.95028,0.48123 2.28125,1.34375 0.77314,2.01475 12.47638,7.6052 16.09375,7.6875 2.63221,0.0599 2.79729,0.20546 1.09375,0.9375 -3.01701,1.29641 13.387696,1.2171 19.499996,-0.0937 3.53391,-0.75789 5.57629,-1.83534 6.6875,-3.53125 0.87951,-1.3423 1.77796,-2.25329 2.03125,-2 0.25329,0.2533 1.29076,4.65488 2.28125,9.78125 0.9905,5.12637 1.73705,9.36585 1.65625,9.40625 -0.0808,0.0404 -2.63125,-1.4381 -5.65625,-3.28125 -9.88271,-6.02158 -19.04082,-7.05409 -33.343746,-3.8125 -7.23296,1.63927 -15.8064,1.69361 -17.375,0.125 -0.56528,-0.56528 1.30502,-12.20499 2.46875,-15.34375 0.31279,-0.84362 1.30054,-1.24753 2.28125,-1.21875 z m 30.749996,3.0625 c 4.15945,0.0265 7.21875,0.34839 7.21875,0.90625 0,0.55 0.675,1 1.5,1 3.15516,0 1.31005,1.80546 -2.9375,2.875 -2.44355,0.6153 -4.58105,1.05175 -4.75,0.96875 -0.16895,-0.083 -3.6875,-0.45306 -7.8125,-0.8125 -4.124996,-0.35944 -8.624996,-1.27691 -9.999996,-2.0625 -2.44169,-1.39504 -2.37172,-1.47228 3,-2.125 4.36221,-0.53006 9.621796,-0.77652 13.781246,-0.75 z m -37.406246,6.25005 c 0.35616,-0.0222 0.631,0.30378 0.625,0.84375 -0.008,0.71996 -0.46684,1.9875 -1,2.8125 -0.78809,1.21948 -0.95625,1.09373 -0.96875,-0.6875 -0.008,-1.20504 0.41875,-2.47258 0.96875,-2.8125 0.1375,-0.085 0.25628,-0.14885 0.375,-0.15625 z m 32.749996,8 c 5.91162,-0.1585 10.27918,1.02056 15.59375,3.71875 7.74495,3.93208 10.03415,5.8933 10.875,9.34375 0.6978,2.86341 0.66167,2.89249 -2.6875,2.1875 -14.4304,-3.03753 -17.08006,-2.98875 -31.062496,0.5 -9.4039,2.34637 -23.0368,2.57708 -24.8125,0.4375 -0.83573,-1.00699 -1.00438,-3.42569 -0.53125,-7.84375 l 0.6875,-6.375 3.75,1 c 2.92093,0.77964 6.25918,0.50406 15.34375,-1.28125 5.19664,-1.02125 9.296776,-1.5924 12.843746,-1.6875 z m -72.437496,0.65625 c 0.18584,-0.0161 0.411,0 0.65625,0 1.11663,0 4.74305,0.75611 8.0625,1.6875 4.50698,1.2646 7.11049,2.76675 10.28125,5.9375 4.34032,4.34033 4.74297,5.26049 5.84375,13.71875 0.547,4.20304 1.03956,5.01645 3.5625,5.96875 1.60668,0.60645 2.90625,1.47683 2.90625,1.90625 0,1.22147 -0.384,1.01153 -6.8125,-3.28125 -3.32774,-2.22218 -8.21358,-6.68825 -10.84375,-9.9375 -2.63016,-3.24925 -4.95604,-5.70021 -5.1875,-5.46875 -0.58396,0.58397 4.3196,7.12034 9.1875,12.21875 2.23181,2.3375 3.626,4.25 3.0625,4.25 -3.6464,0 -13.20108,-2.4467 -14.65625,-3.75 -1.75049,-1.56779 -3.56078,-6.7514 -6.09375,-17.5 -1.14581,-4.86223 -1.26959,-5.63705 0.0312,-5.75 z m 38.09375,0 c 0.12292,0 0.13125,0.33334 0.0937,1 -0.0464,0.825 -0.43465,2.625 -0.875,4 l -0.8125,2.5 -0.0625,-2.5 c -0.0464,-1.375 0.34184,-3.175 0.875,-4 0.43086,-0.66666 0.65834,-1 0.78125,-1 z m 97.874996,0 c 1.96203,0 1.997,0.19317 0.6875,5.75 -2.53297,10.7486 -4.34326,15.93221 -6.09375,17.5 -1.45517,1.3033 -11.00985,3.75 -14.65625,3.75 -0.5635,0 0.83069,-1.9125 3.0625,-4.25 4.90673,-5.13907 9.78152,-11.65598 9.1875,-12.25 -0.2378,-0.23781 -2.42169,2.05841 -4.84375,5.09375 -2.42207,3.03533 -6.43317,6.99531 -8.9375,8.8125 -5.61304,4.07293 -9.0625,5.92083 -9.0625,4.84375 0,-0.44877 1.29957,-1.33105 2.90625,-1.9375 2.52294,-0.9523 3.0155,-1.76571 3.5625,-5.96875 1.12407,-8.6372 1.62106,-9.80163 5.9375,-13.9375 4.10545,-3.93371 12.69311,-7.40625 18.25,-7.40625 z m -115.656246,3 c 0.0516,-0.0516 0.45697,0.25306 1.25,0.875 0.9625,0.75484 1.75,1.54235 1.75,1.75 0,0.82304 -0.81864,0.29075 -2.125,-1.375 -0.62194,-0.79303 -0.92661,-1.19838 -0.875,-1.25 z m 95.999996,0 c 0.0516,0.0516 -0.25306,0.45697 -0.875,1.25 -0.75485,0.9625 -1.54235,1.75 -1.75,1.75 -0.82304,0 -0.29075,-0.81864 1.375,-2.125 0.79303,-0.62194 1.19838,-0.92662 1.25,-0.875 z m -93.531246,27.21875 c 2.60609,-0.19872 4.96633,1.09869 8.90625,3.5 l 6.125,3.75 -5.59375,0.71875 c -3.08419,0.39029 -8.03419,1.40055 -11,2.25 -2.9658,0.84946 -4.05625,1.33046 -2.40625,1.0625 8.47554,-1.37645 20.32205,-1.65782 24.34375,-0.5625 2.39302,0.65175 4.11494,1.44756 3.8125,1.75 -0.30244,0.30245 -2.02537,0.0292 -3.8125,-0.59375 -3.10998,-1.08415 -3.44346,-0.92787 -7.84375,3.40625 -2.52861,2.49058 -6.13504,4.95617 -8.03125,5.5 -1.8962,0.54382 -4.36512,0.9868 -5.46875,0.9688 -3.24438,-0.053 -11.71239,-3.32032 -15.71875,-6.06255 l -3.6875,-2.53125 5.125,-3.9375 c 8.11838,-6.19931 11.89932,-8.96325 15.25,-9.21875 z m 89.937496,0 c 3.67289,-0.32239 7.34522,2.32386 16.375,9.21875 l 5.15625,3.9375 -4.21875,2.8125 c -2.32285,1.55218 -6.44393,3.49615 -9.15625,4.3125 -8.5797,2.5823 -12.98682,1.446 -19.53125,-5 -4.42985,-4.36324 -4.76359,-4.4909 -7.875,-3.40625 -1.78713,0.62302 -3.51006,0.8962 -3.8125,0.59375 -0.30244,-0.30244 1.41948,-1.09825 3.8125,-1.75 4.0217,-1.09532 15.86821,-0.81395 24.34375,0.5625 1.65,0.26796 0.55955,-0.21304 -2.40625,-1.0625 -2.96581,-0.84945 -7.91581,-1.85971 -11,-2.25 l -5.59375,-0.71875 6.125,-3.75 c 3.37758,-2.05857 5.57751,-3.30657 7.78125,-3.5 z M 91.758664,989.2304 c 3.34429,0 3.53125,0.17881 3.53125,3.375 0,1.85625 -0.28125,4.78125 -0.625,6.5 -0.56725,2.8363 -0.98767,3.125 -4.40625,3.125 -3.2801,0 -3.82342,0.3552 -4.40625,2.75 -1.37829,5.6633 -5.28724,9.9938 -11.78125,13.0938 -3.45975,1.6515 -7.98244,3.2778 -10.0625,3.625 -3.56135,0.5943 -3.75735,0.4795 -3.25,-1.6875 0.29633,-1.2658 1.21202,-5.8813 2.03125,-10.2813 2.16281,-11.61623 4.38784,-13.86099 15.84375,-15.9375 l 3.84375,-0.6875 -4.84375,6 c -2.66571,3.2978 -5.66638,7.4879 -6.65625,9.3125 -1.69532,3.1249 -1.59088,3.0804 1.5,-0.6875 1.80472,-2.2 5.81543,-6.5537 8.90625,-9.65625 3.09082,-3.10259 5.87918,-6.36509 6.21875,-7.25 0.40611,-1.05829 1.83347,-1.59375 4.15625,-1.59375 z m 20.687496,0.0937 c 1.49507,0.0395 1.84375,0.49235 1.84375,1.6875 0,1.04951 2.3625,4.3413 5.25,7.3125 2.8875,2.9712 6.74763,7.2063 8.5625,9.4063 3.11853,3.7803 3.20092,3.8227 1.5,0.6875 -0.98987,-1.8246 -3.99054,-6.0147 -6.65625,-9.31255 l -4.84375,-6 3.84375,0.6875 c 11.45591,2.07651 13.68094,4.32127 15.84375,15.93755 0.81923,4.4 1.71076,9.0125 2,10.25 0.60354,2.5821 0.034,2.6536 -6.5625,0.875 -9.7771,-2.6362 -16.63294,-8.5196 -18.46875,-15.875 -0.60361,-2.4185 -1.16062,-2.75 -4.625,-2.75 l -3.9375,0 0.28125,-6.25005 0.3125,-6.25 3.75,-0.3125 c 0.7829,-0.0648 1.40789,-0.1069 1.90625,-0.0937 z m -7.96875,1.625 c 0.11239,0.33928 0.1875,0.78889 0.1875,1.40625 0,1.3411 -0.28125,3.84375 -0.625,5.5625 -0.52919,2.64595 -1.05272,3.12505 -3.53125,3.12505 -2.903006,0 -2.924756,-0.043 -2.624996,-5.25005 0.20516,-2.48537 0.76641,-4.0489 1.57324,-4.87045 0.0955,-0.0972 0.19437,-0.18403 0.29653,-0.26076 -0.0547,0.10068 0.500466,-0.96752 2.989976,-0.42792 0.88726,0.19232 1.59634,0.44142 1.734,0.71538 z"
       id="path6362"
       inkscape:connector-curvature="0"
       sodipodi:nodetypes="sssssssssssssssssccsssssscssccssccsscssscccssssccccscccccccsssssccsscsscsssscccssssssssssscscssscssscsssssscscssssssssscssssscscsssssssscccsscssscssssssssscssccscsssssscsssssssssssssssscsccccsscsssccccsscccssscssscccsssssssssscccsssssssssscccsssssccccsccssscccccscsc" />
  </g>
</svg>
