<?xml version="1.0" encoding="UTF-8" standalone="no"?>
<!-- Created with Inkscape (http://www.inkscape.org/) -->

<svg
   xmlns:dc="http://purl.org/dc/elements/1.1/"
   xmlns:cc="http://creativecommons.org/ns#"
   xmlns:rdf="http://www.w3.org/1999/02/22-rdf-syntax-ns#"
   xmlns:svg="http://www.w3.org/2000/svg"
   xmlns="http://www.w3.org/2000/svg"
   xmlns:sodipodi="http://sodipodi.sourceforge.net/DTD/sodipodi-0.dtd"
   xmlns:inkscape="http://www.inkscape.org/namespaces/inkscape"
   width="200"
   height="200"
   id="svg4487"
   version="1.1"
   inkscape:version="0.48.3.1 r9886"
   sodipodi:docname="Nuevo documento 60">
  <defs
     id="defs4489" />
  <sodipodi:namedview
     id="base"
     pagecolor="#ffffff"
     bordercolor="#666666"
     borderopacity="1.0"
     inkscape:pageopacity="0.0"
     inkscape:pageshadow="2"
     inkscape:zoom="1.979899"
     inkscape:cx="119.18736"
     inkscape:cy="80.92373"
     inkscape:document-units="px"
     inkscape:current-layer="layer1"
     showgrid="false"
     inkscape:window-width="1366"
     inkscape:window-height="692"
     inkscape:window-x="0"
     inkscape:window-y="24"
     inkscape:window-maximized="1" />
  <metadata
     id="metadata4492">
    <rdf:RDF>
      <cc:Work
         rdf:about="">
        <dc:format>image/svg+xml</dc:format>
        <dc:type
           rdf:resource="http://purl.org/dc/dcmitype/StillImage" />
        <dc:title></dc:title>
      </cc:Work>
    </rdf:RDF>
  </metadata>
  <g
     inkscape:label="Capa 1"
     inkscape:groupmode="layer"
     id="layer1"
     transform="translate(0,-852.36218)">
    <path
       inkscape:connector-curvature="0"
       id="path4526"
       d="m 85.484347,1051.2293 c -12.83198,-1.8316 -30.30164,-8.6493 -41.5,-16.1959 C 14.028577,1014.8464 -3.2550826,977.69458 0.72785738,942.05216 5.9954974,894.91326 42.568037,858.34072 89.706937,853.07308 c 62.057953,-6.9348 116.468703,47.47595 109.533903,109.5339 -6.32768,56.62492 -57.67491,96.62712 -113.756493,88.62232 z m 5.10586,-31.8525 c 3.02468,-1.0631 9.413233,-4.5339 14.196783,-7.713 17.913,-11.90483 34.32503,-32.086 46.18747,-56.79479 5.33375,-11.1099 19.00989,-45.33151 19.00989,-47.56819 0,-2.06484 -1.78896,-0.79301 -4.8186,3.42569 -3.28287,4.57131 -9.46777,10.08197 -17.1814,15.30837 -4.17009,2.82546 -4.63627,3.58952 -6.35874,10.42184 -4.954,19.6505 -14.39631,37.96436 -26.08038,50.58423 -12.13757,13.10965 -25.102803,19.28865 -40.473253,19.28865 -12.34034,0 -20.5643,-3.8753 -23.80322,-11.21647 -0.92624,-2.09935 -1.9546,-3.69698 -2.28525,-3.55028 -0.33065,0.14669 -4.29073,1.7798 -8.80017,3.62912 -9.93545,4.07453 -10.45721,5.73243 -4.00651,12.73063 6.3903,6.9326 15.07209,11.1643 27.57091,13.4384 6.88679,1.2531 20.49361,0.2473 26.84247,-1.9842 z m -6.49235,-15.0624 c 18.395983,-3.4671 35.977723,-19.73581 46.897663,-43.39525 4.18593,-9.06937 10.98883,-29.36509 10.98883,-32.78403 0,-3.19854 -9.46297,-11.77432 -17.18988,-15.57826 -8.78146,-4.3231 -17.52206,-6.195 -29.008503,-6.21251 -22.03135,-0.0336 -41.47055,11.51044 -50.11664,29.76189 -3.02951,6.39514 -3.18498,7.30908 -3.18498,18.72333 0,14.30825 2.3964,25.55366 6.13895,28.80776 1.46156,1.27082 2.36105,3.15216 2.36105,4.93832 0,6.84198 6.69574,13.67545 15.5,15.81885 4.4865,1.0922 11.56395,1.06 17.61351,-0.08 z m -7.11351,-3.9848 c -2.40772,-2.40775 -2.53533,-4.32185 -0.42857,-6.4286 2.14021,-2.14022 5.02629,-1.97371 7.42857,0.42857 2.48298,2.48298 2.52961,4.21073 0.17126,6.34503 -2.43026,2.1993 -4.73791,2.0883 -7.17126,-0.345 z m -19,-2.00003 c -1.1,-1.1 -2,-2.585 -2,-3.3 0,-3.69823 6.19551,-5.07173 7.96482,-1.76574 1.40639,2.62788 1.30648,3.65158 -0.53625,5.49431 -2.05846,2.05846 -3.01723,1.98276 -5.42857,-0.42857 z m 39.75,-7.0801 c -3.74137,-2.17915 -0.94879,-9.9199 3.578743,-9.9199 2.07826,0 5.67126,3.4845 5.67126,5.5 0,2.06372 -3.6194,5.50661 -5.75,5.46959 -0.9625,-0.0167 -2.537503,-0.48908 -3.500003,-1.04969 z m 17.786473,-22.87961 c -3.99419,-4.41352 1.28722,-9.80854 7.03727,-7.18864 2.67706,1.21974 3.38248,5.79213 1.22626,7.94835 -1.83711,1.83711 -6.28337,1.42835 -8.26353,-0.75971 z m 10.70207,-21.70639 c -0.6938,-0.27951 -1.72213,-1.36899 -2.28518,-2.42105 -2.84355,-5.31321 6.23578,-8.60621 9.59466,-3.47991 2.95994,4.51745 -1.60202,8.20033 -7.30948,5.90096 z m 5.69455,-19.40081 c -1.64304,-1.64304 -1.82301,-2.36081 -0.87756,-3.5 0.65415,-0.7882 1.78417,-1.43309 2.51115,-1.43309 2.12966,0 6.83127,4.54709 6.03455,5.83621 -1.14539,1.85327 -5.41456,1.35046 -7.66814,-0.90312 z m 6.72662,72.13897 c 17.87602,-8.3652 28.36601,-28.21695 31.2652,-59.16775 1.27327,-13.59296 1.40817,-28.68527 0.2445,-27.35431 -0.45682,0.5225 -3.47472,7.925 -6.70644,16.45 -11.2132,29.57943 -23.56164,51.18833 -38.46202,67.30581 l -6.49905,7.02992 6.90024,-0.6444 c 4.47548,-0.4179 9.13422,-1.6897 13.25757,-3.61927 z M 44.671137,934.32957 c 1.57402,-3.25459 5.54905,-8.39355 9.73659,-12.58757 12.24016,-12.25911 28.18099,-18.20868 45.644013,-17.03565 13.45769,0.90398 24.98159,4.96096 34.30345,12.0765 l 4.67219,3.56636 -0.6416,-2.75982 c -1.45585,-6.26218 -7.02783,-15.72622 -12.45288,-21.15127 -6.72207,-6.72207 -15.79396,-11.57071 -25.44855,-13.60145 -8.798453,-1.85066 -13.195673,-1.8512 -22.000003,-0.003 -30.94261,6.49648 -49.88987,36.71928 -40.74702,64.9956 l 1.6167,5 1.32857,-6.5 c 0.73072,-3.575 2.52557,-8.975 3.98854,-12 z"
       style="fill:#950003;fill-opacity:1" />
  </g>
</svg>
