<?xml version="1.0" encoding="UTF-8" standalone="no"?>
<!-- Created with Inkscape (http://www.inkscape.org/) -->

<svg
   xmlns:dc="http://purl.org/dc/elements/1.1/"
   xmlns:cc="http://creativecommons.org/ns#"
   xmlns:rdf="http://www.w3.org/1999/02/22-rdf-syntax-ns#"
   xmlns:svg="http://www.w3.org/2000/svg"
   xmlns="http://www.w3.org/2000/svg"
   xmlns:sodipodi="http://sodipodi.sourceforge.net/DTD/sodipodi-0.dtd"
   xmlns:inkscape="http://www.inkscape.org/namespaces/inkscape"
   width="200"
   height="200"
   id="svg3811"
   version="1.1"
   inkscape:version="0.48.3.1 r9886"
   sodipodi:docname="Nuevo documento 42">
  <defs
     id="defs3813" />
  <sodipodi:namedview
     id="base"
     pagecolor="#ffffff"
     bordercolor="#666666"
     borderopacity="1.0"
     inkscape:pageopacity="0.0"
     inkscape:pageshadow="2"
     inkscape:zoom="1.4"
     inkscape:cx="252.98753"
     inkscape:cy="145.5242"
     inkscape:document-units="px"
     inkscape:current-layer="layer1"
     showgrid="false"
     inkscape:window-width="1366"
     inkscape:window-height="692"
     inkscape:window-x="0"
     inkscape:window-y="24"
     inkscape:window-maximized="1" />
  <metadata
     id="metadata3816">
    <rdf:RDF>
      <cc:Work
         rdf:about="">
        <dc:format>image/svg+xml</dc:format>
        <dc:type
           rdf:resource="http://purl.org/dc/dcmitype/StillImage" />
        <dc:title></dc:title>
      </cc:Work>
    </rdf:RDF>
  </metadata>
  <g
     inkscape:label="Capa 1"
     inkscape:groupmode="layer"
     id="layer1"
     transform="translate(0,-852.36218)">
    <path
       inkscape:connector-curvature="0"
       id="path4233"
       d="m 86.8363,1051.6553 c 0.72188,-0.2889 1.58438,-0.2534 1.91667,0.079 0.33229,0.3323 -0.25834,0.5686 -1.3125,0.5252 -1.16495,-0.048 -1.4019,-0.285 -0.60417,-0.6042 z m 25,0 c 0.72187,-0.2889 1.58437,-0.2534 1.91667,0.079 0.33229,0.3323 -0.25834,0.5686 -1.3125,0.5252 -1.16495,-0.048 -1.4019,-0.285 -0.60417,-0.6042 z m -74.94006,-21.0669 c -1.24387,-1.5861 -1.2085,-1.6215 0.37756,-0.3776 0.9625,0.7549 1.75,1.5424 1.75,1.75 0,0.8231 -0.82119,0.2933 -2.12756,-1.3724 z m 124.12756,1.3724 c 0,-0.2076 0.7875,-0.9951 1.75,-1.75 1.58606,-1.2439 1.62143,-1.2085 0.37756,0.3776 -1.30637,1.6657 -2.12756,2.1955 -2.12756,1.3724 z m -132.53759,-8.8724 -4.96241,-5.25 5.25,4.9624 c 2.8875,2.7293 5.25,5.0918 5.25,5.25 0,0.7462 -0.92643,-0.084 -5.53759,-4.9624 z m 142.03759,0.25 c 2.70865,-2.75 5.14982,-5 5.42482,-5 0.275,0 -1.71617,2.25 -4.42482,5 -2.70865,2.75 -5.14982,5 -5.42482,5 -0.275,0 1.71617,-2.25 4.42482,-5 z m -149.62756,-8.75 c -1.24387,-1.5861 -1.2085,-1.6215 0.37756,-0.3776 0.9625,0.7549 1.75,1.5424 1.75,1.75 0,0.8231 -0.82119,0.2933 -2.12756,-1.3724 z m 156.12756,1.3724 c 0,-0.2076 0.7875,-0.9951 1.75,-1.75 1.58606,-1.2439 1.62143,-1.2085 0.37756,0.3776 -1.30637,1.6657 -2.12756,2.1955 -2.12756,1.3724 z m -72.5,-17.62242 c -0.38968,-0.63051 -11.64139,-1 -30.45203,-1 -25.8069,0 -29.91294,-0.20574 -30.41887,-1.52417 -1.07872,-2.8111 -13.75671,-79.57482 -13.42487,-81.28599 0.18024,-0.92941 3.44344,16.87266 7.25157,39.56016 l 6.92387,41.25 30.31016,0 c 26.27571,0 30.31017,0.19966 30.31017,1.5 0,0.825 0.68912,1.5 1.53138,1.5 0.84227,0 1.79041,-0.675 2.10699,-1.5 0.49418,-1.28781 4.8751,-1.5 30.96862,-1.5 19.59534,0 30.39301,0.35527 30.39301,1 0,0.64477 -10.81366,1 -30.44098,1 -19.2153,0 -30.6689,0.36877 -31.05902,1 -0.33992,0.55 -1.23992,1 -2,1 -0.76008,0 -1.66008,-0.45 -2,-1 z m -65.84333,-46.25 c -3.6951,-21.5875 -6.70449,-39.79211 -6.68752,-40.45469 0.017,-0.66258 1.49335,-1.42981 3.28085,-1.70496 1.7875,-0.27516 9.02344,-1.47629 16.07987,-2.66918 14.80776,-2.50326 26.119,-2.31141 31.67013,0.53716 1.925,0.98781 3.60933,1.88562 3.74295,1.99513 0.36783,0.30145 8.25705,35.65677 8.25705,37.00371 0,0.64482 -1.575,1.92347 -3.5,2.84144 -1.925,0.91797 -3.5,2.12631 -3.5,2.68521 0,0.5589 -1.0125,1.05155 -2.25,1.09478 -2.44153,0.0853 -10.89397,4.85246 -11.42331,6.44273 -0.47021,1.41262 13.38294,2.22214 21.60853,1.26271 2.34711,-0.27376 2.55313,0.22251 5.69399,13.71596 1.79233,7.7 3.28398,14.5372 3.31478,15.19377 0.037,0.78814 -1.55797,0.4782 -4.69399,-0.91219 -7.41876,-3.28918 -16.4756,-3.39369 -33.33569,-0.38468 -8.02213,1.4317 -16.15025,2.6031 -18.06249,2.6031 l -3.47679,0 -6.71836,-39.25 z m 65.45311,24.78537 c -1.78969,-8.03152 -3.07176,-15.1501 -2.84905,-15.81907 0.23737,-0.71302 4.0947,-1.67636 9.3221,-2.32815 4.90444,-0.61152 16.766,-2.97769 26.35901,-5.25816 9.59301,-2.28047 17.76727,-3.80514 18.16502,-3.38815 0.39774,0.41699 3.37744,9.75816 6.62156,20.75816 l 5.89839,20 -2.84997,0.31609 c -1.56748,0.17384 -8.68703,-0.83866 -15.82122,-2.25 -15.75602,-3.117 -25.38577,-3.25902 -32.95562,-0.48605 -3.025,1.10811 -6.20565,2.2495 -7.06811,2.53642 -1.28739,0.42828 -2.15066,-2.09258 -4.82211,-14.08109 z M 0.10275011,964.75505 c 0.048,-1.16495 0.28494,-1.4019 0.60416,-0.60417 0.28887,0.72187 0.25335,1.58437 -0.0789,1.91667 -0.3323,0.33229 -0.56864,-0.25834 -0.52522,-1.3125 z m 198.99999989,0 c 0.048,-1.16495 0.28494,-1.4019 0.60416,-0.60417 0.28887,0.72187 0.25335,1.58437 -0.0789,1.91667 -0.3323,0.33229 -0.56864,-0.25834 -0.52522,-1.3125 z M 77.0238,958.8587 c 0,-0.75082 7.75958,-4.52032 9.30517,-4.52032 0.76167,0 2.17626,-0.87449 3.14354,-1.94332 0.96727,-1.06883 3.06201,-2.22958 4.65498,-2.57946 1.59297,-0.34987 2.89631,-1.07693 2.89631,-1.61569 0,-0.53876 0.39333,-0.73647 0.87407,-0.43936 0.48074,0.29711 3.74324,-1.32516 7.25,-3.60505 3.50676,-2.2799 9.52593,-5.37472 13.37593,-6.87738 3.85,-1.50266 18.00822,-7.72311 31.46272,-13.82321 15.81471,-7.17019 24.80585,-10.74796 25.43333,-10.12048 0.53384,0.53384 0.77562,1.15871 0.53728,1.3886 -0.23833,0.22989 -12.35483,6.58437 -26.92556,14.12106 -14.57073,7.53669 -27.72292,14.57939 -29.22709,15.65046 -1.50417,1.07107 -5.8389,3.00315 -9.63274,4.29351 -3.79383,1.29037 -7.83011,2.84504 -8.96952,3.45483 -1.67542,0.89666 -2.28755,0.77274 -3.20054,-0.6479 -0.92992,-1.447 -1.04034,-1.46731 -0.62646,-0.11525 0.32629,1.06592 -0.85373,2.7312 -3.36586,4.75 -3.44565,2.769 -4.58485,3.10864 -10.42692,3.10864 -3.60725,0 -6.55864,-0.21585 -6.55864,-0.47968 z m 24.38588,-5.33567 c 0.38424,-0.62171 3.71711,-2.05623 7.40637,-3.18782 3.68926,-1.13159 9.18275,-3.55908 12.20775,-5.39442 7.1129,-4.31557 28.00418,-14.93732 28.45115,-14.46541 0.1891,0.19965 1.24005,3.288 2.33545,6.863 1.82068,5.94206 1.85094,6.55226 0.35252,7.10888 -0.90152,0.33489 -8.61412,1.83786 -17.13912,3.33994 -18.69912,3.29473 -28.68085,5.22316 -31.90637,6.16419 -1.67158,0.48767 -2.19305,0.35687 -1.70775,-0.42836 z m -4.40086,-7.93465 c -0.008,-0.4125 -1.80776,-8.625 -3.99893,-18.25 -2.19116,-9.625 -3.98442,-17.59507 -3.98501,-17.71126 -6e-4,-0.11619 2.3306,-0.90369 5.18042,-1.75 6.52253,-1.93698 19.34328,-1.97273 31.19463,-0.087 5.01813,0.79847 11.23636,1.72229 13.8183,2.05294 4.68022,0.59936 4.69914,0.61738 6.25,5.95214 0.85556,2.94304 1.55557,5.86603 1.55557,6.49555 0,1.24244 -15.95703,8.96813 -27.99835,13.55557 -4.12409,1.57118 -10.15636,4.57464 -13.40504,6.67436 -5.64187,3.64652 -8.57913,4.69285 -8.61159,3.06768 z M 0.10275011,939.75505 c 0.048,-1.16495 0.28494,-1.4019 0.60416,-0.60417 0.28887,0.72187 0.25335,1.58437 -0.0789,1.91667 -0.3323,0.33229 -0.56864,-0.25834 -0.52522,-1.3125 z m 198.99999989,0 c 0.048,-1.16495 0.28494,-1.4019 0.60416,-0.60417 0.28887,0.72187 0.25335,1.58437 -0.0789,1.91667 -0.3323,0.33229 -0.56864,-0.25834 -0.52522,-1.3125 z M 20.0238,890.96082 c 0,-0.20765 0.7875,-0.99515 1.75,-1.75 1.58606,-1.24387 1.62143,-1.2085 0.37756,0.37756 -1.30637,1.66575 -2.12756,2.19548 -2.12756,1.37244 z m 157.87244,-1.37244 c -1.24387,-1.58606 -1.2085,-1.62143 0.37756,-0.37756 1.66575,1.30637 2.19548,2.12756 1.37244,2.12756 -0.20765,0 -0.99515,-0.7875 -1.75,-1.75 z m -149.37244,-8.25 c 2.70865,-2.75 5.14982,-5 5.42482,-5 0.275,0 -1.71617,2.25 -4.42482,5 -2.70865,2.75 -5.14982,5 -5.42482,5 -0.275,0 1.71617,-2.25 4.42482,-5 z m 141.96241,-0.25 -4.96241,-5.25 5.25,4.96241 c 4.87839,4.61116 5.7086,5.53759 4.96241,5.53759 -0.15818,0 -2.52068,-2.3625 -5.25,-5.25 z M 36.0238,874.96082 c 0,-0.20765 0.7875,-0.99515 1.75,-1.75 1.58606,-1.24387 1.62143,-1.2085 0.37756,0.37756 -1.30637,1.66575 -2.12756,2.19548 -2.12756,1.37244 z m 125.87244,-1.37244 c -1.24387,-1.58606 -1.2085,-1.62143 0.37756,-0.37756 1.66575,1.30637 2.19548,2.12756 1.37244,2.12756 -0.20765,0 -0.99515,-0.7875 -1.75,-1.75 z M 86.8363,852.65527 c 0.72188,-0.28887 1.58438,-0.25335 1.91667,0.0789 0.33229,0.3323 -0.25834,0.56864 -1.3125,0.52522 -1.16495,-0.048 -1.4019,-0.28494 -0.60417,-0.60416 z m 25,0 c 0.72187,-0.28887 1.58437,-0.25335 1.91667,0.0789 0.33229,0.3323 -0.25834,0.56864 -1.3125,0.52522 -1.16495,-0.048 -1.4019,-0.28494 -0.60417,-0.60416 z"
       style="fill:#fefefe" />
    <path
       inkscape:connector-curvature="0"
       id="path4231"
       d="m 81.702332,1050.7621 c -19.64681,-3.5509 -37.18915,-12.9411 -52.1784,-27.9303 -11.34581,-11.3458 -17.84504,-21.2807 -23.1354204,-35.36525 -10.73875,-28.58978 -7.7381,-60.4582 8.2234404,-87.33701 6.61895,-11.14615 22.02389,-26.55109 33.17004,-33.17004 32.68621,-19.41017 71.757948,-19.41017 104.444158,0 11.14615,6.61895 26.55109,22.02389 33.17004,33.17004 19.41017,32.68621 19.41017,71.75795 0,104.44416 -6.61895,11.1461 -22.02389,26.5511 -33.17004,33.17 -21.27125,12.6316 -46.69615,17.3249 -70.523818,13.0184 z m 26.801738,-52.41048 c 0.39012,-0.63123 11.84372,-1 31.05902,-1 19.62732,0 30.44098,-0.35523 30.44098,-1 0,-0.64473 -10.79767,-1 -30.39301,-1 -26.09352,0 -30.47444,0.21219 -30.96862,1.5 -0.31658,0.825 -1.26472,1.5 -2.10699,1.5 -0.84226,0 -1.53138,-0.675 -1.53138,-1.5 0,-1.30034 -4.03446,-1.5 -30.310168,-1.5 l -30.31016,0 -6.92387,-41.25 c -3.80813,-22.6875 -7.07133,-40.48957 -7.25157,-39.56016 -0.33184,1.71117 12.34615,78.47489 13.42487,81.28599 0.50593,1.31843 4.61197,1.52417 30.41887,1.52417 18.81064,0 30.062348,0.36949 30.452028,1 0.33992,0.55 1.23992,1 2,1 0.76008,0 1.66008,-0.45 2,-1 z m -41.585688,-9.6031 c 16.86009,-3.00901 25.91694,-2.9045 33.335688,0.38468 3.13602,1.39039 4.73097,1.70033 4.69399,0.91219 -0.0308,-0.65657 -1.52245,-7.49377 -3.31478,-15.19377 -3.140858,-13.49345 -3.346878,-13.98972 -5.693988,-13.71596 -8.22559,0.95943 -22.07874,0.14991 -21.60853,-1.26271 0.52934,-1.59027 8.98178,-6.35743 11.42331,-6.44273 1.2375,-0.0432 2.25,-0.53588 2.25,-1.09478 0,-0.5589 1.575,-1.76724 3.5,-2.68521 1.925,-0.91797 3.5,-2.19662 3.5,-2.84144 0,-1.34694 -7.88922,-36.70226 -8.25705,-37.00371 -0.13362,-0.10951 -1.81795,-1.00732 -3.74295,-1.99513 -5.55113,-2.84857 -16.86237,-3.04042 -31.67013,-0.53716 -7.05643,1.19289 -14.29237,2.39402 -16.07987,2.66918 -1.7875,0.27515 -3.26388,1.04238 -3.28085,1.70496 -0.017,0.66258 2.99242,18.86719 6.68752,40.45469 l 6.71836,39.25 3.47679,0 c 1.91224,0 10.04036,-1.1714 18.06249,-2.6031 z m 49.085688,-0.31686 c 7.56985,-2.77297 17.1996,-2.63095 32.95562,0.48605 7.13419,1.41134 14.25374,2.42384 15.82122,2.25 l 2.84997,-0.31609 -5.89839,-20 c -3.24412,-11 -6.22382,-20.34117 -6.62156,-20.75816 -0.39775,-0.41699 -8.57201,1.10768 -18.16502,3.38815 -9.59301,2.28047 -21.45457,4.64664 -26.35901,5.25816 -5.2274,0.65179 -9.08473,1.61513 -9.3221,2.32815 -0.22271,0.66897 1.05936,7.78755 2.84905,15.81907 2.67145,11.98851 3.53472,14.50937 4.82211,14.08109 0.86246,-0.28692 4.04311,-1.42831 7.06811,-2.53642 z M 93.989632,956.24298 c 2.51213,-2.0188 3.69215,-3.68408 3.36586,-4.75 -0.41388,-1.35206 -0.30346,-1.33175 0.62646,0.11525 0.91299,1.42064 1.52512,1.54456 3.200538,0.6479 1.13941,-0.60979 5.17569,-2.16446 8.96952,-3.45483 3.79384,-1.29036 8.12857,-3.22244 9.63274,-4.29351 1.50417,-1.07107 14.65636,-8.11377 29.22709,-15.65046 14.57073,-7.53669 26.68723,-13.89117 26.92556,-14.12106 0.23834,-0.22989 -0.003,-0.85476 -0.53728,-1.3886 -0.62748,-0.62748 -9.61862,2.95029 -25.43333,10.12048 -13.4545,6.1001 -27.61272,12.32055 -31.46272,13.82321 -3.85,1.50266 -9.86917,4.59748 -13.37593,6.87738 -3.50676,2.27989 -6.769258,3.90216 -7.249998,3.60505 -0.48074,-0.29711 -0.87407,-0.0994 -0.87407,0.43936 0,0.53876 -1.30334,1.26582 -2.89631,1.61569 -1.59297,0.34988 -3.68771,1.51063 -4.65498,2.57946 -0.96728,1.06883 -2.38187,1.94332 -3.14354,1.94332 -1.54559,0 -9.30517,3.7695 -9.30517,4.52032 0,0.26383 2.95139,0.47968 6.55864,0.47968 5.84207,0 6.98127,-0.33964 10.42692,-3.10864 z m 18.514438,-4.34594 c 3.85,-0.75105 13.975,-2.59452 22.5,-4.0966 8.525,-1.50208 16.2376,-3.00506 17.13912,-3.33994 1.49842,-0.55662 1.46816,-1.16682 -0.35252,-7.10888 -1.0954,-3.575 -2.14635,-6.66335 -2.33545,-6.863 -0.44697,-0.47191 -21.33825,10.14984 -28.45115,14.46541 -3.025,1.83534 -8.51849,4.26283 -12.20775,5.39442 -3.68926,1.13159 -7.02213,2.56611 -7.40637,3.18782 -0.4853,0.78523 0.0362,0.91603 1.70775,0.42836 1.3235,-0.38613 5.55637,-1.31654 9.40637,-2.06759 z m -6.90339,-9.3631 c 3.24868,-2.09972 9.28095,-5.10318 13.40504,-6.67435 12.04132,-4.58745 27.99835,-12.31314 27.99835,-13.55558 0,-0.62952 -0.70001,-3.55251 -1.55557,-6.49554 -1.55086,-5.33477 -1.56978,-5.35279 -6.25,-5.95215 -2.58194,-0.33064 -8.80017,-1.25447 -13.8183,-2.05294 -11.85135,-1.88575 -24.6721,-1.85 -31.194628,0.087 -2.84982,0.84631 -5.18102,1.63381 -5.18042,1.75 5.9e-4,0.11619 1.79385,8.08626 3.98501,17.71126 2.19117,9.625 3.99069,17.8375 3.99893,18.25 0.0325,1.62517 2.96972,0.57885 8.611588,-3.06767 z"
       style="fill:#950003;fill-opacity:1" />
  </g>
</svg>
