<?xml version="1.0" encoding="UTF-8" standalone="no"?>
<!-- Created with Inkscape (http://www.inkscape.org/) -->

<svg
   xmlns:dc="http://purl.org/dc/elements/1.1/"
   xmlns:cc="http://creativecommons.org/ns#"
   xmlns:rdf="http://www.w3.org/1999/02/22-rdf-syntax-ns#"
   xmlns:svg="http://www.w3.org/2000/svg"
   xmlns="http://www.w3.org/2000/svg"
   xmlns:sodipodi="http://sodipodi.sourceforge.net/DTD/sodipodi-0.dtd"
   xmlns:inkscape="http://www.inkscape.org/namespaces/inkscape"
   width="200"
   height="200"
   id="svg6743"
   version="1.1"
   inkscape:version="0.48.3.1 r9886"
   sodipodi:docname="Nuevo documento 174">
  <defs
     id="defs6745" />
  <sodipodi:namedview
     id="base"
     pagecolor="#ffffff"
     bordercolor="#666666"
     borderopacity="1.0"
     inkscape:pageopacity="0.0"
     inkscape:pageshadow="2"
     inkscape:zoom="2.8284271"
     inkscape:cx="122.0216"
     inkscape:cy="43.58834"
     inkscape:document-units="px"
     inkscape:current-layer="layer1"
     showgrid="false"
     inkscape:window-width="1366"
     inkscape:window-height="692"
     inkscape:window-x="0"
     inkscape:window-y="24"
     inkscape:window-maximized="1" />
  <metadata
     id="metadata6748">
    <rdf:RDF>
      <cc:Work
         rdf:about="">
        <dc:format>image/svg+xml</dc:format>
        <dc:type
           rdf:resource="http://purl.org/dc/dcmitype/StillImage" />
        <dc:title></dc:title>
      </cc:Work>
    </rdf:RDF>
  </metadata>
  <g
     inkscape:label="Capa 1"
     inkscape:groupmode="layer"
     id="layer1"
     transform="translate(0,-852.36218)">
    <path
       style="fill:#950003;fill-opacity:1"
       d="m 74.953125,855.4081 c -17.76379,4.76423 -32.53382,13.25257 -45.5,26.21875 -12.96619,12.96619 -21.45452,27.73621 -26.21875,45.5 -3.42360916,17.6809 -4.2649343,34.01711 0,50.09375 4.7666,17.77263 13.26192,32.5319 26.21875,45.4688 15.2271,15.2036 31.84953,23.8829 53.78125,28.0625 10.85989,2.0696 29.848545,1.2216 41.812505,-1.875 17.53473,-4.5386 32.45492,-13.1112 45.49999,-26.1563 12.96619,-12.9662 21.45452,-27.73621 26.21875,-45.5 3.42322,-17.67815 4.26914,-33.99911 0,-50.09375 -4.76423,-17.76379 -13.25256,-32.53381 -26.21875,-45.5 -12.96618,-12.96618 -27.73621,-21.45452 -45.49999,-26.21875 -17.17597,-2.98898 -32.805854,-4.59487 -50.093755,0 z m 31.348095,39.20578 c 2.29793,1.80108 2.96375,4.57611 0.58941,6.95047 -3.89324,2.72545 -9.678295,3.30471 -13.343755,0.46875 -1.39772,-1.09944 -2.5625,-2.83634 -2.5625,-3.875 1.24434,-6.67043 10.558965,-6.97844 15.316845,-3.54422 z m -36.973095,2.57547 c 6.77469,0 11.92466,0.10771 15.25,0.3125 l 5.6875,0 c -0.0635,0.33337 -0.125,0.65356 -0.125,1 0,0.38838 0.0455,0.78454 0.125,1.15625 l -39.65625,0 0,-1.15625 c -0.16026,-0.0336 -0.36309,-0.0579 -0.46875,-0.0937 -0.002,-0.0115 0.002,-0.0199 0,-0.0312 -0.0274,-0.14875 -0.0352,-0.27599 0,-0.40625 0.10521,-0.0359 0.30889,-0.0601 0.46875,-0.0937 l 0,-0.375 3.375,0 c 3.31916,-0.20441 8.54616,-0.3125 15.34375,-0.3125 z m 58.999995,0 c 6.7747,0 11.92467,0.10771 15.25,0.3125 l 5.78125,0 0,2.15625 -40.03124,0 c 0.0798,-0.37249 0.125,-0.767 0.125,-1.15625 0,-0.34575 -0.0304,-0.66727 -0.0937,-1 l 3.84375,0 c 3.31536,-0.19836 8.39466,-0.3125 15.125,-0.3125 z m -47.312495,4.125 c 0.74375,0.002 1.19815,0.0236 1.84375,0.0312 0.0437,5.2e-4 0.0817,-5.5e-4 0.125,0 1.25056,0.0473 2.30942,0.11218 3.1875,0.1875 l 4.875,0 c 0.61214,0.98053 1.48701,1.85071 2.59375,2.53125 l -9.25,0 c -0.84937,0.0212 -1.4881,0.0489 -2.5625,0.0625 -2.59823,0.0329 -6.15262,0.0605 -10.28125,0.0625 -4.22995,0 -7.68351,-0.0214 -10.5,-0.0625 -1.06243,-0.0155 -1.77264,-0.04 -2.65625,-0.0625 l -7.78125,0 0,-0.65625 c -0.31872,-0.13314 -0.43396,-0.29157 -0.375,-0.46875 0.0401,-0.12067 0.15986,-0.20902 0.375,-0.3125 l 0,-1.09375 13.78125,0 c 1.97199,-0.046 3.82299,-0.0914 6.3125,-0.125 4.23236,-0.0571 7.60633,-0.0998 10.3125,-0.0937 z m 36.562505,0.0312 c 2.63853,-0.006 5.94132,0.005 10.0625,0.0625 2.42682,0.0336 4.23421,0.0788 6.15624,0.125 l 15.5625,0 0,2.53125 -9.59375,0 c -0.84296,0.0226 -1.51821,0.0468 -2.53125,0.0625 -0.0581,9e-4 -0.0976,-8.8e-4 -0.15625,0 -3.60532,0.0249 -8.19242,0.0211 -14.06249,0 -4.69444,-0.0169 -7.86512,-0.0325 -11.09375,-0.0625 l -0.15625,0 -5.8125,0 c 0.31612,-0.19439 0.62867,-0.40152 0.90625,-0.625 -0.20896,-0.14651 -0.25487,-0.33083 -0.15625,-0.53125 0.0268,0.17738 0.11104,0.28125 0.28125,0.28125 0.0767,0 0.14753,-0.0467 0.21875,-0.0625 0.27512,-0.24849 0.52032,-0.5063 0.75,-0.78125 0.009,-0.055 0.0312,-0.0987 0.0312,-0.15625 0,-0.058 0.0846,-0.10333 0.21875,-0.15625 0.12166,-0.16284 0.2377,-0.33012 0.34375,-0.5 l 3.9375,0 c 0.95391,-0.0546 2.03742,-0.11451 3.25,-0.15625 0.64324,-0.008 1.10003,-0.0295 1.84375,-0.0312 z m -68.843755,3.875 102.531245,0 0,1.125 -102.531245,0 z m 50.15625,2.9688 c 13.521395,0 24.076545,0.0711 31.968745,0.1875 l 18.5,0 0,2.15625 -98.718745,0 0,-1.15625 c -0.0579,-0.008 -0.19951,-0.0231 -0.25,-0.0312 -0.046,-0.10801 -0.10666,-0.21561 -0.15625,-0.3125 0.0794,-0.0172 0.2995,-0.0145 0.40625,-0.0312 l 0,-0.625 16.78125,0 c 7.95578,-0.11535 18.22796,-0.1876 31.46875,-0.1876 z m -48.25,3.96875 98.718745,0 0,2.15625 -98.718745,0 z m -6.59375,3.78125 111.874995,0 0,1.15625 -2.375,0 c -5.43291,0.33916 -27.94709,0.59375 -54.718745,0.59375 -26.8736,0 -49.45329,-0.25428 -54.78125,-0.59375 -0.0152,-9.7e-4 -0.0476,9.7e-4 -0.0625,0 0,-0.0105 0.0455,-0.0208 0.0625,-0.0312 z m 3.28125,3.03125 105.312495,0 0,2.15625 -1.40625,0 c -2.20157,0.19344 -9.43518,-0.56652 -32.72437,0.22683 -21.353135,-0.0468 -32.621285,0.11494 -45.612245,0.30835 -11.97185,-0.0444 -23.69616,-0.19347 -25.36965,-1.03779 -0.39647,-0.19481 -0.19998,-0.26281 -0.19998,-1.65364 z m 2.65625,4.21875 50,0 49.999995,0 0.25,32.75 0.21875,32.75 0.28125,-27.46875 c 0.27454,-26.62312 0.78501,-30.90249 3.34375,-28.34375 0.78285,0.78284 0.78285,1.26618 0,1.75 -0.69412,0.42899 -1.09375,5.43508 -1.09375,13.875 0,10.34529 0.34418,13.69809 1.5625,15.4375 2.32644,3.32146 4.09605,2.78276 4.25,-1.3125 0.0734,-1.95207 0.43289,-3.99885 0.78125,-4.5625 0.34835,-0.56365 -0.28937,-2.02196 -1.40625,-3.21875 l -2.03125,-2.15625 2.375,-2.75 c 2.87644,-3.32646 3.15256,-3.35135 5.53125,-0.5 2.29158,2.74694 2.41595,4.10271 0.46875,5.71875 -0.8678,0.72016 -1.2794,2.13157 -0.96875,3.375 0.6529,2.61329 1.39121,8.91789 2.09375,17.96875 0.43379,5.58845 0.20559,7.17612 -1.21875,8.75 -1.98077,2.18873 -7.63889,2.6195 -9.15625,0.6875 -2.69511,-3.43157 -1.85329,-13.75 1.125,-13.75 3.7495,0 5.17118,7.75198 1.59375,8.6875 -2.48952,0.65102 -2.62015,2.3125 -0.1875,2.3125 2.77699,0 4.1875,-2.06561 4.1875,-6.0625 0,-5.69837 -4.99,-9.03948 -8.03125,-5.375 -1.44176,1.7372 -1.81232,9.42051 -0.65625,13.6875 0.70725,2.61042 1.04137,2.75 6.71875,2.75 3.32063,0 5.96875,0.4448 5.96875,1 0,0.63476 -7.61299,1 -20.875,1 -0.46616,0 -0.67883,3.1e-4 -1.125,0 -0.062,-4e-5 -0.0947,5e-5 -0.15625,0 l -6.09375,-0.3125 -0.25,-24.28125 c -0.18745,-16.99461 0.0623,-24.91891 0.875,-26.4375 0.75448,-1.40977 0.81437,-2.28063 0.15625,-2.5 -0.5571,-0.1857 -0.88274,-2.35941 -0.71875,-4.8125 l 0.25,-3.65625 0.0312,-0.53125 c 0.0877,-0.32552 -0.0804,-0.29505 -0.34375,-0.28125 -0.29144,-0.006 -0.53778,0.005 -0.84375,0 0.0238,-0.0415 0.0394,-0.0819 0.0625,-0.125 1.54587,-2.88849 1.38158,-3.0625 -2.9375,-3.0625 -3.88089,0 -3.95485,0.0614 -2.84375,2.5 0.11217,0.24618 0.24244,0.47826 0.375,0.6875 l -0.40625,0 c -0.81306,0.14554 -0.72566,-0.0924 -0.59375,0.875 l 0.4375,3.25 c 0.16292,1.21456 0.19818,2.1887 0.125,2.96875 -1.17673,0.31544 -1.38314,0.90208 -0.65625,1.78125 -0.0497,0.0439 -0.10126,0.091 -0.15625,0.125 -0.94868,0.58633 -0.97689,1.25198 -0.125,2.84375 0.76225,1.42435 1.02588,9.86419 0.84375,26.375 l -0.28125,24.28125 -1.15625,0.125 c -4.4588,-0.20172 -5.66149,-0.60557 -5.96874,-1.40625 -0.33385,-0.86998 -0.625,-8.91215 -0.625,-17.875 0,-11.75652 -0.38964,-17.25474 -1.40625,-19.6875 -3.80275,-9.1 -11.54497,-14.24325 -21.5,-14.28125 -9.616575,-0.0367 -16.808855,4.3193 -21.406255,12.9375 -1.90511,3.57128 -2.16967,5.95602 -2.5,22.25 l -0.375,18.25 -4.34375,0 c -3.26829,-0.54619 -3.40625,-4.0089 -3.40625,-25.9375 0,-19.82676 0.24395,-23.89507 1.5,-24.9375 1.86078,-1.5443 1.93426,-3 0.15625,-3 -0.2172,0 -0.40866,-0.10763 -0.5625,-0.28125 0.0917,-0.11348 0.17013,-0.21705 0.21875,-0.34375 0.25622,-0.66772 0.0967,-1.06719 -0.6875,-1.28125 -0.14044,-1.46891 0.11576,-3.52565 0.875,-5.34375 0.45454,-1.08846 0.30485,-1.50149 -1.3125,-1.65625 0.45931,-0.622 0.75,-1.31926 0.75,-1.9375 0,-0.81905 -1.29487,-1.28125 -3.5,-1.28125 -3.32556,0 -4.3317,1.26434 -2.75,3.21875 -1.45527,0.16797 -1.59512,0.60531 -1.15625,1.65625 0.75675,1.81217 1.03097,3.78901 0.875,5.3125 -0.89879,0.20611 -1.08225,0.60954 -0.8125,1.3125 0.0656,0.17105 0.2008,0.29101 0.34375,0.4375 0.005,0.005 -0.005,0.0259 0,0.0312 -0.18544,0.30393 -0.44108,0.51845 -0.71875,0.625 -1.2694,0.48712 -1.25399,0.8167 0.15625,2.375 1.00371,1.10909 1.41624,3.25221 1.5625,11.5625 l 0,9.46875 0,15.125 c -0.13121,9.12026 -0.47612,13.16363 -1.125,13.8125 -0.48841,0.48841 -2.23177,0.88364 -4.28125,1.0625 l -2.6875,0 c -13.26975,0 -20.90625,-0.36522 -20.90625,-1 0,-0.55 2.4631,-1 5.46875,-1 6.54014,0 7.53125,-1.22744 7.53125,-9.25 0,-6.60268 -1.67677,-9.32648 -5.21875,-8.4375 -3.57761,0.89792 -5.4397,5.68365 -3.78125,9.6875 1.22685,2.96188 4.23049,4.05411 5.5,2 0.33992,-0.55 -0.25162,-1 -1.34375,-1 -3.1069,0 -3.54149,-7.55162 -0.5,-8.71875 2.50901,-0.9628 4.34375,1.7665 4.34375,6.40625 0,6.55028 -1.26614,8.3125 -6.0625,8.3125 -3.68755,0 -4.13921,-0.31236 -5.5625,-3.71875 -1.6588,-3.97007 -1.20191,-12.57278 0.8125,-15 0.57957,-0.69832 0.82592,-2.21693 0.53125,-3.34375 -0.29467,-1.12681 -0.12276,-3.4519 0.375,-5.1875 0.73113,-2.5493 0.54172,-3.56191 -1,-5.21875 -1.88277,-2.02336 -1.89764,-2.07157 0.53125,-5.03125 l 2.46875,-3 2.4375,2.96875 c 2.39514,2.93695 2.39603,2.98177 0.5,5 -1.34883,1.43577 -1.65974,2.48784 -1,3.53125 0.51626,0.8165 0.96075,2.9625 0.96875,4.75 0.017,3.60583 1.89202,4.3199 4.15625,1.59375 1.91539,-2.30617 2.60198,-26.7813 0.8125,-28.9375 -0.95339,-1.14876 -1.00182,-1.77943 -0.125,-2.65625 2.80755,-2.80755 3.21722,1.11256 2.9375,28.0625 -0.15509,14.94277 0.0562,27.18787 0.46875,27.1875 0.4125,-3.6e-4 0.75,-14.625 0.75,-32.5 z m -16,68 21.5625,0 21.53125,0 -0.28125,7.25 c -0.27567,6.80225 -0.45794,7.24305 -2.71875,7.56255 -3.25836,0.4603 -4.48866,-2.03 -4.1875,-8.5313 l 0.25,-5.28125 -4.65625,0 -4.625,0 0.1875,5.25 c 0.10654,2.88755 -0.13074,6.03755 -0.53125,7.00005 -0.64019,1.5385 -2.29001,1.75 -13.625,1.75 l -12.90625,0 0,-7.50005 z m 89.000005,0 21.49999,0 21.5,0 0,7.5 0,7.50005 -12.53125,0 c -8.65264,0 -12.95083,-0.3877 -13.875,-1.25 -0.95022,-0.8867 -1.18185,-2.9214 -0.8125,-7.00005 l 0.5,-5.75 -4.625,0 -4.65625,0 0,5.78125 c 0,3.19 -0.52749,6.34 -1.1875,7 -0.66,0.66 -2.235,1.2188 -3.49999,1.2188 -2.19556,0 -2.3125,-0.3406 -2.3125,-7.50005 z"
       id="path6790"
       inkscape:connector-curvature="0"
       sodipodi:nodetypes="csccssssccscccccccscscccccccccssscccsccssccccccscscccscccssccccccscscccccsccsccccccccccsccccccccccsccccccccccccccccccccccccccccsssssccccscsssssssssssssccccssccccccsscccccccccccssssscccssscscscsscscccccscccscsssssssssssscssscccsscsssscscccccccccccssccccccccssccccsssscsccc" />
  </g>
</svg>
