<?xml version="1.0" encoding="UTF-8" standalone="no"?>
<!-- Created with Inkscape (http://www.inkscape.org/) -->

<svg
   xmlns:dc="http://purl.org/dc/elements/1.1/"
   xmlns:cc="http://creativecommons.org/ns#"
   xmlns:rdf="http://www.w3.org/1999/02/22-rdf-syntax-ns#"
   xmlns:svg="http://www.w3.org/2000/svg"
   xmlns="http://www.w3.org/2000/svg"
   xmlns:sodipodi="http://sodipodi.sourceforge.net/DTD/sodipodi-0.dtd"
   xmlns:inkscape="http://www.inkscape.org/namespaces/inkscape"
   width="200"
   height="200"
   id="svg3118"
   version="1.1"
   inkscape:version="0.48.3.1 r9886"
   sodipodi:docname="Nuevo documento 9">
  <defs
     id="defs3120" />
  <sodipodi:namedview
     id="base"
     pagecolor="#ffffff"
     bordercolor="#666666"
     borderopacity="1.0"
     inkscape:pageopacity="0.0"
     inkscape:pageshadow="2"
     inkscape:zoom="0.49497475"
     inkscape:cx="-346.99484"
     inkscape:cy="106.76523"
     inkscape:document-units="px"
     inkscape:current-layer="layer1"
     showgrid="false"
     inkscape:window-width="1366"
     inkscape:window-height="692"
     inkscape:window-x="0"
     inkscape:window-y="24"
     inkscape:window-maximized="1" />
  <metadata
     id="metadata3123">
    <rdf:RDF>
      <cc:Work
         rdf:about="">
        <dc:format>image/svg+xml</dc:format>
        <dc:type
           rdf:resource="http://purl.org/dc/dcmitype/StillImage" />
        <dc:title></dc:title>
      </cc:Work>
    </rdf:RDF>
  </metadata>
  <g
     inkscape:label="Capa 1"
     inkscape:groupmode="layer"
     id="layer1"
     transform="translate(0,-852.36218)">
    <path
       inkscape:connector-curvature="0"
       id="path3157"
       d="m 79.604923,1050.6485 c -40.2207,-8.9575 -70.0501798,-39.2637 -78.1910598,-79.4406 -2.50904,-12.38262 -1.59957999,-34.43413 1.90201,-46.11773 3.57536,-11.92971 6.7633398,-18.78748 13.3021898,-28.61476 7.12818,-10.713 16.89382,-20.47864 27.60682,-27.60682 9.72256,-6.46917 16.51271,-9.64411 28.61476,-13.37968 18.4558,-3.42661 37.087197,-5.26022 54.277137,0 17.64259,5.44579 31.85898,13.80635 43.82695,25.77431 11.96796,11.96797 20.32852,26.18436 25.77431,43.82695 3.42661,18.4558 5.26021,37.08721 0,54.27714 -3.73557,12.10205 -6.91051,18.8922 -13.37968,28.61479 -9.89269,14.8678 -26.30772,28.911 -41.80495,35.7646 -20.86521,7.3883 -41.10711,11.3737 -61.928487,6.9018 z m 27.573287,-29.6198 c -0.72609,-0.7261 -1.2,-4.249 -1.2,-8.9205 l 0,-7.7206 -3,-0.6589 c -1.65,-0.3624 -4.349997,-0.3624 -5.999997,0 l -3,0.6589 0,7.7206 c 0,4.6715 -0.47391,8.1944 -1.2,8.9205 -0.93333,0.9334 0.66667,1.2 7.2,1.2 6.533327,0 8.133327,-0.2666 7.199997,-1.2 z m -7.199997,-19.271 c 1.924997,0 5.633737,0.358 8.241647,0.7955 3.81998,0.6409 4.63999,0.5307 4.21866,-0.5673 -0.39706,-1.0347 0.3273,-1.2636 3.00835,-0.9506 1.95038,0.2277 3.53134,-0.033 3.53134,-0.582 0,-0.61423 2.58001,-0.78752 6.75,-0.45338 6.2003,0.49678 6.63823,0.40598 5.37756,-1.11516 -1.24396,-1.50098 -0.93416,-1.65602 3.30901,-1.65602 2.86633,0 4.44184,-0.38773 4.06343,-1 -0.37202,-0.60194 0.94795,-1 3.31598,-1 5.26878,0 10.26724,-1.05633 9.65858,-2.04116 -0.27114,-0.43871 1.15299,-1.34088 3.16472,-2.00481 l 3.65771,-1.20715 -6.8985,-3.23061 c -3.79417,-1.77684 -9.26129,-4.83965 -12.14916,-6.80626 -2.88786,-1.96661 -6.26286,-3.82673 -7.5,-4.1336 -1.23713,-0.30687 -1.68683,-0.2996 -0.99933,0.0162 2.97558,1.36664 0.78849,2.40744 -5.05887,2.40744 -4.15038,0 -6.973,-0.52347 -8.25,-1.53 -1.78297,-1.40533 -1.47153,-1.47728 3.82235,-0.88309 5.05073,0.5669 5.68674,0.44695 5.14301,-0.97 -0.50079,-1.30509 0.0752,-1.61696 2.98652,-1.61696 1.98385,0 3.60699,-0.39815 3.60699,-0.88478 0,-0.48662 2.48108,-1.19476 5.5135,-1.57364 3.03243,-0.37888 5.26186,-1.09604 4.95429,-1.5937 -0.30757,-0.49766 0.92385,-1.51718 2.73649,-2.26561 l 3.29572,-1.36077 -5.05919,-2.58091 c -2.78256,-1.4195 -7.29079,-4.34488 -10.0183,-6.50085 -4.19437,-3.31546 -5.90523,-4.00573 -11.09455,-4.47629 -3.3745,-0.30598 -6.96627,-1.03926 -7.98171,-1.62949 -1.4848,-0.86305 -0.80689,-1.0791 3.46277,-1.10355 3.27788,-0.0188 5.07257,-0.41299 4.69098,-1.03041 -0.36852,-0.59629 0.84262,-1 3,-1 2.15738,0 3.36852,-0.40371 3,-1 -0.34736,-0.56205 0.44795,-1 1.81598,-1 3.83661,0 8.69641,-1.17094 8.19915,-1.97553 -0.24883,-0.40261 0.74816,-1.27903 2.21553,-1.94761 l 2.66795,-1.2156 -5.03033,-2.75086 c -2.76668,-1.51297 -6.68137,-4.01016 -8.69931,-5.54931 -2.01793,-1.53916 -3.66897,-2.29506 -3.66897,-1.67978 0,0.61528 -1.33588,1.11869 -2.96862,1.11869 -2.35105,0 -2.83654,0.34416 -2.33376,1.65439 0.55439,1.44472 0.0751,1.56558 -3.78139,0.95366 -2.42892,-0.38541 -5.04064,-1.32037 -5.80381,-2.07769 -1.17948,-1.17045 -0.76402,-1.29332 2.77018,-0.81928 3.55867,0.47732 4.06761,0.32274 3.53209,-1.0728 -0.5229,-1.36266 -0.11558,-1.52846 2.47982,-1.00938 1.98612,0.39723 3.10549,0.21986 3.10549,-0.49208 0,-0.61225 1.81508,-1.40343 4.0335,-1.75817 2.21843,-0.35474 3.7898,-0.88868 3.49194,-1.18654 -0.29786,-0.29786 0.56085,-1.26473 1.90824,-2.14861 l 2.4498,-1.60704 -4.62292,-2.92468 c -3.0866,-1.95272 -4.75657,-2.52374 -5.02508,-1.71823 -0.56976,1.7093 -5.7476,1.49923 -7.23548,-0.29355 -1.05275,-1.26848 -0.84012,-1.5 1.37756,-1.5 1.44234,0 2.62244,-0.45 2.62244,-1 0,-0.55 1.47499,-1 3.27776,-1 1.9698,0 3.91969,-0.74972 4.88645,-1.87882 0.88478,-1.03335 2.22229,-2.13223 2.97224,-2.44196 1.08526,-0.4482 1.02521,-0.77869 -0.29421,-1.61925 -9.17298,-5.84384 -25.62892,-24.33576 -30.70989,-34.50941 -1.24996,-2.50281 -2.65952,-4.55056 -3.132347,-4.55056 -0.47283,0 -1.88239,2.04775 -3.13235,4.55056 -5.08097,10.17365 -21.53691,28.66557 -30.70989,34.50941 -1.31942,0.84056 -1.37947,1.17105 -0.29421,1.61925 0.74995,0.30973 2.08746,1.40861 2.97224,2.44196 0.96676,1.1291 2.91665,1.87882 4.88645,1.87882 1.80277,0 3.27776,0.45 3.27776,1 0,0.55 1.1801,1 2.62244,1 2.21768,0 2.4303,0.23152 1.37756,1.5 -1.48788,1.79278 -6.66572,2.00285 -7.23548,0.29355 -0.26851,-0.80551 -1.93848,-0.23449 -5.02508,1.71823 l -4.62292,2.92468 2.4498,1.60704 c 1.34739,0.88388 2.20609,1.85075 1.90824,2.14861 -0.29786,0.29786 1.27351,0.8318 3.49194,1.18654 2.21842,0.35474 4.0335,1.14592 4.0335,1.75817 0,0.71194 1.11936,0.88931 3.10549,0.49208 2.5954,-0.51908 3.00272,-0.35328 2.47982,1.00938 -0.53552,1.39554 -0.0266,1.55012 3.53209,1.0728 3.5342,-0.47404 3.94966,-0.35117 2.77018,0.81928 -0.76317,0.75732 -3.37489,1.69228 -5.80381,2.07769 -3.85653,0.61192 -4.33578,0.49106 -3.78139,-0.95366 0.50278,-1.31023 0.0173,-1.65439 -2.33377,-1.65439 -1.63273,0 -2.96861,-0.50341 -2.96861,-1.11869 0,-0.61528 -1.65104,0.14062 -3.66898,1.67978 -2.01793,1.53915 -5.93262,4.03634 -8.6993,5.54931 l -5.03033,2.75086 2.66795,1.2156 c 1.46737,0.66858 2.46436,1.545 2.21553,1.94761 -0.49726,0.80459 4.36254,1.97553 8.19915,1.97553 1.36803,0 2.16334,0.43795 1.81598,1 -0.36852,0.59629 0.84262,1 3,1 2.15738,0 3.36852,0.40371 3,1 -0.38159,0.61742 1.4131,1.01163 4.69098,1.03041 4.26966,0.0245 4.94757,0.2405 3.46277,1.10355 -1.01544,0.59023 -4.60721,1.32351 -7.98171,1.6295 -5.18932,0.47055 -6.90018,1.16082 -11.09455,4.47628 -2.72751,2.15597 -7.23574,5.08135 -10.0183,6.50085 l -5.05919,2.58091 3.29572,1.36077 c 1.81264,0.74843 3.04406,1.76795 2.73649,2.26561 -0.30757,0.49766 1.92186,1.21482 4.95429,1.5937 3.03242,0.37888 5.5135,1.08702 5.5135,1.57364 0,0.48663 1.62314,0.88478 3.60699,0.88478 2.91128,0 3.48731,0.31187 2.98652,1.61691 -0.54373,1.41695 0.0923,1.5369 5.14301,0.97 5.29388,-0.59419 5.60532,-0.52224 3.82235,0.88309 -1.277,1.00653 -4.09962,1.53 -8.25,1.53 -5.84736,0 -8.03446,-1.0408 -5.05887,-2.40744 0.6875,-0.31575 0.2378,-0.32302 -0.99934,-0.0162 -1.23713,0.30687 -4.61213,2.16699 -7.5,4.1336 -2.88786,1.96661 -8.35498,5.02942 -12.14915,6.80626 l -6.8985,3.23061 3.6577,1.20715 c 2.01174,0.66393 3.43587,1.5661 3.16473,2.00481 -0.60866,0.98483 4.3898,2.04116 9.65858,2.04116 2.36803,0 3.688,0.39806 3.31598,1 -0.37841,0.61227 1.1971,1 4.06343,1 4.24317,0 4.55297,0.15504 3.30901,1.65602 -1.26067,1.52119 -0.82274,1.61199 5.37756,1.11516 4.16999,-0.33414 6.75,-0.16085 6.75,0.45333 0,0.5492 1.58096,0.8097 3.53134,0.582 2.68105,-0.313 3.40541,-0.084 3.00835,0.9506 -0.42133,1.098 0.39868,1.2083 4.21866,0.5674 2.60791,-0.4375 6.31665,-0.7955 8.24165,-0.7955 z"
       style="fill:#950003;fill-opacity:1"
       sodipodi:nodetypes="cssssccsccsccsscsscsssssssssssssssscssscssssssssscssssscssssscsssssssssssssscscssssssssssssssssscscscsssssssssssscssssscssssscsssssssssscsscsssssssssscs" />
  </g>
</svg>
