<?xml version="1.0" encoding="UTF-8" standalone="no"?>
<!-- Created with Inkscape (http://www.inkscape.org/) -->

<svg
   xmlns:dc="http://purl.org/dc/elements/1.1/"
   xmlns:cc="http://creativecommons.org/ns#"
   xmlns:rdf="http://www.w3.org/1999/02/22-rdf-syntax-ns#"
   xmlns:svg="http://www.w3.org/2000/svg"
   xmlns="http://www.w3.org/2000/svg"
   xmlns:sodipodi="http://sodipodi.sourceforge.net/DTD/sodipodi-0.dtd"
   xmlns:inkscape="http://www.inkscape.org/namespaces/inkscape"
   width="200"
   height="200"
   id="svg3139"
   version="1.1"
   inkscape:version="0.48.3.1 r9886"
   sodipodi:docname="Nuevo documento 11">
  <defs
     id="defs3141" />
  <sodipodi:namedview
     id="base"
     pagecolor="#ffffff"
     bordercolor="#666666"
     borderopacity="1.0"
     inkscape:pageopacity="0.0"
     inkscape:pageshadow="2"
     inkscape:zoom="0.49497475"
     inkscape:cx="431.91492"
     inkscape:cy="262.40694"
     inkscape:document-units="px"
     inkscape:current-layer="layer1"
     showgrid="false"
     inkscape:window-width="1366"
     inkscape:window-height="692"
     inkscape:window-x="0"
     inkscape:window-y="24"
     inkscape:window-maximized="1" />
  <metadata
     id="metadata3144">
    <rdf:RDF>
      <cc:Work
         rdf:about="">
        <dc:format>image/svg+xml</dc:format>
        <dc:type
           rdf:resource="http://purl.org/dc/dcmitype/StillImage" />
        <dc:title></dc:title>
      </cc:Work>
    </rdf:RDF>
  </metadata>
  <g
     inkscape:label="Capa 1"
     inkscape:groupmode="layer"
     id="layer1"
     transform="translate(0,-852.36218)">
    <path
       inkscape:connector-curvature="0"
       id="path3167"
       d="M 81,1050.8521 C 59.90254,1046.4311 41.68765,1036.246 26.99075,1020.6522 15.57178,1008.5363 7.30027,993.69542 2.82045,977.28544 0.83037,969.99563 0.5,966.43625 0.5,952.28544 c 0,-14.15081 0.33037,-17.71019 2.32045,-25 7.88222,-28.87327 27.0424,-52.09135 53.67955,-65.04828 15.87301,-7.721 23.83835,-9.45172 43.5,-9.45172 19.66164,0 27.62699,1.73072 43.5,9.45172 26.63715,12.95693 45.79732,36.17501 53.67955,65.04828 1.99008,7.28981 2.32045,10.84919 2.32045,25 0,19.66164 -1.73072,27.62699 -9.45172,43.5 -10.43034,21.44296 -26.60896,37.34086 -48.35677,47.51776 -13.47024,6.3035 -21.99299,8.1658 -39.19151,8.5638 -10.07621,0.2332 -17.13365,-0.1 -21.5,-1.0149 z m 1.24701,-33.5383 17.74701,-10.2318 18.25299,10.5534 c 10.03915,5.8043 18.35657,10.2376 18.48317,9.8517 0.1266,-0.3859 1.56557,-9.6556 3.19771,-20.5994 1.63214,-10.94371 3.32856,-20.21869 3.76982,-20.61104 0.44126,-0.39235 8.73782,-3.75471 18.43679,-7.4719 9.69898,-3.71719 18.22056,-7.12072 18.93684,-7.56341 0.93148,-0.57569 -2.7376,-5.06332 -12.8845,-15.75896 C 160.38408,947.25765 154,940.08352 154,939.53989 c 0,-0.54363 2.69476,-9.67852 5.98836,-20.29975 3.29359,-10.62122 5.84564,-19.45403 5.67121,-19.62846 -0.17443,-0.17443 -8.59642,0.35581 -18.71553,1.17831 -10.11912,0.8225 -19.53367,1.48056 -20.92122,1.46236 -2.13605,-0.028 -4.27765,-2.63426 -13.96922,-17 -6.29552,-9.3318 -11.71964,-16.96691 -12.0536,-16.96691 -0.33396,0 -5.75808,7.63511 -12.0536,16.96691 -9.69157,14.36574 -11.83317,16.97199 -13.96923,17 -1.38755,0.0182 -10.8021,-0.63986 -20.92121,-1.46236 -10.11912,-0.8225 -18.54111,-1.35274 -18.71554,-1.17831 -0.17442,0.17443 2.37762,9.00724 5.67122,19.62846 C 43.30524,929.86137 46,938.99626 46,939.53989 c 0,0.54363 -6.38408,7.71776 -14.18684,15.9425 -10.1469,10.69564 -13.81598,15.18327 -12.88451,15.75896 0.71629,0.44269 9.23787,3.84622 18.93684,7.56341 9.69898,3.71719 17.99552,7.07953 18.43677,7.47187 0.67903,0.60376 6.62543,36.94177 6.67948,40.81787 0.01,0.7199 0.35576,1.116 0.76826,0.88 0.4125,-0.2359 8.73615,-5.0332 18.49701,-10.6607 z m -18.20426,-12.7784 c -1.31354,-9.21246 -2.66617,-17.8218 -3.00586,-19.13183 -0.52337,-2.01846 -3.22875,-3.39163 -17.73142,-9 -9.4126,-3.63997 -17.12324,-7.06813 -17.13474,-7.61813 -0.0115,-0.55 5.26117,-6.625 11.71705,-13.5 6.45589,-6.875 12.06593,-13.04987 12.46676,-13.72193 0.40084,-0.67206 -1.76058,-9.18893 -4.80315,-18.92639 -3.04257,-9.73746 -5.34091,-17.8955 -5.10742,-18.12899 0.23349,-0.23349 8.66661,0.23563 18.74028,1.04249 l 18.31575,1.46701 2.2569,-2.61609 c 1.24129,-1.43886 6.19129,-8.56947 11,-15.84581 4.8087,-7.27634 8.9681,-13.2297 9.2431,-13.2297 0.275,0 4.4344,5.95336 9.2431,13.2297 4.80871,7.27634 9.75871,14.40695 11,15.84581 l 2.2569,2.61609 18.31575,-1.46701 c 10.07366,-0.80686 18.50679,-1.27598 18.74027,-1.04249 0.23349,0.23349 -2.08245,8.44789 -5.14654,18.25422 -5.47923,17.53578 -5.54089,17.86776 -3.74028,20.13905 1.00694,1.27015 6.93837,7.72016 13.18096,14.33337 10.8185,11.46079 11.24007,12.06603 9,12.9211 -22.05138,8.41732 -32.48398,12.53315 -33.07621,13.04912 -0.39933,0.34791 -1.9398,8.94583 -3.42327,19.10651 -1.48347,10.1607 -2.79966,18.6168 -2.92486,18.7915 -0.1252,0.1747 -7.69722,-4.0393 -16.82673,-9.3643 L 100,1002.0568 l -16.48325,9.6143 c -9.06578,5.2879 -16.6188,9.6143 -16.78449,9.6143 -0.16569,0 -1.37597,-7.5375 -2.68951,-16.75 z m 21.62596,-0.6243 c 7.24279,-4.1941 13.76779,-7.60691 14.5,-7.584 0.73221,0.0229 7.39982,3.59188 14.81692,7.931 7.41709,4.3392 13.65293,7.7221 13.85741,7.5176 0.20447,-0.2044 1.42739,-7.4424 2.71758,-16.08421 1.29019,-8.64186 2.70436,-16.0307 3.14259,-16.41965 0.43824,-0.38895 7.46799,-3.29263 15.62168,-6.45262 l 14.8249,-5.74544 -2.3249,-2.61878 c -1.27869,-1.44032 -6.26239,-6.8436 -11.07489,-12.00728 -4.8125,-5.16368 -8.75,-9.96796 -8.75,-10.67617 0,-0.70821 2.06106,-7.89625 4.58014,-15.97341 2.51907,-8.07717 4.40406,-14.86184 4.18886,-15.07704 -0.21521,-0.2152 -7.73651,0.18098 -16.71401,0.8804 l -16.32273,1.27168 -9.11613,-13.76829 C 104.60226,891.53233 100.275,885.3366 100,885.3366 c -0.275,0 -4.60226,6.19573 -9.61613,13.76829 L 81.26774,912.87318 64.94501,911.6015 C 55.9675,910.90208 48.4462,910.5059 48.231,910.7211 c -0.2152,0.2152 1.66979,6.99987 4.18886,15.07704 C 54.93894,933.8753 57,941.06334 57,941.77155 c 0,0.70821 -3.9375,5.51249 -8.75,10.67617 -4.8125,5.16368 -9.79621,10.56696 -11.0749,12.00728 l -2.32489,2.61878 14.82489,5.74544 c 8.15369,3.15999 15.19046,6.07068 15.63726,6.46819 0.44679,0.39751 1.68525,6.74719 2.75213,14.11039 2.37015,16.358 2.91008,19.0129 3.76688,18.5221 0.36774,-0.2107 6.59455,-3.8146 13.83734,-8.0088 z M 74,1004.8403 c 0,-1.5682 -4.0923,-27.89381 -4.41678,-28.41303 -0.22061,-0.35301 -6.29034,-2.89183 -13.48829,-5.64183 -7.19794,-2.75 -13.08892,-5.46881 -13.09105,-6.04179 -0.002,-0.57299 2.05845,-3.04799 4.57908,-5.5 2.52062,-2.45202 6.86283,-7.0719 9.64935,-10.2664 l 5.0664,-5.80819 -4.23338,-13.52446 c -2.32836,-7.43845 -3.98904,-13.76879 -3.6904,-14.06743 0.29863,-0.29863 6.9386,-0.0222 14.75548,0.61423 8.64798,0.70414 14.43902,0.79502 14.79105,0.23213 3.86992,-6.18797 15.64847,-23.13809 16.07854,-23.13809 0.43006,0 12.20861,16.95012 16.07854,23.13809 0.35202,0.56289 6.14307,0.47201 14.79104,-0.23213 7.81688,-0.63646 14.45685,-0.91286 14.75549,-0.61423 0.29863,0.29864 -1.36205,6.62898 -3.6904,14.06743 l -4.23338,13.52446 5.0664,5.80819 c 2.78651,3.1945 7.12872,7.81438 9.64935,10.2664 2.52063,2.45201 4.58121,4.92701 4.57908,5.5 -0.002,0.57298 -5.89311,3.29179 -13.09106,6.04179 -7.19795,2.75 -13.26767,5.28882 -13.48828,5.64183 -0.22061,0.35301 -1.3133,6.84917 -2.42821,14.43593 -1.1149,7.58675 -2.1858,13.9528 -2.37976,14.1468 -0.19397,0.1939 -5.77561,-2.8147 -12.40365,-6.68596 -6.62803,-3.87123 -12.57036,-7.0386 -13.20516,-7.0386 -0.63481,0 -6.54739,3.15 -13.13909,7 C 75.04191,1005.1885 74,1005.7196 74,1004.8403 z m 36.08404,-20.16404 c 13.24777,-3.21665 16.44389,-5.0694 19.09883,-11.07132 2.34713,-5.30609 2.09824,-9.30215 -1.28747,-20.67071 -2.81589,-9.45524 -2.17922,-14.08415 2.53085,-18.4006 l 3.54965,-3.25302 -2.69627,-5.49758 -2.69627,-5.49759 -7.87112,0 c -6.11888,0 -9.30046,-0.57182 -14.29168,-2.56863 L 100,915.14819 l -6.42056,2.56862 c -4.99123,1.99681 -8.1728,2.56863 -14.29168,2.56863 l -7.87113,0 -2.69627,5.49759 -2.69626,5.49758 3.54965,3.25302 c 4.71007,4.31645 5.34673,8.94536 2.53084,18.4006 -3.37533,11.33374 -3.6324,15.36959 -1.31297,20.61304 2.61786,5.9181 5.39985,7.62847 17.63031,10.8391 5.54294,1.45508 10.26665,2.70263 10.49715,2.77234 0.23049,0.0697 5.25473,-1.0474 11.16496,-2.48245 z"
       style="fill:#950003;fill-opacity:1" />
  </g>
</svg>
