<?xml version="1.0" encoding="UTF-8" standalone="no"?>
<!-- Created with Inkscape (http://www.inkscape.org/) -->

<svg
   xmlns:dc="http://purl.org/dc/elements/1.1/"
   xmlns:cc="http://creativecommons.org/ns#"
   xmlns:rdf="http://www.w3.org/1999/02/22-rdf-syntax-ns#"
   xmlns:svg="http://www.w3.org/2000/svg"
   xmlns="http://www.w3.org/2000/svg"
   xmlns:sodipodi="http://sodipodi.sourceforge.net/DTD/sodipodi-0.dtd"
   xmlns:inkscape="http://www.inkscape.org/namespaces/inkscape"
   width="200"
   height="200"
   id="svg3201"
   version="1.1"
   inkscape:version="0.48.3.1 r9886"
   sodipodi:docname="Quinta-Gameros.svg">
  <defs
     id="defs3203" />
  <sodipodi:namedview
     id="base"
     pagecolor="#ffffff"
     bordercolor="#666666"
     borderopacity="1.0"
     inkscape:pageopacity="0.0"
     inkscape:pageshadow="2"
     inkscape:zoom="0.98994949"
     inkscape:cx="168.00239"
     inkscape:cy="118.76698"
     inkscape:document-units="px"
     inkscape:current-layer="layer1"
     showgrid="false"
     inkscape:window-width="1366"
     inkscape:window-height="692"
     inkscape:window-x="0"
     inkscape:window-y="24"
     inkscape:window-maximized="1" />
  <metadata
     id="metadata3206">
    <rdf:RDF>
      <cc:Work
         rdf:about="">
        <dc:format>image/svg+xml</dc:format>
        <dc:type
           rdf:resource="http://purl.org/dc/dcmitype/StillImage" />
        <dc:title></dc:title>
      </cc:Work>
    </rdf:RDF>
  </metadata>
  <g
     inkscape:label="Capa 1"
     inkscape:groupmode="layer"
     id="layer1"
     transform="translate(0,-852.36218)">
    <path
       style="fill:#950003;fill-opacity:1"
       d="m 85.433752,1051.2326 c -30.60251,-4.3681 -59.65422,-25.1581 -73.92122,-52.8997 -32.26653,-62.74085 7.90179,-137.40714 78.14381,-145.25649 62.057948,-6.9348 116.468698,47.47595 109.533898,109.5339 -6.31294,56.49309 -57.80554,96.60849 -113.756488,88.62229 z m 19.857138,-44.3997 c 1.67341,-1.6734 4.10738,-2.0606 3.14286,-0.5 -0.40056,0.6481 4.06522,0.9888 12.69098,0.9682 11.28228,-0.027 13.04252,-0.2341 11.55902,-1.3603 -0.9625,-0.7306 -1.75,-2.2568 -1.75,-3.3914 0,-1.1347 -1.165,-3.44758 -2.58889,-5.13977 l -2.5889,-3.07673 4.0889,0 4.08889,0 0,5 0,5 16.5,0 16.5,0 0.0486,-17.25 c 0.0267,-9.4875 0.006,-23.70348 -0.0469,-31.59107 -0.0639,-9.60582 0.29065,-14.80628 1.07387,-15.75 0.92409,-1.11345 0.82906,-1.40893 -0.45313,-1.40893 -1.13254,0 -1.66843,-0.98135 -1.77475,-3.25 -0.0838,-1.7875 -0.25687,-3.7 -0.38465,-4.25 -0.12779,-0.55 -0.28425,-1.6176 -0.34769,-2.37245 -0.0891,-1.06012 -0.4332,-1.10864 -1.51212,-0.21323 -0.76822,0.63757 -1.16573,2.04267 -0.88336,3.12245 0.28236,1.07977 0.0594,1.96323 -0.49552,1.96323 -1.59631,0 -4.29421,-12.72707 -4.66773,-22.01958 -0.18749,-4.66423 -0.38942,-9.26792 -0.44875,-10.23042 -0.0593,-0.9625 -0.58443,-1.75 -1.16689,-1.75 -0.58246,0 -0.82295,0.38196 -0.53443,0.8488 0.28853,0.46684 -0.80992,0.88674 -2.44098,0.93312 -1.65611,0.0471 -2.97233,-0.4381 -2.98088,-1.0988 -0.009,-0.70316 -0.41478,-0.5746 -1,0.31688 -0.87528,1.33333 -1.0941,1.33333 -1.96938,0 -0.65846,-1.00305 -0.98976,-1.08588 -1,-0.25 -0.0231,1.8832 -1.80319,1.50055 -2.32598,-0.5 -0.28137,-1.07666 -0.50196,-0.6919 -0.57333,1 -0.0638,1.5125 -0.48221,2.75 -0.92981,2.75 -0.4476,0 -0.62502,2.61 -0.39428,5.8 l 0.41954,5.8 -5.10573,0 c -2.80814,0 -5.10572,-0.4151 -5.10572,-0.92245 0,-0.50734 -0.74818,-0.30484 -1.66262,0.45 -1.33712,1.10376 -1.74771,1.11956 -2.09725,0.0807 -0.345,-1.02536 -0.7396,-1.03862 -1.91359,-0.0643 -1.18167,0.9807 -1.66159,0.93884 -2.38744,-0.20826 -0.63081,-0.9969 -0.91315,-1.05365 -0.92379,-0.1857 -0.008,0.6875 -0.69031,1.25 -1.51531,1.25 -0.825,0 -1.53553,-0.5625 -1.57895,-1.25 -0.0632,-1 -0.17982,-1 -0.58333,0 -0.65505,1.62338 -3.31414,1.62338 -3.41667,0 -0.0632,-1 -0.17982,-1 -0.58333,0 -0.27741,0.6875 -1.14189,1.25 -1.92105,1.25 -0.77917,0 -1.4522,-0.5625 -1.49562,-1.25 -0.0632,-1 -0.17982,-1 -0.58333,0 -0.65505,1.62338 -3.31414,1.62338 -3.41667,0 -0.0632,-1 -0.17982,-1 -0.58333,0 -0.65552,1.62454 -3.33313,1.62454 -3.35303,0 -0.0106,-0.86795 -0.29298,-0.8112 -0.92379,0.1857 -0.72585,1.14709 -1.20577,1.18896 -2.38744,0.20826 -1.173988,-0.97433 -1.568588,-0.96107 -1.913588,0.0643 -0.34954,1.03884 -0.76013,1.02304 -2.09725,-0.0807 -0.91444,-0.75484 -1.66262,-0.95734 -1.66262,-0.45 0,0.50735 -2.25,0.92245 -5,0.92245 -2.75,0 -5,-0.4151 -5,-0.92245 0,-0.50734 -0.74818,-0.30484 -1.66262,0.45 -1.33712,1.10376 -1.74771,1.11956 -2.09725,0.0807 -0.345,-1.02536 -0.7396,-1.03862 -1.91359,-0.0643 -1.18167,0.9807 -1.66159,0.93884 -2.38744,-0.20826 -0.63081,-0.9969 -0.91316,-1.05365 -0.92379,-0.1857 -0.008,0.6875 -0.69031,1.25 -1.51531,1.25 -0.825,0 -1.53553,-0.5625 -1.57895,-1.25 -0.0632,-1 -0.17982,-1 -0.58333,0 -0.27741,0.6875 -1.14189,1.25 -1.92105,1.25 -0.77917,0 -1.4522,-0.5625 -1.49562,-1.25 -0.0632,-1 -0.17982,-1 -0.58333,0 -0.65505,1.62338 -3.31414,1.62338 -3.41667,0 -0.0632,-1 -0.17982,-1 -0.58333,0 -0.65505,1.62338 -3.31414,1.62338 -3.41667,0 -0.0632,-1 -0.17982,-1 -0.58333,0 -1.91665,4.74996 -5.04632,-3.52393 -3.21519,-8.5 0.50092,-1.36125 0.44275,-2.25 -0.14728,-2.25 -0.53639,0 -1.02745,-1.2375 -1.09125,-2.75 -0.0714,-1.6919 -0.29196,-2.07666 -0.57333,-1 -0.52279,2.00055 -2.30291,2.3832 -2.32598,0.5 -0.0118,-0.96053 -0.19259,-0.9711 -0.78081,-0.0456 -0.91368,1.43749 -5.39753,1.32858 -6.43857,-0.15639 -0.48055,-0.68547 -0.73998,-0.61559 -0.75,0.20203 -0.0231,1.8832 -1.80319,1.50054 -2.32598,-0.5 -0.28137,-1.07666 -0.50196,-0.6919 -0.57333,1 -0.0638,1.5125 -0.61415,2.75 -1.22299,2.75 -0.66305,0 -0.81703,0.7018 -0.38395,1.75 1.72486,4.17475 -1.04389,25.29204 -3.62982,27.68471 -0.85052,0.78696 -1.01212,0.48704 -0.61852,-1.14794 0.3047,-1.26569 -0.0652,-2.70953 -0.86395,-3.37245 -0.76823,-0.63757 -1.43143,-0.76661 -1.47378,-0.28677 -0.58564,6.63418 -1.25224,9.9579 -2.10255,10.48342 -0.69102,0.42708 -0.65224,0.87495 0.11694,1.35032 0.79024,0.4884 1.1222,5.30649 1.05933,15.37501 -0.0504,8.06503 -0.0702,22.4262 -0.0441,31.9137 l 0.0474,17.24997 16.5,0 16.5,0 0,-4.99997 0,-5 4.06809,0 4.0681,0 -2.28945,3.21523 c -1.25919,1.76837 -2.42246,4.08684 -2.58504,5.15214 -0.16257,1.0653 -1.07547,2.5291 -2.02864,3.253 -1.46092,1.1094 0.35684,1.321 11.57596,1.3478 8.62577,0.021 13.09154,-0.3201 12.69098,-0.9682 -0.96452,-1.5606 1.46945,-1.1734 3.14286,0.5 0.825,0.825 3.23571,1.5 5.35714,1.5 2.121428,0 4.532138,-0.675 5.357138,-1.5 z m -34.357138,-3.8836 c 0,-1.0057 1.39567,-3.59077 3.1015,-5.74455 2.92998,-3.69941 3.08847,-4.3433 2.86597,-11.6439 -0.33516,-10.99687 -0.62922,-10.37999 4.78253,-10.03274 l 4.75,0.30479 0.29298,8.40702 c 0.17108,4.90914 -0.14097,8.84097 -0.75,9.45 -0.72397,0.72397 -1.07846,-0.16517 -1.15898,-2.90702 -0.0638,-2.1725 -0.3218,-3.1625 -0.57333,-2.2 -0.74345,2.84491 -2.31067,1.99709 -2.31067,-1.25 0,-3.02121 1.40145,-4.07033 2.33772,-1.75 0.27741,0.6875 0.53991,-0.002 0.58333,-1.53138 0.0456,-1.60782 -0.55395,-3.02426 -1.42105,-3.35699 -0.825,-0.31659 -1.50277,-1.31496 -1.50616,-2.21862 -0.004,-0.9849 -0.60452,-0.4957 -1.5,1.2213 -1.70687,3.27278 -1.97397,6.05046 -0.49384,5.13569 0.58342,-0.36058 1,0.65628 1,2.44098 0,1.68246 -0.45,3.05902 -1,3.05902 -0.55,0 -1,1.09511 -1,2.43358 0,1.88715 0.61747,2.52711 2.75,2.85017 2.2492,0.34072 2.07785,0.44387 -0.94098,0.56642 -5.21365,0.21164 -5.94303,2.14983 -0.80902,2.14983 2.49071,0 3.87381,0.39517 3.5,1 -0.33992,0.55 -2.59096,1 -5.00231,1 -3.39697,0 -4.73484,0.5005 -5.94099,2.2225 -1.36445,1.948 -1.5567,1.9967 -1.5567,0.3939 z m 56.499998,-0.6164 c -1.28094,-1.4154 -3.07997,-2 -6.15499,-2 -2.38975,0 -4.34501,-0.45 -4.34501,-1 0,-0.55 1.60156,-1 3.55902,-1 4.72178,0 3.47895,-1.95307 -1.36804,-2.14983 -3.01883,-0.12255 -3.19019,-0.2257 -0.94098,-0.56642 2.13253,-0.32306 2.75,-0.96302 2.75,-2.85017 0,-1.33847 -0.45,-2.43358 -1,-2.43358 -0.55,0 -1,-1.37656 -1,-3.05902 0,-2.01888 0.38413,-2.82161 1.12973,-2.3608 0.68835,0.42542 0.94183,0.15545 0.64879,-0.69098 -0.26451,-0.76406 -1.44789,-1.35347 -2.62973,-1.3098 -1.18183,0.0437 -2.14879,-0.34629 -2.14879,-0.86658 0,-0.52028 1.125,-0.73092 2.5,-0.46807 1.375,0.26285 2.5,0.0903 2.5,-0.38342 0,-0.47373 -0.45,-0.86133 -1,-0.86133 -0.55,0 -1.03553,-0.7875 -1.07895,-1.75 -0.0628,-1.39251 -0.19491,-1.44358 -0.64663,-0.25 -0.31223,0.825 -1.1767,1.85986 -1.92105,2.29969 -0.74435,0.43983 -1.31784,2.01483 -1.27442,3.5 0.0434,1.48517 0.30592,2.13781 0.58333,1.45031 0.93627,-2.32033 2.33772,-1.27121 2.33772,1.75 0,3.24709 -1.56722,4.09491 -2.31067,1.25 -0.25153,-0.9625 -0.52321,0.05 -0.60374,2.25 -0.11758,3.21239 -0.34565,3.65802 -1.1583,2.2632 -0.55654,-0.95524 -0.88036,-5.23024 -0.71959,-9.5 l 0.2923,-7.7632 4.71753,-0.30347 c 4.34512,-0.2795 4.76857,-0.1001 5.36408,2.2726 0.3556,1.41683 0.33264,5.50726 -0.051,9.08985 -0.69202,6.46195 -0.66905,6.54536 2.88592,10.48029 1.97092,2.18157 3.58349,4.64023 3.58349,5.46363 0,1.9589 -0.33262,1.892 -2.5,-0.5029 z m -80.499998,-3.5 c 0,-1.16373 0.72719,-1.54194 2.53109,-1.31642 3.27614,0.40956 3.27614,2.22328 0,2.63282 -1.8039,0.2255 -2.53109,-0.15267 -2.53109,-1.3164 z m 38.95835,-0.0502 c -1.06278,-1.28057 -0.99712,-1.83961 0.37755,-3.21428 1.55213,-1.55212 1.6641,-1.44782 1.6641,1.55019 0,3.64579 -0.23678,3.83879 -2.04165,1.6641 z m 26.041648,-1.4498 c 0,-3.2381 0.0952,-3.33333 1.71429,-1.71429 1.61904,1.61905 1.61904,1.80953 0,3.42858 -1.61905,1.61901 -1.71429,1.52381 -1.71429,-1.71429 z m 35.69385,2.36052 c -1.13344,-1.13345 0.35596,-2.36052 2.86517,-2.36052 1.50309,0 2.44098,0.57634 2.44098,1.5 0,1.4967 -4.01826,2.1484 -5.30615,0.86052 z m -52.693848,-3.91954 c 0,-0.85746 0.45734,-1.27636 1.01631,-0.9309 0.55897,0.34546 0.75742,1.04702 0.44099,1.55902 -0.85725,1.38704 -1.4573,1.12841 -1.4573,-0.62812 z m 9.078948,-0.0243 c 0.048,-1.16495 0.28494,-1.4019 0.60416,-0.60417 0.28887,0.72187 0.25335,1.58437 -0.0789,1.91667 -0.3323,0.33229 -0.56864,-0.25834 -0.52522,-1.3125 z m -61.348048,-0.67556 c -0.2657,-0.69239 -0.33838,-3.16739 -0.16151,-5.5 0.24116,-3.18045 -0.0399,-4.24112 -1.1239,-4.24112 -1.07029,0 -1.47794,-1.42761 -1.57049,-5.5 -0.0688,-3.025 -0.18125,-6.25 -0.25,-7.16667 -0.0688,-0.91666 0.4375,-1.85416 1.125,-2.08333 0.81221,-0.27074 1.25,0.61944 1.25,2.54167 0,2.5212 0.38518,2.95833 2.60676,2.95833 1.43372,0 2.22122,-0.28125 1.75,-0.625 -1.71285,-1.24951 -1.07911,-3.94482 1.01975,-4.337 4.50652,-0.84208 8.19859,2.19824 5.26673,4.337 -0.47122,0.34375 0.31628,0.625 1.75,0.625 2.20455,0 2.60676,-0.4436 2.60676,-2.875 0,-1.92583 0.50996,-2.875 1.54466,-2.875 1.31257,0 1.44378,1.08929 0.87325,7.25 -0.36927,3.9875 -1.06437,7.4 -1.54466,7.58333 -0.48029,0.18334 -0.87325,2.77084 -0.87325,5.75 0,5.17547 -0.11652,5.41667 -2.61658,5.41667 -2.27311,0 -2.55187,-0.3385 -2.1236,-2.57882 0.31307,-1.63773 -0.009,-2.77156 -0.88343,-3.10699 -0.75701,-0.29049 -1.37639,-1.78789 -1.37639,-3.32756 0,-2.36059 0.33258,-2.71242 2.12171,-2.24455 1.90885,0.49917 2.06736,1.06665 1.58,5.65638 -0.34357,3.23563 -0.23092,4.37003 0.30801,3.10154 0.46734,-1.1 0.88134,-4.41324 0.91999,-7.36275 0.0586,-4.47093 -0.38703,-5.89117 -2.67971,-8.54023 l -2.75,-3.17747 -2.75,3.42773 c -2.47547,3.08555 -2.73201,4.13776 -2.56975,10.54022 0.14047,5.54279 0.26285,6.06551 0.55454,2.36849 0.27027,-3.4255 0.915,-5.03338 2.31976,-5.78518 1.72139,-0.92126 1.94545,-0.70393 1.94545,1.88702 0,1.68035 -0.63922,3.17349 -1.5,3.5038 -1.65832,0.63635 -2.08972,4.63837 -0.5,4.63837 0.55,0 1.00689,-0.5625 1.01531,-1.25 0.0109,-0.89386 0.26701,-0.85251 0.89873,0.14515 0.7098,1.12098 0.97877,1.02272 1.36868,-0.5 0.41122,-1.60593 0.50298,-1.55177 0.60128,0.35485 0.10146,1.96789 -0.37211,2.25 -3.77701,2.25 -2.20658,0 -4.10228,-0.54534 -4.37609,-1.25889 z m 1.25379,-17.05013 c 0.008,-0.44497 -0.43469,-0.53091 -0.98469,-0.19099 -0.55,0.33992 -0.99311,1.37898 -0.98469,2.30902 0.0132,1.45727 0.14929,1.48367 0.98469,0.19098 0.53316,-0.825 0.97626,-1.86406 0.98469,-2.30902 z m 12.61531,0.70901 c -0.35589,-0.92744 -0.87208,-1.46126 -1.14708,-1.18626 -0.275,0.275 -0.20881,1.25882 0.14708,2.18626 0.35589,0.92744 0.87208,1.46126 1.14708,1.18626 0.275,-0.275 0.20881,-1.25882 -0.14708,-2.18626 z m 86.399998,12.18333 c 0,-2.97916 -0.39296,-5.56666 -0.87325,-5.75 -0.48029,-0.18333 -1.17539,-3.59583 -1.54466,-7.58333 -0.57053,-6.16071 -0.43932,-7.25 0.87325,-7.25 1.0347,0 1.54466,0.94917 1.54466,2.875 0,2.4314 0.40221,2.875 2.60676,2.875 1.43372,0 2.22122,-0.28125 1.75,-0.625 -1.71285,-1.24951 -1.0791,-3.94482 1.01975,-4.337 4.50652,-0.84208 8.19859,2.19824 5.26673,4.337 -0.47122,0.34375 0.31628,0.625 1.75,0.625 2.22157,0 2.60676,-0.43713 2.60676,-2.95833 0,-1.92223 0.43779,-2.81241 1.25,-2.54167 0.6875,0.22917 1.19375,1.16667 1.125,2.08333 -0.0687,0.91667 -0.18125,4.14167 -0.25,7.16667 -0.0925,4.07239 -0.5002,5.5 -1.57049,5.5 -1.08398,0 -1.36506,1.06067 -1.1239,4.24111 0.43147,5.69046 -0.12774,6.75889 -3.5376,6.75889 -2.35432,0 -2.87992,-0.41896 -2.82272,-2.25 0.0671,-2.1469 0.10966,-2.15836 0.92971,-0.25 0.57896,1.34731 0.88736,1.51049 0.94503,0.5 0.0761,-1.33333 0.1933,-1.33333 1.05497,0 0.8294,1.2834 0.97159,1.24853 0.98469,-0.24153 0.008,-0.95784 -0.88469,-2.30358 -1.98469,-2.99054 -1.22494,-0.76499 -2,-2.33203 -2,-4.04366 0,-2.45274 0.23655,-2.66804 1.93354,-1.75984 1.06345,0.56914 2.12102,2.27247 2.35017,3.78519 0.23552,1.55483 0.48176,0.52805 0.56646,-2.36212 0.12341,-4.21113 -0.33501,-5.71682 -2.60017,-8.54022 l -2.75,-3.42773 -2.75,3.17747 c -2.51352,2.90423 -2.73409,3.81062 -2.56502,10.54023 0.15269,6.07729 0.24848,6.4643 0.54866,2.21666 0.28881,-4.08679 0.76535,-5.25114 2.31502,-5.65638 1.59194,-0.41631 1.95134,0.005 1.95134,2.2891 0,1.56586 -0.66097,3.05303 -1.5,3.375 -0.825,0.31658 -1.5,1.48972 -1.5,2.60699 0,2.48775 1.68061,2.69241 2.31067,0.28138 0.34415,-1.31691 0.48604,-1.19317 0.57333,0.5 0.0993,1.92686 -0.38667,2.25 -3.384,2.25 l -3.5,0 0,-5.41667 z m 1.98469,-12.89235 c 0.008,-0.44496 -0.43469,-0.5309 -0.98469,-0.19098 -0.55,0.33992 -0.99311,1.37898 -0.98469,2.30902 0.0132,1.45727 0.14929,1.48367 0.98469,0.19098 0.53316,-0.825 0.97627,-1.86406 0.98469,-2.30902 z m 12.61531,0.70902 c -0.35589,-0.92744 -0.87208,-1.46126 -1.14708,-1.18626 -0.275,0.275 -0.20881,1.25882 0.14708,2.18626 0.35589,0.92744 0.87208,1.46126 1.14708,1.18626 0.275,-0.275 0.20881,-1.25882 -0.14708,-2.18626 z m -91.599998,5.51667 c 0,-6.82082 0.31136,-8.98021 1.25,-8.6693 0.8407,0.27846 1.34461,3.25271 1.53893,9.08333 0.24203,7.26202 0.0391,8.6693 -1.25,8.6693 -1.27229,0 -1.53893,-1.57379 -1.53893,-9.08333 z m 23.15789,7.08333 c 0,-1.375 0.22698,-1.9375 0.50439,-1.25 0.27741,0.6875 0.27741,1.8125 0,2.5 -0.27741,0.6875 -0.50439,0.125 -0.50439,-1.25 z m 2.34211,-1.74934 c 0,-2.55198 -0.41639,-3.66513 -1.30287,-3.48304 -0.96873,0.19899 -1.2252,-1.08333 -1,-5 0.22315,-3.88105 0.69771,-5.26762 1.80287,-5.26762 1.19703,0 1.55836,1.7673 1.78893,8.75 0.15892,4.8125 -0.0661,8.7503 -0.5,8.75066 -0.43391,3.6e-4 -0.78893,-1.68714 -0.78893,-3.75 z m 3.5,-5.25066 0,-9 5,0 4.999998,0 0,9 c 0,5.33333 -0.40741,9 -1,9 -0.55,0 -1,-0.675 -1,-1.5 0,-0.825 -0.45,-1.5 -1,-1.5 -0.55,0 -1,-1.37656 -1,-3.05902 0,-1.7847 0.41658,-2.80156 1,-2.44098 1.39216,0.8604 1.25883,-2.84117 -0.1532,-4.2532 -1.860418,-1.86042 -4.860108,0.36575 -4.767848,3.53838 0.0434,1.49315 0.30592,2.15232 0.58333,1.46482 0.93627,-2.32033 2.33772,-1.27121 2.33772,1.75 0,3.24709 -1.56722,4.09491 -2.31067,1.25 -0.25153,-0.9625 -0.50953,-0.2875 -0.57333,1.5 -0.0638,1.7875 -0.566,3.25 -1.116,3.25 -0.59259,0 -1,-3.66667 -1,-9 z m 15.203548,5.28138 c -0.15883,-3.29176 -0.53311,-4.09215 -1.70355,-3.64301 -1.19315,0.45786 -1.49687,-0.3157 -1.48469,-3.78138 0.018,-5.11348 1.34601,-7.89567 2.98603,-6.25565 0.66589,0.66589 0.95358,4.3302 0.74518,9.49164 -0.18668,4.62386 -0.43102,6.50864 -0.54297,4.1884 z m 17.8754,2.13529 c 0.048,-1.16495 0.28494,-1.4019 0.60416,-0.60417 0.28887,0.72187 0.25335,1.58437 -0.0789,1.91667 -0.3323,0.33229 -0.56864,-0.25834 -0.52522,-1.3125 z m 3.58772,0.91666 c -0.83349,-0.83348 -0.88189,-13.6089 -0.0597,-15.75154 1.46162,-3.80888 2.39303,-0.92156 2.39303,7.41821 0,8.25453 -0.52765,10.13901 -2.33333,8.33333 z m -60.666668,-12 c 0,-3.96257 0.36821,-5.33333 1.43261,-5.33333 1.92657,0 2.81387,3.16924 2.04088,7.28962 -1.06074,5.6542 -3.47349,4.29533 -3.47349,-1.95629 z m 56.249998,5.00439 c -1.91169,-0.77138 -1.68034,-10.33772 0.25,-10.33772 1.15152,0 1.5,1.27778 1.5,5.5 0,3.025 -0.1125,5.46447 -0.25,5.42105 -0.1375,-0.0434 -0.8125,-0.30592 -1.5,-0.58333 z m -81.249998,-3.89674 c 0,-0.85746 0.40285,-1.31004 0.89521,-1.00574 0.49237,0.3043 1.15325,-0.11914 1.46862,-0.94098 0.7554,-1.96854 2.63617,-1.92234 2.63617,0.0648 0,0.85746 0.45,1.2809 1,0.94098 0.55,-0.33992 1,0.0835 1,0.94098 0,2.10537 -1.62298,1.97959 -2.46443,-0.19098 -0.64611,-1.66667 -0.73978,-1.66667 -1.96723,0 -1.5956,2.16651 -2.56834,2.23884 -2.56834,0.19094 z m 34,0.34473 c 0,-0.43214 0.9,-0.78571 2,-0.78571 1.1,0 2,0.35357 2,0.78571 0,0.43215 -0.9,0.78572 -2,0.78572 -1.1,0 -2,-0.35357 -2,-0.78572 z m 18,0 c 0,-0.43214 0.9,-0.78571 2,-0.78571 1.099998,0 1.999998,0.35357 1.999998,0.78571 0,0.43215 -0.9,0.78572 -1.999998,0.78572 -1.1,0 -2,-0.35357 -2,-0.78572 z m 48.999998,-0.34473 c 0,-0.85746 0.45,-1.2809 1,-0.94098 0.55,0.33992 1,-0.0835 1,-0.94098 0,-0.85746 0.675,-1.55902 1.5,-1.55902 0.825,0 1.5,0.70156 1.5,1.55902 0,0.85746 0.45,1.2809 1,0.94098 0.55,-0.33992 1,0.0835 1,0.94098 0,2.10537 -1.62298,1.97959 -2.46443,-0.19098 -0.64611,-1.66667 -0.73978,-1.66667 -1.96723,0 -1.5956,2.16655 -2.56834,2.23888 -2.56834,0.19098 z m -80.999998,-8.57834 c 0,-0.47445 15.3,-0.86264 34,-0.86264 18.699998,0 33.999998,0.38819 33.999998,0.86264 0,0.47445 -15.3,0.86263 -33.999998,0.86263 -18.7,0 -34,-0.38818 -34,-0.86263 z m -23.1255,-5.06695 c -0.069,-0.71263 -0.0572,-3.18462 0.0262,-5.49331 0.13418,-3.7142 -0.0817,-4.15268 -1.87451,-3.80742 -1.75189,0.33739 -2.02615,-0.13149 -2.02615,-3.46389 0,-3.08731 0.34478,-3.8035 1.73295,-3.59976 2.09624,0.30766 4.88763,-6.42973 3.11725,-7.52389 -1.75109,-1.08223 0.38621,-1.74075 5.6498,-1.74075 5.35698,0 7.39736,0.6607 5.55559,1.79897 -0.86878,0.53694 -0.8381,1.44213 0.12289,3.625 1.41852,3.22217 2.81235,4.53306 4.02377,3.78436 0.43876,-0.27117 0.79775,1.33352 0.79775,3.56598 0,2.23246 -0.3375,4.00573 -0.75,3.9406 -2.33389,-0.36851 -2.86985,0.55913 -2.81284,4.86842 l 0.0628,4.75 -6.75,0.29569 c -4.96497,0.21749 -6.78319,-0.0469 -6.8755,-1 z m 3.11019,-1.04569 c 0.008,0.6875 0.49187,1.25 1.07433,1.25 0.58246,0 0.7809,-0.45 0.44098,-1 -0.33992,-0.55 -0.14148,-1 0.44098,-1 0.58246,0 1.09455,0.5625 1.13797,1.25 0.0561,0.8875 0.23615,0.85469 0.62105,-0.11315 0.45768,-1.15087 0.69084,-1.15087 1.49718,0 0.80635,1.15087 1.03994,1.15087 1.5,0 0.46006,-1.15087 0.67941,-1.15087 1.40856,0 0.67587,1.06679 0.86696,0.98269 0.87895,-0.38685 0.0127,-1.4564 -0.90743,-1.75 -5.48469,-1.75 -4.57726,0 -5.49743,0.2936 -5.48469,1.75 0.0131,1.49555 0.15626,1.5319 0.98469,0.25 0.64625,-1 0.97448,-1.08333 0.98469,-0.25 z m 9.01531,-9.42126 c 0,-7.22467 -1.60068,-10.32874 -5.32625,-10.32874 -4.11038,0 -5.67375,2.79816 -5.67375,10.15499 l 0,6.84501 5.5,0 5.5,0 0,-6.67126 z m -10,2.27977 c 0,-2.54949 0.57585,-3.84633 2.06081,-4.64105 1.95017,-1.04371 2.04412,-0.87159 1.75,3.20619 -0.22771,3.15696 -0.77871,4.39785 -2.06081,4.64105 -1.39947,0.26546 -1.75,-0.37674 -1.75,-3.20619 z m 5.66667,2.72482 c -0.36667,-0.36666 -0.66667,-2.4075 -0.66667,-4.53518 0,-3.55864 0.16021,-3.78278 2,-2.79815 1.40923,0.7542 2,2.09382 2,4.53518 0,3.26054 -1.56077,4.57072 -3.33333,2.79815 z m -4.66667,-10.89235 c 0,-0.85746 0.45,-1.2809 1,-0.94098 0.55,0.33992 1,-0.0835 1,-0.94098 0,-0.85746 0.675,-1.55902 1.5,-1.55902 0.825,0 1.5,0.70156 1.5,1.55902 0,0.85746 0.45,1.2809 1,0.94098 0.55,-0.33992 1,0.0835 1,0.94098 0,2.10537 -1.62298,1.97959 -2.46443,-0.19098 -0.64611,-1.66667 -0.73978,-1.66667 -1.96723,0 -1.5956,2.16655 -2.56834,2.23888 -2.56834,0.19098 z m 20.77785,14.61929 c 0.40958,-2.79069 0.65431,-2.92661 4.8268,-2.68082 l 4.39535,0.25892 0.16811,-5.56918 0.16811,-5.56919 0.66378,6 c 0.36508,3.3 0.73943,4.78906 0.83189,3.30902 0.24739,-3.96003 1.97399,-4.36848 2.4433,-0.578 l 0.40474,3.26898 0.16003,-3.21862 c 0.12007,-2.41482 0.53464,-3.07486 1.66004,-2.64301 0.825,0.31659 1.56759,1.76496 1.65019,3.21862 0.0929,1.63511 0.41699,0.92696 0.84981,-1.85699 l 0.69961,-4.5 0.1502,3.75 c 0.10128,2.52892 0.6194,3.75 1.59117,3.75 1.97724,0 2.81201,1.62755 2.05618,4.00895 -0.64068,2.01859 -3.49716,2.82808 -3.49716,0.99105 0,-0.55 -0.675,-1 -1.5,-1 -0.825,0 -1.5,-0.45 -1.5,-1 0,-1.38455 -2.74598,-1.26206 -3.21447,0.1434 -0.28352,0.85058 -0.94876,0.83961 -2.5976,-0.0428 -1.21906,-0.65243 -2.15677,-0.82946 -2.08378,-0.3934 0.31684,1.89307 -0.18288,3.29282 -1.17558,3.29282 -1.53412,0 -3.96017,-2.63507 -3.16143,-3.43381 0.36954,-0.36954 -0.10189,-0.37497 -1.04762,-0.0121 -0.94574,0.36294 -1.71952,1.08828 -1.71952,1.6119 0,0.52361 0.45,0.67391 1,0.33399 0.55,-0.33992 1,-0.14148 1,0.44098 0,0.58246 -0.82206,1.05902 -1.82681,1.05902 -1.45264,0 -1.73843,-0.60211 -1.39534,-2.93973 z m 24.90965,2.2939 c -0.37812,-0.37813 -0.6875,-1.78999 -0.6875,-3.13747 0,-1.95763 0.40191,-2.34486 2,-1.92695 1.77392,0.46389 2.01776,-0.003 2.1571,-4.13337 l 0.15711,-4.65638 0.63987,5 c 0.52617,4.11147 0.72038,4.48059 1.0929,2.07712 0.62105,-4.00703 2.79156,-4.5556 2.45675,-0.62091 -0.14246,1.67409 0.13593,3.04379 0.618628,3.04379 0.4827,0 0.87764,-1.37656 0.87764,-3.05902 0,-3.74372 1.93328,-2.96575 2.1571,0.86804 0.0864,1.48004 0.46571,0.44098 0.8429,-2.30902 l 0.68579,-5 0.15711,4.25 c 0.13052,3.53097 0.49547,4.25 2.1571,4.25 1.45377,0 2,0.66667 2,2.44098 0,3.00271 -1.91769,4.37001 -3.4017,2.4254 -0.60407,-0.79155 -1.8858,-1.2773 -2.8483,-1.07945 -0.9625,0.19784 -1.75,-0.12328 -1.75,-0.71361 0,-1.45664 -2.734868,-1.3687 -3.225678,0.10373 -0.25357,0.76071 -0.90206,0.85908 -1.83334,0.27812 -2.36782,-1.47712 -3.94098,-1.37503 -3.94098,0.25576 0,1.31385 0.23857,1.33703 1.66262,0.16151 1.41798,-1.1705 1.59271,-1.16092 1.1875,0.0651 -0.55414,1.67659 -2.17614,2.40315 -3.16262,1.41667 z m 18.815338,-1.34522 c -0.75583,-2.3814 0.0789,-4.00895 2.05618,-4.00895 0.97177,0 1.48989,-1.22108 1.59117,-3.75 l 0.1502,-3.75 0.69961,4.5 c 0.43282,2.78395 0.75689,3.4921 0.84981,1.85699 0.22934,-4.03591 2.94107,-4.47288 3.43083,-0.55284 l 0.39929,3.19585 0.16003,-3.30902 c 0.18807,-3.88854 2.08056,-3.38505 2.32304,0.61804 0.0896,1.48004 0.4663,0.21598 0.837,-2.80902 l 0.67401,-5.5 0.16299,4.75 c 0.17299,5.04115 0.6866,5.4028 6.913,4.86768 1.882,-0.16175 2.25,0.30348 2.25,2.84447 0,3.10406 -2.25241,4.28269 -3.41667,1.78785 -0.46666,-1 -0.7,-1 -1.16666,0 -0.81333,1.74283 -2.39681,1.55868 -4.29937,-0.5 -1.79094,-1.93788 -5.73073,-3.05157 -4.65864,-1.31688 0.36337,0.58794 -0.067,1.06688 -0.95866,1.06688 -0.88992,0 -1.36586,-0.40803 -1.05764,-0.90674 0.30822,-0.49871 -0.34022,-0.67122 -1.44098,-0.38337 -1.10076,0.28786 -2.00138,1.14589 -2.00138,1.90674 0,2.12437 -2.78356,1.64069 -3.49716,-0.60768 z m 32.84202,0.44736 c -0.3258,-0.84902 -0.33997,-3.09902 -0.0315,-5 0.52722,-3.24891 0.003,-3.97995 -2.56338,-3.57473 -0.4125,0.0651 -0.75,-1.70814 -0.75,-3.9406 0,-2.23246 0.35899,-3.83715 0.79775,-3.56598 1.21142,0.7487 2.60525,-0.56219 4.02377,-3.78436 0.96099,-2.18287 0.99168,-3.08806 0.12289,-3.625 -1.84177,-1.13827 0.19861,-1.79897 5.55559,-1.79897 5.26359,0 7.40089,0.65852 5.6498,1.74075 -1.77038,1.09416 1.02101,7.83155 3.11725,7.52389 1.38817,-0.20374 1.73295,0.51245 1.73295,3.59976 0,3.3324 -0.27426,3.80128 -2.02615,3.46389 -1.79281,-0.34526 -2.00869,0.0932 -1.87451,3.80742 0.24959,6.90853 0.45839,6.69762 -6.63072,6.69762 -4.96534,0 -6.67342,-0.37013 -7.12376,-1.54369 z m 3.85232,-0.31946 c 0.80635,1.15087 1.03994,1.15087 1.5,0 0.46006,-1.15087 0.67942,-1.15087 1.40856,0 0.63243,0.99822 0.86773,1.02851 0.87895,0.11315 0.008,-0.6875 0.49187,-1.25 1.07433,-1.25 0.58246,0 0.7809,0.45 0.44098,1 -0.33992,0.55 -0.14148,1 0.44098,1 0.58246,0 1.06591,-0.5625 1.07433,-1.25 0.0102,-0.83333 0.33844,-0.75 0.98469,0.25 0.82843,1.2819 0.9716,1.24555 0.98469,-0.25 0.0127,-1.4564 -0.90743,-1.75 -5.48469,-1.75 -4.6015,0 -5.4871,0.28589 -5.42105,1.75 0.055,1.22012 0.24309,1.33726 0.62105,0.38685 0.45768,-1.15087 0.69084,-1.15087 1.49718,0 z m 8.80282,-9.80811 c 0,-7.22467 -1.60068,-10.32874 -5.32625,-10.32874 -4.11037,0 -5.67375,2.79816 -5.67375,10.15499 l 0,6.84501 5.5,0 5.5,0 0,-6.67126 z m -10,2.27977 c 0,-2.54949 0.57585,-3.84633 2.06081,-4.64105 1.95017,-1.04371 2.04412,-0.87159 1.75,3.20619 -0.22771,3.15696 -0.77871,4.39785 -2.06081,4.64105 -1.39947,0.26546 -1.75,-0.37674 -1.75,-3.20619 z m 5.66667,2.72482 c -0.36667,-0.36666 -0.66667,-2.4075 -0.66667,-4.53518 0,-3.55864 0.1602,-3.78278 2,-2.79815 1.40923,0.7542 2,2.09382 2,4.53518 0,3.26054 -1.56077,4.57072 -3.33333,2.79815 z m -4.66667,-10.89235 c 0,-0.85746 0.45,-1.2809 1,-0.94098 0.55,0.33992 1,-0.0835 1,-0.94098 0,-0.85746 0.675,-1.55902 1.5,-1.55902 0.825,0 1.5,0.70156 1.5,1.55902 0,0.85746 0.45,1.2809 1,0.94098 0.55,-0.33992 1,0.0835 1,0.94098 0,2.10537 -1.62298,1.97959 -2.46443,-0.19098 -0.64611,-1.66667 -0.73978,-1.66667 -1.96723,0 -1.5956,2.16655 -2.56834,2.23888 -2.56834,0.19098 z m -68.999998,3.61804 c 0,-2.41457 0.55611,-2.65816 1.34934,-0.59105 0.30982,0.80739 0.13296,1.73395 -0.39301,2.05902 -0.52598,0.32508 -0.95633,-0.33551 -0.95633,-1.46797 z m 3.25,0.44515 c -1.70436,-1.93582 -1.56893,-2.71311 0.40552,-2.32749 0.91054,0.17782 1.77072,1.11082 1.91152,2.07332 0.30659,2.09591 -0.60725,2.19616 -2.31704,0.25417 z m 15.91756,-0.13574 c 0.23568,-1.22379 1.21292,-1.86843 2.83244,-1.86843 1.619518,0 2.596758,0.64464 2.832438,1.86843 0.22647,1.17597 -0.0525,1.61362 -0.75262,1.1809 -0.61184,-0.37814 -0.91314,-1.01 -0.66955,-1.40414 0.24359,-0.39414 -0.39103,-0.71662 -1.410268,-0.71662 -1.01924,0 -1.65386,0.32248 -1.41027,0.71662 0.24359,0.39414 -0.0577,1.026 -0.66955,1.40414 -0.70016,0.43272 -0.97909,-0.005 -0.75262,-1.1809 z m 19.017668,-0.11843 c 0.20016,-1.05548 1.41987,-1.87558 3.07332,-2.06642 2.22796,-0.25716 2.74145,0.0817 2.74145,1.80901 0,1.18506 -0.44966,1.84754 -1.01631,1.49733 -0.55897,-0.34546 -0.7606,-1.04187 -0.44806,-1.54756 0.31253,-0.5057 -0.13013,-0.65146 -0.98369,-0.32392 -0.85357,0.32755 -1.55194,0.99739 -1.55194,1.48855 0,0.49115 -0.483,0.89301 -1.07332,0.89301 -0.59033,0 -0.92398,-0.7875 -0.74145,-1.75 z m -19.451898,-3.37409 c 0.67834,-0.68342 1.48524,-0.99067 1.79313,-0.68278 0.30789,0.30788 -0.24711,0.86705 -1.23333,1.24258 -1.4252,0.54268 -1.54006,0.42782 -0.5598,-0.5598 z m 61.266668,-3.81689 c 0,-0.51754 0.44485,-1.21592 0.98855,-1.55194 0.56686,-0.35034 0.7345,0.0511 0.39301,0.94098 -0.66479,1.73242 -1.38156,2.04939 -1.38156,0.61096 z M 38.933752,942.8329 c 0,-1.55556 0.56667,-2.5 1.5,-2.5 0.93333,0 1.5,0.94444 1.5,2.5 0,1.55556 -0.56667,2.5 -1.5,2.5 -0.93333,0 -1.5,-0.94444 -1.5,-2.5 z m 18,0 c 0,-1.55556 0.56667,-2.5 1.5,-2.5 0.93333,0 1.5,0.94444 1.5,2.5 0,1.55556 -0.56667,2.5 -1.5,2.5 -0.93333,0 -1.5,-0.94444 -1.5,-2.5 z m 82.999998,0 c 0,-1.55556 0.56667,-2.5 1.5,-2.5 0.93333,0 1.5,0.94444 1.5,2.5 0,1.55556 -0.56667,2.5 -1.5,2.5 -0.93333,0 -1.5,-0.94444 -1.5,-2.5 z m 18,0 c 0,-1.55556 0.56667,-2.5 1.5,-2.5 0.93333,0 1.5,0.94444 1.5,2.5 0,1.55556 -0.56667,2.5 -1.5,2.5 -0.93333,0 -1.5,-0.94444 -1.5,-2.5 z m -91.999998,-1.75 c 0,-0.4125 15.3,-0.75 34,-0.75 18.699998,0 33.999998,0.3375 33.999998,0.75 0,0.4125 -15.3,0.75 -33.999998,0.75 -18.7,0 -34,-0.3375 -34,-0.75 z m 21.35093,-6.55543 c -0.7917,-1.25511 -1.252,-1.2733 -3.09499,-0.12233 -1.19074,0.74363 -2.5192,0.99783 -2.95213,0.5649 -0.43293,-0.43293 -0.003,-1.22576 0.95452,-1.76183 1.9061,-1.06671 2.51945,-7.87531 0.70945,-7.87531 -0.56773,0 -1.4392,-1.0125 -1.93662,-2.25 -0.61201,-1.52262 -0.92488,-1.72384 -0.96777,-0.62245 -0.0349,0.89516 -0.73839,2.18776 -1.56339,2.87245 -1.97261,1.63712 -1.91198,5.44517 0.11905,7.47619 2.1297,2.1297 0.86241,3.30558 -1.78243,1.65385 -1.48644,-0.92829 -2.37838,-0.98828 -3.15452,-0.21214 -0.59515,0.59515 -2.7921,1.0821 -4.8821,1.0821 -2.89436,0 -3.8363,-0.41707 -3.95231,-1.75 -0.0838,-0.9625 -0.25687,-2.2 -0.38466,-2.75 -0.12778,-0.55 -0.28424,-1.6176 -0.34768,-2.37245 -0.0891,-1.06012 -0.4332,-1.10864 -1.51211,-0.21323 -0.76823,0.63757 -1.16574,2.04267 -0.88337,3.12245 0.28236,1.07977 0.047,1.96323 -0.52309,1.96323 -0.80219,0 -4.19678,-11.68587 -4.19678,-14.44741 0,-0.30392 18.96117,-0.55259 42.13592,-0.55259 l 42.135928,0 -0.60409,4.25 c -0.33225,2.3375 -1.28322,6.275 -2.11328,8.75 -1.32306,3.94502 -1.47133,4.09684 -1.20224,1.23102 0.17362,-1.84907 -0.27057,-3.74828 -1.02265,-4.37245 -0.99453,-0.82539 -1.35866,-0.7576 -1.44494,0.26898 -0.0634,0.75485 -0.2199,1.82245 -0.34769,2.37245 -0.12778,0.55 -0.30087,1.7875 -0.38465,2.75 -0.11746,1.34961 -1.06748,1.75 -4.15231,1.75 -2.2,0 -4,-0.45 -4,-1 0,-0.55 -0.675,-1 -1.5,-1 -0.825,0 -1.5,0.45 -1.5,1 0,0.55 -0.675,1 -1.5,1 -0.825,0 -1.5,-0.45 -1.5,-1 0,-0.55 0.39375,-1 0.875,-1 1.71695,0 2.21143,-6.24702 0.63258,-7.99163 -0.82917,-0.91622 -1.51759,-2.30542 -1.52982,-3.08711 -0.0137,-0.87344 -0.77598,-0.45764 -1.97776,1.07874 -2.47199,3.16026 -2.60538,8.81997 -0.25,10.60795 1.47257,1.11785 1.50428,1.33349 0.2,1.36025 -0.8525,0.0175 -2.09,-0.5082 -2.75,-1.1682 -0.93333,-0.93333 -1.46667,-0.93333 -2.4,0 -1.52537,1.52537 -5.05184,1.54816 -6.55762,0.0424 -0.87682,-0.87683 -1.5376,-0.84226 -2.72416,0.1425 -0.86161,0.71507 -1.88015,0.98653 -2.26343,0.60325 -0.38328,-0.38329 -0.22043,-1.00991 0.36189,-1.39251 1.99919,-1.31351 2.25922,-5.35347 0.56411,-8.76435 -0.92444,-1.86013 -1.90579,-3.38206 -2.180788,-3.38206 -0.275,0 -1.23942,1.48903 -2.14315,3.30895 -1.62214,3.26666 -1.46059,8.64184 0.25973,8.64184 0.48588,0 0.88342,0.45 0.88342,1 0,0.55 -0.675,1 -1.5,1 -0.825,0 -1.5,-0.45 -1.5,-1 0,-0.55 -0.675,-1 -1.5,-1 -0.825,0 -1.5,0.39754 -1.5,0.88342 0,1.59756 -4.67519,1.85506 -5.64907,0.31115 z m -48.9222,-0.81489 c 1.22768,-3.10902 3.53437,-14.66958 3.56756,-17.87968 0.0705,-6.82081 0.70644,-7.5 7.02215,-7.5 l 5.78519,0 0.68835,6.25 c 0.65386,5.93677 1.99918,13.32372 3.0745,16.88157 0.27771,0.91885 -0.19783,1.89672 -1.08862,2.23855 -0.91342,0.35051 -1.3236,0.18929 -0.97078,-0.38157 0.33602,-0.5437 0.1344,-0.98855 -0.44806,-0.98855 -0.58246,0 -1.11915,-1.9125 -1.19263,-4.25 l -0.13362,-4.25 -0.65769,4.70797 c -0.75886,5.43217 -1.18074,6.07245 -3.43195,5.20858 -1.91895,-0.73637 -2.22515,-3.40942 -0.39313,-3.43186 0.83333,-0.0102 0.75,-0.33844 -0.25,-0.98469 -1.33333,-0.86167 -1.33333,-0.97278 0,-1 1.33333,-0.0272 1.33333,-0.14967 0,-1.10206 -1.2051,-0.86079 -1.05765,-0.97448 0.75,-0.57831 2.75863,0.60461 2.88849,0.0924 0.32447,-1.27977 -1.23505,-0.66099 -2.75904,-0.69633 -4.25,-0.0986 -1.37411,0.55091 -1.69123,0.95785 -0.77563,0.99532 1.09391,0.0448 1.53449,1.06675 1.5,3.47938 -0.10313,7.21343 -3.50649,5.24517 -3.53353,-2.04354 -0.009,-2.45168 0.58925,-4.6293 1.47368,-5.36331 0.81894,-0.67967 1.20293,-1.74727 0.8533,-2.37245 -0.40921,-0.7317 -0.17099,-0.70643 0.66862,0.0709 1.07074,0.99135 1.05224,1.51262 -0.10329,2.91066 -1.29938,1.57208 -1.2346,1.59529 0.84238,0.30183 1.2375,-0.77066 2.25,-1.8127 2.25,-2.31564 0,-0.50294 0.94012,-0.0636 2.08916,0.97623 2.07751,1.88011 2.08728,1.874 1.75,-1.09502 -0.18654,-1.64212 -0.78916,-2.99257 -1.33916,-3.00099 -0.55,-0.008 -1.5625,-0.37248 -2.25,-0.80902 -0.6875,-0.43654 -1.8125,-0.43654 -2.5,0 -0.6875,0.43654 -1.67971,0.80059 -2.20492,0.80902 -1.2503,0.0201 -2.32078,3.99702 -2.4454,9.08497 -0.0755,3.08379 -0.74328,4.62927 -2.75643,6.37968 -2.27586,1.97884 -2.55034,2.04053 -1.91452,0.43034 z m 13.57127,-9.82066 c 0,-0.24254 -0.45,-0.7191 -1,-1.05902 -0.55,-0.33992 -1,-0.14148 -1,0.44098 0,0.58246 0.45,1.05902 1,1.05902 0.55,0 1,-0.19844 1,-0.44098 z m 87.350308,9.76277 c 2.01407,-6.91453 2.96134,-11.71754 3.5149,-17.82179 l 0.63479,-7 6.12873,-0.29457 6.12873,-0.29457 0.68998,6.79457 c 0.60683,5.97584 1.54801,10.89642 3.14188,16.42614 0.2606,0.90411 -0.23497,1.90221 -1.11146,2.23855 -0.91342,0.35051 -1.3236,0.18929 -0.97078,-0.38157 0.33602,-0.5437 0.1344,-0.98855 -0.44806,-0.98855 -0.58246,0 -1.11534,-1.6875 -1.18419,-3.75 l -0.12516,-3.75 -0.6896,4.23143 c -0.80941,4.96667 -1.21916,5.52849 -3.41694,4.68512 -2.37406,-0.91101 -2.28175,-7.38691 0.10687,-7.49777 1.20007,-0.0557 0.89137,-0.46197 -0.98236,-1.29286 -2.68006,-1.18845 -2.69502,-1.24362 -0.78116,-2.88231 1.83949,-1.57502 2.03886,-1.54552 3.48236,0.51536 l 1.53116,2.18604 -0.0153,-2.4725 c -0.0138,-2.22098 -1.93247,-6.70271 -1.96938,-4.60007 -0.008,0.47985 -0.6706,0.32861 -1.47151,-0.33608 -0.83745,-0.69503 -2.00593,-0.85979 -2.75,-0.38776 -0.71159,0.45143 -1.72351,0.82766 -2.24872,0.83609 -1.2503,0.0201 -2.32078,3.99702 -2.4454,9.08497 -0.0749,3.05631 -0.74464,4.63046 -2.68985,6.3218 -2.2334,1.94191 -2.51708,2.00119 -2.05952,0.43033 z m 13.64969,-9.76277 c 0,-0.24254 -0.45,-0.7191 -1,-1.05902 -0.55,-0.33992 -1,-0.14148 -1,0.44098 0,0.58246 0.45,1.05902 1,1.05902 0.55,0 1,-0.19844 1,-0.44098 z m -7.37679,8.90146 c -1.1568,-3.01458 -0.64458,-9.19785 0.86578,-10.45134 0.81894,-0.67967 1.20293,-1.74727 0.8533,-2.37245 -0.40921,-0.7317 -0.17099,-0.70643 0.66862,0.0709 0.99095,0.91748 1.02828,1.54024 0.15538,2.59201 -0.63191,0.76142 -0.85284,1.68049 -0.49095,2.04238 0.3619,0.36189 0.13299,0.65799 -0.50867,0.65799 -0.64167,0 -1.16667,0.43588 -1.16667,0.96861 0,0.53274 0.70574,0.6978 1.56831,0.3668 1.28499,-0.4931 1.5108,0.0857 1.25,3.20409 -0.33566,4.01331 -2.14218,5.66485 -3.1951,2.92098 z m -66.237258,-1.8971 c -0.78788,-2.05317 0.32179,-4.86204 1.60699,-4.06775 0.55388,0.34232 1.00706,1.46929 1.00706,2.50437 0,2.46364 -1.84513,3.56715 -2.61405,1.56338 z m 19.0821,-0.66404 c -0.82351,-2.59466 1.00857,-4.82272 2.631288,-3.2 1.18284,1.18284 0.32882,5.30066 -1.099338,5.30066 -0.47587,0 -1.16525,-0.9453 -1.53195,-2.10066 z m 19.672318,0.76979 c -1.3608,-1.63966 -0.43343,-4.93326 1.23284,-4.37853 1.48841,0.49552 2.06287,3.67332 0.87819,4.858 -0.58155,0.58155 -1.3812,0.39993 -2.11103,-0.47947 z"
       id="path3238"
       inkscape:connector-curvature="0" />
  </g>
</svg>
