<?xml version="1.0" encoding="UTF-8" standalone="no"?>
<!-- Created with Inkscape (http://www.inkscape.org/) -->

<svg
   xmlns:dc="http://purl.org/dc/elements/1.1/"
   xmlns:cc="http://creativecommons.org/ns#"
   xmlns:rdf="http://www.w3.org/1999/02/22-rdf-syntax-ns#"
   xmlns:svg="http://www.w3.org/2000/svg"
   xmlns="http://www.w3.org/2000/svg"
   xmlns:sodipodi="http://sodipodi.sourceforge.net/DTD/sodipodi-0.dtd"
   xmlns:inkscape="http://www.inkscape.org/namespaces/inkscape"
   width="200"
   height="200"
   id="svg3182"
   version="1.1"
   inkscape:version="0.48.3.1 r9886"
   sodipodi:docname="Nuevo documento 13">
  <defs
     id="defs3184" />
  <sodipodi:namedview
     id="base"
     pagecolor="#ffffff"
     bordercolor="#666666"
     borderopacity="1.0"
     inkscape:pageopacity="0.0"
     inkscape:pageshadow="2"
     inkscape:zoom="0.98994949"
     inkscape:cx="72.510862"
     inkscape:cy="170.36304"
     inkscape:document-units="px"
     inkscape:current-layer="layer1"
     showgrid="false"
     inkscape:window-width="1366"
     inkscape:window-height="692"
     inkscape:window-x="0"
     inkscape:window-y="24"
     inkscape:window-maximized="1" />
  <metadata
     id="metadata3187">
    <rdf:RDF>
      <cc:Work
         rdf:about="">
        <dc:format>image/svg+xml</dc:format>
        <dc:type
           rdf:resource="http://purl.org/dc/dcmitype/StillImage" />
        <dc:title></dc:title>
      </cc:Work>
    </rdf:RDF>
  </metadata>
  <g
     inkscape:label="Capa 1"
     inkscape:groupmode="layer"
     id="layer1"
     transform="translate(0,-852.36218)">
    <path
       inkscape:connector-curvature="0"
       id="path3203"
       d="m 79.604926,1050.6485 c -40.2207,-8.9575 -70.0501898,-39.2637 -78.1910698,-79.4406 -2.50904,-12.38262 -1.59958004,-34.43413 1.90201,-46.11773 3.57536,-11.92971 6.7633398,-18.78748 13.3021898,-28.61476 7.12818,-10.713 16.89383,-20.47864 27.60683,-27.60682 9.72256,-6.46917 16.51271,-9.64411 28.61476,-13.37968 18.4558,-3.42661 37.087204,-5.26022 54.277144,0 17.64259,5.44579 31.85898,13.80635 43.82695,25.77431 11.96796,11.96797 20.32852,26.18436 25.77431,43.82695 3.42661,18.4558 5.26022,37.0872 0,54.27714 -3.73557,12.10205 -6.91051,18.8922 -13.37968,28.61479 -9.89269,14.8678 -26.30772,28.911 -41.80495,35.7646 -20.86521,7.3883 -41.10711,11.3737 -61.928494,6.9018 z m 31.527874,-35.292 c 17.45166,-11.5927 29.90396,-23.71465 37.40699,-36.41461 4.93655,-8.35581 5.16836,-10.06738 1.93727,-14.30356 -2.12984,-2.79237 -3.21841,-3.4458 -4.99683,-2.99945 -1.70718,0.42847 -2.40346,0.0747 -2.79427,-1.41973 -0.42078,-1.60908 -1.36862,-1.99041 -4.94734,-1.99041 -2.43476,0 -6.89233,0.49514 -9.9057,1.10031 -5.28331,1.06104 -5.46368,1.20382 -5.05328,4 0.49232,3.35442 -0.76204,3.79365 -2.56935,0.89969 -1.66833,-2.67143 -2.4766,-2.57708 -13.44276,1.56926 -7.669224,2.89975 -9.799894,4.16588 -11.359014,6.75 -1.79984,2.98308 -1.93931,3.04092 -2.24425,0.93074 -0.39019,-2.70005 -0.18753,-2.69065 -7.68605,-0.35656 -3.3,1.0272 -9.375,2.41552 -13.5,3.08517 -5.50062,0.89296 -7.96483,1.7912 -9.24366,3.36946 l -1.74366,2.15193 -0.62297,-2.25 c -0.3692,-1.33342 -1.40328,-2.25 -2.53846,-2.25 -1.05352,0 -3.47277,-0.65067 -5.37611,-1.44594 l -3.46063,-1.44594 1.92087,3.76521 c 4.52673,8.87313 16.87903,22.04413 29.56462,31.52403 7.27777,5.4387 18.43259,12.6026 19.623304,12.6026 0.37723,0 5.3413,-3.0925 11.03128,-6.8722 z M 73.703576,968.62229 c 1.56918,-0.4329 2.42148,-1.65936 2.89049,-4.1594 l 0.66514,-3.54548 1.49145,2.90567 c 0.8203,1.59811 1.59454,3.03062 1.72052,3.18334 0.12599,0.15273 5.79105,-1.67787 12.58902,-4.06799 10.334434,-3.63351 12.449504,-4.72501 12.906394,-6.66041 0.47757,-2.02304 0.70643,-2.12195 1.81608,-0.7849 1.13543,1.36811 1.92312,1.33198 7.45088,-0.34169 3.39968,-1.02934 8.55049,-2.36338 11.44625,-2.96454 4.16391,-0.86442 5.6273,-1.70632 6.99732,-4.02558 2.2387,-3.78981 3.64088,-3.75605 2.8011,0.0674 -0.63721,2.90119 -0.53995,3 2.95266,3 4.5693,0 10.26664,2.35832 13.74413,5.68916 l 2.69678,2.58306 0.66484,-2.64892 c 2.58597,-10.30332 -6.27659,-25.39089 -18.4169,-31.35283 -4.64187,-2.27956 -6.97046,-2.77047 -13.14151,-2.77047 -9.64511,0 -15.65179,2.76001 -20.83852,9.57511 -2.01381,2.64605 -3.88648,4.81099 -4.161484,4.81099 -0.275,0 -2.14767,-2.16494 -4.16148,-4.81099 -5.18673,-6.8151 -11.19341,-9.57511 -20.83852,-9.57511 -6.17105,0 -8.49964,0.49091 -13.14151,2.77047 -13.03122,6.39946 -21.52518,22.11936 -17.89507,33.1187 1.31826,3.99437 2.47813,4.39071 5.87874,2.00883 2.99483,-2.09766 3.7371,-1.21169 1.65155,1.97126 -1.96685,3.00179 -1.35953,4.3231 2.87634,6.25788 3.07067,1.40256 13.89825,1.27189 19.35531,-0.23359 z m 29.987064,-42.23477 4.03796,-3.84121 -4.62519,0.40275 C 91.312066,923.97582 84.372866,912.12693 90.510096,901.44564 l 1.56107,-2.7169 -0.58901,3.73518 c -1.31488,8.33831 3.34718,15.76482 9.896524,15.76482 8.52383,0 14.51133,-7.35496 14.65337,-18 0.10911,-8.17638 1.77197,-5.26698 1.87588,3.28212 0.0757,6.2317 -1.79258,11.87856 -5.09228,15.39093 l -2.06711,2.20034 4.77377,-1.4367 c 2.62557,-0.79018 6.2561,-1.43669 8.06784,-1.43669 2.95466,0 3.40136,-0.38638 4.33549,-3.75 2.39982,-8.64136 0.18791,-16.19916 -6.54692,-22.36994 -2.14528,-1.9656 -6.30307,-5.76678 -9.23955,-8.44707 -2.93647,-2.68029 -6.17908,-6.4617 -7.2058,-8.40312 -1.82537,-3.4516 -1.86774,-3.47034 -1.91095,-0.84497 -0.0614,3.73039 1.49058,7.458 5.59306,13.43361 4.27171,6.2221 5.4403,10.88101 4.19446,16.72237 -1.21644,5.70352 -4.73086,9.05912 -9.4879,9.05912 -7.511974,0 -9.190924,-6.76453 -4.798984,-19.33524 1.952384,-5.58812 2.391564,-8.30604 1.886464,-11.67433 -0.784324,-5.23017 -1.618484,-5.527 -3.204904,-1.14043 -0.64645,1.7875 -4.46933,6.87217 -8.49527,11.29927 -9.5549,10.50697 -11.87058,14.36112 -12.07028,20.08937 l -0.16085,4.61408 6.22824,1.72635 c 6.69158,1.85478 13.50793,5.82497 15.51297,9.03556 0.68193,1.09195 1.28339,1.98537 1.33657,1.98537 0.0532,0 1.913774,-1.72855 4.134644,-3.84122 z"
       style="fill:#950003;fill-opacity:1"
       sodipodi:nodetypes="cssssccsccsccssssssssssssssscssscsssscscssssssssssscssssssssssssccscsscssssscssssssssssssssscssss" />
  </g>
</svg>
