<?xml version="1.0" encoding="UTF-8" standalone="no"?>
<!-- Created with Inkscape (http://www.inkscape.org/) -->

<svg
   xmlns:dc="http://purl.org/dc/elements/1.1/"
   xmlns:cc="http://creativecommons.org/ns#"
   xmlns:rdf="http://www.w3.org/1999/02/22-rdf-syntax-ns#"
   xmlns:svg="http://www.w3.org/2000/svg"
   xmlns="http://www.w3.org/2000/svg"
   xmlns:sodipodi="http://sodipodi.sourceforge.net/DTD/sodipodi-0.dtd"
   xmlns:inkscape="http://www.inkscape.org/namespaces/inkscape"
   width="200"
   height="200"
   id="svg2"
   version="1.1"
   inkscape:version="0.48.3.1 r9886"
   sodipodi:docname="Nuevo documento 1">
  <defs
     id="defs4" />
  <sodipodi:namedview
     id="base"
     pagecolor="#ffffff"
     bordercolor="#666666"
     borderopacity="1.0"
     inkscape:pageopacity="0.0"
     inkscape:pageshadow="2"
     inkscape:zoom="1.979899"
     inkscape:cx="77.809197"
     inkscape:cy="76.489521"
     inkscape:document-units="px"
     inkscape:current-layer="layer1"
     showgrid="false"
     inkscape:window-width="1366"
     inkscape:window-height="692"
     inkscape:window-x="0"
     inkscape:window-y="24"
     inkscape:window-maximized="1" />
  <metadata
     id="metadata7">
    <rdf:RDF>
      <cc:Work
         rdf:about="">
        <dc:format>image/svg+xml</dc:format>
        <dc:type
           rdf:resource="http://purl.org/dc/dcmitype/StillImage" />
        <dc:title></dc:title>
      </cc:Work>
    </rdf:RDF>
  </metadata>
  <g
     inkscape:label="Capa 1"
     inkscape:groupmode="layer"
     id="layer1"
     transform="translate(0,-852.36218)">
    <path
       style="fill:#950003;fill-opacity:1"
       d="m 100.05239,852.36004 c -25.439723,0 -50.878823,9.84757 -70.562503,29.53125 -39.3673597,39.36736 -39.3673597,101.75764 0,141.12501 14.30267,14.3027 30.84993,23.3098 50.5625,27.5 11.46916,2.4379 27.901533,2.4689 39.500003,0.062 78.48627,-16.2842 107.52529,-112.22472 51.0625,-168.68751 -19.68368,-19.68368 -45.12278,-29.53125 -70.5625,-29.53125 z m 30.71875,21.09375 1.21875,0 0,1.03125 1.9375,0 0,1.125 -1.9375,0 0,2.25 c 0.7788,1.5509 2.35561,3.90252 5.65625,7.15625 l 5.90625,5.34375 -11.96875,0.0625 -11.96875,0.0312 5.71875,-5.78125 c 1.34096,-1.35511 2.45985,-2.57648 3.34375,-3.6875 1.10603,-1.41399 1.72158,-2.55047 2.09375,-3.40625 l 0,-1.96875 -2,0 0,-1.125 2,0 z m 0.84375,14 c -0.85746,0 -1.5625,0.45 -1.5625,1 0,0.55 0.41996,1 0.9375,1 0.51754,0 1.22258,-0.45 1.5625,-1 0.33992,-0.55 -0.08,-1 -0.9375,-1 z m -0.0625,4.28125 c 8.8,0.008 14.65,0.24233 13,0.5 -2.64742,0.41343 -2.76495,0.56522 -1,1.28125 1.15811,0.46985 -4.10369,0.8125 -12.5,0.8125 -8.31611,0 -13.64705,-0.35075 -12.5,-0.8125 1.86677,-0.75148 1.83347,-0.82536 -0.5,-1.28125 -1.375,-0.26863 4.7,-0.507 13.5,-0.5 z m -0.5,0.84375 c -1.54063,0 -3.08125,0.051 -4.25,0.15625 -2.3375,0.21054 -0.425,0.375 4.25,0.375 4.675,0 6.5875,-0.16446 4.25,-0.375 -1.16875,-0.10526 -2.70937,-0.15625 -4.25,-0.15625 z m 13,2.875 c 0.59649,0 1,3.83333 1,9.5 0,5.66667 -0.40351,9.5 -1,9.5 -0.59649,0 -1,-3.83333 -1,-9.5 0,-5.66667 0.40351,-9.5 1,-9.5 z m -17.40625,0.0625 c 0.33633,-0.006 0.72874,-0.007 1.15625,0 3.49994,0.0592 3.58329,0.15292 1.25,1.0625 -1.375,0.53602 -3.0625,1.71575 -3.75,2.625 -1.09988,1.45463 -1.25,1.30543 -1.25,-1.0625 0,-2.14756 0.23942,-2.58591 2.59375,-2.625 z m 8.1875,0 c 2.00786,-0.0388 3.49929,0.5086 3.84375,1.40625 0.23109,0.60221 0.34913,1.1218 0.375,1.5625 0.002,0.0289 -9.1e-4,0.0657 0,0.0937 0.0442,1.3693 -0.8393,1.77357 -2,0.375 -0.78581,-0.94683 -2.34966,-2.07763 -3.46875,-2.53125 -1.69162,-0.68567 -1.47806,-0.85355 1.25,-0.90625 z m -16.71875,0.15625 c 0.054,-10e-4 0.12863,0.0118 0.1875,0.0312 0.8496,0.28154 1.33582,3.36168 1.53125,9.59375 0.2417,7.70779 0.0425,9.15625 -1.25,9.15625 -1.27641,0 -1.53125,-1.6067 -1.53125,-9.5625 0,-6.76961 0.25258,-9.20115 1.0625,-9.21875 z m -1.28125,3.875 c 0.0525,1.11079 0.0937,2.27519 0.0937,3.5 0,2.734 -0.0585,4.61263 -0.1875,5.96875 0.0593,-2.0115 0.0937,-4.49192 0.0937,-7.5 0,-0.68348 -0.005,-1.30889 0,-1.96875 z m 8.71875,4.90625 c 0.20831,0 0.37223,0.0635 0.53125,0.15625 0.3958,0.83075 0.61277,2.39003 0.75,5.03125 l 0.28125,5.21875 -0.375,0 c -1.34793,0.003 -2.01291,0.0666 -2.31369,0.0998 -0.2112,-0.74128 -0.37524,-4.09201 -0.37381,-5.50607 0,-3.77778 0.36667,-5 1.5,-5 z m 12,0 c 0.85,0 1.28125,0.6875 1.4375,2.625 0.0325,0.69064 0.0625,1.40837 0.0625,2.34375 1e-5,0.0124 0,0.0188 0,0.0312 0,3.77778 -0.36667,5 -1.5,5 -1.13333,0 -1.5,-1.22222 -1.5,-5 0,-3.77778 0.36667,-5 1.5,-5 z m -6,11 c 9.58275,0 15.00475,0.23373 16.5,0.6875 0.0114,0.2306 0.0214,0.50258 0.0312,0.75 -0.46197,0.30093 -1.12713,0.4534 -1.75,0.34375 -0.86397,-0.15209 -1.79086,0.28125 -2.03125,0.96875 -0.24039,0.6875 0.28541,1.25 1.15625,1.25 1.35206,0 1.59375,1.67983 1.59375,11.4375 0,10.03283 0.21347,11.48436 1.75,11.90625 0.9625,0.26432 -6.35,0.3997 -16.25,0.3125 -8.6625,-0.0763 -16.6019,-0.44539 -19.15625,-0.875 -0.0143,-0.002 -0.0173,0.002 -0.0312,0 -0.59442,-0.40584 -1.50449,-0.92123 -2.5625,-1.4375 l -0.34375,-0.15625 c -0.20896,-0.18561 -0.47342,-0.41707 -0.875,-0.71875 -0.21217,-0.15939 -0.44494,-0.30923 -0.6875,-0.4375 l -0.1875,-0.0937 c -0.0803,-0.0387 -0.16835,-0.0589 -0.25,-0.0937 -4.89791,-2.23068 -9.128533,-5.5941 -12.812503,-7.78125 -8.91134,-5.27417 -10.77517,-6.03357 -12.53125,-5.09375 -5.5581,3.73386 -11.67139,6.90365 -16.0625,9.53125 -12.70289,7.60803 -17.71009,9.30795 -16.53125,5.59375 0.33444,-1.05372 0.17964,-2.17653 -0.34375,-2.5 -1.53764,-0.95032 -0.59738,-4.05878 1.34375,-4.4375 1.53571,-0.29962 1.6931,0.15926 1.125,3.1875 -0.36323,1.93618 -0.24653,3.75563 0.25,4.0625 0.49653,0.30687 7.67982,-3.46727 15.96875,-8.40625 8.28894,-4.93898 15.65608,-8.9639 16.375,-8.9375 0.71891,0.0264 7.6125,3.80889 15.312503,8.40625 l 14,8.34375 0.0625,-1.9375 c 0.3913,-1.17204 0.4375,-4.05025 0.4375,-10.34375 0,-1.05122 -0.0109,-2.01898 -0.0312,-3 0.24168,-5.00656 0.6191,-6.53125 1.5625,-6.53125 0.80699,0 1.46875,-0.7099 1.46875,-1.59375 0,-1.00197 -0.55342,-1.41375 -1.46875,-1.0625 -0.80739,0.30982 -1.73743,0.15098 -2.0625,-0.375 -0.36749,-0.59462 6.07693,-0.96875 17.03125,-0.96875 z m -0.21875,1.65625 c -4.38674,0.0464 -8.82632,0.47897 -9.09375,1.28125 -0.23223,0.69669 2.75695,1.0625 8.71875,1.0625 6.59949,0 9.09306,-0.34181 9.09375,-1.25 6.1e-4,-0.79946 -4.33201,-1.14018 -8.71875,-1.09375 z m -10.625,2.71875 c -0.31086,0 -0.564,0.0281 -0.78125,0.15625 -1.05363,0.0619 -1.875,0.35048 -1.875,0.71875 l 0,11.25 c 0,10.4229 0.0187,10.5 2.40625,10.5 2.33344,0 2.37159,-0.17895 1.84375,-6 -0.10236,-1.1288 -0.14442,-1.91095 -0.1875,-2.65625 0.0743,-1.91867 0.27172,-2.86761 0.8125,-3.21875 0.26163,-0.0722 0.55903,-0.125 0.96875,-0.125 1.19811,0 1.7618,0.19664 2,1.625 0.0543,0.32558 0.0666,0.7225 0.0937,1.1875 0.0441,0.798 0.0625,1.78143 0.0625,3.0625 l 0,6 0,0.125 5.5,0 5.5,0 0,-6 c 0,-4.66667 0.33333,-6 1.5,-6 1.16667,0 1.5,1.33333 1.5,6 0,5.55539 0.16673,5.99947 2.25,6 2.20977,5.6e-4 2.22385,-0.20057 2.0625,-11.25 -0.0672,-4.60448 -0.11651,-7.26795 -0.3125,-8.875 l 0,-1.75 c 0,-0.4125 -0.7875,-0.75 -1.75,-0.75 -0.31685,0 -0.56561,0.0328 -0.78125,0.125 -0.0138,0.006 -0.0178,0.0249 -0.0312,0.0312 -1.69712,0.0608 -1.88245,0.57969 -1.59375,3.46875 l 0.28125,2.96875 c -0.14757,0.0317 -0.30933,0.0102 -0.5,-0.0625 l -2,-2.15625 c -1.61917,-1.74479 -3.52329,-2.72522 -5.4375,-2.96875 -0.0209,-0.003 -0.0416,0.002 -0.0625,0 -2.44065,-0.2895 -4.89765,0.62035 -6.84375,2.78125 -2.48842,2.76306 -3.25045,3.02442 -3.1875,0.625 0.006,-0.23866 0.0407,-0.52043 0.0625,-0.8125 0.0204,-0.25598 0.0172,-0.39954 0.0312,-0.625 0.092,-0.95285 0.10933,-1.61019 0.0312,-2.09375 -0.0204,-0.12668 -0.0578,-0.2428 -0.0937,-0.34375 -0.19509,-0.71544 -0.64054,-0.9375 -1.46875,-0.9375 z m -34.562503,7.90625 c 0.0401,-0.0604 0.57594,0.19523 1.65625,0.71875 1.2375,0.59969 2.25,1.27561 2.25,1.53125 0,0.76522 -0.52224,0.57209 -2.5625,-1.0625 -0.93201,-0.74669 -1.38389,-1.12709 -1.34375,-1.1875 z m -2.40625,0.0625 c 0.70885,-0.0303 0.0109,0.74293 -1.8125,1.71875 -1.25049,0.66925 -1.74716,0.78144 -1.59375,0.34375 0.19374,-0.37255 0.43352,-0.63649 0.71875,-0.84375 0.88921,-0.62721 1.64975,-0.97777 2.6875,-1.21875 z m 1.40625,1.65625 c 0.72885,0 5.51337,2.52472 10.65625,5.59375 5.142883,3.06903 10.806433,5.76069 12.562503,5.96875 0.79909,0.0947 1.38097,0.17052 1.78125,0.1875 l 0,0.125 c 0.44817,0.3621 0.86514,0.67109 1.25,0.9375 -0.0228,0.70971 -7.44232,1.06432 -24.750003,1.15625 -24.98058,0.13274 -29.5874,-0.43958 -24.375,-2.96875 2.18217,-1.05884 2.20321,-1.02098 0.34375,0.46875 -3.70777,2.97054 -0.70707,1.49521 10.21875,-4.96875 6.04271,-3.575 11.58365,-6.5 12.3125,-6.5 z m 6,1.28125 c 0.0401,-0.0604 0.57594,0.19523 1.65625,0.71875 1.2375,0.59969 2.25,1.27561 2.25,1.53125 0,0.76522 -0.52224,0.57209 -2.5625,-1.0625 -0.93201,-0.74669 -1.38389,-1.12709 -1.34375,-1.1875 z m -12.25,0.0625 c 0.10156,0.005 0.15625,0.0251 0.15625,0.0937 0,0.275 -0.9,0.9738 -2,1.5625 -1.1,0.58867 -2,0.86875 -2,0.59375 0,-0.275 0.9,-1.00505 2,-1.59375 0.825,-0.4415 1.53906,-0.67247 1.84375,-0.65625 z m 17.25,2.9375 c 0.0401,-0.0604 0.57594,0.19523 1.65625,0.71875 1.2375,0.59969 2.250003,1.27561 2.250003,1.53125 0,0.76522 -0.522243,0.57209 -2.562503,-1.0625 -0.93201,-0.74669 -1.38389,-1.12709 -1.34375,-1.1875 z m -22.25,0.0625 c 0.10156,0.005 0.15625,0.0251 0.15625,0.0937 0,0.275 -0.9,0.9738 -2,1.5625 -1.1,0.58867 -2,0.86875 -2,0.59375 0,-0.275 0.9,-1.00505 2,-1.59375 0.825,-0.4415 1.53906,-0.67247 1.84375,-0.65625 z m 27.250003,2.9375 c 0.0474,-0.0588 0.60346,0.20746 1.71875,0.75 1.13323,0.39543 2.0601,0.8724 3.125,1.46875 -0.89313,0.24547 -2.45056,-0.19072 -3.5,-1.03125 -0.92997,-0.74484 -1.39117,-1.1287 -1.34375,-1.1875 z m -32.250003,0.0625 c 0.10156,0.005 0.15625,0.0251 0.15625,0.0937 0,0.275 -0.9,0.9738 -2,1.5625 -1.1,0.58867 -2,0.86875 -2,0.59375 0,-0.275 0.9,-1.00505 2,-1.59375 0.825,-0.4415 1.53906,-0.67247 1.84375,-0.65625 z m 31.187503,7.65625 c 48.09854,0 53.92708,0.16667 52.59375,1.5 -2.22727,2.22731 -103.471753,2.19739 -105.437503,-0.0312 -1.12937,-1.28049 5.4496,-1.46875 52.843753,-1.46875 z m -51.031253,4 51.000003,0 51,0 0,36 0,36.00001 -24.0625,0 -20.0625,0 0,-43.65626 -2.0625,0 c 0.10761,-0.24071 0.1875,-0.5155 0.1875,-0.84375 0,-0.825 -0.675,-1.5 -1.5,-1.5 -0.825,0 -1.4401,-0.3375 -1.375,-0.75 0.0651,-0.4125 0.0421,-1.65 -0.0312,-2.75 -0.0996,-1.49012 -0.34,-1.64808 -0.96875,-0.65625 -0.57109,0.90087 -1.09422,-0.0689 -1.625003,-3 -0.43214,-2.38638 -0.98195,-3.55795 -1.21875,-2.59375 -0.59289,2.41411 -2.28125,2.20592 -2.28125,-0.28125 0,-1.11727 -0.65094,-2.26067 -1.4375,-2.5625 -0.78657,-0.30183 -1.9794,-1.97535 -2.65625,-3.71875 -1.1243,-2.8959 -1.28279,-2.99306 -1.65625,-0.9375 -0.48616,2.67584 -2.25,3.0482 -2.25,0.46875 0,-0.99 -0.55875,-2.34 -1.21875,-3 -0.93333,-0.93333 -0.82222,-1.21875 0.5,-1.21875 0.935,0 1.71875,-0.45 1.71875,-1 0,-0.55 -1.8,-1 -4,-1 -2.2,0 -4,0.45 -4,1 0,0.55 0.73266,1 1.625,1 1.17254,0 1.32717,0.34663 0.59375,1.25 -0.092,0.11332 -0.18599,0.28716 -0.28125,0.4375 0.0508,-0.0174 0.0881,-0.0447 0.15625,-0.0625 0.4812,-0.1258 1.1156,-0.1875 1.75,-0.1875 0.6344,0 1.2687,0.0617 1.75,0.1875 0.9625,0.25153 0.175,0.46875 -1.75,0.46875 -1.10356,0 -1.82201,-0.0479 -2.0625,-0.15625 -0.42813,0.75076 -0.84537,1.74596 -1.03125,2.5625 -0.41919,1.84143 -0.52913,1.80179 -1.5,-0.5 l -1.0625,-2.5 -0.96875,2.5 c -0.5392,1.375 -0.82924,2.80628 -0.625,3.15625 0.20423,0.34997 -0.53118,0.87021 -1.625,1.15625 -1.18612,0.31018 -1.96875,1.34508 -1.96875,2.59375 0,2.53518 -1.68082,2.78857 -2.28125,0.34375 -0.2368,-0.9642 -0.78661,0.20737 -1.21875,2.59375 -0.53078,2.9311 -1.05391,3.90087 -1.625,3 -0.57776,-0.91139 -0.8645,-0.47649 -0.875,1.40625 -0.01,1.77097 -0.53401,2.75 -1.5,2.75 -0.825,0 -1.5,0.675 -1.5,1.5 0,0.32586 0.0719,0.60403 0.1875,0.84375 l -3.03125,0 0,43.65626 -4.125,0 -9.03125,0 0,-36.00001 z m 36,7.5 c 0.73333,0 1.52083,0.5625 1.75,1.25 0.0204,0.0612 0.0236,0.12963 0.0312,0.1875 0.0383,0.0226 0.0834,0.0191 0.125,0.0625 0.4351,0.4542 0.9613,1.9375 1.1875,3.3125 l 0.40625,2.5 1.0625,-2.5 1.0625,-2.5 0.71875,2.65625 c 0.3808,1.46053 1.54035,2.88077 2.59375,3.15625 1.2515,0.32729 1.90625,1.37501 1.90625,3.03125 0,1.39403 0.45,2.81633 1,3.15625 0.55,0.33992 1,-0.11008 1,-1 0,-3.07709 1.5812,-0.62259 1.8125,2.8125 0.1913,2.84013 -0.15875,3.5608 -2.03125,4.0625 -1.13234,0.30338 -2.01542,0.49315 -2.75,0.59375 l -1.5,0 c -1.34468,-0.35333 -1.53125,-1.92938 -1.53125,-5.625 0,-3.11666 0.2311,-5.45643 0.5,-5.1875 0.4401,0.44007 1.264,5.38112 1.4375,8.59375 0.037,0.6875 0.47325,1.25 0.96875,1.25 1.0683,0 0.37525,-9.12473 -0.78125,-10.28125 -0.4394,-0.4394 -4.75135,-0.66018 -9.59375,-0.5 l -8.8125,0.28125 -0.375,4 c -0.2076,2.2 -0.5677,4.5625 -0.8125,5.25 -0.245,0.6875 -0.033,1.25 0.5,1.25 0.5328,0 1.03175,-0.5625 1.09375,-1.25 0.8635,-9.65509 1.56495,-10.80625 2.03125,-3.3125 0.3355,5.39395 0.26405,5.58238 -2.15625,5.46875 -5.2885,-0.24827 -6.0604,-0.85068 -5.8125,-4.53125 0.2335,-3.46644 1.8125,-5.97506 1.8125,-2.875 0,0.88992 0.45,1.33992 1,1 0.55,-0.33992 1,-1.76222 1,-3.15625 0,-1.65624 0.6859,-2.70396 1.9375,-3.03125 1.0534,-0.27548 2.21295,-1.69572 2.59375,-3.15625 l 0.6875,-2.65625 1.03125,2.5 1.03125,2.5 0.75,-2.5 c 0.5015,-1.63866 0.8099,-1.89706 0.875,-0.75 0.062,1.08407 0.90765,1.75 2.21875,1.75 1.7351,0 2.0287,-0.45096 1.625,-2.5625 -0.0847,-0.44299 -0.14782,-0.79099 -0.15625,-1.09375 -0.30737,0.21955 -0.79305,0.34375 -1.4375,0.34375 -1.28889,0 -1.99786,-0.50641 -1.75,-1.25 0.22917,-0.6875 1.01667,-1.25 1.75,-1.25 z m 0,12 c 1.1095,0.0746 2.27705,0.60091 2.59375,1.5625 0.2581,0.78365 -0.53665,1.25 -2.15625,1.25 -1.6804,0 -2.59375,-0.54148 -2.59375,-1.5625 0,-0.94031 1.04665,-1.3246 2.15625,-1.25 z m 0.4375,4.8125 c 1.6197,0 2.41435,0.46635 2.15625,1.25 -0.6334,1.92318 -4.75,2.22437 -4.75,0.34375 0,-1.02102 0.91335,-1.59375 2.59375,-1.59375 z m -17.21875,0.34375 c 0.091,0.0138 0.1928,0.1696 0.3125,0.46875 0.2888,0.72187 0.2693,1.6052 -0.0625,1.9375 -0.3323,0.33229 -0.57415,-0.25834 -0.53125,-1.3125 0.03,-0.72809 0.12965,-1.11665 0.28125,-1.09375 z m 33.000003,0 c 0.091,0.0138 0.1928,0.1696 0.3125,0.46875 0.2888,0.72187 0.2692,1.6052 -0.0625,1.9375 -0.3323,0.33229 -0.57415,-0.25834 -0.53125,-1.3125 0.03,-0.72809 0.12965,-1.11665 0.28125,-1.09375 z m -21.468753,4 7.71875,0 c 8.63725,0.0713 15.312503,0.365 15.312503,0.75 0,0.44 -0.5625,1.39625 -1.25,2.125 -0.7606,0.80616 -0.8585,1.49136 -0.25,1.71875 0.6347,0.23738 0.8833,7.67068 0.6875,20.37501 l -0.28125,18.25 -0.46875,0 c -0.12382,0.044 -0.27025,0.073 -0.4375,0.094 l 0,-18.3438 0,-19.99996 -2.281253,0 c -2.1864,0 -2.2638,0.30599 -2.0625,7.25 0.1156,3.9875 -0.0317,6.16958 -0.3125,4.875 -0.4992,-2.30047 -0.55635,-2.30226 -1.90625,-0.375 -0.9639,1.3762 -2.13665,1.83828 -3.90625,1.5 -1.7897,-0.34214 -2.53125,-0.044 -2.53125,1 0,0.98418 0.8365,1.37011 2.5,1.1875 l 2.5,-0.28125 0,12.18751 c 0.0103,8.2218 0.3447,11.6703 1,10.6562 0.5331,-0.825 0.95885,-6.1125 0.96875,-11.75 0.0104,-6.9824 0.38155,-10.24996 1.15625,-10.24996 0.814,0 1.00985,3.41136 0.65625,11.99996 l -0.4375,10.25 -23.90625,0 c -0.11696,0.041 -0.25064,0.073 -0.40625,0.094 0.0408,-0.7495 0.33366,-1.3446 0.71875,-1.3437 0.4127,10e-4 0.6104,-4.7239 0.4375,-10.5 -0.2066,-6.9015 0.0505,-10.54291 0.75,-10.62501 0.5854,-0.0688 1.57705,-0.1813 2.21875,-0.25 0.6416,-0.0688 1.3766,-0.75478 1.625,-1.5 0.3265,-0.97964 -0.12525,-1.14217 -1.65625,-0.65625 -2.6242,0.83288 -4.125,-2.44733 -4.125,-9.03125 0,-3.93219 -0.255,-4.43661 -2.25,-4.4375 l -2.25,0 0.0937,17.75 0.125,17.75001 -0.6875,-16 c -0.3727,-8.80001 -1.03385,-16.78751 -1.46875,-17.75001 -0.492,-1.08894 -0.34505,-1.75 0.34375,-1.75 0.6088,0 1.09375,-0.675 1.09375,-1.5 0,-0.825 -0.45,-1.5 -1,-1.5 -0.55,0 -1,-0.45 -1,-1 0,-0.55233 5.59952,-0.88934 14.96875,-0.96875 z m 3.8125,7.21875 c -2.3536,0.0153 -3.49365,0.23381 -2.53125,0.46875 0.9626,0.23494 1.75,0.83408 1.75,1.34375 0,1.28296 1.17875,1.12633 3.28125,-0.46875 1.5809,-1.1993 1.3019,-1.36855 -2.5,-1.34375 z m 5.3125,1.21875 c -0.1559,0.0231 -0.31685,0.074 -0.53125,0.15625 -0.8535,0.32755 -1.5625,1.00763 -1.5625,1.53125 0,0.52361 0.45,0.68367 1,0.34375 1.0093,-0.62383 1.3635,0.59615 1.0625,3.65625 -0.0902,0.917 0.6357,1.8683 1.625,2.125 0.9894,0.2567 1.91315,0.52995 2.03125,0.59375 0.1181,0.0638 0.71945,-0.83362 1.34375,-2 0.7439,-1.38932 0.7591,-1.89927 0.0625,-1.46875 -1.3194,0.81547 -5.4328,-3.13035 -4.625,-4.4375 0.2439,-0.39455 0.0616,-0.56929 -0.40625,-0.5 z m 1.90625,0.53125 c -0.0516,0.0516 0.2531,0.45697 0.875,1.25 1.3064,1.66575 2.125,2.19804 2.125,1.375 0,-0.20765 -0.7875,-0.99515 -1.75,-1.75 -0.793,-0.62194 -1.1984,-0.92662 -1.25,-0.875 z m -10.65625,0.34375 c -0.21739,0.0561 -0.34375,0.26612 -0.34375,0.59375 0,0.58246 0.4501,1.0625 1,1.0625 0.55,0 1,-0.19496 1,-0.4375 0,-0.24254 -0.45,-0.72258 -1,-1.0625 -0.1375,-0.085 -0.28665,-0.13615 -0.40625,-0.15625 -0.0896,-0.0151 -0.17754,-0.0187 -0.25,0 z m -2.125,1.28125 c -0.2554,0.0355 -0.64305,0.32274 -1.21875,0.84375 -0.9231,0.83546 -1.90605,1.28154 -2.21875,0.96875 -0.3128,-0.31279 -0.8548,-0.13221 -1.1875,0.40625 -0.3473,0.56191 0.46855,0.84532 1.90625,0.6875 1.3777,-0.15124 2.5,0.11939 2.5,0.59375 0,0.47437 -0.8999,0.875 -2,0.875 -1.0999,0 -2,0.4849 -2,1.09375 0,0.60884 0.72395,0.83384 1.59375,0.5 0.8701,-0.33385 1.93795,-0.59375 2.40625,-0.59375 0.4682,0 0.82825,-1.372 0.78125,-3.03125 -0.0491,-1.72457 -0.1366,-2.40297 -0.5625,-2.34375 z m 3.28125,2.375 c -0.825,0 -1.5,0.675 -1.5,1.5 0,0.825 0.675,1.5 1.5,1.5 0.8251,0 1.5,-0.675 1.5,-1.5 0,-0.825 -0.6749,-1.5 -1.5,-1.5 z m 4.5,0 c -1.1111,0 -2,0.66667 -2,1.5 0,0.83333 0.8889,1.5 2,1.5 1.1111,0 2,-0.66667 2,-1.5 0,-0.83333 -0.8889,-1.5 -2,-1.5 z m 5.90625,1.125 c 0.3473,0.0143 0.6465,0.0839 0.8125,0.25 0.3324,0.33229 -0.2583,0.57465 -1.3125,0.53125 -1.1649,-0.048 -1.39155,-0.27453 -0.59375,-0.59375 0.3609,-0.14445 0.74635,-0.2018 1.09375,-0.1875 z m -34.84375,2.75 c -2.33787,0.0753 -2.38874,0.64996 -2.65625,4.84375 -0.26282,4.12026 -0.01,4.89996 1.6875,5.34376 1.19374,0.3122 1.7603,1.065 1.4375,1.9062 -0.29578,0.7708 -0.0463,1.4063 0.5625,1.4063 0.60885,0 1.25459,-0.6199 1.125,-1.375 -0.31567,-1.8395 0.70713,-1.6718 1.5625,-2 1.1705,-0.4492 1.47971,-1.761 1.25,-5.34376 -0.30234,-4.7154 -0.34542,-4.78125 -3.8125,-4.78125 -0.43428,0 -0.82227,-0.0108 -1.15625,0 z m 23.9375,1.125 c -1.0999,0 -2,0.57411 -2,1.28125 0,0.70715 0.9001,1.28125 2,1.28125 1.1001,0 2,-0.5741 2,-1.28125 0,-0.70714 -0.8999,-1.28125 -2,-1.28125 z m 4.5,0 c -1.5465,0 -2.0011,1.18631 -0.875,2.3125 0.799,0.79893 2.375,-0.11402 2.375,-1.375 0,-0.51754 -0.675,-0.9375 -1.5,-0.9375 z m -8,4 c -0.825,0 -1.5,0.675 -1.5,1.50001 0,0.825 0.675,1.5 1.5,1.5 0.8251,0 1.5,-0.675 1.5,-1.5 0,-0.82501 -0.6749,-1.50001 -1.5,-1.50001 z m 4,0 c -0.825,0 -1.5,0.675 -1.5,1.50001 0,0.825 0.675,1.5 1.5,1.5 0.8251,0 1.5,-0.675 1.5,-1.5 0,-0.82501 -0.6749,-1.50001 -1.5,-1.50001 z m 4.5,0 c -1.1111,0 -2,0.66667 -2,1.50001 0,0.8333 0.8889,1.5 2,1.5 1.1111,0 2,-0.6667 2,-1.5 0,-0.83334 -0.8889,-1.50001 -2,-1.50001 z m 4.5,0 c -0.825,0 -1.5,0.675 -1.5,1.50001 0,0.825 0.675,1.5 1.5,1.5 0.825,0 1.5,-0.675 1.5,-1.5 0,-0.82501 -0.675,-1.50001 -1.5,-1.50001 z m -5,4.00001 c -0.825,0 -1.5,0.675 -1.5,1.5 0,0.825 0.675,1.5 1.5,1.5 0.825,0 1.5,-0.675 1.5,-1.5 0,-0.825 -0.675,-1.5 -1.5,-1.5 z m -8.90625,0.375 c -0.3585,0.016 -0.59375,0.4194 -0.59375,1.0625 0,0.8574 0.45,1.5625 1,1.5625 0.55,0 1,-0.42 1,-0.9375 0,-0.5176 -0.45,-1.2226 -1,-1.5625 -0.1375,-0.085 -0.28665,-0.1303 -0.40625,-0.125 z m 4.40625,0.031 c -1.1,0 -2,0.6053 -2,1.3125 0,0.7071 0.9,1.2812 2,1.2812 1.1,0 2,-0.5741 2,-1.2812 0,-0.7072 -0.9,-1.3125 -2,-1.3125 z m 9,0 c -1.1,0 -2,0.6053 -2,1.3125 0,0.7071 0.9,1.2812 2,1.2812 1.1,0 2,-0.5741 2,-1.2812 0,-0.7072 -0.9,-1.3125 -2,-1.3125 z m -12.5,4.5937 c -0.825,0 -1.5,0.675 -1.5,1.5 0,0.825 0.675,1.5 1.5,1.5 0.825,0 1.5,-0.675 1.5,-1.5 0,-0.825 -0.675,-1.5 -1.5,-1.5 z m 4,0 c -0.825,0 -1.5,0.675 -1.5,1.5 0,0.825 0.675,1.5 1.5,1.5 0.825,0 1.5,-0.675 1.5,-1.5 0,-0.825 -0.675,-1.5 -1.5,-1.5 z m 4.5,0 c -1.9923,0 -2.61165,1.0447 -1.34375,2.3125 1.218,1.218 3.34375,0.7099 3.34375,-0.8125 0,-0.8333 -0.8889,-1.5 -2,-1.5 z m 4.5,0 c -0.825,0 -1.5,0.675 -1.5,1.5 0,0.825 0.675,1.5 1.5,1.5 0.825,0 1.5,-0.675 1.5,-1.5 0,-0.825 -0.675,-1.5 -1.5,-1.5 z m -13.5,4 c -0.55,0 -1,0.675 -1,1.5 0,0.825 0.45,1.5 1,1.5 0.55,0 1,-0.675 1,-1.5 0,-0.825 -0.45,-1.5 -1,-1.5 z m 8.5,0 c -0.825,0 -1.5,0.675 -1.5,1.5 0,0.825 0.675,1.5 1.5,1.5 0.825,0 1.5,-0.675 1.5,-1.5 0,-0.825 -0.675,-1.5 -1.5,-1.5 z m 4.5,0 c -1.1111,0 -2,0.6667 -2,1.5 0,0.8334 0.8889,1.5 2,1.5 1.1111,0 2,-0.6666 2,-1.5 0,-0.8333 -0.8889,-1.5 -2,-1.5 z m -8.59375,0.25 c -0.1302,-0.01 -0.26825,0.021 -0.40625,0.031 -1.1,0.083 -2,0.6279 -2,1.2188 0,0.5909 0.9,1.1358 2,1.2187 1.1038,0.083 2,-0.4595 2,-1.2187 0,-0.6644 -0.68285,-1.1902 -1.59375,-1.25 z m -3.90625,3.75 c -0.825,0 -1.5,0.675 -1.5,1.5 0,0.825 0.675,1.5 1.5,1.5 0.825,0 1.5,-0.675 1.5,-1.5 0,-0.825 -0.675,-1.5 -1.5,-1.5 z m 4,0 c -0.825,0 -1.5,0.675 -1.5,1.5 0,0.825 0.675,1.5 1.5,1.5 0.825,0 1.5,-0.675 1.5,-1.5 0,-0.825 -0.675,-1.5 -1.5,-1.5 z m 4.5,0 c -1.1111,0 -2,0.6667 -2,1.5 0,0.8334 0.8889,1.5 2,1.5 1.1111,0 2,-0.6666 2,-1.5 0,-0.8333 -0.8889,-1.5 -2,-1.5 z m 4.5,0 c -0.825,0 -1.5,0.675 -1.5,1.5 0,0.825 0.675,1.5 1.5,1.5 0.825,0 1.5,-0.675 1.5,-1.5 0,-0.825 -0.675,-1.5 -1.5,-1.5 z"
       id="path2998"
       inkscape:connector-curvature="0"
       sodipodi:nodetypes="ssssssscccccccccccccccccccssssscssssscscssssssssccssscssccscsccsssccscscsccccccssccsssssccsssscsccccsccccccssssssscccscssssssssssscssssccsccsccccssssscssccccccccssccccscsssccccccssscccssssscsssccscscccsssccscscccccsccscsccsscscccccccccssscsssssssssssssssccscscsccccssssscsscccccccsscccccccsssscsccsccssccccsccssssscccccccsccssssssssssssccccccccccccsccscccccsscssscccccsccccsscccssccccccsssscccsccccscscsccccccscccssscccccccsssscsccssssssssssccccccscssscsscsssssscssssssssssssssssssssssssssscsssccssssssssssssssssssssscssssssssssssssssssssssccscscssssssssssssssssssss" />
  </g>
</svg>
