<?xml version="1.0" encoding="UTF-8" standalone="no"?>
<!-- Created with Inkscape (http://www.inkscape.org/) -->

<svg
   xmlns:dc="http://purl.org/dc/elements/1.1/"
   xmlns:cc="http://creativecommons.org/ns#"
   xmlns:rdf="http://www.w3.org/1999/02/22-rdf-syntax-ns#"
   xmlns:svg="http://www.w3.org/2000/svg"
   xmlns="http://www.w3.org/2000/svg"
   xmlns:sodipodi="http://sodipodi.sourceforge.net/DTD/sodipodi-0.dtd"
   xmlns:inkscape="http://www.inkscape.org/namespaces/inkscape"
   width="200"
   height="200"
   id="svg5596"
   version="1.1"
   inkscape:version="0.48.3.1 r9886"
   sodipodi:docname="Nuevo documento 118">
  <defs
     id="defs5598" />
  <sodipodi:namedview
     id="base"
     pagecolor="#ffffff"
     bordercolor="#666666"
     borderopacity="1.0"
     inkscape:pageopacity="0.0"
     inkscape:pageshadow="2"
     inkscape:zoom="2.8"
     inkscape:cx="92.937991"
     inkscape:cy="21.190026"
     inkscape:document-units="px"
     inkscape:current-layer="layer1"
     showgrid="false"
     inkscape:window-width="1366"
     inkscape:window-height="692"
     inkscape:window-x="0"
     inkscape:window-y="24"
     inkscape:window-maximized="1" />
  <metadata
     id="metadata5601">
    <rdf:RDF>
      <cc:Work
         rdf:about="">
        <dc:format>image/svg+xml</dc:format>
        <dc:type
           rdf:resource="http://purl.org/dc/dcmitype/StillImage" />
        <dc:title></dc:title>
      </cc:Work>
    </rdf:RDF>
  </metadata>
  <g
     inkscape:label="Capa 1"
     inkscape:groupmode="layer"
     id="layer1"
     transform="translate(0,-852.36218)">
    <path
       style="fill:#950003;fill-opacity:1"
       d="m 74.796874,855.4606 c -35.55359,9.80639 -61.72894,35.961 -71.5000005,71.40625 -3.72187798,17.94743 -4.4003594,34.57767 0,50.6875 10.7730305,39.07995 42.1428505,67.25775 82.1875005,73.74995 9.481342,1.5372 30.157916,0.2259 40.250006,-2.5312 34.9235,-9.5408 61.2537,-35.9767 70.96875,-71.21875 3.72188,-17.94743 4.40036,-34.57767 0,-50.6875 -9.77106,-35.44525 -35.94641,-61.59986 -71.5,-71.40625 -17.28552,-3.1924 -33.039723,-4.75283 -50.406256,0 z m 58.562506,61.9375 c 6.95366,0.005 12.94502,0.0297 18.59375,0.0625 l 0,-0.0625 25.46875,0 0,1.6875 -25.46875,0 0,-0.0937 c -4.36212,0.0866 -8.97736,0.15716 -13.96875,0.21875 l -40.531254,0.5 -6.6875,3.28125 c -22.558032,11.11058 -25.001653,41.83845 -4.4375,55.875 9.54192,6.51307 21.647564,7.42623 32.375004,2.40625 0.66378,-0.31062 1.19472,-0.54994 1.75,-0.78125 l 3.40625,-1.71875 0.875,1.65625 c -2.42113,1.18213 -4.99182,2.67951 -7.319,3.64375 -7.07681,2.67817 -17.566353,2.82887 -24.618503,0.16875 -11.526063,-4.3477 -20.801783,-16.18971 -22.343753,-28.53125 -0.754051,-6.03522 1.43545,-15.94488 4.65625,-21.15625 l 2.0625,-3.34375 -18.4375,0 c -16.58138,0 -18.60445,0.19814 -20.09375,1.84375 -2.12353,2.34652 -2.12256,6.51888 0,8.28125 0.95546,0.79332 5.17662,1.61456 10,1.9375 7.11709,0.47652 8.98197,0.98351 12.5625,3.5 5.631749,3.95814 8.9375,10.5342 8.9375,17.71875 0,8.66838 -4.075851,15.10824 -12.15625,19.28125 -2.80364,1.44789 -6.582171,1.90908 -19.09375,2.25 -3.83405,0.10447 -6.91353,0.14931 -9.34375,0.125 l -0.46875,0 -7.09375,0 0,-1.90625 7.5625,0 0,0.0312 c 1.824399,-0.0453 4.02143,-0.0615 6.65625,-0.0625 16.32006,-0.006 20.42206,-0.83876 25.375,-5.1875 5.98156,-5.25188 8.239289,-12.06 6.34375,-19.1875 -2.48384,-9.33965 -9.69138,-14.625 -19.9375,-14.625 -6.4002,0 -11.32446,-1.79359 -12.375,-4.53125 -1.39648,-3.63918 -0.58853,-7.34553 2.03125,-9.40625 2.45896,-1.93422 3.920209,-2.0625 21.9375,-2.0625 12.485259,0 19.54632,-0.37899 19.96875,-1.0625 0.45331,-0.7335 -5.831231,-0.963 -20.53125,-0.75 l -18.53125,0.28125 c -2.61275,0.38328 -3.31152,0.93924 -5.0625,2.84375 -4.59692,5.34842 -2.47962,13.19141 4.25,15.75 1.35799,0.51631 5.14599,0.9375 8.4375,0.9375 6.79396,0 10.508889,1.55394 14.25,6 5.93857,7.05759 5.44668,16.42832 -1.21875,23.09375 -2.022041,2.02205 -5.46865,4.17392 -7.65625,4.78125 -11.01843,1.23797 -20.72107,1.15625 -31.5,1.15625 l 0,-1.90625 6.75,0 c 2.15404,-0.0758 4.79054,-0.125 8,-0.125 13.40832,0 15.28301,-0.21804 19.3125,-2.25 3.25955,-1.64369 5.043809,-3.4592 6.6875,-6.71875 2.78686,-5.52651 2.83061,-8.22756 0.1875,-13.6875 -2.99539,-6.18763 -7.20953,-8.41391 -17.1875,-9.09375 -7.59746,-0.51764 -8.49845,-0.81712 -11.5,-3.8125 -3.6766,-3.66905 -4.30867,-8.45626 -1.78125,-13.34375 2.80101,-5.41657 6.07366,-6.09375 29.875,-6.09375 13.28121,0 21.77518,-0.38341 22.15625,-1 1.05065,-1.69999 -43.976841,-1.31304 -47.28125,0.40625 -9.5111,4.94862 -10.94347,16.95459 -2.78125,23.375 1.781059,1.40097 4.67718,2.07821 10.375,2.46875 8.84379,0.60616 13.0509,2.31814 15.75,6.4375 2.58512,3.94538 2.512829,11.40172 -0.125,15 -3.96195,5.40454 -7.405681,6.3105 -23.6875,6.3125 -3.016711,3.2e-4 -5.59361,-0.0655 -7.875,-0.15625 l -6.875,0 0,-0.78125 0,-1.09375 c 5.43076,0.21109 11.193399,-0.0573 16,-0.15625 l 11.34375,-0.21875 c 4.0107,0.45655 5.047939,-0.51669 7.71875,-3.1875 6.05754,-6.06287 4.26989,-15.70922 -3.53125,-18.96875 -1.895291,-0.7919 -6.23475,-1.4375 -9.625,-1.4375 -7.525441,0 -12.07698,-2.45543 -14.9375,-8.0625 -3.64322,-7.14131 -1.8897,-14.61384 4.59375,-19.5625 2.19908,-1.92634 3.61837,-2.43055 6.625,-2.9375 l 23.90625,-0.4375 c 14.71241,-0.275 27.088972,-0.8375 27.500002,-1.25 0.41103,-0.4125 -10.902093,-0.74285 -25.156252,-0.71875 -32.11371,0.0544 -35.12049,0.86348 -39.53125,10.46875 -2.41063,5.2496 -2.35501,9.90411 0.1875,15.15625 3.06538,6.33223 7.59051,8.71403 17.8125,9.40625 7.85836,0.53216 8.57513,0.78756 11.25,3.78125 1.81807,2.03477 2.78762,3.96845 2.875,5.875 -0.567801,5.97131 -6.043041,10.26087 -10.625,10.28125 l -11.28125,0 c -2.95311,0 -5.398381,-0.0546 -7.5625,-0.125 -0.0452,-10e-4 -0.0802,0.002 -0.125,0 l -7.4375,0 0,-0.875 0,-1.03125 c 5.11849,0.11186 10.56019,0.0344 15.0625,0.0312 14.64086,0 15.111469,-0.0802 17.5,-2.46875 1.463499,-1.46349 2.42525,-3.58324 2.40625,-5.25 -0.0643,-5.65263 -4.18275,-8.28125 -12.9375,-8.28125 -9.43271,0 -16.11345,-4.18837 -19.46875,-12.21875 -3.70669,-8.87135 -0.054,-18.84393 8.78125,-23.90625 2.23355,-1.63009 3.984989,-2.36424 6.625,-2.375 l 66.500006,-0.28125 c 9.48186,-0.0381 18.58524,-0.0376 26.90625,-0.0312 z m 18.25,3.96875 c 3.54757,0.003 6.86046,0.007 9.84375,0.0312 l 15.96875,0 0,1.71875 -25.46875,0 0,-0.125 c -4.35802,0.0884 -8.98034,0.15716 -13.96875,0.21875 -39.558944,0.48838 -40.600774,0.56739 -45.093754,2.78125 -17.647163,8.69543 -22.267873,30.69829 -9.437502,44.96875 5.891363,6.55261 12.774322,9.5994 21.562506,9.5625 7.52656,-0.0616 10.89937,-2.17711 17.4063,-5.5312 l 0.8438,1.68745 -2.46875,1.28125 c -0.61826,0.42548 -1.30403,0.85497 -2.0625,1.28125 -3.31473,1.86298 -6.11818,2.45559 -12.75,2.75 -7.918063,0.35152 -8.924274,0.16365 -14.687504,-2.75 -11.301502,-5.71357 -16.750002,-14.52714 -16.750002,-27.03125 0,-12.42399 6.10278,-22.22922 17.281252,-27.71875 l 5.65625,-2.78125 38.906254,-0.3125 c 5.3469,-0.0419 10.48866,-0.0358 15.21875,-0.0312 z m -11.84375,3.84375 c 8.90799,-0.004 17.48451,0.0803 24.375,0.21875 l 12.8125,0 0,1.6875 -18.78125,0 c -5.25092,0.0585 -11.19553,0.0926 -18.4375,0.0937 -23.26402,0.003 -39.70333,0.40208 -41.968754,1.03125 -5.876,1.63191 -11.944893,6.85678 -15.093752,12.96875 -2.484881,4.82307 -2.7936,6.32658 -2.40625,12.1875 0.78542,11.88381 8.406553,20.60453 20.125006,23.0625 4.19303,0.8795 8.01318,0.46587 13.90625,-1.6875 l 0.0312,-0.0312 6.03125,-3.09375 0.8749,1.68745 -2.46875,1.25 c -0.14233,0.088 -0.31577,0.192 -0.46875,0.28125 -5.56104,3.20566 -13.43868,4.36617 -19.000003,3.3125 -5.317351,-1.07729 -7.511701,-2.24036 -12.46875,-6.71875 -6.215533,-5.61535 -8.285203,-10.42506 -8.312503,-19.25 -0.0202,-6.54729 0.37013,-8.19865 3.0625,-13 3.3516,-5.97697 9.912813,-11.20862 16.250003,-12.96875 2.470923,-0.68628 22.510903,-1.02337 41.937503,-1.03125 z m 0,3.9375 c 10.69208,-0.0296 21.06613,0.0651 28.34375,0.28125 l 8.84375,0 0,1.71875 -5.71875,0 c -1.40625,0.0462 -3,0.0625 -4.75,0.0625 l -11.5,0 0,28.0625 0,27.5625 -2.65625,0 0,-54.46875 c -0.0107,-0.0765 -0.0204,-0.11682 -0.0312,-0.1875 -1e-5,-0.29679 5e-5,-0.64234 0,-0.9375 l -0.25,0 -0.0312,0 -0.4375,-0.0312 c -0.009,0.74229 -0.0233,1.50474 -0.0312,2.25 -0.004,0.0391 0.004,0.0537 0,0.0937 l 0,1.09375 c -0.17057,17.1019 -0.0626,34.90093 -0.0625,52.1875 l -1.03125,0 -1.53125,0 c -0.0237,-18.08143 0.034,-38.26774 0.0312,-55.59375 l -0.71875,-0.0312 c -0.0501,4.05152 -0.10488,8.15516 -0.125,12.28125 -0.0138,0.68667 -0.0197,1.26005 -0.0312,2 l 0,13.4375 0,27.90625 -2.65625,0 c -0.0238,-18.08915 0.034,-38.3206 0.0312,-55.65625 l -0.71875,0 c -0.22458,18.14405 -0.0937,37.20692 -0.0937,55.65625 l -2.6875,0 0,-55.625 -20.71875,0.0312 c -18.08854,0.0192 -21.263054,0.25553 -24.750004,1.875 -14.186133,6.58854 -16.833613,24.55966 -5.15625,34.8125 6.20042,5.44404 14.099354,6.62231 21.531254,3.25 1.15306,-0.52321 2.11752,-0.91501 2.9375,-1.21875 l 2.375,-1.21875 0.87495,1.68745 c -2.26144,1.19098 -4.58224,2.45577 -6.8494,3.35211 -9.72088,3.47956 -22.292314,-1.29978 -27.463057,-11.50836 -4.74952,-9.37696 -3.22608,-18.61766 4.250003,-26.09375 2.7208,-2.72079 6.15158,-5.01547 8.625,-5.75 2.623404,-0.77907 22.716114,-1.22748 42.156254,-1.28125 z"
       id="path5635"
       inkscape:connector-curvature="0"
       sodipodi:nodetypes="cccsscccccccccccsccssccccssccscsssssscccccccssssssccccssssccccssssssssssssssccccccccssscccssssssccsccccccscssccccccccccsssccccssssccccccccccsssscccccccsssscsccccscccccccccccccccccccccccccccccsssccccccssscc" />
  </g>
</svg>
