<?xml version="1.0" encoding="UTF-8" standalone="no"?>
<!-- Created with Inkscape (http://www.inkscape.org/) -->

<svg
   xmlns:dc="http://purl.org/dc/elements/1.1/"
   xmlns:cc="http://creativecommons.org/ns#"
   xmlns:rdf="http://www.w3.org/1999/02/22-rdf-syntax-ns#"
   xmlns:svg="http://www.w3.org/2000/svg"
   xmlns="http://www.w3.org/2000/svg"
   xmlns:sodipodi="http://sodipodi.sourceforge.net/DTD/sodipodi-0.dtd"
   xmlns:inkscape="http://www.inkscape.org/namespaces/inkscape"
   width="200"
   height="200"
   id="svg4915"
   version="1.1"
   inkscape:version="0.48.3.1 r9886"
   sodipodi:docname="Nuevo documento 85">
  <defs
     id="defs4917" />
  <sodipodi:namedview
     id="base"
     pagecolor="#ffffff"
     bordercolor="#666666"
     borderopacity="1.0"
     inkscape:pageopacity="0.0"
     inkscape:pageshadow="2"
     inkscape:zoom="1.4"
     inkscape:cx="110.16898"
     inkscape:cy="117.17789"
     inkscape:document-units="px"
     inkscape:current-layer="layer1"
     showgrid="false"
     inkscape:window-width="1366"
     inkscape:window-height="692"
     inkscape:window-x="0"
     inkscape:window-y="24"
     inkscape:window-maximized="1" />
  <metadata
     id="metadata4920">
    <rdf:RDF>
      <cc:Work
         rdf:about="">
        <dc:format>image/svg+xml</dc:format>
        <dc:type
           rdf:resource="http://purl.org/dc/dcmitype/StillImage" />
        <dc:title></dc:title>
      </cc:Work>
    </rdf:RDF>
  </metadata>
  <g
     inkscape:label="Capa 1"
     inkscape:groupmode="layer"
     id="layer1"
     transform="translate(0,-852.36218)">
    <path
       inkscape:connector-curvature="0"
       id="path4936"
       d="m 81.702325,1050.7621 c -19.6468,-3.5509 -37.18913,-12.9411 -52.17839,-27.9303 -11.3458,-11.3458 -17.84504,-21.2807 -23.1354095,-35.36525 -10.73876,-28.58978 -7.73811,-60.4582 8.2234295,-87.33701 6.61896,-11.14615 22.0239,-26.55109 33.17005,-33.17004 32.68619,-19.41017 71.757935,-19.41017 104.444145,0 11.14615,6.61895 26.55109,22.02389 33.17004,33.17004 19.41017,32.68621 19.41017,71.75795 0,104.44416 -6.61895,11.1461 -22.02389,26.5511 -33.17004,33.17 -21.27125,12.6316 -46.69615,17.3249 -70.523825,13.0184 z m 31.568095,-32.2208 c 12.8966,-6.349 21.4886,-17.892 23.9344,-32.15477 3.23429,-18.86092 -6.92766,-37.86468 -24.69298,-46.17807 -11.54269,-5.40148 -26.811795,-4.88632 -37.383795,1.26128 -1.85682,1.07973 -3.56209,1.77709 -3.7895,1.54968 -0.80128,-0.80128 1.73582,-13.77946 3.70292,-18.94184 2.57056,-6.74608 7.89754,-13.94189 13.12353,-17.72758 4.93496,-3.57486 5.83907,-3.70092 5.83907,-0.8141 0,3.74478 3.99467,10.6493 7.367135,12.7336 10.44809,6.45728 22.67595,0.32694 25.09779,-12.58258 1.01818,-5.42736 -1.18734,-11.38028 -5.89304,-15.90592 -5.50339,-5.29281 -13.62661,-7.6882 -26.071885,-7.68812 -17.71776,10e-5 -31.04046,5.67818 -44.16483,18.82285 -6.7435,6.75392 -8.94959,9.81023 -12.67272,17.55668 -6.23891,12.98087 -8.02094,21.9149 -7.42182,37.20873 0.80418,20.5286 6.86664,34.74429 20.75938,48.67806 5.38305,5.3989 9.61696,8.5753 15,11.2534 11.07131,5.508 16.72656,6.7484 29.52104,6.4747 10.212165,-0.2184 11.514585,-0.4786 17.745305,-3.546 z M 86.390575,999.4456 c -6.37967,-3.8902 -9.95855,-17.37248 -7.42025,-27.95333 1.48453,-6.18821 7.12885,-12.90559 11.53374,-13.72644 2.15448,-0.40149 3.96974,0.0955 6.44072,1.76337 10.726785,7.24039 11.579375,29.89052 1.45958,38.77582 -4.02935,3.53778 -7.53645,3.87078 -12.01379,1.14058 z m 74.929235,-70.21397 c 3.61572,-1.85399 8.68426,-7.15127 8.68426,-9.07618 0,-2.51792 -2.17237,-2.24807 -5.59446,0.69495 -3.60961,3.10428 -5.52072,3.12139 -12.98313,0.11624 -8.34854,-3.362 -11.66338,-3.89649 -16.34586,-2.63563 -6.4834,1.7458 -14.46526,11.02061 -9.48428,11.02061 0.87575,0 2.73644,-0.9 4.13486,-2 3.38226,-2.66048 7.86537,-2.5227 14.39463,0.44239 5.8269,2.64615 13.57383,3.29388 17.19398,1.43762 z m -18.51574,-15.08001 c 1.41011,-1.41011 1.62377,-6.8 0.26955,-6.8 -0.51175,0 -1.07425,1.0125 -1.25,2.25 -0.60026,4.22651 -2.31898,2.25986 -2.62181,-3 -0.29022,-5.04095 -0.20063,-5.25 2.25,-5.25 1.60201,0 2.55226,-0.55848 2.55226,-1.5 0,-0.93333 -0.94444,-1.5 -2.5,-1.5 -2.19048,0 -2.5,-0.43333 -2.5,-3.5 0,-4.42004 -2.37889,-4.72046 -3.85475,-0.48681 -0.57772,1.65725 -1.74675,3.2804 -2.59783,3.60699 -1.70237,0.65326 -2.14398,3.37982 -0.54742,3.37982 0.55,0 1,2.14987 1,4.77749 0,5.89557 2.11275,9.22251 5.8567,9.22251 1.50882,0 3.2833,-0.54 3.9433,-1.2 z m 12.14612,0.25446 c 0.89195,-0.5643 2.17308,-0.52585 3.34314,0.10035 2.6342,1.40978 6.36729,0.26655 6.99737,-2.14288 0.28908,-1.10546 0.11786,-2.26194 -0.38051,-2.56995 -0.49837,-0.30801 -0.90612,-0.0835 -0.90612,0.499 0,0.58246 -0.45,1.05902 -1,1.05902 -0.55,0 -1,-2.4199 -1,-5.37756 0,-3.40893 -0.51646,-5.80617 -1.41077,-6.54839 -2.20735,-1.83193 -7.83741,-2.27515 -10.58923,-0.83361 -2.98535,1.56387 -3.83448,5.22536 -1.42612,6.14953 2.28055,0.87514 4.33459,-1.02399 3.70625,-3.42674 -0.60587,-2.31685 0.95406,-2.59089 2.7093,-0.47597 1.89322,2.28119 0.49346,4.33152 -3.46397,5.07394 -5.04327,0.94612 -6.99396,4.82744 -3.95403,7.86737 1.74221,1.74221 5.15271,2.03166 7.37469,0.62589 z m -2.94612,-3.85446 c 0,-1.03498 2.16502,-3.2 3.2,-3.2 0.44,0 0.8,0.9 0.8,2 0,1.33333 -0.66667,2 -2,2 -1.1,0 -2,-0.36 -2,-0.8 z"
       style="fill:#950003;fill-opacity:1" />
  </g>
</svg>
