<?xml version="1.0" encoding="UTF-8" standalone="no"?>
<!-- Created with Inkscape (http://www.inkscape.org/) -->

<svg
   xmlns:dc="http://purl.org/dc/elements/1.1/"
   xmlns:cc="http://creativecommons.org/ns#"
   xmlns:rdf="http://www.w3.org/1999/02/22-rdf-syntax-ns#"
   xmlns:svg="http://www.w3.org/2000/svg"
   xmlns="http://www.w3.org/2000/svg"
   xmlns:sodipodi="http://sodipodi.sourceforge.net/DTD/sodipodi-0.dtd"
   xmlns:inkscape="http://www.inkscape.org/namespaces/inkscape"
   width="200"
   height="200"
   id="svg3054"
   version="1.1"
   inkscape:version="0.48.3.1 r9886"
   sodipodi:docname="Nuevo documento 5">
  <defs
     id="defs3056" />
  <sodipodi:namedview
     id="base"
     pagecolor="#ffffff"
     bordercolor="#666666"
     borderopacity="1.0"
     inkscape:pageopacity="0.0"
     inkscape:pageshadow="2"
     inkscape:zoom="2.8"
     inkscape:cx="98.417487"
     inkscape:cy="54.02799"
     inkscape:document-units="px"
     inkscape:current-layer="layer1"
     showgrid="false"
     inkscape:window-width="1366"
     inkscape:window-height="692"
     inkscape:window-x="0"
     inkscape:window-y="24"
     inkscape:window-maximized="1" />
  <metadata
     id="metadata3059">
    <rdf:RDF>
      <cc:Work
         rdf:about="">
        <dc:format>image/svg+xml</dc:format>
        <dc:type
           rdf:resource="http://purl.org/dc/dcmitype/StillImage" />
        <dc:title></dc:title>
      </cc:Work>
    </rdf:RDF>
  </metadata>
  <g
     inkscape:label="Capa 1"
     inkscape:groupmode="layer"
     id="layer1"
     transform="translate(0,-852.36218)">
    <path
       inkscape:connector-curvature="0"
       id="path3093"
       d="m 79.604925,1050.6485 c -40.2207,-8.9575 -70.0501797,-39.2637 -78.1910597,-79.44062 -2.50904,-12.38262 -1.59958004,-34.43413 1.90201,-46.11773 3.57536,-11.92971 6.7633397,-18.78748 13.3021897,-28.61476 7.12818,-10.713 16.89382,-20.47864 27.60682,-27.60682 9.72256,-6.46917 16.51271,-9.64411 28.61476,-13.37968 18.4558,-3.42661 37.087195,-5.26022 54.277135,0 17.64259,5.44579 31.85898,13.80635 43.82695,25.77431 11.96796,11.96797 20.32852,26.18436 25.77431,43.82695 3.42661,18.4558 5.26021,37.08721 0,54.27714 -3.73557,12.10205 -6.91051,18.8922 -13.37968,28.61481 -9.89269,14.8678 -26.30772,28.911 -41.80495,35.7647 -20.86521,7.3882 -41.10711,11.3736 -61.928485,6.9017 z m 24.380235,-30.1697 c 0.004,-0.9625 -0.75733,-6.2864 -1.69144,-11.8308 -1.45725,-8.64943 -1.50608,-10.54499 -0.34392,-13.3507 l 1.35448,-3.26999 11.95475,0.71828 c 6.57511,0.39506 14.37674,1.2813 17.33696,1.96943 4.84568,1.12641 7.01182,0.63888 4.38222,-0.9863 -0.55,-0.33992 -1,-2.74604 -1,-5.34693 0,-4.69198 0.0488,-4.76124 6.25,-8.87378 3.4375,-2.2797 11.19233,-9.12514 17.23295,-15.2121 9.80294,-9.87814 10.6981,-11.06719 8.33178,-11.06719 -3.74616,0 -5.81473,-0.96811 -5.81473,-2.72134 0,-0.82904 1.41377,-5.96713 3.14171,-11.41796 1.72795,-5.45083 2.94822,-10.1041 2.71172,-10.3406 -0.23649,-0.2365 -2.21277,0.20498 -4.39171,0.98106 -2.17895,0.77608 -6.57071,1.43081 -9.75947,1.45495 -5.01518,0.038 -6.12875,-0.31326 -8.25,-2.60213 -1.34874,-1.45532 -2.45225,-3.57014 -2.45225,-4.69962 0,-1.59213 -1.14516,-0.76876 -5.0961,3.6641 -5.92076,6.64295 -13.38153,12.09597 -15.4589,11.29881 -2.10372,-0.80728 -1.8338,-3.15864 2.05183,-17.87419 3.31564,-12.55691 4.40754,-20.3186 2.75317,-19.57068 -0.4125,0.18648 -3.12042,1.58557 -6.0176,3.10909 -6.03901,3.1757 -7.08952,2.92315 -12.2396,-2.94247 -3.69372,-4.20692 -6.49996,-10.02036 -7.52507,-15.58902 -0.88088,-4.78522 -2.054575,-4.78522 -2.935455,0 -1.02511,5.56866 -3.83135,11.3821 -7.52507,15.58902 -5.15008,5.86562 -6.20059,6.11817 -12.2396,2.94247 -2.89718,-1.52352 -5.6051,-2.92261 -6.0176,-3.10909 -1.65437,-0.74792 -0.56247,7.01377 2.75317,19.57068 3.88563,14.71555 4.15555,17.06691 2.05183,17.87419 -2.07737,0.79716 -9.53814,-4.65586 -15.4589,-11.29881 -3.95094,-4.43286 -5.0961,-5.25623 -5.0961,-3.6641 0,1.12948 -1.10351,3.2443 -2.45225,4.69962 -2.12125,2.28887 -3.23482,2.6401 -8.25,2.60213 -3.18876,-0.0241 -7.58052,-0.67887 -9.75947,-1.45495 -2.17894,-0.77608 -4.15522,-1.21756 -4.39171,-0.98106 -0.2365,0.2365 0.98377,4.88977 2.71171,10.3406 1.72795,5.45083 3.14172,10.58892 3.14172,11.41796 0,1.75323 -2.06857,2.72134 -5.81473,2.72134 -2.36632,0 -1.47116,1.18905 8.33178,11.06719 6.04062,6.08696 13.79545,12.9324 17.23295,15.2121 6.20122,4.11254 6.25,4.1818 6.25,8.87378 0,2.60089 -0.45,5.00701 -1,5.34693 -2.6296,1.62518 -0.46346,2.11271 4.38222,0.9863 2.96022,-0.68813 10.76185,-1.57437 17.33696,-1.96943 l 11.95475,-0.71828 1.35448,3.26999 c 1.16216,2.80571 1.11333,4.70127 -0.34392,13.3507 -2.35801,13.9959 -2.4288,13.5808 2.31551,13.5808 3.140205,0 4.001485,-0.3762 4.006945,-1.75 z"
       style="fill:#950003;fill-opacity:1"
       sodipodi:nodetypes="cssssccsccscccsscssssssssscssssssscsssssscssssscscssssssssscsssc" />
  </g>
</svg>
