<?xml version="1.0" encoding="UTF-8" standalone="no"?>
<!-- Created with Inkscape (http://www.inkscape.org/) -->

<svg
   xmlns:dc="http://purl.org/dc/elements/1.1/"
   xmlns:cc="http://creativecommons.org/ns#"
   xmlns:rdf="http://www.w3.org/1999/02/22-rdf-syntax-ns#"
   xmlns:svg="http://www.w3.org/2000/svg"
   xmlns="http://www.w3.org/2000/svg"
   xmlns:sodipodi="http://sodipodi.sourceforge.net/DTD/sodipodi-0.dtd"
   xmlns:inkscape="http://www.inkscape.org/namespaces/inkscape"
   width="200"
   height="200"
   id="svg5393"
   version="1.1"
   inkscape:version="0.48.3.1 r9886"
   sodipodi:docname="Nuevo documento 110">
  <defs
     id="defs5395" />
  <sodipodi:namedview
     id="base"
     pagecolor="#ffffff"
     bordercolor="#666666"
     borderopacity="1.0"
     inkscape:pageopacity="0.0"
     inkscape:pageshadow="2"
     inkscape:zoom="0.98994949"
     inkscape:cx="137.17294"
     inkscape:cy="124.69318"
     inkscape:document-units="px"
     inkscape:current-layer="layer1"
     showgrid="false"
     inkscape:window-width="1366"
     inkscape:window-height="692"
     inkscape:window-x="0"
     inkscape:window-y="24"
     inkscape:window-maximized="1" />
  <metadata
     id="metadata5398">
    <rdf:RDF>
      <cc:Work
         rdf:about="">
        <dc:format>image/svg+xml</dc:format>
        <dc:type
           rdf:resource="http://purl.org/dc/dcmitype/StillImage" />
        <dc:title></dc:title>
      </cc:Work>
    </rdf:RDF>
  </metadata>
  <g
     inkscape:label="Capa 1"
     inkscape:groupmode="layer"
     id="layer1"
     transform="translate(0,-852.36218)">
    <path
       style="fill:#950003;fill-opacity:1"
       d="m 73.360761,855.72691 c -18.09563,5.49433 -31.56372,13.42909 -44.0625,26 -13.13148,13.20726 -21.55024,27.90802 -26.65625,46.46875 -3.05970004,11.12222 -3.05970004,37.22153 0,48.34375 9.43902,34.31149 33.88833,60.53839 66.0625,70.87499 18.85062,6.1352 41.106189,6.3127 57.656249,1.5 35.18988,-10.363 60.47912,-35.9713 70.1875,-71.06249 3.83711,-18.07998 4.43093,-34.84661 0,-51 -9.70072,-35.06347 -34.64675,-60.33384 -70.1875,-71.125 -17.93343,-2.92178 -34.233989,-5.66055 -52.999999,0 z m 20.53125,11.75 c 5.37391,-0.18553 13.240749,2.17715 19.187499,5.78125 4.01883,2.43567 6.63013,5.17439 10.46875,10.9375 12.03606,18.07038 21.03684,41.15311 26.3125,67.4375 1.05355,5.24899 1.51543,5.94042 5.0625,7.75 4.89169,2.49556 10.9375,7.74844 10.9375,9.5 0,1.02065 -0.72335,1.12192 -3.21875,0.40625 -6.22707,-1.7859 -12.11338,-1.09763 -18.6875,2.1875 -7.05729,3.52657 -11.01929,8.1862 -13.625,16.03125 -0.91694,2.76066 -2.25432,8.25037 -2.96875,12.1875 -0.88675,5.11864 -1.78054,9.77084 -1.625,14.37504 0.0951,3.3533 -0.0713,4.7737 -0.25,4.8437 -0.91192,-11.3039 1.49144,-27.22116 6.25,-37.21874 2.73198,-5.31263 6.64422,-8.7563 13.53125,-11.90625 5.20792,-2.38197 6.69856,-2.62942 13,-2.125 l 7.09375,0.5625 -3.375,-2.875 c -1.85656,-1.5749 -5.26164,-3.85656 -7.59375,-5.09375 l -4.25,-2.25 -2.21875,-10.59375 c -4.77433,-22.83745 -13.48692,-44.71061 -24.59375,-61.75 -7.31529,-11.22264 -13.39245,-15.13988 -26.624999,-17.125 -5.15755,0.0244 -6.85384,-0.0185 -10.90625,1.375 -4.66586,1.43776 -10.11719,4.76058 -15.90625,9.71875 -1.50485,1.28886 -2.29227,2.00109 -2.53125,2.59375 l -1.03125,0 c -1.99949,4.40918 -2.75,6.64004 -2.75,10.75 -0.165,1.77504 -0.45507,3.78654 -0.84375,5.375 -0.60561,2.475 -1.42146,11.25 -1.8125,19.5 -0.8518,10.2457 0.33688,16.25633 1.5625,25 0.49585,4.48601 1.09025,8.62067 1.77689,13.21891 0.0325,0.57598 0.29171,1.11481 0.47311,1.56234 0.62608,1.58529 1.01991,1.43771 3.65625,-1.375 0.83352,-0.88928 1.90774,-1.83622 3.0625,-2.78125 l 1.25,0 c -3.5032,2.87374 -6.79192,6.58017 -9.03125,10.34375 -2.70464,4.54562 -2.88211,4.45495 -1.0625,-0.46875 0.30489,-0.825 -0.9736,-0.0586 -2.84375,1.6875 -2.65302,2.47702 -4.00611,3.04818 -6.15625,2.625 -3.40326,-0.66982 -5.75,1.14756 -5.75,4.4375 0,1.98468 0.35208,2.31659 1.75,1.71875 0.9625,-0.41163 2.94915,-0.96724 4.40625,-1.21875 l 2.65625,-0.4375 c 0.53397,4.50841 0.57752,9.47356 0.46875,13.71875 -0.20985,8.35427 0.20349,16.51284 0.8125,24.93754 0.16123,0.8724 0.32365,1.8342 0.5,2.9687 0.76355,4.9124 1.23639,9.1074 1.03125,9.3125 -3.22903,-10.8006 -3.39032,-23.60845 -3.46875,-34.12499 l -0.15625,-15.84375 -2.75,0.625 c -5.33298,1.25672 -5.71912,1.16062 -6.03125,-1.53125 -0.43604,-3.76054 2.35021,-6.21056 6.34375,-5.5625 2.71791,0.44106 3.77086,-0.0406 6.84375,-3.1875 1.9922,-2.04021 3.6488,-4.57944 3.6875,-5.65625 0.002,-0.0558 -0.002,-0.0726 0,-0.125 -2.35578,-12.05297 -3.74614,-24.61388 -3.90625,-36.40625 -0.0899,-6.36559 0.47545,-15.59058 1.28125,-20.5 0.8058,-4.90942 1.6557,-10.0625 1.875,-11.4375 0.64601,-2.80013 1.42367,-5.53304 3,-7.625 4.70611,-4.87378 15.37591,-11.90502 20.59375,-13.125 l -0.0312,-0.0312 c 2.12175,-0.96285 5.05592,-0.98448 7.125,-1.09375 z m -26.15625,16.15625 c 0.20102,0.26317 0.46114,0.54688 0.78125,0.90625 2.88417,3.23788 7.67477,4.8287 14.5625,4.8125 1.07776,-0.003 2.29363,-0.0854 3.53125,-0.1875 0.0613,-0.005 0.12592,0.005 0.1875,0 6.58685,-0.32834 13.945849,-1.85804 20.343749,-4.53125 l 1.03125,-0.4375 c 1.07512,-0.25876 1.90679,-0.31444 2.0625,-0.0625 0.24798,0.40125 0.95816,10.84648 1.59375,23.21875 0.0898,1.74735 0.17878,3.35885 0.25,4.9375 0.0878,9.70831 0.0493,20.18935 -0.125,27.59375 -0.03,0.3214 -0.03,0.64908 -0.0625,0.96875 -0.50328,4.94528 -1.13825,9.2928 -1.5625,10.90625 -0.008,0.009 -0.0233,0.0231 -0.0312,0.0312 -0.12642,0.13178 -0.24325,0.1982 -0.34375,0.1875 -1.67554,-0.17826 -9.52645,-5.9375 -8.09375,-5.9375 1.87191,0 6.84375,-4.74173 6.84375,-6.53125 0,-0.695 -1.53625,0.28625 -3.40625,2.15625 -0.9802,0.9802 -2.06357,1.81856 -3.0625,2.40625 -0.0191,0.0112 -0.0435,0.0202 -0.0625,0.0312 -0.67482,0.29956 -1.35621,0.59448 -2.0625,0.875 -0.009,0.004 -0.0224,-0.004 -0.0312,0 -0.188419,0.0346 -0.368199,0.0344 -0.531249,0.0312 -2.05163,-0.0386 -1.89321,-0.2762 1.249999,-1.9375 3.47075,-1.83442 7.58937,-6.66063 6.5625,-7.6875 -0.27438,-0.27439 -0.95903,0.36828 -1.53125,1.4375 -0.2674,0.49963 -0.79222,1.1501 -1.40625,1.78125 -0.043,0.0442 -0.081,0.0809 -0.125,0.125 l -0.65625,0.5625 c -1.51033,1.33133 -2.96043,2.19582 -3.21875,1.9375 -0.0484,-0.0484 -0.0596,-0.18809 -0.0312,-0.375 l 1,-1.4375 c 4.89015,-7.0001 7.00562,-17.09395 7.96875,-38.4375 0.50025,-11.08586 0.36653,-14.9375 -0.5,-14.9375 -0.64153,0 -4.4257,0.92013 -8.40625,2.03125 -14.514149,4.05142 -26.002999,3.66161 -30.249999,-1.03125 -0.55777,-0.61633 -1.19315,-1.08107 -1.71875,-1.3125 -0.78258,-0.29833 -0.86327,-0.0763 -1.25,0.375 l -1.375,2.875 c 0.48978,-1.81185 1.03601,-3.87193 1.875,-5.34375 z m 1.6875,5.4375 c 0.17044,6e-4 0.35631,0.048 0.5625,0.0937 0.0331,0.0214 0.0603,0.0411 0.0937,0.0625 4.07896,2.25112 4.05852,2.01243 7.90625,2.625 0.11667,0.0182 0.22532,0.0458 0.34375,0.0625 0.0237,0.003 0.0368,-0.003 0.0625,0 4.72367,0.65663 10.84311,0.18735 18.21875,-1.40625 4.111279,-0.8883 6.737239,-1.46204 8.406249,-1.0625 l 0.78125,0.875 1.4375,1.5625 c 0.5842,2.12874 0.4904,5.94979 0.25,11.9375 -0.15056,-0.38952 -0.28125,1.30101 -0.28125,4.53125 0,0.45418 -0.004,0.76292 0,1.15625 -0.1436,2.43512 -0.3034,4.74283 -0.53125,6.90625 -0.0426,-0.0428 -0.0956,-0.038 -0.15625,0.0312 -0.20049,0.22917 -0.62438,2.88125 -0.9375,5.90625 -0.12402,1.19812 -0.16791,2.00062 -0.1875,2.625 -0.34056,1.71741 -0.704,3.28619 -1.125,4.75 -0.008,0.0139 -0.0229,0.0168 -0.0312,0.0312 -0.35453,0.59961 -0.84996,1.6556 -1.375,3 -1.05008,2.6888 -2.907499,5.95202 -4.156249,7.28125 -0.17343,0.18461 -0.26261,0.28126 -0.40625,0.4375 -0.51279,0.41883 -1.03766,0.80619 -1.59375,1.09375 -3.92092,2.02758 -10.82371,3.26098 -13.96875,2.5 -3.42631,-0.82904 -9.62332,-9.95401 -12.03125,-17.75 -1.07471,-3.47951 -1.9203,-8.97023 -1.875,-12.1875 0.0453,-3.21727 -0.19807,-6.78928 -0.5625,-7.9375 -0.46015,-1.44982 -0.22778,-2.06852 1.15625,-2.53125 0.0199,-0.007 0.0421,-0.0247 0.0625,-0.0312 l 1.09375,-0.0937 c 1.76209,-0.17045 4.12459,0.17895 5.25,0.78125 0.28136,0.15057 0.53666,0.27387 0.78125,0.375 0.62367,0.49286 1.1807,1.08672 1.65625,1.8125 1.35656,2.07037 1.35924,2.99743 -0.125,8.90625 -1.24893,4.97203 -1.63206,7.41779 -0.58142,8.55311 0.40357,0.3565 0.75625,0.60036 1.07636,0.76592 1.01901,0.44693 1.97814,0.31333 2.94256,0.27473 1.09609,-0.038 1.94387,-0.16312 2.53125,-0.3125 3.69225,-0.45296 5.60365,-1.92143 3.65625,-3.125 -0.47901,-0.29604 -1.03427,-0.15542 -1.21875,0.3125 -0.48258,1.22412 -7.68298,2.19415 -8.34375,1.125 -0.30528,-0.49395 0.12356,-3.55078 0.96875,-6.8125 2.07821,-8.02008 1.99562,-8.84813 -1.375,-12.21875 -2.14116,-2.14117 -3.87989,-2.9375 -6.5,-2.9375 l -3.59375,0 0,-4.90625 c 0,-4.78656 0.15598,-6.78128 1.40625,-7.03125 0.0938,-0.0188 0.20539,-0.0317 0.3125,-0.0312 z m 26.75,11.1875 c -3.42251,0.0749 -7.45588,1.28184 -10,3.34375 -1.88715,1.52946 -1.88345,1.56295 0.53125,0.90625 0.047,-0.0122 0.0752,-0.0181 0.125,-0.0312 1.46298,-0.37228 5.5753,-0.87737 9.3125,-1.15625 1.73758,-0.12966 2.98168,-0.22526 3.906249,-0.34375 l 2.3125,0.28125 -1.09375,-0.5 c 1.07306,-0.27406 0.88305,-0.65235 -0.0625,-1.34375 -1.15791,-0.84668 -2.977739,-1.20117 -5.031249,-1.15625 z m -2.28125,5.84375 c -1.56292,-0.0471 -3.13568,0.25777 -4.1875,0.9375 -1.17692,0.76058 -0.91749,0.988 1.15625,1 0.68088,0.004 1.34886,0.17459 1.90625,0.40625 0.0462,0.16605 0.0937,0.33522 0.0937,0.5 0,1.04427 0.85638,1.45458 1.71875,1.3125 0.45419,0.29969 1.16418,0.11693 2.5625,-0.53125 2.3198,-1.07533 2.40753,-1.30115 0.875,-2.4375 -1.00002,-0.74151 -2.56208,-1.14044 -4.125,-1.1875 z m -19.90625,0.0312 c -0.8472,0.0873 -1.7292,0.57775 -2.84375,1.46875 -1.89882,1.51795 -1.89761,1.53765 0.1875,0.96875 0.16159,-0.0441 0.32063,-0.0682 0.46875,-0.0937 0.0851,0.10792 0.16742,0.21468 0.28125,0.34375 0.76667,0.86924 1.61105,1.32005 2.3125,1.40625 0.43621,0.96711 0.71803,0.84483 2.09375,-0.53125 1.50155,-1.50195 1.5334,-1.82494 0.21875,-2.65625 -1.05552,-0.66746 -1.87155,-0.99352 -2.71875,-0.90625 z m 16.28125,42.0625 c 0.38799,-0.0169 0.76904,-0.003 1.15625,0 10.325599,0.0803 20.288499,7.22648 26.499999,20.46875 2.6615,5.67399 3.1558,8.02781 3.5,16.46875 0.2964,7.26961 -0.0602,11.54058 -1.34375,16.28129 -1.9621,7.2485 -7.75815,16.9252 -12.09375,20.1562 -2.0215,1.5064 -2.3931,2.1654 -1.25,2.1875 2.4942,0.048 8.575,-6.7874 11.8125,-13.25 7.3456,-14.66283 6.49625,-33.95627 -1.90625,-48.24999 5.0786,7.36601 8.15625,16.97638 8.15625,27.5 0,23.17619 -14.9195,41.96879 -33.312499,41.96879 -12.73563,0 -23.77659,-9.0404 -29.375,-22.2813 -1.24668,-1.9837 -1.63622,-4.2868 -2.15625,-6.25 0.0872,0.021 0.20265,0.2043 0.34375,0.5938 1.45534,4.0152 4.09322,8.7768 6.75,12.6562 0.87963,1.0687 1.82191,2.1897 2.6875,3.1563 1.23032,1.3738 2.18248,2.5343 2.625,3.1875 0.75398,0.6234 1.41775,1 1.90625,1 1.027,0 0.1477,-1.5546 -2.625,-4.5625 -16.1253,-17.4939 -15.39395,-47.87496 1.53125,-63.34379 5.37881,-4.91592 11.27393,-7.43423 17.09375,-7.6875 z m -0.3125,2.875 c -5.91242,0.13441 -11.51047,2.76053 -16.53125,7.78125 -17.1782,17.1782 -13.10155,49.35004 5.65625,63.09374 4.0039,2.9336 18.1299,3.2841 23.124999,0.2188 4.66088,-2.8603 11.9266,-10.591 14.5625,-17.1875 3.03386,-11.62093 4.21317,-24.57027 -0.40625,-34.53129 -3.7982,-8.10748 -7.7896,-12.79819 -13.5,-15.90625 -3.963799,-2.15734 -7.908849,-3.31291 -11.718749,-3.4375 -0.39687,-0.013 -0.79334,-0.0403 -1.1875,-0.0312 z m 0.875,1.5 c 14.854599,0 26.906249,15.70701 26.906249,35.09375 0,19.38674 -12.05165,35.09374 -26.906249,35.09374 -14.8546,0 -26.875,-15.707 -26.875,-35.09374 0,-19.38674 12.0204,-35.09375 26.875,-35.09375 z m 64.531249,17.28125 c 5.8361,0 8.08077,0.5366 13.5,3.1875 3.575,1.74877 7.60779,4.05185 8.9375,5.125 l 2.40625,1.96875 -3.59375,7.53125 c -6.21033,13.07714 -16.01974,25.21554 -27.125,33.53124 -2.46786,1.8479 -4.22488,2.1563 -12.09375,2.1563 -5.05916,0 -9.47709,-0.2896 -9.84375,-0.6563 -0.96933,-0.9693 -0.78466,-11.7411 0.34375,-19.8437 2.25638,-16.20218 6.84752,-24.97997 15.8125,-30.25004 3.8981,-2.2915 5.82124,-2.75 11.65625,-2.75 z m -101.749999,4.5 c 0.96975,0 1.27625,3.38739 1.28125,14.25 0.003,7.8375 0.67824,18.70414 1.5,24.15624 0.82175,5.4521 1.46875,10.0646 1.46875,10.25 0,1.216 -5.2066,-0.025 -7.59375,-1.8125 -4.16032,-3.1153 -15.21274,-13.8633 -17.53125,-17.0625 l -1.96875,-2.75 2.75,-4.74999 c 6.09398,-10.58506 16.6391,-22.28125 20.09375,-22.28125 z"
       id="path5414"
       inkscape:connector-curvature="0"
       sodipodi:nodetypes="cssscccccccssssssssccccsccccccsccscccsccccsccssssssccccsccccssscccsccccccccccccccccccccssscccccsccsccsccssssccccccscccsccccscccscccsscssssscccccssccccccsssscsccssccscccsscsccscssccsccccsscccsscccscssccccscsssccssscscccssssssscccsccsssscssscscssscccs" />
  </g>
</svg>
