<?xml version="1.0" encoding="UTF-8" standalone="no"?>
<!-- Created with Inkscape (http://www.inkscape.org/) -->

<svg
   xmlns:dc="http://purl.org/dc/elements/1.1/"
   xmlns:cc="http://creativecommons.org/ns#"
   xmlns:rdf="http://www.w3.org/1999/02/22-rdf-syntax-ns#"
   xmlns:svg="http://www.w3.org/2000/svg"
   xmlns="http://www.w3.org/2000/svg"
   xmlns:sodipodi="http://sodipodi.sourceforge.net/DTD/sodipodi-0.dtd"
   xmlns:inkscape="http://www.inkscape.org/namespaces/inkscape"
   width="200"
   height="200"
   id="svg3696"
   version="1.1"
   inkscape:version="0.48.3.1 r9886"
   sodipodi:docname="Nuevo documento 35">
  <defs
     id="defs3698" />
  <sodipodi:namedview
     id="base"
     pagecolor="#ffffff"
     bordercolor="#666666"
     borderopacity="1.0"
     inkscape:pageopacity="0.0"
     inkscape:pageshadow="2"
     inkscape:zoom="0.98994949"
     inkscape:cx="24.592541"
     inkscape:cy="116.01393"
     inkscape:document-units="px"
     inkscape:current-layer="layer1"
     showgrid="false"
     inkscape:window-width="1366"
     inkscape:window-height="692"
     inkscape:window-x="0"
     inkscape:window-y="24"
     inkscape:window-maximized="1" />
  <metadata
     id="metadata3701">
    <rdf:RDF>
      <cc:Work
         rdf:about="">
        <dc:format>image/svg+xml</dc:format>
        <dc:type
           rdf:resource="http://purl.org/dc/dcmitype/StillImage" />
        <dc:title></dc:title>
      </cc:Work>
    </rdf:RDF>
  </metadata>
  <g
     inkscape:label="Capa 1"
     inkscape:groupmode="layer"
     id="layer1"
     transform="translate(0,-852.36218)">
    <path
       inkscape:connector-curvature="0"
       id="path3751"
       d="m 79.604923,1050.6485 c -40.2207,-8.9575 -70.0501798,-39.2637 -78.1910598,-79.4406 -2.50904,-12.38262 -1.59957999,-34.43413 1.90201,-46.11773 3.57536,-11.92971 6.7633398,-18.78748 13.3021898,-28.61476 7.12818,-10.713 16.89382,-20.47864 27.60682,-27.60682 9.72256,-6.46917 16.51271,-9.64411 28.61476,-13.37968 18.4558,-3.42661 37.087197,-5.26022 54.277137,0 17.64259,5.44579 31.85898,13.80635 43.82695,25.77431 11.96796,11.96797 20.32852,26.18436 25.77431,43.82695 3.42661,18.4558 5.26021,37.08721 0,54.27714 -3.73557,12.10205 -6.91051,18.8922 -13.37968,28.61479 -9.89269,14.8678 -26.30772,28.911 -41.80495,35.7646 -20.86521,7.3883 -41.10711,11.3737 -61.928487,6.9018 z m 1.71808,-33.8052 c 2.36189,-3.0966 2.65521,-4.3643 2.65521,-11.4755 0,-14.4242 2.77562,-28.45108 8.07728,-40.81936 1.08514,-2.53152 2.13871,-4.42658 2.34127,-4.21124 0.20255,0.21535 -0.45781,3.54154 -1.46749,7.39154 -2.22257,8.47493 -2.51194,22.22187 -0.56579,26.87965 2.65623,6.35721 13.281437,10.20561 21.075527,7.63331 2.04091,-0.6736 5.13464,-2.44221 6.87497,-3.93031 1.74033,-1.48809 5.05645,-3.25244 7.36916,-3.92078 11.05597,-3.19498 17.10983,-15.48945 12.75693,-25.90739 -0.84597,-2.02471 -2.30847,-4.54527 -3.25,-5.60126 -4.59573,-5.15445 -21.01179,-15.48746 -28.81246,-18.13585 -4.27227,-1.45048 -4.81782,-1.44868 -6.4421,0.0213 -0.976,0.88327 -2.320257,2.92341 -2.987247,4.53365 -0.66698,1.61024 -1.58514,2.92771 -2.04034,2.92771 -0.45521,0 -0.17562,-1.56055 0.62132,-3.46788 3.153657,-7.54777 1.20484,-9.55206 -14.05103,-14.45098 -16.55295,-5.31543 -30.11937,-6.1762 -36.65574,-2.32573 -4.20002,2.47415 -6.84426,8.15206 -6.84426,14.69649 0,6.26232 0.88779,8.57875 5.0008,13.0481 1.51844,1.65 3.06728,4.72718 3.44186,6.83817 0.9537,5.37476 7.669,11.94891 13.7763,13.48675 4.85622,1.22281 9.57669,0.74484 13.85619,-1.403 2.80854,-1.40958 9.06892,-7.95409 10.92334,-11.41909 2.4624,-4.60104 1.91924,-0.94848 -0.90948,6.1159 -1.6297,4.06999 -3.88376,10.77076 -5.00901,14.89062 -1.90289,6.96695 -6.08,29.38128 -6.08,32.62518 0,2.1591 3.15795,0.1582 6.34479,-4.0199 z m 68.155207,-68.37797 c 4.30701,-2.12159 6.45326,-4.22802 8.60641,-8.44675 2.54795,-4.99226 2.49963,-13.18872 -0.10641,-18.05103 -1.1,-2.05236 -2,-5.01604 -2,-6.58596 0,-12.33068 -12.86817,-22.73334 -22.93455,-18.54034 -6.82529,2.84298 -16.58049,14.40577 -23.06146,27.33465 -4.97907,9.93271 -6.24257,14.06044 -4.82629,15.76696 2.94543,3.54902 17.08682,8.42509 29.40705,10.13979 6.71322,0.93434 10.58817,0.51416 14.91525,-1.61732 z m -45.38666,-15.7599 c 4.27849,-9.67223 7.05407,-30.40937 4.93114,-36.84191 -1.63359,-4.94983 -5.43645,-9.28394 -10.341717,-11.78642 -5.2854,-2.69641 -13.92579,-2.24987 -18.42253,0.9521 -1.69893,1.20975 -3.9195,2.20205 -4.9346,2.20512 -10.92521,0.033 -21.73689,11.76485 -19.89418,21.58734 1.38628,7.38948 15.61715,18.42815 32.70491,25.3687 4.039,1.64052 8.83144,2.99528 10.64987,3.01057 2.968907,0.025 3.510367,-0.43369 5.307107,-4.4955 z"
       style="fill:#950003;fill-opacity:1"
       sodipodi:nodetypes="cssssccsccscccsscsssssssssssssssssssssssccsssssssssssssssscs" />
  </g>
</svg>
