<?xml version="1.0" encoding="UTF-8" standalone="no"?>
<!-- Created with Inkscape (http://www.inkscape.org/) -->

<svg
   xmlns:dc="http://purl.org/dc/elements/1.1/"
   xmlns:cc="http://creativecommons.org/ns#"
   xmlns:rdf="http://www.w3.org/1999/02/22-rdf-syntax-ns#"
   xmlns:svg="http://www.w3.org/2000/svg"
   xmlns="http://www.w3.org/2000/svg"
   xmlns:sodipodi="http://sodipodi.sourceforge.net/DTD/sodipodi-0.dtd"
   xmlns:inkscape="http://www.inkscape.org/namespaces/inkscape"
   width="200"
   height="200"
   id="svg6542"
   version="1.1"
   inkscape:version="0.48.3.1 r9886"
   sodipodi:docname="Nuevo documento 163">
  <defs
     id="defs6544" />
  <sodipodi:namedview
     id="base"
     pagecolor="#ffffff"
     bordercolor="#666666"
     borderopacity="1.0"
     inkscape:pageopacity="0.0"
     inkscape:pageshadow="2"
     inkscape:zoom="1.4"
     inkscape:cx="-6.6335763"
     inkscape:cy="154.12912"
     inkscape:document-units="px"
     inkscape:current-layer="layer1"
     showgrid="false"
     inkscape:window-width="1366"
     inkscape:window-height="692"
     inkscape:window-x="0"
     inkscape:window-y="24"
     inkscape:window-maximized="1" />
  <metadata
     id="metadata6547">
    <rdf:RDF>
      <cc:Work
         rdf:about="">
        <dc:format>image/svg+xml</dc:format>
        <dc:type
           rdf:resource="http://purl.org/dc/dcmitype/StillImage" />
        <dc:title></dc:title>
      </cc:Work>
    </rdf:RDF>
  </metadata>
  <g
     inkscape:label="Capa 1"
     inkscape:groupmode="layer"
     id="layer1"
     transform="translate(0,-852.36218)">
    <path
       inkscape:connector-curvature="0"
       id="path6581"
       d="m 87.249685,1051.2271 c -40.91468,-5.7621 -73.35387,-34.6897 -83.97269,-74.88251 -3.42615607,-16.97856 -3.99623176,-32.93516 0,-48.23777 9.58651,-36.28542 36.3187,-63.01761 72.60412,-72.60411 16.978557,-3.42617 32.935145,-3.99624 48.237765,0 36.28543,9.5865 63.01761,36.31869 72.60411,72.60412 3.42617,16.97856 3.99624,32.93514 0,48.23776 -11.4883,43.48381 -48.28571,73.42641 -92.54958,75.30881 -5.870375,0.2497 -13.486055,0.058 -16.923725,-0.4263 z m 93.429165,-80.72451 -2.82114,-0.42345 0.23482,-18.61206 c 0.29566,-23.43371 1.6886,-21.90458 -18.53483,-20.34679 -21.19808,1.63287 -50.42273,7.49314 -79.749835,15.99184 l -6.69213,1.93931 -9.30787,-3.00275 c -18.14483,-5.85358 -38.4733,-9.14277 -42.65949,-6.90239 -2.05008,1.09717 -2.14838,1.83065 -2.14838,16.03126 0,10.96951 -0.32859,15.01407 -1.25,15.38587 -0.6875,0.27741 36.325,0.47249 82.25,0.4335 45.925005,-0.039 82.230495,-0.26144 80.678855,-0.49434 z M 20.309865,964.72571 c 0.006,-3.3 0.1923,-4.52944 0.41486,-2.73209 0.22257,1.79735 0.21797,4.49735 -0.0102,6 -0.22817,1.50265 -0.41027,0.0321 -0.40466,-3.26791 z m 2,0 c 0.006,-3.3 0.1923,-4.52944 0.41486,-2.73209 0.22257,1.79735 0.21797,4.49735 -0.0102,6 -0.22817,1.50265 -0.41027,0.0321 -0.40466,-3.26791 z m 5,0 c 0.006,-3.3 0.1923,-4.52944 0.41486,-2.73209 0.22257,1.79735 0.21797,4.49735 -0.0102,6 -0.22817,1.50265 -0.41027,0.0321 -0.40466,-3.26791 z m 5.01021,-0.5 c 0,-3.575 0.18149,-5.0375 0.40332,-3.25 0.22183,1.7875 0.22183,4.7125 0,6.5 -0.22183,1.7875 -0.40332,0.325 -0.40332,-3.25 z m 41.67992,-3 c 0,-4.95 0.1125,-9.00487 0.25,-9.01082 0.1375,-0.006 2.3875,-0.65943 5,-1.45217 l 4.75,-1.44135 0,10.45217 0,10.45217 -5,0 -5,0 z m 14.21725,-2.16074 0.28275,-11.16075 6.25,-1.76064 6.249995,-1.76063 0,12.92138 0,12.92138 -6.532745,0 -6.53275,0 z m 14.782745,1.66074 0,-9.5 7,0 7,0 0,9.5 0,9.5 -7,0 -7,0 z m 16,-0.5 0,-10 6,0 6,0 0,10 0,10 -6,0 -6,0 z m 16,0 c 0,-9.11111 0.16667,-10 1.875,-10 1.03125,0 3.28125,-0.28125 5,-0.625 l 3.125,-0.625 0,10.625 0,10.625 -5,0 -5,0 z m 14,-0.625 0,-10.625 3.125,0.625 c 1.71875,0.34375 3.51875,0.625 4,0.625 0.48125,0 0.875,4.5 0.875,10 l 0,10 -4,0 -4,0 z m 10.32007,4.625 c 0,-3.575 0.1815,-5.0375 0.40333,-3.25 0.22182,1.7875 0.22182,4.7125 0,6.5 -0.22183,1.7875 -0.40333,0.325 -0.40333,-3.25 z m 2.67993,-4 c 0,-9.33333 0.13333,-10 2,-10 1.86667,0 2,0.66667 2,10 0,9.33333 -0.13333,10 -2,10 -1.86667,0 -2,-0.66667 -2,-10 z m 8.66667,9.33333 c -1.09132,-1.09131 -0.77782,-18.33333 0.33333,-18.33333 0.59649,0 1,3.83333 1,9.5 0,9.50254 -0.0871,10.07957 -1.33333,8.83333 z m 3.33333,-4.83333 c 0,-3.025 0.45,-5.5 1,-5.5 0.55,0 1,2.475 1,5.5 0,3.025 -0.45,5.5 -1,5.5 -0.55,0 -1,-2.475 -1,-5.5 z m -144.657185,-3 c 0.004,-4.4 0.17944,-6.07561 0.39069,-3.72357 0.21125,2.35204 0.20827,5.95204 -0.007,8 -0.21488,2.04796 -0.38772,0.12357 -0.38409,-4.27643 z m 5.81509,5.5 c 0,-1.375 0.22697,-1.9375 0.50438,-1.25 0.27742,0.6875 0.27742,1.8125 0,2.5 -0.27741,0.6875 -0.50438,0.125 -0.50438,-1.25 z m 3.14177,-3 c 0,-3.025 0.18746,-4.2625 0.41659,-2.75 0.22912,1.5125 0.22912,3.9875 0,5.5 -0.22913,1.5125 -0.41659,0.275 -0.41659,-2.75 z m 2.70033,3 c 0,-1.11111 0.66667,-2 1.5,-2 0.83334,0 1.5,0.88889 1.5,2 0,1.11111 -0.66666,2 -1.5,2 -0.83333,0 -1.5,-0.88889 -1.5,-2 z m 10.1579,0 c 0,-1.375 0.22697,-1.9375 0.50438,-1.25 0.27742,0.6875 0.27742,1.8125 0,2.5 -0.27741,0.6875 -0.50438,0.125 -0.50438,-1.25 z m 2,0 c 0,-1.375 0.22697,-1.9375 0.50438,-1.25 0.27742,0.6875 0.27742,1.8125 0,2.5 -0.27741,0.6875 -0.50438,0.125 -0.50438,-1.25 z m 2,0 c 0,-1.375 0.22697,-1.9375 0.50438,-1.25 0.27742,0.6875 0.27742,1.8125 0,2.5 -0.27741,0.6875 -0.50438,0.125 -0.50438,-1.25 z m 7,0 c 0,-1.375 0.22697,-1.9375 0.50438,-1.25 0.27742,0.6875 0.27742,1.8125 0,2.5 -0.27741,0.6875 -0.50438,0.125 -0.50438,-1.25 z m 1.8421,0 c 0,-1.1 0.45,-2 1,-2 0.55,0 1,0.9 1,2 0,1.1 -0.45,2 -1,2 -0.55,0 -1,-0.9 -1,-2 z m 3,0 c 0,-1.1 0.45,-2 1,-2 0.55,0 1,0.9 1,2 0,1.1 -0.45,2 -1,2 -0.55,0 -1,-0.9 -1,-2 z m 101.299655,-3 c 0,-3.025 0.18747,-4.2625 0.41659,-2.75 0.22913,1.5125 0.22913,3.9875 0,5.5 -0.22912,1.5125 -0.41659,0.275 -0.41659,-2.75 z m -133.067645,-3 c 0,-1.925 0.20579,-2.7125 0.45732,-1.75 0.25153,0.9625 0.25153,2.5375 0,3.5 -0.25153,0.9625 -0.45732,0.175 -0.45732,-1.75 z m 5.76799,2 c 0,-0.55 0.42344,-1 0.94099,-1 0.51754,0 1.21909,0.45 1.55901,1 0.33992,0.55 -0.0835,1 -0.94098,1 -0.85746,0 -1.55902,-0.45 -1.55902,-1 z m 12.07895,-0.58333 c 0.048,-1.16495 0.28494,-1.4019 0.60417,-0.60417 0.28887,0.72187 0.25334,1.58437 -0.079,1.91667 -0.33229,0.33229 -0.56864,-0.25834 -0.52522,-1.3125 z m 2.07895,-0.41667 c 0,-1.375 0.22697,-1.9375 0.50438,-1.25 0.27742,0.6875 0.27742,1.8125 0,2.5 -0.27741,0.6875 -0.50438,0.125 -0.50438,-1.25 z m 7.07411,-1 c 0,-1.925 0.20579,-2.7125 0.45732,-1.75 0.25153,0.9625 0.25153,2.5375 0,3.5 -0.25153,0.9625 -0.45732,0.175 -0.45732,-1.75 z m 1.76799,-0.44098 c 0,-1.89254 0.45,-3.7191 1,-4.05902 0.60393,-0.37325 1,0.98962 1,3.44098 0,2.23246 -0.45,4.05902 -1,4.05902 -0.55,0 -1,-1.54844 -1,-3.44098 z m 3,-0.5 c 0,-2.16754 0.45,-4.2191 1,-4.55902 0.61081,-0.3775 1,1.15628 1,3.94098 0,2.50746 -0.45,4.55902 -1,4.55902 -0.55,0 -1,-1.77344 -1,-3.94098 z m -46.80505,-4.55902 c 0.0204,-1.65 0.2445,-2.20394 0.49804,-1.23097 0.25355,0.97297 0.23687,2.32297 -0.037,3 -0.27392,0.67703 -0.48137,-0.11903 -0.46099,-1.76903 z m 2,-1 c 0.0204,-1.65 0.2445,-2.20394 0.49804,-1.23097 0.25355,0.97297 0.23687,2.32297 -0.037,3 -0.27392,0.67703 -0.48137,-0.11903 -0.46099,-1.76903 z m 5,0 c 0.0204,-1.65 0.2445,-2.20394 0.49804,-1.23097 0.25355,0.97297 0.23687,2.32297 -0.037,3 -0.27392,0.67703 -0.48137,-0.11903 -0.46099,-1.76903 z M 174,954.22571 c 0,-1.65 0.44999,-3 1,-3 0.55,0 1,1.35 1,3 0,1.65 -0.45,3 -1,3 -0.55001,0 -1,-1.35 -1,-3 z m -14.76801,-1 c 0,-1.925 0.2058,-2.7125 0.45733,-1.75 0.25153,0.9625 0.25153,2.5375 0,3.5 -0.25153,0.9625 -0.45733,0.175 -0.45733,-1.75 z m 8.96295,0.5 c 0.0204,-1.65 0.2445,-2.20394 0.49804,-1.23097 0.25354,0.97297 0.23687,2.32297 -0.0371,3 -0.27393,0.67703 -0.48137,-0.11903 -0.46099,-1.76903 z m -147.962935,-5.5 c 0,-1.925 0.20579,-2.7125 0.45732,-1.75 0.25153,0.9625 0.25153,2.5375 0,3.5 -0.25153,0.9625 -0.45732,0.175 -0.45732,-1.75 z m 1.92589,1 c 0,-1.375 0.22697,-1.9375 0.50438,-1.25 0.27742,0.6875 0.27742,1.8125 0,2.5 -0.27741,0.6875 -0.50438,0.125 -0.50438,-1.25 z m 81.025675,-2.69204 c 0.28485,-2.42345 0.9899,-2.86144 7.06642,-4.38978 l 6.75,-1.69774 0,4.38978 0,4.38978 -7.06642,0 -7.06642,0 z m 66.81642,-5.30796 c 0,-4.66667 0.41667,-8 1,-8 0.58333,0 1,3.33333 1,8 0,4.66667 -0.41667,8 -1,8 -0.58333,0 -1,-3.33333 -1,-8 z m 4,4.5 c 0,-1.925 0.45,-3.5 1,-3.5 0.55,0 1,1.575 1,3.5 0,1.925 -0.45,3.5 -1,3.5 -0.55,0 -1,-1.575 -1,-3.5 z m -55,-1.39301 c 0,-4.29606 0.38775,-4.59271 7.37215,-5.64009 l 4.62785,-0.69399 0,5.11355 0,5.11354 -6,0 -6,0 z m 16,-1.58794 c 0,-5.04126 0.20055,-5.52259 2.5,-6 1.375,-0.28548 3.625,-0.75262 5,-1.0381 2.46409,-0.5116 2.5,-0.42541 2.5,6 l 0,6.51905 -5,0 -5,0 z m 14,-1.51905 0,-7 4,0 4,0 0,7 0,7 -4,0 -4,0 z m 10.28601,2.5 c 0.008,-2.75 0.20172,-3.75631 0.43157,-2.23625 0.22986,1.52006 0.22371,3.77006 -0.0136,5 -0.23741,1.22994 -0.42547,-0.0138 -0.41797,-2.76375 z m 2.71399,-3 c 0,-6.83333 0.17778,-7.5 2,-7.5 1.82222,0 2,0.66667 2,7.5 0,6.83333 -0.17778,7.5 -2,7.5 -1.82222,0 -2,-0.66667 -2,-7.5 z m 6.25218,4 c 0.0111,-2.2 0.21589,-2.98225 0.45508,-1.73834 0.23919,1.24391 0.23011,3.04391 -0.0202,4 -0.25027,0.95609 -0.44598,-0.0617 -0.43488,-2.26166 z m 5.74782,-8 c 0,-1.925 0.45,-3.5 1,-3.5 0.55,0 1,1.575 1,3.5 0,1.925 -0.45,3.5 -1,3.5 -0.55,0 -1,-1.575 -1,-3.5 z m -5.80505,-1 c 0.0204,-1.65 0.2445,-2.20394 0.49804,-1.23097 0.25354,0.97297 0.23687,2.32297 -0.0371,3 -0.27388,0.67703 -0.48132,-0.11903 -0.46094,-1.76903 z m -9.03706,-0.5 c 0,-1.375 0.22698,-1.9375 0.50439,-1.25 0.27741,0.6875 0.27741,1.8125 0,2.5 -0.27741,0.6875 -0.50439,0.125 -0.50439,-1.25 z"
       style="fill:#950003;fill-opacity:1"
       sodipodi:nodetypes="cccccccscscssscsssssscssccssccsscssssscscccccscccccccccccccccccccccccccccssscccccsccsssccccsssssssssssssssssscscccsccsssssssssssccssccssccssccsssssssssssssssssssssssscscccsccssssssssssssssscsccccsccccscccssssssssscscccsssssccssscccccssssssssssssscccccssssscccsccccccccccsccssssssscsssssscsccssss" />
  </g>
</svg>
