<?xml version="1.0" encoding="UTF-8" standalone="no"?>
<!-- Created with Inkscape (http://www.inkscape.org/) -->

<svg
   xmlns:dc="http://purl.org/dc/elements/1.1/"
   xmlns:cc="http://creativecommons.org/ns#"
   xmlns:rdf="http://www.w3.org/1999/02/22-rdf-syntax-ns#"
   xmlns:svg="http://www.w3.org/2000/svg"
   xmlns="http://www.w3.org/2000/svg"
   xmlns:sodipodi="http://sodipodi.sourceforge.net/DTD/sodipodi-0.dtd"
   xmlns:inkscape="http://www.inkscape.org/namespaces/inkscape"
   width="200"
   height="200"
   id="svg4326"
   version="1.1"
   inkscape:version="0.48.3.1 r9886"
   sodipodi:docname="Nuevo documento 51">
  <defs
     id="defs4328" />
  <sodipodi:namedview
     id="base"
     pagecolor="#ffffff"
     bordercolor="#666666"
     borderopacity="1.0"
     inkscape:pageopacity="0.0"
     inkscape:pageshadow="2"
     inkscape:zoom="0.7"
     inkscape:cx="193.28643"
     inkscape:cy="108.7957"
     inkscape:document-units="px"
     inkscape:current-layer="layer1"
     showgrid="false"
     inkscape:window-width="1366"
     inkscape:window-height="692"
     inkscape:window-x="0"
     inkscape:window-y="24"
     inkscape:window-maximized="1" />
  <metadata
     id="metadata4331">
    <rdf:RDF>
      <cc:Work
         rdf:about="">
        <dc:format>image/svg+xml</dc:format>
        <dc:type
           rdf:resource="http://purl.org/dc/dcmitype/StillImage" />
        <dc:title></dc:title>
      </cc:Work>
    </rdf:RDF>
  </metadata>
  <g
     inkscape:label="Capa 1"
     inkscape:groupmode="layer"
     id="layer1"
     transform="translate(0,-852.36218)">
    <path
       inkscape:connector-curvature="0"
       id="path4367"
       d="M 80,1050.8001 C 49.41718,1044.3998 23.69848,1024.5467 10.0179,996.77877 2.14612,980.80116 0.5,973.09734 0.5,952.23521 c 0,-20.86213 1.64612,-28.56595 9.5179,-44.54356 9.68177,-19.65141 25.78713,-35.75677 45.43854,-45.43854 15.97761,-7.87178 23.68143,-9.5179 44.54356,-9.5179 20.86213,0 28.56595,1.64612 44.54356,9.5179 19.65141,9.68177 35.75677,25.78713 45.43854,45.43854 7.87178,15.97761 9.5179,23.68143 9.5179,44.54356 0,20.86213 -1.64612,28.56595 -9.5179,44.54356 -12.44106,25.25203 -36.64671,45.28613 -63.4821,52.54163 -10.20788,2.7599 -36.40016,3.5934 -46.5,1.4797 z"
       style="fill:#fefefe" />
    <path
       inkscape:connector-curvature="0"
       id="path4365"
       d="M 82.5,1050.9352 C 44.41591,1044.0071 13.80712,1015.7497 3.29601,977.81565 0.84054,968.95397 0.54546,966.22627 0.54546,952.38907 c 0,-13.8372 0.29508,-16.5649 2.75055,-25.42658 C 15.59569,882.57353 54.68385,852.45885 100,852.45885 c 45.31615,0 84.40431,30.11468 96.70399,74.50364 2.45547,8.86168 2.75055,11.58938 2.75055,25.42658 0,13.8372 -0.29508,16.5649 -2.75055,25.42658 -12.36517,44.62535 -51.63319,74.70055 -97.20399,74.44825 -5.5,-0.03 -13.15,-0.6284 -17,-1.3287 z m -3.5,-27.919 c 0,-0.2051 -0.97772,-2.5676 -2.1727,-5.25 -1.64384,-3.69 -2.28322,-7.4837 -2.62674,-15.5856 l -0.45404,-10.70841 -5.79101,5.03687 c -4.30078,3.74074 -8.19255,5.93874 -15.12326,8.54154 -5.13274,1.9276 -10.12339,4.2154 -11.09035,5.0839 -1.67746,1.5068 -1.67746,1.6701 0,3.5619 0.96696,1.0905 3.93601,3.7175 6.5979,5.8377 l 4.83979,3.855 12.91021,0 c 7.10061,0 12.9102,-0.1678 12.9102,-0.3729 z m 21.22524,-2.5834 c -0.15112,-1.351 -0.82612,-2.8066 -1.5,-3.2347 -0.8065,-0.5124 -0.49812,-0.7836 0.90231,-0.7937 2.74683,-0.02 4.57293,-2.2494 3.79909,-4.6386 -0.33433,-1.0322 0.45653,-0.077 1.75746,2.1233 1.90451,3.2207 3.02065,4.063 5.72899,4.3237 6.47428,0.623 7.66315,-0.2535 9.57505,-7.0586 2.0832,-7.4149 3.17118,-21.76457 1.83166,-24.15816 -0.81577,-1.4577 -1.29621,-1.19119 -3.54159,1.96461 -2.39384,3.36444 -11.12465,10.42842 -12.88913,10.42842 -0.41739,0 -1.89738,0.43286 -3.28887,0.96193 -2.46544,0.9373 -2.49262,1.0513 -1.0651,4.4679 1.7082,4.0883 1.81311,4.9034 0.52894,4.1098 -0.51477,-0.3182 -2.76128,-0.1684 -4.99224,0.3329 -4.44902,0.9996 -4.45763,0.9013 -0.40183,-4.5852 l 2.37492,-3.2127 -3.27245,-1.65373 c -5.56266,-2.811 -13.54916,-9.23432 -15.42055,-12.40233 -0.98071,-1.66021 -2.08514,-3.01857 -2.45428,-3.01857 -1.42901,0 -3.14737,13.51466 -2.6144,20.56183 0.76619,10.1308 2.21395,12.8543 7.04488,13.2528 3.28677,0.2711 4.28688,-0.1869 7.23605,-3.314 1.88218,-1.9957 3.14989,-2.919 2.81713,-2.0518 -0.33277,0.8671 -0.0735,2.2171 0.57624,3 0.88022,1.0606 0.89695,1.9546 0.0656,3.5079 -1.59405,2.9785 -0.38314,4.1984 3.81975,3.8481 3.22413,-0.2687 3.62457,-0.5956 3.38234,-2.7611 z m 49.3899,0.7904 c 1.58667,-1.1912 4.5381,-3.7241 6.55874,-5.6286 l 3.67387,-3.4628 -2.77388,-2.334 c -1.59806,-1.3447 -7.39428,-3.6504 -13.67387,-5.4394 -10.14927,-2.8915 -11.19007,-3.4278 -15.11158,-7.78734 l -4.21158,-4.68199 -0.0558,4.5 c -0.0788,6.35553 -2.50242,17.06303 -4.94665,21.85413 -1.14093,2.2364 -2.07441,4.3091 -2.07441,4.606 0,0.2969 6.68931,0.5399 14.86514,0.5399 13.69002,0 15.0932,-0.1712 17.75,-2.1659 z M 115.9492,988.83982 c 3.39941,-3.17975 5.83181,-6.75259 8.08004,-11.86841 2.14687,-4.88516 3.74545,-7.27978 4.80702,-7.20075 1.14435,0.0852 1.78502,-1.14385 2.28401,-4.38159 0.38144,-2.475 1.62554,-6.525 2.76467,-9 2.4306,-5.28102 2.70683,-10.26398 0.66301,-11.9602 -1.20122,-0.99693 -1.71944,-0.56514 -3,2.49968 -0.85137,2.03762 -1.54795,4.17481 -1.54795,4.74931 0,0.5745 -0.25611,0.78844 -0.56912,0.47542 -0.31302,-0.31302 -0.67284,-5.67552 -0.7996,-11.91667 -0.27231,-13.40745 -1.82788,-18.18605 -6.27289,-19.26996 -5.12768,-1.25039 -37.67643,-1.84017 -40.51383,-0.73411 -3.87444,1.51031 -7.00904,10.32473 -7.61262,21.40653 -0.26212,4.8125 -0.83782,8.75 -1.27934,8.75 -0.44151,0 -1.85499,-1.9075 -3.14105,-4.23888 -1.28607,-2.33138 -3.1037,-4.38629 -4.0392,-4.56644 -2.32156,-0.4471 -3.29103,3.84902 -1.93652,8.58153 1.58489,5.5374 3.06386,11.37493 3.6638,14.46114 0.66817,3.43722 4.92113,6.48826 6.83274,4.90177 1.05766,-0.87778 1.54906,0.14946 2.45484,5.13171 0.98553,5.42087 1.68772,6.72847 5.41149,10.07701 7.3961,6.65083 9.34907,7.27433 26.59414,8.49047 1.48403,0.10465 4.00848,-1.44309 7.15636,-4.38756 z m 27.40646,-57.03454 c 21.8149,-5.62309 14.55694,-14.21793 -16.05266,-19.00947 -15.02257,-2.35159 -47.14504,-2.35419 -60.803,-0.005 -11.68146,2.0093 -20.84085,5.98191 -21.30545,9.2406 -0.2033,1.42588 0.6371,2.81358 2.51274,4.14915 3.03696,2.16251 17.05548,6.77899 17.92992,5.90456 0.29202,-0.29203 0.78011,-2.38863 1.08465,-4.65911 0.42305,-3.15405 1.18012,-4.45209 3.2084,-5.50095 10.56674,-5.46428 52.84276,-4.84617 61.6138,0.90084 1.62512,1.06482 2.25594,2.45018 2.25594,4.95431 0,6.18268 0.4498,6.37215 9.55566,4.02499 z m -11.0608,-44.46433 c -2.12288,-1.97057 -17.00156,-4.26852 -30.51768,-4.71332 -11.25794,-0.37049 -16.96494,-0.0808 -24.25,1.23089 L 68,885.57393 l 0,8.03841 0,8.03842 3.75,-0.64128 c 17.70074,-3.02692 35.2152,-2.79944 54.25,0.70459 l 6.5,1.19656 0.29486,-7.41592 c 0.16217,-4.07876 -0.0628,-7.74795 -0.5,-8.15376 z"
       style="fill:#950003;fill-opacity:1" />
  </g>
</svg>
