<?xml version="1.0" encoding="UTF-8" standalone="no"?>
<!-- Created with Inkscape (http://www.inkscape.org/) -->

<svg
   xmlns:dc="http://purl.org/dc/elements/1.1/"
   xmlns:cc="http://creativecommons.org/ns#"
   xmlns:rdf="http://www.w3.org/1999/02/22-rdf-syntax-ns#"
   xmlns:svg="http://www.w3.org/2000/svg"
   xmlns="http://www.w3.org/2000/svg"
   xmlns:sodipodi="http://sodipodi.sourceforge.net/DTD/sodipodi-0.dtd"
   xmlns:inkscape="http://www.inkscape.org/namespaces/inkscape"
   width="200"
   height="200"
   id="svg4259"
   version="1.1"
   inkscape:version="0.48.3.1 r9886"
   sodipodi:docname="Urueta.svg">
  <defs
     id="defs4261" />
  <sodipodi:namedview
     id="base"
     pagecolor="#ffffff"
     bordercolor="#666666"
     borderopacity="1.0"
     inkscape:pageopacity="0.0"
     inkscape:pageshadow="2"
     inkscape:zoom="0.35"
     inkscape:cx="-366.18289"
     inkscape:cy="310.96129"
     inkscape:document-units="px"
     inkscape:current-layer="layer1"
     showgrid="false"
     inkscape:window-width="1366"
     inkscape:window-height="692"
     inkscape:window-x="0"
     inkscape:window-y="24"
     inkscape:window-maximized="1" />
  <metadata
     id="metadata4264">
    <rdf:RDF>
      <cc:Work
         rdf:about="">
        <dc:format>image/svg+xml</dc:format>
        <dc:type
           rdf:resource="http://purl.org/dc/dcmitype/StillImage" />
        <dc:title />
      </cc:Work>
    </rdf:RDF>
  </metadata>
  <g
     inkscape:label="Capa 1"
     inkscape:groupmode="layer"
     id="layer1"
     transform="translate(0,-852.36218)">
    <path
       inkscape:connector-curvature="0"
       id="path4298"
       d="m 85.484347,1051.2293 c -12.83198,-1.8316 -30.30164,-8.6493 -41.5,-16.1959 C 14.028577,1014.8464 -3.2550826,977.69458 0.72785738,942.05216 5.9954974,894.91326 42.568037,858.34072 89.706937,853.07308 c 62.057953,-6.9348 116.468703,47.47595 109.533903,109.5339 -6.32768,56.62492 -57.67491,96.62712 -113.756493,88.62232 z m 53.277873,-51.99533 c 20.71376,-7.12658 35.12096,-29.16896 32.7697,-50.13619 -2.84654,-25.3838 -22.97096,-43.76821 -47.91069,-43.76821 -13.6864,0 -24.492043,4.29672 -34.881913,13.87034 -6.61977,6.09969 -23.23819,16.83533 -34.25497,22.12898 -10.21758,4.90963 -26.17377,10.44516 -33.47237,11.61225 -2.23958,0.35813 -4.28125,0.98978 -4.53706,1.40369 -0.57071,0.92343 12.16818,9.79852 19.00943,13.24373 24.18381,12.1788 50.78538,4.39762 68.162123,-19.93797 7.90619,-11.07238 13.74521,-14.67221 23.88252,-14.72388 19.24224,-0.0981 29.32886,18.59304 19.14689,35.48034 -5.6762,9.41426 -16.14126,12.54203 -25.6711,7.67252 -5.91754,-3.02371 -8.52043,-6.78248 -8.52043,-12.3041 0,-3.57974 0.5727,-4.98013 3.04958,-7.45702 3.8277,-3.8277 10.45042,-5.31306 10.45042,-2.34384 0,1.26687 -1.4262,2.56919 -4.25,3.88084 -3.76074,1.74686 -4.28563,2.4042 -4.55953,5.71005 -0.81504,9.83742 15.35592,14.06709 23.05411,6.03002 6.03335,-6.29894 7.71564,-18.02049 3.49735,-24.36807 -4.78293,-7.19721 -16.56799,-9.97643 -25.36491,-5.98168 -4.12354,1.87253 -5.19414,3.01492 -14.03703,14.97814 -5.223773,7.06704 -13.912013,14.01299 -20.835123,16.65695 -2.47768,0.94623 -4.50487,2.03952 -4.50487,2.42953 0,1.90341 8.19219,13.03523 12.08846,16.42621 5.62231,4.89319 16.827963,10.2833 23.911543,11.5018 7.10748,1.2227 16.76421,0.4086 23.77787,-2.00443 z"
       style="fill:#950003;fill-opacity:1" />
  </g>
</svg>
