<?xml version="1.0" encoding="UTF-8" standalone="no"?>
<!-- Created with Inkscape (http://www.inkscape.org/) -->

<svg
   xmlns:dc="http://purl.org/dc/elements/1.1/"
   xmlns:cc="http://creativecommons.org/ns#"
   xmlns:rdf="http://www.w3.org/1999/02/22-rdf-syntax-ns#"
   xmlns:svg="http://www.w3.org/2000/svg"
   xmlns="http://www.w3.org/2000/svg"
   xmlns:sodipodi="http://sodipodi.sourceforge.net/DTD/sodipodi-0.dtd"
   xmlns:inkscape="http://www.inkscape.org/namespaces/inkscape"
   width="200"
   height="200"
   id="svg5263"
   version="1.1"
   inkscape:version="0.48.3.1 r9886"
   sodipodi:docname="Nuevo documento 103">
  <defs
     id="defs5265" />
  <sodipodi:namedview
     id="base"
     pagecolor="#ffffff"
     bordercolor="#666666"
     borderopacity="1.0"
     inkscape:pageopacity="0.0"
     inkscape:pageshadow="2"
     inkscape:zoom="0.7"
     inkscape:cx="161.7123"
     inkscape:cy="109.88386"
     inkscape:document-units="px"
     inkscape:current-layer="layer1"
     showgrid="false"
     inkscape:window-width="1366"
     inkscape:window-height="692"
     inkscape:window-x="0"
     inkscape:window-y="24"
     inkscape:window-maximized="1" />
  <metadata
     id="metadata5268">
    <rdf:RDF>
      <cc:Work
         rdf:about="">
        <dc:format>image/svg+xml</dc:format>
        <dc:type
           rdf:resource="http://purl.org/dc/dcmitype/StillImage" />
        <dc:title></dc:title>
      </cc:Work>
    </rdf:RDF>
  </metadata>
  <g
     inkscape:label="Capa 1"
     inkscape:groupmode="layer"
     id="layer1"
     transform="translate(0,-852.36218)">
    <path
       style="fill:#950003;fill-opacity:1"
       d="m 99.422223,852.71862 c -8.99116,0.046 -18.1333,1.31612 -27.1875,3.9375 -52.52616,15.20745 -82.87668,70.47732 -67.6249997,123.15625 11.1295497,38.44113 45.1486297,66.94053 84.9062497,71.12503 4.39314,0.4623 8.27077,0.9269 8.625,1 2.733707,0.5646 22.573677,-2.4273 29.624997,-4.4688 52.52056,-15.2058 82.87592,-70.51118 67.625,-123.18748 -12.59367,-43.49823 -52.64769,-71.784 -95.968747,-71.5625 z m 2.031247,14.84375 c 0.82342,-0.0925 1.99733,0.49391 3.40625,1.84375 2.56725,2.45958 2.84856,2.52777 6.65625,1.21875 4.77086,-1.64016 5.36119,-1.39195 4.71875,1.96875 -0.34801,1.82051 -1.29119,2.73949 -3.21875,3.125 -2.4165,0.48331 -2.67097,0.90564 -2.34375,3.875 0.21794,1.97777 -0.19321,3.87135 -1,4.625 -1.49354,1.39517 -1.09742,4.2355 1,7.3125 0.7395,1.08488 1.34375,4.17863 1.34375,6.875 0,4.89836 -0.0179,4.90358 2.9375,4.3125 3.33256,-0.6665 10.0625,1.71526 10.0625,3.5625 0,0.65424 1.6875,-0.42049 3.75,-2.375 5.65804,-5.36177 8.3366,-6.84375 12.3125,-6.84375 2.88769,0 3.84059,-0.50407 4.75,-2.5 1.41699,-3.10997 3.14497,-3.24328 3.25,-0.25 0.0434,1.2375 0.31634,1.6875 0.59375,1 0.93295,-2.31209 2.38396,-1.27586 1.75,1.25 -0.35435,1.41186 -0.2181,2.5 0.34375,2.5 0.54717,0 1.30697,2.1375 1.6875,4.75 0.38053,2.6125 1.85844,6.69404 3.25,9.09375 2.21109,3.81297 2.36635,4.66408 1.25,6.75 -0.70258,1.31279 -1.93594,2.40625 -2.71875,2.40625 -0.78281,0 -2.57033,0.9 -3.96875,2 -1.39842,1.1 -3.87153,2 -5.5,2 -1.62846,0 -4.21245,0.74799 -5.75,1.65625 -3.76287,2.22278 -5.15051,10.41317 -2.3125,13.71875 6.75231,7.86478 7.86363,11.52896 5.25,17.4375 -1.0772,2.4352 -1.9375,5.20281 -1.9375,6.125 0,1.84545 -5.48278,7.40527 -8.25,8.375 -1.26503,0.44332 -1.75,0.0827 -1.75,-1.28125 0,-3.04683 1.07669,-5.03125 2.75,-5.03125 0.85782,0 1.27792,-0.28457 0.9375,-0.625 -0.34043,-0.34042 0.66428,-2.84074 2.21875,-5.5625 2.39251,-4.18914 2.67024,-5.31466 1.71875,-7.375 -0.61821,-1.33864 -1.94078,-2.68783 -2.90625,-3 -0.96546,-0.31218 -3.05072,-1.68028 -4.65625,-3.03125 -3.30533,-2.78124 -2.95304,-3.25253 -5.125,6.59375 -0.66727,3.025 -1.83906,7.20762 -2.59375,9.28125 -1.69224,4.6497 -1.76253,10.89372 -0.15625,12.5 0.79774,0.79774 5.15556,1.21875 13,1.21875 l 11.8125,0 0,2.5 c 0,2.27093 0.38942,2.51045 4.25,2.53125 2.3375,0.0126 7.4,0.82751 11.25,1.8125 5.63995,1.44292 6.1875,3.40867 6.1875,4.96875 0,0.25228 -0.0184,0.39578 -0.0312,0.53125 l -139.062497,0 c -0.33625,-0.31482 -0.40625,-0.79039 -0.40625,-1.53125 0,-1.56008 0.67255,-2.52583 6.3125,-3.96875 3.85,-0.98499 9.05752,-1.7999 11.59375,-1.8125 4.37511,-0.0217 4.57843,-0.15931 4.125,-2.53125 -0.44716,-2.33919 -0.19554,-2.5 3.65625,-2.5 4.14374,0 4.97261,-0.71489 3.0625,-2.625 -0.71351,-0.71351 -0.40281,-2.53989 1,-5.8125 2.38989,-5.57538 2.66317,-7.73602 0.59375,-5 -0.8075,1.06769 -1.4825,1.54234 -1.5,1.0625 -0.0175,-0.47985 -0.7242,-0.28947 -1.5625,0.40625 -2.36207,1.96035 -2.63907,0.68277 -0.90625,-4.125 0.88537,-2.45651 1.49605,-6.83979 1.375,-9.90625 -0.1194,-3.025 -0.28315,-10.09328 -0.34375,-15.6875 -0.10344,-9.54469 0.0603,-10.33102 2.40625,-12.84375 4.77286,-5.11209 20.04275,-11.46875 27.53125,-11.46875 2.53205,0 4.72198,-0.60019 5.46875,-1.5 0.68469,-0.825 2.21054,-1.5 3.40625,-1.5 2.4917,0 2.86355,-3.02425 0.8125,-6.6875 -2.59979,-4.64334 -0.69411,-16.69954 2.812497,-17.8125 3.48564,-1.10629 2.28873,-3.24895 -1.749997,-3.125 -5.01035,0.15376 -5.57834,-2.4105 -1,-4.59375 2.923967,-1.39433 3.315647,-1.98595 2.937497,-4.5625 -0.341757,-2.32855 0.16007,-3.59987 1.21875,-3.71875 z m 18.96875,38.5625 c -0.91487,0.0508 -1.76367,0.67435 -2.40625,1.875 -0.81852,1.52943 -0.6614,2.16501 0.71875,2.96875 2.47286,1.4401 3.06511,1.34721 4.1875,-0.75 0.68002,-1.27064 0.63716,-2.20659 -0.15625,-3 -0.64157,-0.64157 -1.3017,-1.01319 -1.9375,-1.09375 -0.13245,-0.0168 -0.27555,-0.007 -0.40625,0 z m 22.375,8.09375 c -0.58714,0.043 -0.7342,0.81211 -1.09375,2.59375 -0.30523,1.5125 -0.87764,3.5375 -1.25,4.5 -1.19145,3.07974 3.20011,2.04905 5.59375,-1.3125 1.19745,-1.68167 2.01,-3.14417 1.8125,-3.25 -0.1975,-0.10584 -1.36371,-0.75 -2.59375,-1.4375 -1.29503,-0.72382 -2.01208,-1.12718 -2.46875,-1.09375 z m 6.875,4.4375 c -0.0739,-0.003 -0.14051,0.0113 -0.21875,0.0312 -0.52163,0.13309 -1.10977,0.73999 -1.8125,1.8125 -1.34869,2.05836 -1.41122,2.5625 -0.28125,2.5625 2.10369,0 4.15983,-2.87142 2.9375,-4.09375 -0.19086,-0.19086 -0.40333,-0.30427 -0.625,-0.3125 z m -82.062497,4.15625 -1.375,3.875 c -0.77987,2.21192 -1.09772,5.58797 -0.78125,7.875 0.30442,2.2 0.81016,6.3625 1.15625,9.25 0.34609,2.8875 0.80723,5.25 1,5.25 0.19277,0 1.06351,-1.37238 1.9375,-3.0625 1.45993,-2.8232 1.42786,-3.89569 -0.1875,-13.125 l -1.75,-10.0625 z m 79.312497,1.375 c -0.3474,-0.0143 -0.73282,0.0431 -1.09375,0.1875 -0.79773,0.31923 -0.5712,0.54575 0.59375,0.59375 1.05416,0.0434 1.64479,-0.16771 1.3125,-0.5 -0.16615,-0.16612 -0.4651,-0.26695 -0.8125,-0.28125 z m -6.90625,0.875 c -0.0516,-0.0516 -0.45697,0.25306 -1.25,0.875 -0.9625,0.75485 -1.75,1.54235 -1.75,1.75 0,0.82304 0.81863,0.29075 2.125,-1.375 0.62194,-0.79303 0.92662,-1.19838 0.875,-1.25 z m -47.124997,15.25 c -0.11706,0.012 -0.2207,0.0585 -0.3125,0.0937 -1.25827,0.48285 -1.61683,1.81466 -3.21875,12.5 -0.73289,4.88861 1.24597,14.56619 3.3125,16.28125 0.73549,0.61041 1.34375,1.90943 1.34375,2.875 0,0.96557 1.0125,2.44926 2.25,3.3125 2.95323,2.06007 24.199047,2.49316 21.468747,0.4375 -1.3577,-1.02222 -1.49359,-1.98715 -0.75,-5.21875 0.5001,-2.17343 1.21108,-9.03593 1.59375,-15.25 l 0.6875,-11.28125 -3.0625,0 c -1.6923,0 -3.34758,0.45 -3.6875,1 -0.33992,0.55 0.30504,1 1.4375,1 2.80162,0 2.5762,1.43267 -0.53125,3.46875 -1.88554,1.23545 -3.63271,1.48442 -6.5,1 -3.66616,-0.6194 -3.90625,-0.87242 -3.90625,-4.0625 0,-2.88401 -0.35625,-3.40625 -2.28125,-3.40625 -1.252627,0 -3.314607,-0.7197 -4.562497,-1.59375 -1.09189,-0.7648 -2.46177,-1.24034 -3.28125,-1.15625 z m -10.59375,3.25 -2.15625,1.90625 c -1.1807,1.04774 -2.125,2.46271 -2.125,3.15625 0,0.69354 -1.77152,2.65301 -3.90625,4.34375 -5.90855,4.67965 -10.92509,17.10926 -8.8125,21.84375 0.95979,2.15096 1.50314,2.25 13.84375,2.25 11.67384,0 16.08926,-0.91769 10.875,-2.28125 -1.34574,-0.35192 -2,-1.3639 -2,-3.09375 0,-1.41397 -1.55937,-5.78714 -3.4375,-9.71875 -3.02105,-6.32412 -3.3405,-7.80537 -2.84375,-12.78125 l 0.5625,-5.625 z m -47.71875,47.28125 130.843747,0 c -0.27971,0.1845 -0.50708,0.37133 -0.625,0.5625 -0.38985,0.63205 -4.21485,1.60625 -8.5,2.15625 l -7.78125,1 0,0.15625 -96.999997,0 0,-0.15625 -7.8125,-1 c -4.28515,-0.55 -8.11015,-1.5242 -8.5,-2.15625 -0.11791,-0.19117 -0.34529,-0.378 -0.625,-0.5625 z m 16.84375,5.3125 97.187497,0 0.15625,2.65625 0.28125,4.25003 -49.03125,0 -49.062497,0 0.28125,-4.25003 0.1875,-2.65625 z m 0.59375,7.90628 47.999997,0 48,0 0,9.5 0,9.5 -48,0 -47.999997,0 0,-9.5 0,-9.5 z"
       id="path5302"
       inkscape:connector-curvature="0" />
  </g>
</svg>
