<?xml version="1.0" encoding="UTF-8" standalone="no"?>
<!-- Created with Inkscape (http://www.inkscape.org/) -->

<svg
   xmlns:dc="http://purl.org/dc/elements/1.1/"
   xmlns:cc="http://creativecommons.org/ns#"
   xmlns:rdf="http://www.w3.org/1999/02/22-rdf-syntax-ns#"
   xmlns:svg="http://www.w3.org/2000/svg"
   xmlns="http://www.w3.org/2000/svg"
   xmlns:sodipodi="http://sodipodi.sourceforge.net/DTD/sodipodi-0.dtd"
   xmlns:inkscape="http://www.inkscape.org/namespaces/inkscape"
   width="210mm"
   height="297mm"
   id="svg3157"
   version="1.1"
   inkscape:version="0.48.2 r9819"
   sodipodi:docname="Documento nuevo 4">
  <defs
     id="defs3159" />
  <sodipodi:namedview
     id="base"
     pagecolor="#ffffff"
     bordercolor="#666666"
     borderopacity="1.0"
     inkscape:pageopacity="0.0"
     inkscape:pageshadow="2"
     inkscape:zoom="0.35"
     inkscape:cx="350"
     inkscape:cy="520"
     inkscape:document-units="px"
     inkscape:current-layer="layer1"
     showgrid="false"
     inkscape:window-width="504"
     inkscape:window-height="425"
     inkscape:window-x="125"
     inkscape:window-y="125"
     inkscape:window-maximized="0" />
  <metadata
     id="metadata3162">
    <rdf:RDF>
      <cc:Work
         rdf:about="">
        <dc:format>image/svg+xml</dc:format>
        <dc:type
           rdf:resource="http://purl.org/dc/dcmitype/StillImage" />
        <dc:title></dc:title>
      </cc:Work>
    </rdf:RDF>
  </metadata>
  <g
     inkscape:label="Capa 1"
     inkscape:groupmode="layer"
     id="layer1">
    <g
       id="g4105"
       transform="translate(-191.42857,361.42857)"
       inkscape:export-filename="C:\Users\Usuario\Dropbox\_Balamcan\nochesgeek\vivebus\donde-estoy.png"
       inkscape:export-xdpi="90"
       inkscape:export-ydpi="90">
      <path
         transform="matrix(1.16,0,0,1.16,343.08571,-448.77796)"
         d="m 177.14286,420.93362 c 0,39.44892 -31.97966,71.42858 -71.42857,71.42858 -39.448915,0 -71.428577,-31.97966 -71.428577,-71.42858 0,-39.44891 31.979662,-71.42857 71.428577,-71.42857 39.44891,0 71.42857,31.97966 71.42857,71.42857 z"
         sodipodi:ry="71.428574"
         sodipodi:rx="71.428574"
         sodipodi:cy="420.93362"
         sodipodi:cx="105.71429"
         id="path4107"
         style="fill:#ffffff;fill-opacity:1;stroke:none"
         sodipodi:type="arc" />
      <path
         sodipodi:type="arc"
         style="fill:#333333;fill-opacity:1;stroke:none"
         id="path4109"
         sodipodi:cx="105.71429"
         sodipodi:cy="420.93362"
         sodipodi:rx="71.428574"
         sodipodi:ry="71.428574"
         d="m 177.14286,420.93362 c 0,39.44892 -31.97966,71.42858 -71.42857,71.42858 -39.448915,0 -71.428577,-31.97966 -71.428577,-71.42858 0,-39.44891 31.979662,-71.42857 71.428577,-71.42857 39.44891,0 71.42857,31.97966 71.42857,71.42857 z"
         transform="translate(360,-381.42858)" />
      <path
         style="fill:none"
         inkscape:connector-curvature="0"
         id="path4111"
         d="m 410.01339,-16.196812 c -30.76333,30.763326 -30.76333,80.640386 0,111.403716 30.76333,30.763326 80.63846,30.763326 111.40179,0 30.76333,-30.76333 30.76333,-80.64039 0,-111.403716 -30.7614,-30.763329 -80.64039,-30.763329 -111.40179,0 z m 47.45511,10.6889042 c 0,-4.5531812 3.69068,-8.2438562 8.24578,-8.2438562 4.55511,0 8.24579,3.690675 8.24579,8.2438562 V 46.839224 c 0,4.55318 -3.69068,8.24386 -8.24579,8.24386 -4.5551,0 -8.24578,-3.69068 -8.24578,-8.24386 V -5.5079078 z m 45.31041,82.9429618 c -10.22107,10.21915 -23.64189,15.32872 -37.06463,15.32872 -13.42273,0 -26.84547,-5.10957 -37.06462,-15.32872 -9.89956,-9.90148 -15.35182,-23.06238 -15.35182,-37.06462 0,-14.00031 5.45226,-27.16506 15.35182,-37.0646168 3.219,-3.21899196 8.44216,-3.21899196 11.66115,0 3.22092,3.218987 3.22092,8.4402268 0,11.6611468 -14.00801,14.00801 -14.00801,36.80086 0,50.80695 14.00993,14.00801 36.80279,14.00801 50.80887,0 14.00609,-14.00609 14.00609,-36.79894 0,-50.80695 -3.22091,-3.219 -3.22091,-8.4421598 0,-11.6611468 3.219,-3.21899196 8.44216,-3.21899196 11.66115,0 9.90149,9.8995568 15.35375,23.0623868 15.35375,37.0646168 -0.002,14.00031 -5.45419,27.16314 -15.35567,37.06462 z" />
      <path
         inkscape:connector-curvature="0"
         id="path4113"
         d="m 491.11872,3.303893 c -3.22091,3.218996 -3.22091,8.440226 0,11.661146 14.00609,14.00801 14.00609,36.80087 0,50.80695 -14.00608,14.00801 -36.79894,14.00801 -50.80887,0 -14.00801,-14.00608 -14.00801,-36.79894 0,-50.80695 3.22092,-3.21899 3.22092,-8.44215 0,-11.661146 -3.21899,-3.218993 -8.44215,-3.218993 -11.66115,0 -9.89956,9.899556 -15.35182,23.062386 -15.35182,37.064626 0,14.00223 5.45226,27.16506 15.35182,37.06462 10.21915,10.21915 23.64189,15.32872 37.06462,15.32872 13.42274,0 26.84548,-5.10957 37.06463,-15.32872 9.90148,-9.90148 15.35375,-23.06239 15.35375,-37.06462 0,-14.00031 -5.45227,-27.16507 -15.35375,-37.064626 -3.21707,-3.218993 -8.44023,-3.218993 -11.65923,0 z"
         style="fill:#ffffff;fill-opacity:1" />
      <path
         inkscape:connector-curvature="0"
         id="path4115"
         d="m 465.71332,55.083089 c 4.55511,0 8.24579,-3.69068 8.24579,-8.24386 V -5.507907 c 0,-4.553181 -3.69068,-8.243856 -8.24579,-8.243856 -4.5551,0 -8.24578,3.690675 -8.24578,8.243856 v 52.347136 c 0,4.55318 3.69068,8.24386 8.24578,8.24386 z"
         style="fill:#0cd10c;fill-opacity:1" />
    </g>
  </g>
</svg>
