<?xml version="1.0" encoding="UTF-8" standalone="no"?>
<!-- Created with Inkscape (http://www.inkscape.org/) -->

<svg
   xmlns:dc="http://purl.org/dc/elements/1.1/"
   xmlns:cc="http://creativecommons.org/ns#"
   xmlns:rdf="http://www.w3.org/1999/02/22-rdf-syntax-ns#"
   xmlns:svg="http://www.w3.org/2000/svg"
   xmlns="http://www.w3.org/2000/svg"
   xmlns:sodipodi="http://sodipodi.sourceforge.net/DTD/sodipodi-0.dtd"
   xmlns:inkscape="http://www.inkscape.org/namespaces/inkscape"
   width="210mm"
   height="297mm"
   id="svg3249"
   version="1.1"
   inkscape:version="0.48.2 r9819"
   sodipodi:docname="Documento nuevo 8">
  <defs
     id="defs3251" />
  <sodipodi:namedview
     id="base"
     pagecolor="#ffffff"
     bordercolor="#666666"
     borderopacity="1.0"
     inkscape:pageopacity="0.0"
     inkscape:pageshadow="2"
     inkscape:zoom="0.35"
     inkscape:cx="350"
     inkscape:cy="520"
     inkscape:document-units="px"
     inkscape:current-layer="layer1"
     showgrid="false"
     inkscape:window-width="504"
     inkscape:window-height="425"
     inkscape:window-x="25"
     inkscape:window-y="25"
     inkscape:window-maximized="0" />
  <metadata
     id="metadata3254">
    <rdf:RDF>
      <cc:Work
         rdf:about="">
        <dc:format>image/svg+xml</dc:format>
        <dc:type
           rdf:resource="http://purl.org/dc/dcmitype/StillImage" />
        <dc:title></dc:title>
      </cc:Work>
    </rdf:RDF>
  </metadata>
  <g
     inkscape:label="Capa 1"
     inkscape:groupmode="layer"
     id="layer1">
    <g
       id="g4119"
       transform="translate(131.42857,204.28572)"
       inkscape:export-filename="C:\Users\Usuario\Dropbox\_Balamcan\nochesgeek\vivebus\estacion-destino.png"
       inkscape:export-xdpi="90"
       inkscape:export-ydpi="90">
      <path
         sodipodi:type="arc"
         style="fill:#ffffff;fill-opacity:1;stroke:none"
         id="path4121"
         sodipodi:cx="105.71429"
         sodipodi:cy="420.93362"
         sodipodi:rx="71.428574"
         sodipodi:ry="71.428574"
         d="m 177.14286,420.93362 c 0,39.44892 -31.97966,71.42858 -71.42857,71.42858 -39.448915,0 -71.428577,-31.97966 -71.428577,-71.42858 0,-39.44891 31.979662,-71.42857 71.428577,-71.42857 39.44891,0 71.42857,31.97966 71.42857,71.42857 z"
         transform="matrix(1.16,0,0,1.16,80.22857,-194.49225)" />
      <path
         transform="translate(97.14286,-127.14287)"
         d="m 177.14286,420.93362 c 0,39.44892 -31.97966,71.42858 -71.42857,71.42858 -39.448915,0 -71.428577,-31.97966 -71.428577,-71.42858 0,-39.44891 31.979662,-71.42857 71.428577,-71.42857 39.44891,0 71.42857,31.97966 71.42857,71.42857 z"
         sodipodi:ry="71.428574"
         sodipodi:rx="71.428574"
         sodipodi:cy="420.93362"
         sodipodi:cx="105.71429"
         id="path4123"
         style="fill:#333333;fill-opacity:1;stroke:none"
         sodipodi:type="arc" />
      <path
         d="m 147.15625,238.0889 c -30.76333,30.76332 -30.76333,80.64038 0,111.40371 30.76333,30.76333 80.63846,30.76333 111.40179,0 30.76333,-30.76333 30.76333,-80.64039 0,-111.40371 -30.7614,-30.76333 -80.64039,-30.76333 -111.40179,0 z m 47.45511,10.6889 c 0,-4.55318 3.69068,-8.24385 8.24578,-8.24385 4.55511,0 8.24579,3.69067 8.24579,8.24385 v 52.34713 c 0,4.55318 -3.69068,8.24386 -8.24579,8.24386 -4.5551,0 -8.24578,-3.69068 -8.24578,-8.24386 V 248.7778 z m 45.31041,82.94296 c -10.22107,10.21915 -23.64189,15.32872 -37.06463,15.32872 -13.42273,0 -26.84547,-5.10957 -37.06462,-15.32872 -9.89956,-9.90148 -15.35182,-23.06238 -15.35182,-37.06462 0,-14.00031 5.45226,-27.16506 15.35182,-37.06461 3.219,-3.21899 8.44216,-3.21899 11.66115,0 3.22092,3.21898 3.22092,8.44022 0,11.66114 -14.00801,14.00801 -14.00801,36.80086 0,50.80695 14.00993,14.00801 36.80279,14.00801 50.80887,0 14.00609,-14.00609 14.00609,-36.79894 0,-50.80695 -3.22091,-3.219 -3.22091,-8.44216 0,-11.66114 3.219,-3.21899 8.44216,-3.21899 11.66115,0 9.90149,9.89955 15.35375,23.06238 15.35375,37.06461 -0.002,14.00031 -5.45419,27.16314 -15.35567,37.06462 z"
         id="path4125"
         inkscape:connector-curvature="0"
         style="fill:none" />
      <g
         id="g4127">
        <rect
           style="fill:#ffffff;fill-opacity:1"
           id="rect4129"
           height="17.535078"
           width="17.536573"
           y="259.68475"
           x="158.51447" />
        <rect
           style="fill:#ffffff;fill-opacity:1"
           id="rect4131"
           height="17.536573"
           width="17.532084"
           y="277.17639"
           x="176.00768" />
        <rect
           style="fill:#ffffff;fill-opacity:1"
           id="rect4133"
           height="17.536573"
           width="17.536573"
           y="294.66507"
           x="158.51447" />
        <rect
           style="fill:#ffffff;fill-opacity:1"
           id="rect4135"
           height="17.535078"
           width="17.532084"
           y="312.15979"
           x="176.00768" />
        <rect
           style="fill:#ffffff;fill-opacity:1"
           id="rect4137"
           height="17.535078"
           width="17.532084"
           y="259.68475"
           x="193.53973" />
        <rect
           style="fill:#ffffff;fill-opacity:1"
           id="rect4139"
           height="17.536573"
           width="17.524601"
           y="277.17639"
           x="211.04039" />
        <rect
           style="fill:#ffffff;fill-opacity:1"
           id="rect4141"
           height="17.536573"
           width="17.532084"
           y="294.66507"
           x="193.53973" />
        <rect
           style="fill:#ffffff;fill-opacity:1"
           id="rect4143"
           height="17.535078"
           width="17.524601"
           y="312.15979"
           x="211.04039" />
        <rect
           style="fill:#ffffff;fill-opacity:1"
           id="rect4145"
           height="17.535078"
           width="17.542561"
           y="259.68475"
           x="228.56499" />
        <rect
           style="fill:#ffffff;fill-opacity:1"
           id="rect4147"
           height="17.536573"
           width="17.542561"
           y="294.66507"
           x="228.56499" />
        <path
           id="path4149"
           d="m 153.15625,253.5625 0,82.25 98.34375,0 0,-82.25 -98.34375,0 z m 6.21875,6.5 85.90625,0 0,69.25 -85.90625,0 0,-69.25 z"
           style="fill:#0cd10c;fill-opacity:1"
           inkscape:connector-curvature="0" />
      </g>
    </g>
  </g>
</svg>
