<?xml version="1.0" encoding="UTF-8" standalone="no"?>
<!-- Created with Inkscape (http://www.inkscape.org/) -->

<svg
   xmlns:dc="http://purl.org/dc/elements/1.1/"
   xmlns:cc="http://creativecommons.org/ns#"
   xmlns:rdf="http://www.w3.org/1999/02/22-rdf-syntax-ns#"
   xmlns:svg="http://www.w3.org/2000/svg"
   xmlns="http://www.w3.org/2000/svg"
   xmlns:sodipodi="http://sodipodi.sourceforge.net/DTD/sodipodi-0.dtd"
   xmlns:inkscape="http://www.inkscape.org/namespaces/inkscape"
   width="210mm"
   height="297mm"
   id="svg3198"
   version="1.1"
   inkscape:version="0.48.2 r9819"
   sodipodi:docname="Documento nuevo 6">
  <defs
     id="defs3200" />
  <sodipodi:namedview
     id="base"
     pagecolor="#ffffff"
     bordercolor="#666666"
     borderopacity="1.0"
     inkscape:pageopacity="0.0"
     inkscape:pageshadow="2"
     inkscape:zoom="0.35"
     inkscape:cx="350"
     inkscape:cy="520"
     inkscape:document-units="px"
     inkscape:current-layer="layer1"
     showgrid="false"
     inkscape:window-width="504"
     inkscape:window-height="425"
     inkscape:window-x="150"
     inkscape:window-y="150"
     inkscape:window-maximized="0" />
  <metadata
     id="metadata3203">
    <rdf:RDF>
      <cc:Work
         rdf:about="">
        <dc:format>image/svg+xml</dc:format>
        <dc:type
           rdf:resource="http://purl.org/dc/dcmitype/StillImage" />
        <dc:title></dc:title>
      </cc:Work>
    </rdf:RDF>
  </metadata>
  <g
     inkscape:label="Capa 1"
     inkscape:groupmode="layer"
     id="layer1">
    <g
       id="g4151"
       transform="translate(266.55622,366.83617)"
       inkscape:export-filename="C:\Users\Usuario\Dropbox\_Balamcan\nochesgeek\vivebus\estacion-cercana.png"
       inkscape:export-xdpi="90"
       inkscape:export-ydpi="90">
      <path
         transform="matrix(1.16,0,0,1.16,-17.756227,-405.61413)"
         d="m 177.14286,420.93362 c 0,39.44892 -31.97966,71.42858 -71.42857,71.42858 -39.448915,0 -71.428577,-31.97966 -71.428577,-71.42858 0,-39.44891 31.979662,-71.42857 71.428577,-71.42857 39.44891,0 71.42857,31.97966 71.42857,71.42857 z"
         sodipodi:ry="71.428574"
         sodipodi:rx="71.428574"
         sodipodi:cy="420.93362"
         sodipodi:cx="105.71429"
         id="path4153"
         style="fill:#ffffff;fill-opacity:1;stroke:none"
         sodipodi:type="arc" />
      <path
         sodipodi:type="arc"
         style="fill:#333333;fill-opacity:1;stroke:none"
         id="path4155"
         sodipodi:cx="105.71429"
         sodipodi:cy="420.93362"
         sodipodi:rx="71.428574"
         sodipodi:ry="71.428574"
         d="m 177.14286,420.93362 c 0,39.44892 -31.97966,71.42858 -71.42857,71.42858 -39.448915,0 -71.428577,-31.97966 -71.428577,-71.42858 0,-39.44891 31.979662,-71.42857 71.428577,-71.42857 39.44891,0 71.42857,31.97966 71.42857,71.42857 z"
         transform="translate(-0.84194111,-338.26475)" />
      <path
         style="fill:none"
         inkscape:connector-curvature="0"
         id="path4157"
         d="m 49.171452,26.967018 c -30.76333,30.76332 -30.76333,80.640382 0,111.403712 30.76333,30.76333 80.638458,30.76333 111.401788,0 30.76333,-30.76333 30.76333,-80.640392 0,-111.403712 -30.7614,-30.7633298 -80.640388,-30.7633298 -111.401788,0 z m 47.45511,10.6889 c 0,-4.55318 3.690678,-8.24385 8.245778,-8.24385 4.55511,0 8.24579,3.69067 8.24579,8.24385 v 52.34713 c 0,4.55318 -3.69068,8.24386 -8.24579,8.24386 -4.5551,0 -8.245778,-3.69068 -8.245778,-8.24386 v -52.34713 z m 45.310408,82.942962 c -10.22107,10.21915 -23.64189,15.32872 -37.06463,15.32872 -13.422728,0 -26.845468,-5.10957 -37.064618,-15.32872 -9.89956,-9.90148 -15.35182,-23.062382 -15.35182,-37.064622 0,-14.00031 5.45226,-27.16506 15.35182,-37.06461 3.219,-3.21899 8.44216,-3.21899 11.66115,0 3.22092,3.21898 3.22092,8.44022 0,11.66114 -14.00801,14.00801 -14.00801,36.80086 0,50.806952 14.00993,14.00801 36.802788,14.00801 50.808868,0 14.00609,-14.006092 14.00609,-36.798942 0,-50.806952 -3.22091,-3.219 -3.22091,-8.44216 0,-11.66114 3.219,-3.21899 8.44216,-3.21899 11.66115,0 9.90149,9.89955 15.35375,23.06238 15.35375,37.06461 -0.002,14.00031 -5.45419,27.163142 -15.35567,37.064622 z" />
      <path
         d="m 104.86305,24.246999 c -18.706003,0 -33.871003,15.165 -33.871003,33.87 0,0.401 0.012,0.809 0.03,1.221 0.127,3.558 0.798,6.975 1.939,10.172 7.226,23.752 31.902003,54.737001 31.902003,54.737001 0,0 24.673,-30.982001 31.9,-54.734001 1.143,-3.197 1.813,-6.617 1.939,-10.175 0.02,-0.412 0.031,-0.819 0.031,-1.221 0.001,-18.705 -15.164,-33.87 -33.87,-33.87 z m 0,50.459 c -9.161003,0 -16.589003,-7.428 -16.589003,-16.589 0,-9.16 7.428,-16.588 16.589003,-16.588 9.162,0 16.589,7.428 16.589,16.588 0,9.161 -7.427,16.589 -16.589,16.589 z"
         id="path4159"
         inkscape:connector-curvature="0"
         style="fill:#ffffff;fill-opacity:1" />
      <path
         style="fill:#0cd10c;fill-opacity:1;stroke:none"
         d="m 91.950471,112.122 c -12.436512,2.24448 -21.1875,7.61564 -21.1875,13.90625 0,8.30514 15.255264,15.0625 34.093749,15.0625 18.83849,0 34.125,-6.75736 34.125,-15.0625 0,-6.28615 -8.76501,-11.6589 -21.1875,-13.90625 -0.48856,0.72375 -0.96231,1.46399 -1.4375,2.15625 9.87336,1.60437 16.78125,5.19307 16.78125,9.375 0,5.6718 -12.65909,10.25 -28.28125,10.25 -15.622158,0 -28.281249,-4.5782 -28.281249,-10.25 0,-4.18628 6.914906,-7.77312 16.8125,-9.375 -0.475708,-0.693 -0.948381,-1.43169 -1.4375,-2.15625 z"
         id="path4161"
         inkscape:connector-curvature="0" />
    </g>
  </g>
</svg>
