<?xml version="1.0" encoding="utf-8"?>
<!-- Generator: Adobe Illustrator 15.0.0, SVG Export Plug-In  -->
<!DOCTYPE svg PUBLIC "-//W3C//DTD SVG 1.1//EN" "http://www.w3.org/Graphics/SVG/1.1/DTD/svg11.dtd" [
	<!ENTITY ns_flows "http://ns.adobe.com/Flows/1.0/">
]>
<svg version="1.1"
	 xmlns="http://www.w3.org/2000/svg" xmlns:xlink="http://www.w3.org/1999/xlink" xmlns:a="http://ns.adobe.com/AdobeSVGViewerExtensions/3.0/"
	 x="0px" y="0px" width="80px" height="80px" viewBox="-0.907 -0.92 80 80"
	 overflow="visible" enable-background="new -0.907 -0.92 80 80" xml:space="preserve">
<defs>
</defs>
<circle id="circle_1_" fill="#EE4456" cx="39.087" cy="39.087" r="39.087"/>
<polygon id="shape_1_" fill="#EFEEEE" stroke="#231F20" stroke-width="0.35" stroke-miterlimit="10" points="23.525,20.734 
	29.982,50.721 39.088,4.989 48.205,51.164 54.662,20.646 62.978,62.928 15.033,62.928 "/>
<polygon fill="#EE4456" stroke="#231F20" stroke-width="0.15" stroke-miterlimit="10" points="19.279,60.894 28.214,60.894 
	23.747,38.426 "/>
<polygon fill="#EE4456" stroke="#231F20" stroke-width="0.15" stroke-miterlimit="10" points="33.167,60.894 45.993,60.894 
	39.088,29.58 "/>
<polygon fill="#EE4456" stroke="#231F20" stroke-width="0.15" stroke-miterlimit="10" points="50.062,60.894 58.908,60.894 
	54.485,37.895 "/>
<line fill="none" stroke="#231F20" stroke-width="0.2" stroke-miterlimit="10" x1="19.643" y1="59.065" x2="20.468" y2="60.894"/>
<line fill="none" stroke="#231F20" stroke-width="0.2" stroke-miterlimit="10" x1="23.384" y1="40.251" x2="24.136" y2="40.38"/>
<line fill="none" stroke="#231F20" stroke-width="0.2" stroke-miterlimit="10" x1="27.262" y1="60.646" x2="27.95" y2="59.564"/>
<line fill="none" stroke="#231F20" stroke-width="0.2" stroke-miterlimit="10" x1="27.606" y1="60.105" x2="27.262" y2="59.564"/>
<line fill="none" stroke="#231F20" stroke-width="0.2" stroke-miterlimit="10" x1="27.262" y1="59.564" x2="27.606" y2="57.835"/>
<line fill="none" stroke="#231F20" stroke-width="0.2" stroke-miterlimit="10" x1="27.262" y1="58.7" x2="26.467" y2="57.572"/>
<line fill="none" stroke="#231F20" stroke-width="0.2" stroke-miterlimit="10" x1="26.652" y1="57.835" x2="26.467" y2="59.564"/>
<line fill="none" stroke="#231F20" stroke-width="0.2" stroke-miterlimit="10" x1="27.262" y1="60.646" x2="26.467" y2="59.564"/>
<line fill="none" stroke="#231F20" stroke-width="0.2" stroke-miterlimit="10" x1="26.56" y1="59.979" x2="26.202" y2="60.646"/>
<line fill="none" stroke="#231F20" stroke-width="0.2" stroke-miterlimit="10" x1="26.467" y1="58.7" x2="25.514" y2="58.136"/>
<line fill="none" stroke="#231F20" stroke-width="0.2" stroke-miterlimit="10" x1="25.514" y1="58.136" x2="26.864" y2="54.763"/>
<line fill="none" stroke="#231F20" stroke-width="0.2" stroke-miterlimit="10" x1="25.99" y1="56.946" x2="27.435" y2="56.971"/>
<line fill="none" stroke="#231F20" stroke-width="0.2" stroke-miterlimit="10" x1="26.467" y1="55.755" x2="23.747" y2="52.59"/>
<line fill="none" stroke="#231F20" stroke-width="0.2" stroke-miterlimit="10" x1="23.747" y1="52.59" x2="26.142" y2="50.472"/>
<line fill="none" stroke="#231F20" stroke-width="0.2" stroke-miterlimit="10" x1="24.944" y1="53.984" x2="26.381" y2="53.173"/>
<line fill="none" stroke="#231F20" stroke-width="0.2" stroke-miterlimit="10" x1="25.99" y1="53.173" x2="25.514" y2="51.028"/>
<line fill="none" stroke="#231F20" stroke-width="0.2" stroke-miterlimit="10" x1="24.248" y1="53.173" x2="25.106" y2="52.101"/>
<line fill="none" stroke="#231F20" stroke-width="0.2" stroke-miterlimit="10" x1="25.106" y1="52.101" x2="24.944" y2="51.531"/>
<line fill="none" stroke="#231F20" stroke-width="0.2" stroke-miterlimit="10" x1="25.99" y1="53.173" x2="26.467" y2="52.106"/>
<line fill="none" stroke="#231F20" stroke-width="0.2" stroke-miterlimit="10" x1="25.99" y1="55.201" x2="24.677" y2="56.035"/>
<line fill="none" stroke="#231F20" stroke-width="0.2" stroke-miterlimit="10" x1="24.677" y1="56.035" x2="24.677" y2="54.173"/>
<line fill="none" stroke="#231F20" stroke-width="0.2" stroke-miterlimit="10" x1="24.677" y1="54.763" x2="23.384" y2="54.763"/>
<line fill="none" stroke="#231F20" stroke-width="0.2" stroke-miterlimit="10" x1="23.384" y1="54.763" x2="23.76" y2="53.984"/>
<line fill="none" stroke="#231F20" stroke-width="0.2" stroke-miterlimit="10" x1="23.76" y1="53.984" x2="22.811" y2="53.984"/>
<line fill="none" stroke="#231F20" stroke-width="0.2" stroke-miterlimit="10" x1="22.811" y1="53.984" x2="22.811" y2="53.173"/>
<line fill="none" stroke="#231F20" stroke-width="0.2" stroke-miterlimit="10" x1="22.811" y1="53.173" x2="20.733" y2="53.579"/>
<line fill="none" stroke="#231F20" stroke-width="0.2" stroke-miterlimit="10" x1="20.056" y1="59.834" x2="20.733" y2="59.065"/>
<line fill="none" stroke="#231F20" stroke-width="0.2" stroke-miterlimit="10" x1="20.733" y1="59.065" x2="20.395" y2="58.136"/>
<line fill="none" stroke="#231F20" stroke-width="0.2" stroke-miterlimit="10" x1="20.395" y1="58.136" x2="20.956" y2="57.572"/>
<line fill="none" stroke="#231F20" stroke-width="0.2" stroke-miterlimit="10" x1="20.956" y1="57.572" x2="20.675" y2="56.035"/>
<line fill="none" stroke="#231F20" stroke-width="0.2" stroke-miterlimit="10" x1="20.675" y1="56.035" x2="22.228" y2="55.104"/>
<line fill="none" stroke="#231F20" stroke-width="0.2" stroke-miterlimit="10" x1="22.228" y1="55.104" x2="21.772" y2="53.173"/>
<line fill="none" stroke="#231F20" stroke-width="0.2" stroke-miterlimit="10" x1="20.468" y1="54.917" x2="23.747" y2="55.104"/>
<line fill="none" stroke="#231F20" stroke-width="0.2" stroke-miterlimit="10" x1="23.76" y1="57.572" x2="21.772" y2="59.065"/>
<line fill="none" stroke="#231F20" stroke-width="0.2" stroke-miterlimit="10" x1="23.285" y1="59.834" x2="24.677" y2="58.7"/>
<line fill="none" stroke="#231F20" stroke-width="0.2" stroke-miterlimit="10" x1="24.677" y1="58.136" x2="23.76" y2="56.035"/>
<line fill="none" stroke="#231F20" stroke-width="0.2" stroke-miterlimit="10" x1="21.772" y1="56.971" x2="23.384" y2="55.619"/>
<line fill="none" stroke="#231F20" stroke-width="0.2" stroke-miterlimit="10" x1="22.578" y1="56.035" x2="22" y2="55.57"/>
<line fill="none" stroke="#231F20" stroke-width="0.2" stroke-miterlimit="10" x1="22.107" y1="56.69" x2="22.228" y2="57.572"/>
<line fill="none" stroke="#231F20" stroke-width="0.2" stroke-miterlimit="10" x1="22.228" y1="57.572" x2="20.733" y2="58.6"/>
<line fill="none" stroke="#231F20" stroke-width="0.2" stroke-miterlimit="10" x1="20.956" y1="58.6" x2="21.772" y2="60.105"/>
<line fill="none" stroke="#231F20" stroke-width="0.2" stroke-miterlimit="10" x1="21.772" y1="60.105" x2="20.468" y2="60.894"/>
<line fill="none" stroke="#231F20" stroke-width="0.2" stroke-miterlimit="10" x1="21.772" y1="60.105" x2="22.634" y2="58.417"/>
<line fill="none" stroke="#231F20" stroke-width="0.2" stroke-miterlimit="10" x1="22.634" y1="58.417" x2="23.384" y2="59.564"/>
<line fill="none" stroke="#231F20" stroke-width="0.2" stroke-miterlimit="10" x1="23.285" y1="59.834" x2="23.009" y2="60.894"/>
<line fill="none" stroke="#231F20" stroke-width="0.2" stroke-miterlimit="10" x1="24.677" y1="59.979" x2="25.99" y2="59.45"/>
<line fill="none" stroke="#231F20" stroke-width="0.2" stroke-miterlimit="10" x1="25.106" y1="59.564" x2="25.025" y2="58.318"/>
<line fill="none" stroke="#231F20" stroke-width="0.2" stroke-miterlimit="10" x1="24.431" y1="57.572" x2="25.333" y2="57.13"/>
<line fill="none" stroke="#231F20" stroke-width="0.2" stroke-miterlimit="10" x1="25.106" y1="56.803" x2="24.882" y2="55.57"/>
<line fill="none" stroke="#231F20" stroke-width="0.2" stroke-miterlimit="10" x1="22.811" y1="53.173" x2="22.578" y2="52.101"/>
<line fill="none" stroke="#231F20" stroke-width="0.2" stroke-miterlimit="10" x1="22.578" y1="52.64" x2="21.364" y2="52.59"/>
<line fill="none" stroke="#231F20" stroke-width="0.2" stroke-miterlimit="10" x1="23.009" y1="51.816" x2="24.677" y2="50.046"/>
<line fill="none" stroke="#231F20" stroke-width="0.2" stroke-miterlimit="10" x1="24.431" y1="50.931" x2="25.99" y2="50.046"/>
<line fill="none" stroke="#231F20" stroke-width="0.2" stroke-miterlimit="10" x1="25.21" y1="50.472" x2="25.752" y2="48.51"/>
<line fill="none" stroke="#231F20" stroke-width="0.2" stroke-miterlimit="10" x1="25.21" y1="49.394" x2="23.76" y2="48.51"/>
<line fill="none" stroke="#231F20" stroke-width="0.2" stroke-miterlimit="10" x1="24.136" y1="48.74" x2="23.571" y2="51.218"/>
<line fill="none" stroke="#231F20" stroke-width="0.2" stroke-miterlimit="10" x1="23.571" y1="50.472" x2="21.547" y2="49.492"/>
<line fill="none" stroke="#231F20" stroke-width="0.2" stroke-miterlimit="10" x1="21.48" y1="50.931" x2="23.009" y2="50.2"/>
<line fill="none" stroke="#231F20" stroke-width="0.2" stroke-miterlimit="10" x1="22.107" y1="51.816" x2="22.289" y2="50.472"/>
<line fill="none" stroke="#231F20" stroke-width="0.2" stroke-miterlimit="10" x1="23.384" y1="49.492" x2="21.9" y2="47.712"/>
<line fill="none" stroke="#231F20" stroke-width="0.2" stroke-miterlimit="10" x1="22.167" y1="46.973" x2="24.136" y2="48.74"/>
<line fill="none" stroke="#231F20" stroke-width="0.2" stroke-miterlimit="10" x1="24.431" y1="48.602" x2="25.481" y2="47.147"/>
<line fill="none" stroke="#231F20" stroke-width="0.2" stroke-miterlimit="10" x1="25.106" y1="47.667" x2="23.285" y2="46.285"/>
<line fill="none" stroke="#231F20" stroke-width="0.2" stroke-miterlimit="10" x1="23.571" y1="46.973" x2="23.571" y2="48.233"/>
<line fill="none" stroke="#231F20" stroke-width="0.2" stroke-miterlimit="10" x1="22.694" y1="46.973" x2="22.289" y2="45.757"/>
<line fill="none" stroke="#231F20" stroke-width="0.2" stroke-miterlimit="10" x1="22.56" y1="45.757" x2="24.03" y2="45.237"/>
<line fill="none" stroke="#231F20" stroke-width="0.2" stroke-miterlimit="10" x1="24.03" y1="45.757" x2="24.431" y2="47.603"/>
<line fill="none" stroke="#231F20" stroke-width="0.2" stroke-miterlimit="10" x1="25.025" y1="46.072" x2="24.248" y2="45.498"/>
<line fill="none" stroke="#231F20" stroke-width="0.2" stroke-miterlimit="10" x1="23.571" y1="44.959" x2="23.009" y2="44.324"/>
<line fill="none" stroke="#231F20" stroke-width="0.2" stroke-miterlimit="10" x1="23.009" y1="44.641" x2="23.854" y2="44.324"/>
<line fill="none" stroke="#231F20" stroke-width="0.2" stroke-miterlimit="10" x1="24.248" y1="44.641" x2="24.637" y2="43.476"/>
<line fill="none" stroke="#231F20" stroke-width="0.2" stroke-miterlimit="10" x1="24.136" y1="43.74" x2="23.431" y2="43.158"/>
<line fill="none" stroke="#231F20" stroke-width="0.2" stroke-miterlimit="10" x1="23.571" y1="40.826" x2="23.747" y2="42.416"/>
<line fill="none" stroke="#231F20" stroke-width="0.2" stroke-miterlimit="10" x1="23.147" y1="42.416" x2="24.431" y2="41.865"/>
<line fill="none" stroke="#231F20" stroke-width="0.2" stroke-miterlimit="10" x1="24.196" y1="42.734" x2="23.009" y2="43.476"/>
<line fill="none" stroke="#231F20" stroke-width="0.2" stroke-miterlimit="10" x1="24.136" y1="43.74" x2="24.248" y2="42.14"/>
<line fill="none" stroke="#231F20" stroke-width="0.2" stroke-miterlimit="10" x1="33.649" y1="58.417" x2="34.79" y2="60.945"/>
<line fill="none" stroke="#231F20" stroke-width="0.2" stroke-miterlimit="10" x1="38.82" y1="32.417" x2="39.859" y2="32.596"/>
<line fill="none" stroke="#231F20" stroke-width="0.2" stroke-miterlimit="10" x1="44.18" y1="60.601" x2="45.131" y2="59.107"/>
<line fill="none" stroke="#231F20" stroke-width="0.2" stroke-miterlimit="10" x1="44.655" y1="59.855" x2="44.18" y2="59.107"/>
<line fill="none" stroke="#231F20" stroke-width="0.2" stroke-miterlimit="10" x1="44.18" y1="59.107" x2="44.655" y2="56.718"/>
<line fill="none" stroke="#231F20" stroke-width="0.2" stroke-miterlimit="10" x1="44.18" y1="57.913" x2="43.081" y2="56.353"/>
<line fill="none" stroke="#231F20" stroke-width="0.2" stroke-miterlimit="10" x1="43.337" y1="56.718" x2="43.081" y2="59.107"/>
<line fill="none" stroke="#231F20" stroke-width="0.2" stroke-miterlimit="10" x1="44.18" y1="60.601" x2="43.081" y2="59.107"/>
<line fill="none" stroke="#231F20" stroke-width="0.2" stroke-miterlimit="10" x1="43.209" y1="59.68" x2="42.715" y2="60.601"/>
<line fill="none" stroke="#231F20" stroke-width="0.2" stroke-miterlimit="10" x1="43.081" y1="57.913" x2="41.764" y2="57.132"/>
<line fill="none" stroke="#231F20" stroke-width="0.2" stroke-miterlimit="10" x1="41.764" y1="57.132" x2="43.63" y2="52.472"/>
<line fill="none" stroke="#231F20" stroke-width="0.2" stroke-miterlimit="10" x1="42.422" y1="55.488" x2="44.418" y2="55.523"/>
<line fill="none" stroke="#231F20" stroke-width="0.2" stroke-miterlimit="10" x1="43.081" y1="53.844" x2="39.322" y2="49.469"/>
<line fill="none" stroke="#231F20" stroke-width="0.2" stroke-miterlimit="10" x1="39.322" y1="49.469" x2="42.631" y2="46.542"/>
<line fill="none" stroke="#231F20" stroke-width="0.2" stroke-miterlimit="10" x1="40.977" y1="51.395" x2="42.962" y2="50.275"/>
<line fill="none" stroke="#231F20" stroke-width="0.2" stroke-miterlimit="10" x1="42.422" y1="50.275" x2="41.764" y2="47.31"/>
<line fill="none" stroke="#231F20" stroke-width="0.2" stroke-miterlimit="10" x1="40.015" y1="50.275" x2="41.2" y2="48.792"/>
<line fill="none" stroke="#231F20" stroke-width="0.2" stroke-miterlimit="10" x1="41.2" y1="48.792" x2="40.977" y2="48.005"/>
<line fill="none" stroke="#231F20" stroke-width="0.2" stroke-miterlimit="10" x1="42.422" y1="50.275" x2="43.081" y2="48.8"/>
<line fill="none" stroke="#231F20" stroke-width="0.2" stroke-miterlimit="10" x1="42.422" y1="53.078" x2="40.606" y2="54.23"/>
<line fill="none" stroke="#231F20" stroke-width="0.2" stroke-miterlimit="10" x1="40.606" y1="54.23" x2="40.606" y2="51.657"/>
<line fill="none" stroke="#231F20" stroke-width="0.2" stroke-miterlimit="10" x1="40.606" y1="52.472" x2="38.82" y2="52.472"/>
<line fill="none" stroke="#231F20" stroke-width="0.2" stroke-miterlimit="10" x1="38.82" y1="52.472" x2="39.34" y2="51.395"/>
<line fill="none" stroke="#231F20" stroke-width="0.2" stroke-miterlimit="10" x1="39.34" y1="51.395" x2="38.027" y2="51.395"/>
<line fill="none" stroke="#231F20" stroke-width="0.2" stroke-miterlimit="10" x1="38.027" y1="51.395" x2="38.027" y2="50.275"/>
<line fill="none" stroke="#231F20" stroke-width="0.2" stroke-miterlimit="10" x1="38.027" y1="50.275" x2="35.157" y2="50.835"/>
<line fill="none" stroke="#231F20" stroke-width="0.2" stroke-miterlimit="10" x1="34.221" y1="59.48" x2="35.157" y2="58.417"/>
<line fill="none" stroke="#231F20" stroke-width="0.2" stroke-miterlimit="10" x1="35.157" y1="58.417" x2="34.688" y2="57.132"/>
<line fill="none" stroke="#231F20" stroke-width="0.2" stroke-miterlimit="10" x1="34.688" y1="57.132" x2="35.465" y2="56.353"/>
<line fill="none" stroke="#231F20" stroke-width="0.2" stroke-miterlimit="10" x1="35.465" y1="56.353" x2="35.076" y2="54.23"/>
<line fill="none" stroke="#231F20" stroke-width="0.2" stroke-miterlimit="10" x1="35.076" y1="54.23" x2="37.222" y2="52.943"/>
<line fill="none" stroke="#231F20" stroke-width="0.2" stroke-miterlimit="10" x1="37.222" y1="52.943" x2="36.593" y2="50.275"/>
<line fill="none" stroke="#231F20" stroke-width="0.2" stroke-miterlimit="10" x1="34.79" y1="52.685" x2="39.322" y2="52.943"/>
<line fill="none" stroke="#231F20" stroke-width="0.2" stroke-miterlimit="10" x1="39.34" y1="56.353" x2="36.593" y2="58.417"/>
<line fill="none" stroke="#231F20" stroke-width="0.2" stroke-miterlimit="10" x1="38.684" y1="59.48" x2="40.606" y2="57.913"/>
<line fill="none" stroke="#231F20" stroke-width="0.2" stroke-miterlimit="10" x1="40.606" y1="57.132" x2="39.34" y2="54.23"/>
<line fill="none" stroke="#231F20" stroke-width="0.2" stroke-miterlimit="10" x1="36.593" y1="55.523" x2="38.82" y2="53.654"/>
<line fill="none" stroke="#231F20" stroke-width="0.2" stroke-miterlimit="10" x1="37.706" y1="54.23" x2="36.907" y2="53.587"/>
<line fill="none" stroke="#231F20" stroke-width="0.2" stroke-miterlimit="10" x1="37.056" y1="55.134" x2="37.222" y2="56.353"/>
<line fill="none" stroke="#231F20" stroke-width="0.2" stroke-miterlimit="10" x1="37.222" y1="56.353" x2="35.157" y2="57.775"/>
<line fill="none" stroke="#231F20" stroke-width="0.2" stroke-miterlimit="10" x1="35.465" y1="57.775" x2="36.593" y2="59.855"/>
<line fill="none" stroke="#231F20" stroke-width="0.2" stroke-miterlimit="10" x1="36.593" y1="59.855" x2="34.79" y2="60.945"/>
<line fill="none" stroke="#231F20" stroke-width="0.2" stroke-miterlimit="10" x1="36.593" y1="59.855" x2="37.783" y2="57.523"/>
<line fill="none" stroke="#231F20" stroke-width="0.2" stroke-miterlimit="10" x1="37.783" y1="57.523" x2="38.82" y2="59.107"/>
<line fill="none" stroke="#231F20" stroke-width="0.2" stroke-miterlimit="10" x1="38.684" y1="59.48" x2="38.302" y2="60.945"/>
<line fill="none" stroke="#231F20" stroke-width="0.2" stroke-miterlimit="10" x1="40.606" y1="59.68" x2="42.422" y2="58.949"/>
<line fill="none" stroke="#231F20" stroke-width="0.2" stroke-miterlimit="10" x1="41.2" y1="59.107" x2="41.089" y2="57.385"/>
<line fill="none" stroke="#231F20" stroke-width="0.2" stroke-miterlimit="10" x1="40.267" y1="56.353" x2="41.514" y2="55.744"/>
<line fill="none" stroke="#231F20" stroke-width="0.2" stroke-miterlimit="10" x1="41.2" y1="55.292" x2="40.891" y2="53.587"/>
<line fill="none" stroke="#231F20" stroke-width="0.2" stroke-miterlimit="10" x1="38.027" y1="50.275" x2="37.706" y2="48.792"/>
<line fill="none" stroke="#231F20" stroke-width="0.2" stroke-miterlimit="10" x1="37.706" y1="49.537" x2="36.029" y2="49.469"/>
<line fill="none" stroke="#231F20" stroke-width="0.2" stroke-miterlimit="10" x1="38.302" y1="48.399" x2="40.606" y2="45.955"/>
<line fill="none" stroke="#231F20" stroke-width="0.2" stroke-miterlimit="10" x1="40.267" y1="47.176" x2="42.422" y2="45.955"/>
<line fill="none" stroke="#231F20" stroke-width="0.2" stroke-miterlimit="10" x1="41.344" y1="46.542" x2="42.093" y2="43.831"/>
<line fill="none" stroke="#231F20" stroke-width="0.2" stroke-miterlimit="10" x1="41.344" y1="45.052" x2="39.34" y2="43.831"/>
<line fill="none" stroke="#231F20" stroke-width="0.2" stroke-miterlimit="10" x1="39.859" y1="44.147" x2="39.079" y2="47.574"/>
<line fill="none" stroke="#231F20" stroke-width="0.2" stroke-miterlimit="10" x1="39.079" y1="46.542" x2="36.281" y2="45.186"/>
<line fill="none" stroke="#231F20" stroke-width="0.2" stroke-miterlimit="10" x1="36.189" y1="47.176" x2="38.302" y2="46.166"/>
<line fill="none" stroke="#231F20" stroke-width="0.2" stroke-miterlimit="10" x1="37.056" y1="48.399" x2="37.307" y2="46.542"/>
<line fill="none" stroke="#231F20" stroke-width="0.2" stroke-miterlimit="10" x1="38.82" y1="45.186" x2="36.77" y2="42.728"/>
<line fill="none" stroke="#231F20" stroke-width="0.2" stroke-miterlimit="10" x1="37.139" y1="41.707" x2="39.859" y2="44.147"/>
<line fill="none" stroke="#231F20" stroke-width="0.2" stroke-miterlimit="10" x1="40.267" y1="43.958" x2="41.719" y2="41.947"/>
<line fill="none" stroke="#231F20" stroke-width="0.2" stroke-miterlimit="10" x1="41.2" y1="42.665" x2="38.684" y2="40.753"/>
<line fill="none" stroke="#231F20" stroke-width="0.2" stroke-miterlimit="10" x1="39.079" y1="41.707" x2="39.079" y2="43.447"/>
<line fill="none" stroke="#231F20" stroke-width="0.2" stroke-miterlimit="10" x1="37.867" y1="41.707" x2="37.307" y2="40.026"/>
<line fill="none" stroke="#231F20" stroke-width="0.2" stroke-miterlimit="10" x1="37.681" y1="40.026" x2="39.714" y2="39.307"/>
<line fill="none" stroke="#231F20" stroke-width="0.2" stroke-miterlimit="10" x1="39.714" y1="40.026" x2="40.267" y2="42.577"/>
<line fill="none" stroke="#231F20" stroke-width="0.2" stroke-miterlimit="10" x1="41.089" y1="40.46" x2="40.015" y2="39.667"/>
<line fill="none" stroke="#231F20" stroke-width="0.2" stroke-miterlimit="10" x1="39.079" y1="38.923" x2="38.302" y2="38.044"/>
<line fill="none" stroke="#231F20" stroke-width="0.2" stroke-miterlimit="10" x1="38.302" y1="38.483" x2="39.469" y2="38.044"/>
<line fill="none" stroke="#231F20" stroke-width="0.2" stroke-miterlimit="10" x1="40.015" y1="38.483" x2="40.552" y2="36.873"/>
<line fill="none" stroke="#231F20" stroke-width="0.2" stroke-miterlimit="10" x1="39.859" y1="37.238" x2="38.885" y2="36.433"/>
<line fill="none" stroke="#231F20" stroke-width="0.2" stroke-miterlimit="10" x1="39.079" y1="33.21" x2="39.322" y2="35.408"/>
<line fill="none" stroke="#231F20" stroke-width="0.2" stroke-miterlimit="10" x1="38.493" y1="35.408" x2="40.267" y2="34.646"/>
<line fill="none" stroke="#231F20" stroke-width="0.2" stroke-miterlimit="10" x1="39.942" y1="35.847" x2="38.302" y2="36.873"/>
<line fill="none" stroke="#231F20" stroke-width="0.2" stroke-miterlimit="10" x1="39.859" y1="37.238" x2="40.015" y2="35.027"/>
<line fill="none" stroke="#231F20" stroke-width="0.2" stroke-miterlimit="10" x1="50.331" y1="58.964" x2="51.156" y2="60.792"/>
<line fill="none" stroke="#231F20" stroke-width="0.2" stroke-miterlimit="10" x1="54.072" y1="40.151" x2="54.824" y2="40.281"/>
<line fill="none" stroke="#231F20" stroke-width="0.2" stroke-miterlimit="10" x1="57.95" y1="60.544" x2="58.639" y2="59.464"/>
<line fill="none" stroke="#231F20" stroke-width="0.2" stroke-miterlimit="10" x1="58.295" y1="60.004" x2="57.95" y2="59.464"/>
<line fill="none" stroke="#231F20" stroke-width="0.2" stroke-miterlimit="10" x1="57.95" y1="59.464" x2="58.295" y2="57.735"/>
<line fill="none" stroke="#231F20" stroke-width="0.2" stroke-miterlimit="10" x1="57.95" y1="58.599" x2="57.155" y2="57.471"/>
<line fill="none" stroke="#231F20" stroke-width="0.2" stroke-miterlimit="10" x1="57.341" y1="57.735" x2="57.155" y2="59.464"/>
<line fill="none" stroke="#231F20" stroke-width="0.2" stroke-miterlimit="10" x1="57.95" y1="60.544" x2="57.155" y2="59.464"/>
<line fill="none" stroke="#231F20" stroke-width="0.2" stroke-miterlimit="10" x1="57.248" y1="59.878" x2="56.891" y2="60.544"/>
<line fill="none" stroke="#231F20" stroke-width="0.2" stroke-miterlimit="10" x1="57.155" y1="58.599" x2="56.202" y2="58.035"/>
<line fill="none" stroke="#231F20" stroke-width="0.2" stroke-miterlimit="10" x1="56.202" y1="58.035" x2="57.553" y2="54.663"/>
<line fill="none" stroke="#231F20" stroke-width="0.2" stroke-miterlimit="10" x1="56.679" y1="56.845" x2="58.123" y2="56.871"/>
<line fill="none" stroke="#231F20" stroke-width="0.2" stroke-miterlimit="10" x1="57.155" y1="55.656" x2="54.436" y2="52.49"/>
<line fill="none" stroke="#231F20" stroke-width="0.2" stroke-miterlimit="10" x1="54.436" y1="52.49" x2="56.83" y2="50.372"/>
<line fill="none" stroke="#231F20" stroke-width="0.2" stroke-miterlimit="10" x1="55.633" y1="53.883" x2="57.069" y2="53.073"/>
<line fill="none" stroke="#231F20" stroke-width="0.2" stroke-miterlimit="10" x1="56.679" y1="53.073" x2="56.202" y2="50.927"/>
<line fill="none" stroke="#231F20" stroke-width="0.2" stroke-miterlimit="10" x1="54.937" y1="53.073" x2="55.795" y2="52"/>
<line fill="none" stroke="#231F20" stroke-width="0.2" stroke-miterlimit="10" x1="55.795" y1="52" x2="55.633" y2="51.431"/>
<line fill="none" stroke="#231F20" stroke-width="0.2" stroke-miterlimit="10" x1="56.679" y1="53.073" x2="57.155" y2="52.005"/>
<line fill="none" stroke="#231F20" stroke-width="0.2" stroke-miterlimit="10" x1="56.679" y1="55.101" x2="55.365" y2="55.935"/>
<line fill="none" stroke="#231F20" stroke-width="0.2" stroke-miterlimit="10" x1="55.365" y1="55.935" x2="55.365" y2="54.073"/>
<line fill="none" stroke="#231F20" stroke-width="0.2" stroke-miterlimit="10" x1="55.365" y1="54.663" x2="54.072" y2="54.663"/>
<line fill="none" stroke="#231F20" stroke-width="0.2" stroke-miterlimit="10" x1="54.072" y1="54.663" x2="54.448" y2="53.883"/>
<line fill="none" stroke="#231F20" stroke-width="0.2" stroke-miterlimit="10" x1="54.448" y1="53.883" x2="53.499" y2="53.883"/>
<line fill="none" stroke="#231F20" stroke-width="0.2" stroke-miterlimit="10" x1="53.499" y1="53.883" x2="53.499" y2="53.073"/>
<line fill="none" stroke="#231F20" stroke-width="0.2" stroke-miterlimit="10" x1="53.499" y1="53.073" x2="51.422" y2="53.478"/>
<line fill="none" stroke="#231F20" stroke-width="0.2" stroke-miterlimit="10" x1="50.744" y1="59.734" x2="51.422" y2="58.964"/>
<line fill="none" stroke="#231F20" stroke-width="0.2" stroke-miterlimit="10" x1="51.422" y1="58.964" x2="51.083" y2="58.035"/>
<line fill="none" stroke="#231F20" stroke-width="0.2" stroke-miterlimit="10" x1="51.083" y1="58.035" x2="51.645" y2="57.471"/>
<line fill="none" stroke="#231F20" stroke-width="0.2" stroke-miterlimit="10" x1="51.645" y1="57.471" x2="51.363" y2="55.935"/>
<line fill="none" stroke="#231F20" stroke-width="0.2" stroke-miterlimit="10" x1="51.363" y1="55.935" x2="52.916" y2="55.003"/>
<line fill="none" stroke="#231F20" stroke-width="0.2" stroke-miterlimit="10" x1="52.916" y1="55.003" x2="52.461" y2="53.073"/>
<line fill="none" stroke="#231F20" stroke-width="0.2" stroke-miterlimit="10" x1="51.156" y1="54.816" x2="54.436" y2="55.003"/>
<line fill="none" stroke="#231F20" stroke-width="0.2" stroke-miterlimit="10" x1="54.448" y1="57.471" x2="52.461" y2="58.964"/>
<line fill="none" stroke="#231F20" stroke-width="0.2" stroke-miterlimit="10" x1="53.974" y1="59.734" x2="55.365" y2="58.599"/>
<line fill="none" stroke="#231F20" stroke-width="0.2" stroke-miterlimit="10" x1="55.365" y1="58.035" x2="54.448" y2="55.935"/>
<line fill="none" stroke="#231F20" stroke-width="0.2" stroke-miterlimit="10" x1="52.461" y1="56.871" x2="54.072" y2="55.517"/>
<line fill="none" stroke="#231F20" stroke-width="0.2" stroke-miterlimit="10" x1="53.267" y1="55.935" x2="52.688" y2="55.469"/>
<line fill="none" stroke="#231F20" stroke-width="0.2" stroke-miterlimit="10" x1="52.796" y1="56.589" x2="52.916" y2="57.471"/>
<line fill="none" stroke="#231F20" stroke-width="0.2" stroke-miterlimit="10" x1="52.916" y1="57.471" x2="51.422" y2="58.5"/>
<line fill="none" stroke="#231F20" stroke-width="0.2" stroke-miterlimit="10" x1="51.645" y1="58.5" x2="52.461" y2="60.004"/>
<line fill="none" stroke="#231F20" stroke-width="0.2" stroke-miterlimit="10" x1="52.461" y1="60.004" x2="51.156" y2="60.792"/>
<line fill="none" stroke="#231F20" stroke-width="0.2" stroke-miterlimit="10" x1="52.461" y1="60.004" x2="53.322" y2="58.317"/>
<line fill="none" stroke="#231F20" stroke-width="0.2" stroke-miterlimit="10" x1="53.322" y1="58.317" x2="54.072" y2="59.464"/>
<line fill="none" stroke="#231F20" stroke-width="0.2" stroke-miterlimit="10" x1="53.974" y1="59.734" x2="53.697" y2="60.792"/>
<line fill="none" stroke="#231F20" stroke-width="0.2" stroke-miterlimit="10" x1="55.365" y1="59.878" x2="56.679" y2="59.349"/>
<line fill="none" stroke="#231F20" stroke-width="0.2" stroke-miterlimit="10" x1="55.795" y1="59.464" x2="55.714" y2="58.218"/>
<line fill="none" stroke="#231F20" stroke-width="0.2" stroke-miterlimit="10" x1="55.119" y1="57.471" x2="56.021" y2="57.031"/>
<line fill="none" stroke="#231F20" stroke-width="0.2" stroke-miterlimit="10" x1="55.795" y1="56.703" x2="55.57" y2="55.469"/>
<line fill="none" stroke="#231F20" stroke-width="0.2" stroke-miterlimit="10" x1="53.499" y1="53.073" x2="53.267" y2="52"/>
<line fill="none" stroke="#231F20" stroke-width="0.2" stroke-miterlimit="10" x1="53.267" y1="52.539" x2="52.053" y2="52.49"/>
<line fill="none" stroke="#231F20" stroke-width="0.2" stroke-miterlimit="10" x1="53.697" y1="51.715" x2="55.365" y2="49.947"/>
<line fill="none" stroke="#231F20" stroke-width="0.2" stroke-miterlimit="10" x1="55.119" y1="50.831" x2="56.679" y2="49.947"/>
<line fill="none" stroke="#231F20" stroke-width="0.2" stroke-miterlimit="10" x1="55.898" y1="50.372" x2="56.44" y2="48.41"/>
<line fill="none" stroke="#231F20" stroke-width="0.2" stroke-miterlimit="10" x1="55.898" y1="49.293" x2="54.448" y2="48.41"/>
<line fill="none" stroke="#231F20" stroke-width="0.2" stroke-miterlimit="10" x1="54.824" y1="48.638" x2="54.26" y2="51.119"/>
<line fill="none" stroke="#231F20" stroke-width="0.2" stroke-miterlimit="10" x1="54.26" y1="50.372" x2="52.235" y2="49.39"/>
<line fill="none" stroke="#231F20" stroke-width="0.2" stroke-miterlimit="10" x1="52.169" y1="50.831" x2="53.697" y2="50.099"/>
<line fill="none" stroke="#231F20" stroke-width="0.2" stroke-miterlimit="10" x1="52.796" y1="51.715" x2="52.978" y2="50.372"/>
<line fill="none" stroke="#231F20" stroke-width="0.2" stroke-miterlimit="10" x1="54.072" y1="49.39" x2="52.589" y2="47.613"/>
<line fill="none" stroke="#231F20" stroke-width="0.2" stroke-miterlimit="10" x1="52.855" y1="46.873" x2="54.824" y2="48.638"/>
<line fill="none" stroke="#231F20" stroke-width="0.2" stroke-miterlimit="10" x1="55.119" y1="48.501" x2="56.17" y2="47.046"/>
<line fill="none" stroke="#231F20" stroke-width="0.2" stroke-miterlimit="10" x1="55.795" y1="47.566" x2="53.974" y2="46.183"/>
<line fill="none" stroke="#231F20" stroke-width="0.2" stroke-miterlimit="10" x1="54.26" y1="46.873" x2="54.26" y2="48.132"/>
<line fill="none" stroke="#231F20" stroke-width="0.2" stroke-miterlimit="10" x1="53.383" y1="46.873" x2="52.978" y2="45.658"/>
<line fill="none" stroke="#231F20" stroke-width="0.2" stroke-miterlimit="10" x1="53.248" y1="45.658" x2="54.719" y2="45.136"/>
<line fill="none" stroke="#231F20" stroke-width="0.2" stroke-miterlimit="10" x1="54.719" y1="45.658" x2="55.119" y2="47.502"/>
<line fill="none" stroke="#231F20" stroke-width="0.2" stroke-miterlimit="10" x1="55.714" y1="45.972" x2="54.937" y2="45.397"/>
<line fill="none" stroke="#231F20" stroke-width="0.2" stroke-miterlimit="10" x1="54.26" y1="44.859" x2="53.697" y2="44.222"/>
<line fill="none" stroke="#231F20" stroke-width="0.2" stroke-miterlimit="10" x1="53.697" y1="44.541" x2="54.542" y2="44.222"/>
<line fill="none" stroke="#231F20" stroke-width="0.2" stroke-miterlimit="10" x1="54.937" y1="44.541" x2="55.325" y2="43.375"/>
<line fill="none" stroke="#231F20" stroke-width="0.2" stroke-miterlimit="10" x1="54.824" y1="43.64" x2="54.119" y2="43.057"/>
<line fill="none" stroke="#231F20" stroke-width="0.2" stroke-miterlimit="10" x1="54.26" y1="40.725" x2="54.436" y2="42.315"/>
<line fill="none" stroke="#231F20" stroke-width="0.2" stroke-miterlimit="10" x1="53.836" y1="42.315" x2="55.119" y2="41.763"/>
<line fill="none" stroke="#231F20" stroke-width="0.2" stroke-miterlimit="10" x1="54.885" y1="42.632" x2="53.697" y2="43.375"/>
<line fill="none" stroke="#231F20" stroke-width="0.2" stroke-miterlimit="10" x1="54.824" y1="43.64" x2="54.937" y2="42.04"/>
</svg>
