<?xml version="1.0" encoding="utf-8"?>
<!-- Generator: Adobe Illustrator 15.0.0, SVG Export Plug-In  -->
<!DOCTYPE svg PUBLIC "-//W3C//DTD SVG 1.1//EN" "http://www.w3.org/Graphics/SVG/1.1/DTD/svg11.dtd" [
	<!ENTITY ns_flows "http://ns.adobe.com/Flows/1.0/">
]>
<svg version="1.1"
	 xmlns="http://www.w3.org/2000/svg" xmlns:xlink="http://www.w3.org/1999/xlink" xmlns:a="http://ns.adobe.com/AdobeSVGViewerExtensions/3.0/"
	 x="0px" y="0px" width="80px" height="80px" viewBox="-0.901 -0.916 80 80"
	 overflow="visible" enable-background="new -0.901 -0.916 80 80" xml:space="preserve">
<defs>
</defs>
<circle id="circle_1_" fill="#EE4456" cx="39.087" cy="39.087" r="39.087"/>
<rect x="13.879" y="58.043" fill="#EFEEEE" stroke="#231F20" stroke-width="0.5" stroke-miterlimit="10" width="50.395" height="5.542"/>
<polygon fill="#EFEEEE" stroke="#231F20" stroke-width="0.5" stroke-miterlimit="10" points="61.243,58.043 16.909,58.043 
	16.909,52.848 22.799,52.848 61.243,52.848 "/>
<path fill="#EFEEEE" stroke="#231F20" stroke-width="0.5" stroke-miterlimit="10" d="M22.884,52.848V23.321
	c0,0,4.07-12.209,15.76-12.642s16.712,11.776,16.712,11.776v30.393H22.884z"/>
<polygon id="cross_1_" fill="#EE4456" stroke="#231F20" stroke-width="0.5" stroke-miterlimit="10" points="41.067,26.179 
	46.003,26.179 46.003,21.417 41.067,21.417 41.067,17.347 37.258,17.347 37.258,21.33 32.235,21.33 32.235,26.179 36.998,26.179 
	36.998,39.087 40.981,39.087 "/>
</svg>
